<svg id="Layer_1" data-name="Layer 1" xmlns="http://www.w3.org/2000/svg" viewBox="0 0 25 25"><circle cx="12.45" cy="6.7" r="0.92" fill="#fff"/><path d="M10.88,9.34c-.42.48-1.26-.27-1.65-.46C8.47,8.51,7,8.54,6.48,8c-.74-.91,1.07-3.43,2.7-3.19.71.1,1,1.64,1.26,2.83C10.55,8.07,11.27,8.91,10.88,9.34Z" fill="none" stroke="#000" stroke-linejoin="round" stroke-width="0.38"/><path d="M14.05,9.36c-.47-.42.28-1.27.47-1.65.37-.77.33-2.27.91-2.75.9-.74,3.43,1.07,3.19,2.69-.11.72-1.65,1-2.83,1.27C15.33,9,14.48,9.74,14.05,9.36Z" fill="none" stroke="#000" stroke-linejoin="round" stroke-width="0.38"/></svg>