<svg id="Layer_1" data-name="Layer 1" xmlns="http://www.w3.org/2000/svg" viewBox="0 0 200 200"><path d="M126.43,54.52c3.24,5.08,2.64,12.2-2.53,17.63-1.1,1.16-5.53-3.38-4.47-4.57,3.8-4.23,2.57-8.13,1-10.16s-6.31-3-8.72-1.51c-1.41.86-2.46-5.87-1-6.55C116.44,46.84,124.21,51.05,126.43,54.52Z" fill="#fff"/><path d="M73.83,119.55c.48,5.14,4.32,9.37,8.89,9.37h34.49a9.56,9.56,0,0,0,8.82-8.33c.73-9.71,1.43-19,2.37-31.3.46-6-.64-13.87-7-20-3-2.86-7-5.19-8.51-9.19a26.47,26.47,0,0,1-1.14-4.2H88.14s.24-.27-1,4.2c-1.13,4-6.94,7.51-8.08,8.66C75,72.87,71,78,71.57,89.1,72.21,100.77,72.93,110,73.83,119.55Z"/><path d="M82.13,113.14c.33,3.5,3,6.39,6.07,6.39h23.55a6.53,6.53,0,0,0,6-5.68c.49-6.63,1-13,1.61-21.37.72-9.41-8-18.37-20-18.37-10.32,0-19.25,9-18.75,18.23C81,100.31,81.51,106.59,82.13,113.14Z" fill="#fff"/><polygon points="88.14 55.91 111.73 55.91 110.08 44.57 89.95 44.57 88.14 55.91" fill="#fff"/><path d="M90,44.57c-1.46,0-2.15-.22-2.15-2.37V33.39c0-1.44,1.93-4.19,4.37-4.19h15.59c1.87,0,4.44,1.61,4.44,4.07v9.3c0,1.55-.14,2-2.12,2Z"/></svg>