<svg id="Layer_1" data-name="Layer 1" xmlns="http://www.w3.org/2000/svg" viewBox="0 0 25 25"><path d="M10.76,7.31c0,1.55.48,2.54,1.75,2.54s1.77-1,1.77-2.54Z" fill="#fcb116" opacity="0.65"/><path d="M9.56,7.31a.38.38,0,0,1,0-.76h5.88c.55,0,.44.76,0,.76Z" fill="#fcb116" opacity="0.9"/><rect x="10.54" y="5.73" width="3.93" height="0.82" fill="#fcb116" opacity="0.7"/><path d="M10.54,5.73c0-.44,0-1.11.81-1.2a.39.39,0,0,0,.38-.42c0-.34.32-.37.47-.37h.65a.38.38,0,0,1,.42.36.46.46,0,0,0,.44.44c.68,0,.76.46.76,1.19Z" fill="#fcb116" opacity="0.9"/><polygon points="13.94 10.65 14.68 10.89 10.62 15.45 9.62 15.45 13.94 10.65" fill="#fcb116" opacity="0.5"/><path d="M8.44,11.33l.23.44a.1.1,0,0,0,.13.05L10,11.28a.1.1,0,0,0,0-.14l-.22-.41a.1.1,0,0,0-.12,0l-1.18.5A.09.09,0,0,0,8.44,11.33Z" fill="#fcb116"/><path d="M15.21,10.71l-.19.46a.1.1,0,0,0,.05.13l1.16.55a.11.11,0,0,0,.14,0l.17-.43a.1.1,0,0,0-.05-.13l-1.14-.58A.1.1,0,0,0,15.21,10.71Z" fill="#fcb116"/><path d="M12.51,9.85h0v1l.74-.43V9.7h0A1.76,1.76,0,0,1,12.51,9.85Z" fill="#fcb116" opacity="0.8"/><path d="M11.81,9.71h-.05v.73l.74.43v-1h0A2,2,0,0,1,11.81,9.71Z" fill="#fcb116" opacity="0.9"/><g opacity="0.5"><polygon points="12.11 13.78 12.11 15.45 12.9 15.45 12.9 12.89 12.11 13.78" fill="#fcb116" opacity="0.9"/><polygon points="12.9 11.81 12.9 10.63 12.5 10.86 12.11 10.63 12.11 12.69 12.9 11.81" fill="#fcb116" opacity="0.9"/></g><path d="M14.58,10.86l.1,0h0Z" fill="#fcb116" opacity="0.75"/><path d="M14.58,10.86,14,10.65Z" fill="#fcb116" opacity="0.75"/><path d="M15.81,11.28l-1.13-.39-4.06,4.56h1.49V13.78l.79-.88v2.55h3.72c.11,0,.13,0,.13-.16V12.56A1.38,1.38,0,0,0,15.81,11.28Z" fill="#fcb116" opacity="0.75"/><path d="M13.24,10.43h0l-.34.2v1.18l-.79.88V10.63l.39.23-.74-.43h0s-1.77.6-2.57.91a1.24,1.24,0,0,0-.94,1.22v2.65c0,.15,0,.24.12.24H9.62l4.32-4.8Z" fill="#fcb116" opacity="0.75"/></svg>