<?xml version="1.0" encoding="UTF-8"?><svg id="Layer_1" xmlns="http://www.w3.org/2000/svg" viewBox="0 0 200 200"><polygon points="70 131.98 70 175 100 188.52 130 175 130 131.98 70 131.98" fill="#fff" stroke="#ec2426" stroke-miterlimit="10"/><polygon points="70 131.98 70 175 100 188.52 130 175 130 131.98 70 131.98" fill="#ed2024" opacity=".7"/><polygon points="83.82 126.67 83.82 181.25 100 198.4 116.18 181.25 116.18 126.67 83.82 126.67" fill="#fff"/><polygon points="83.82 126.67 83.82 181.25 100 198.4 116.18 181.25 116.18 126.67 83.82 126.67" fill="#ed2024"/><polygon points="100 4.46 107.23 8.98 115.24 6.06 121.37 11.99 129.81 10.8 134.58 17.87 143.08 18.46 146.28 26.37 154.47 28.71 155.95 37.11 163.48 41.11 163.18 49.63 169.71 55.11 167.65 63.38 172.9 70.1 169.16 77.76 172.9 85.42 167.65 92.14 169.71 100.41 163.18 105.89 163.48 114.41 155.95 118.41 154.47 126.81 146.28 129.15 143.08 137.06 134.58 137.65 129.81 144.72 121.37 143.53 115.24 149.46 107.23 146.54 100 151.06 92.77 146.54 84.76 149.46 78.63 143.53 70.19 144.72 65.42 137.65 56.92 137.06 53.72 129.15 45.53 126.81 44.05 118.41 36.52 114.41 36.82 105.89 30.29 100.41 32.35 92.14 27.1 85.42 30.84 77.76 27.1 70.1 32.35 63.38 30.29 55.11 36.82 49.63 36.52 41.11 44.05 37.11 45.53 28.71 53.72 26.37 56.92 18.46 65.42 17.87 70.19 10.8 78.63 11.99 84.76 6.06 92.77 8.98 100 4.46"/><polygon points="100 4.46 107.23 8.98 115.24 6.06 121.37 11.99 129.81 10.8 134.58 17.87 143.08 18.46 146.28 26.37 154.47 28.71 155.95 37.11 163.48 41.11 163.18 49.63 169.71 55.11 167.65 63.38 172.9 70.1 169.16 77.76 172.9 85.42 167.65 92.14 169.71 100.41 163.18 105.89 163.48 114.41 155.95 118.41 154.47 126.81 146.28 129.15 143.08 137.06 134.58 137.65 129.81 144.72 121.37 143.53 115.24 149.46 107.23 146.54 100 151.06 92.77 146.54 84.76 149.46 78.63 143.53 70.19 144.72 65.42 137.65 56.92 137.06 53.72 129.15 45.53 126.81 44.05 118.41 36.52 114.41 36.82 105.89 30.29 100.41 32.35 92.14 27.1 85.42 30.84 77.76 27.1 70.1 32.35 63.38 30.29 55.11 36.82 49.63 36.52 41.11 44.05 37.11 45.53 28.71 53.72 26.37 56.92 18.46 65.42 17.87 70.19 10.8 78.63 11.99 84.76 6.06 92.77 8.98 100 4.46" fill="#fff" stroke="#ec2426" stroke-miterlimit="10" stroke-width="2"/><circle cx="100" cy="77.76" r="61.96" fill="#ed2024"/><circle cx="100" cy="77.76" r="46.47" fill="#fff"/><circle cx="100" cy="77.76" r="46.47" fill="#fff"/><polygon points="70 131.98 70 175 100 188.52 130 175 130 131.98 70 131.98" fill="none"/><path d="M98.01,111.21l.76-14.51c.03-.57-.42-1.05-.99-1.08-.02,0-.03,0-.05,0-.06,0-.12,0-.18,.02l-14.77,2.6,2.17-6c.08-.22,.02-.47-.17-.62l-15.87-12.85,4.16-1.94c.25-.12,.37-.4,.29-.67l-3.28-10.1,9.63,2.04s.07,.01,.11,.01c.22,0,.42-.13,.51-.33l2-4.71,7.38,7.92c.1,.11,.24,.17,.4,.17,.14,0,.28-.05,.38-.15,.14-.13,.2-.32,.16-.5l-3.51-18.13,6.25,3.61c.09,.05,.18,.08,.28,.08,.19,0,.38-.1,.48-.27,0-.01,.01-.02,.01-.02l5.83-11.45,5.83,11.44c.1,.19,.29,.31,.5,.31,.09,0,.17-.02,.25-.06,.02,0,.02-.01,.03-.01l6.26-3.62-3.51,18.13c-.06,.3,.14,.59,.44,.64,.03,0,.07,.01,.1,.01,.15,0,.3-.06,.4-.17l7.38-7.92,2,4.71c.09,.2,.29,.33,.51,.33,.04,0,.08,0,.11-.01l9.63-2.04-3.28,10.09c-.09,.26,.04,.55,.29,.67l4.16,1.94-15.87,12.85c-.18,.15-.25,.4-.17,.62l2.18,6-14.77-2.59c-.06-.01-.12-.02-.18-.02-.51,0-.93,.36-1.02,.86-.01,.07-.02,.15-.01,.22l.76,14.51h-3.98Z" fill="#ed2224"/></svg>