<?xml version="1.0" encoding="utf-8"?>
<!-- Generator: Adobe Illustrator 26.0.3, SVG Export Plug-In . SVG Version: 6.00 Build 0)  -->
<svg version="1.1" id="Layer_1" xmlns="http://www.w3.org/2000/svg" xmlns:xlink="http://www.w3.org/1999/xlink" x="0px" y="0px"
	 viewBox="0 0 25 25" enable-background="new 0 0 25 25" xml:space="preserve">
<path opacity="0.6" fill="#FCB116" enable-background="new    " d="M12.5,3.6l1,2c0,0.1,0.1,0.1,0.2,0.1c0,0,0.1,0,0.1,0l0,0l1-0.6
	l-0.6,3.3c0,0.1,0.1,0.2,0.2,0.2l0,0c0.1,0,0.1,0,0.1-0.1l1.3-1.4l0.3,0.8c0,0.1,0.1,0.1,0.2,0.1h0L18,7.7l-0.6,1.8
	c0,0.1,0,0.2,0.1,0.2l0.7,0.3l-2.9,2.4c-0.1,0.1-0.1,0.1-0.1,0.2l0.4,1L13,13.1h-0.1c-0.1,0-0.3,0.1-0.3,0.2v0.1l0.1,2.7h-0.6
	l0.1-2.7c0-0.2-0.1-0.3-0.3-0.3c0,0,0,0,0,0H12l-2.7,0.5l0.4-1c0-0.1,0-0.2-0.1-0.2L6.7,10l0.7-0.3c0.1,0,0.1-0.1,0.1-0.2L6.9,7.7
	l1.7,0.4l0,0c0.1,0,0.2-0.1,0.2-0.1l0.3-0.8l1.3,1.4c0,0,0.1,0.1,0.1,0.1c0.1,0,0.1,0,0.1-0.1c0.1,0,0.1-0.1,0.1-0.2l-0.6-3.3l1,0.6
	h0.1c0.1,0,0.1,0,0.2-0.1l0,0L12.5,3.6 M12.4,3.2l-0.2,0.3l-1,2l0,0l-1-0.6L9.9,4.8L10,5.2l0.6,3.3l0,0L9.3,7.1L9.1,6.8L9,7.1
	L8.7,7.9l0,0L7,7.5L6.7,7.4l0.1,0.3l0.6,1.8l0,0L6.7,9.9L6.4,10l0.2,0.2l2.9,2.4l0,0l-0.4,1l-0.1,0.3h0.3l2.6-0.5l0,0
	c0.1,0,0.1,0,0.1,0.1v0L12,16.1v0.2h1v-0.2l-0.1-2.7l0,0c0,0,0.1-0.1,0.1-0.1l0,0l2.7,0.5h0.3l-0.1-0.3l-0.4-1l0,0l2.9-2.4l0.2-0.2
	l-0.3-0.1l-0.6-0.3l0,0l0.6-1.8l0.1-0.3L18,7.5l-1.7,0.3l0,0L16,7.1l-0.1-0.3L15.7,7l-1.3,1.4l0,0l0,0L15,5.2l0.1-0.4L14.7,5l-1,0.6
	l0,0l-1-2l-0.2-0.3L12.4,3.2z"/>
<path fill="#FCB116" d="M17.4,9.5L18,7.7l-1.7,0.3c-0.1,0-0.2-0.1-0.2-0.1l-0.3-0.8l-1.3,1.4c0,0-0.1,0.1-0.1,0.1
	c-0.1,0-0.2-0.1-0.2-0.2l0.6-3.3c0,0-1,0.6-1,0.6c-0.1,0-0.2,0-0.2-0.1l-1.1-2.1l-1.1,2.1c0,0.1-0.2,0.1-0.3,0.1l-1-0.6l0.6,3.3
	c0,0.1,0,0.1-0.1,0.2c0,0-0.1,0.1-0.2,0.1c-0.1,0-0.1-0.1-0.2-0.1L9.1,7.2L8.8,7.9c0,0.1-0.1,0.1-0.2,0.1L6.9,7.7l0.6,1.8
	c0,0.1,0,0.2-0.1,0.2L6.7,10l2.9,2.4c0.1,0.1,0.1,0.1,0.1,0.2l-0.4,1l2.7-0.5h0.1c0.2,0,0.3,0.1,0.3,0.3c0,0-0.1,2.7-0.1,2.7h0.6
	l-0.1-2.7c0-0.1,0.2-0.3,0.3-0.3l2.6,0.5l-0.4-1c0-0.1,0-0.2,0.1-0.2l2.9-2.4l-0.7-0.3C17.4,9.7,17.4,9.6,17.4,9.5z"/>
</svg>
