<svg id="Layer_1" data-name="Layer 1" xmlns="http://www.w3.org/2000/svg" viewBox="0 0 25 25"><path d="M14.23,10.69a2.1,2.1,0,0,0-1.73.92V14a2.1,2.1,0,1,0,1.73-3.29Zm-.4,2.1a.2.2,0,1,1,0-.39.19.19,0,0,1,.19.2A.19.19,0,0,1,13.83,12.79Zm.55-1.08a.2.2,0,0,1,.2-.19.19.19,0,0,1,.19.19.19.19,0,0,1-.19.2A.2.2,0,0,1,14.38,11.71Zm.45,1.95a.2.2,0,1,1,0-.39.19.19,0,0,1,.19.2A.19.19,0,0,1,14.83,13.66Zm.75-1a.2.2,0,1,1,0-.39.19.19,0,0,1,.19.19A.19.19,0,0,1,15.58,12.66Z" fill="#fcb116" opacity="0.9"/><g opacity="0.75"><path d="M12.51,4.18a6.42,6.42,0,1,0,6.42,6.41A6.42,6.42,0,0,0,12.51,4.18ZM14.41,8a.84.84,0,0,1,.85.84.85.85,0,1,1-1.69,0A.84.84,0,0,1,14.41,8Zm-4,0a.84.84,0,0,1,.85.84.85.85,0,1,1-1.69,0A.84.84,0,0,1,10.45,8Zm4.61,6.74a2.61,2.61,0,0,1-1.32.93,1.73,1.73,0,0,1-.17.67,5.61,5.61,0,0,1-2.16,0,1.94,1.94,0,0,1-.17-.67,2.7,2.7,0,0,1-1.31-.93,2.1,2.1,0,1,1,2.57-3.11,2.1,2.1,0,1,1,2.56,3.11Z" fill="#fcb116"/></g><circle cx="10.45" cy="8.82" r="0.84" fill="#fff"/><circle cx="10.45" cy="8.82" r="0.84" fill="#fcb116" opacity="0.3"/><circle cx="14.41" cy="8.82" r="0.84" fill="#fff"/><circle cx="14.41" cy="8.82" r="0.84" fill="#fcb116" opacity="0.3"/><circle cx="14.41" cy="8.84" r="0.49" fill="#fff"/><circle cx="14.41" cy="8.84" r="0.49" fill="#fcb116"/><circle cx="10.45" cy="8.84" r="0.49" fill="#fff"/><circle cx="10.45" cy="8.84" r="0.49" fill="#fcb116"/><path d="M10.77,14.9a2.14,2.14,0,0,1-.84-.18,2.7,2.7,0,0,0,1.31.93c0-.24-.07-.52-.1-.8A2.2,2.2,0,0,1,10.77,14.9Z" fill="#fcb116" opacity="0.6"/><path d="M14.23,14.9a2.57,2.57,0,0,1-.4-.05c0,.28-.05.56-.09.8a2.61,2.61,0,0,0,1.32-.93A2.13,2.13,0,0,1,14.23,14.9Z" fill="#fcb116" opacity="0.6"/><path d="M10.77,10.69A2.11,2.11,0,1,0,12.5,14V11.61A2.1,2.1,0,0,0,10.77,10.69Zm-1.31,2a.2.2,0,0,1-.19-.2.19.19,0,0,1,.19-.19.19.19,0,0,1,.2.19A.2.2,0,0,1,9.46,12.67Zm.75,1a.2.2,0,0,1-.19-.2.2.2,0,0,1,.19-.19.2.2,0,1,1,0,.39Zm.25-1.75a.2.2,0,0,1-.19-.2.19.19,0,0,1,.19-.19.19.19,0,0,1,.2.19A.2.2,0,0,1,10.46,11.92Zm.76.88a.2.2,0,1,1,0-.39.2.2,0,0,1,.19.19A.2.2,0,0,1,11.22,12.8Z" fill="#fcb116" opacity="0.9"/><path d="M12.49,12c-.56,0-1.81-.86-1.75-1.42S12,10,12.49,10s1.7.18,1.75.64S13.06,12,12.49,12Z"/><path d="M12.49,12c-.56,0-1.81-.86-1.75-1.42S12,10,12.49,10s1.7.18,1.75.64S13.06,12,12.49,12Z" fill="#fcb116"/><line x1="12.5" y1="13.86" x2="12.5" y2="11.89" fill="#88341c" stroke="#fcb116" stroke-linecap="round" stroke-miterlimit="10" stroke-width="0.25"/><circle cx="13.83" cy="12.6" r="0.19" fill="#fcb116" opacity="0.55"/><circle cx="14.58" cy="11.71" r="0.19" fill="#fcb116" opacity="0.55"/><circle cx="14.83" cy="13.47" r="0.19" fill="#fcb116" opacity="0.55"/><circle cx="15.58" cy="12.46" r="0.19" fill="#fcb116" opacity="0.55"/><circle cx="11.22" cy="12.6" r="0.19" fill="#fcb116" opacity="0.55"/><circle cx="10.46" cy="11.72" r="0.19" fill="#fcb116" opacity="0.55"/><circle cx="10.21" cy="13.47" r="0.19" fill="#fcb116" opacity="0.55"/><circle cx="9.46" cy="12.47" r="0.19" fill="#fcb116" opacity="0.55"/><line x1="12.51" y1="16.43" x2="12.51" y2="14.8" fill="#88341c" stroke="#fcb116" stroke-miterlimit="10" stroke-width="0.06"/><path d="M17.89,7.11a1,1,0,0,0,.45-.81,1,1,0,0,0-1.73-.63A6.27,6.27,0,0,1,17.89,7.11Z" fill="#fcb116" opacity="0.65"/><path d="M7.12,7.12A6.47,6.47,0,0,1,8.39,5.68a1,1,0,0,0-1.74.62A1,1,0,0,0,7.12,7.12Z" fill="#fcb116" opacity="0.65"/><path d="M12.5,14a2.07,2.07,0,0,1-1.36.87,4.94,4.94,0,0,0,.27,1.47,5.61,5.61,0,0,0,2.16,0,4.55,4.55,0,0,0,.26-1.47A2.1,2.1,0,0,1,12.5,14Z" fill="#fcb116" opacity="0.25"/></svg>