<svg id="Layer_1" data-name="Layer 1" xmlns="http://www.w3.org/2000/svg" viewBox="0 0 25 25"><g opacity="0.8"><polygon points="7.59 17.64 8.01 16.5 10.27 16.5 7.59 17.64" fill="#fcb116"/><path d="M12.8,10.21a.44.44,0,0,0,.12-.15A.49.49,0,0,0,13,9.89a.33.33,0,0,0,0-.17.39.39,0,0,0-.12-.14.72.72,0,0,0-.34-.11.87.87,0,0,0-.36,0v.88l.35-.05A.79.79,0,0,0,12.8,10.21Z" fill="#fcb116"/><path d="M15.22,9.72a.31.31,0,0,0-.12-.14.68.68,0,0,0-.34-.11.83.83,0,0,0-.35,0v.88l.34-.05a.73.73,0,0,0,.31-.14.64.64,0,0,0,.13-.15.34.34,0,0,0,.05-.17A.33.33,0,0,0,15.22,9.72Z" fill="#fcb116"/><path d="M10,11.26a.48.48,0,0,0,.23,0,.58.58,0,0,0,.2-.13l.16-.18a1.51,1.51,0,0,0,.11-.22l.08-.23c0-.1,0-.2,0-.3a.8.8,0,0,0-.06-.3.51.51,0,0,0-.17-.19.55.55,0,0,0-.24-.12.57.57,0,0,0-.26,0,.43.43,0,0,0-.24.1.92.92,0,0,0-.24.28,1.16,1.16,0,0,0-.14.34,1.45,1.45,0,0,0,0,.3,1,1,0,0,0,.05.31.53.53,0,0,0,.13.2.59.59,0,0,0,.18.14A.86.86,0,0,0,10,11.26Z" fill="#fcb116"/><path d="M18.93,7.7H6a.74.74,0,0,0-.75.75v7.3A.74.74,0,0,0,6,16.5H18.93a.74.74,0,0,0,.75-.75V8.45A.74.74,0,0,0,18.93,7.7ZM8.67,11.24a.6.6,0,0,1-.14.21l-.13.1-.14.09a.81.81,0,0,1-.34.08,1.48,1.48,0,0,1-.35-.05,2.07,2.07,0,0,1-.34-.15A1.39,1.39,0,0,1,7,11.31l0,0a.32.32,0,0,1,0-.14A.21.21,0,0,1,7,11a.18.18,0,0,1,.1-.07.2.2,0,0,1,.15,0,.38.38,0,0,1,.13.09.4.4,0,0,0,.12.1.86.86,0,0,0,.21.07l.14,0H8l.11,0,.09-.06A.25.25,0,0,0,8.24,11a.33.33,0,0,0,0-.14.31.31,0,0,0-.06-.13.24.24,0,0,0-.12-.07,1.34,1.34,0,0,0-.27-.07l-.26-.06-.25-.1a.9.9,0,0,1-.21-.19A.49.49,0,0,1,7,10.15,1.3,1.3,0,0,1,7,10a.4.4,0,0,1,0-.31.63.63,0,0,1,.16-.23.71.71,0,0,1,.28-.21.9.9,0,0,1,.33-.09,1,1,0,0,1,.35,0,2.07,2.07,0,0,1,.33.1.23.23,0,0,1,.12.12.22.22,0,0,1,0,.16.28.28,0,0,1-.09.13.19.19,0,0,1-.15,0l-.18,0L8,9.65H7.86l-.14,0-.12,0-.08,0-.06.07a.17.17,0,0,0,0,.1.09.09,0,0,0,.05.1l.12.07.27.05.26.07.25.11a.69.69,0,0,1,.19.19.53.53,0,0,1,.13.23.54.54,0,0,1,0,.25A1,1,0,0,1,8.67,11.24Zm.67.23a.87.87,0,0,1-.19-.23A1.48,1.48,0,0,1,9,11c0-.1,0-.2,0-.3a1.76,1.76,0,0,1,0-.51,1.68,1.68,0,0,1,.2-.48,1.33,1.33,0,0,1,.34-.37A1,1,0,0,1,10,9.08a1.23,1.23,0,0,1,.27,0,1.27,1.27,0,0,1,.28.06.88.88,0,0,1,.2.09.52.52,0,0,1,.17.13.71.71,0,0,1,.19.23,1.07,1.07,0,0,1,.12.27,2.2,2.2,0,0,1,0,.36c0,.12,0,.24,0,.36a3.61,3.61,0,0,1-.16.42,2,2,0,0,1-.25.37,1.31,1.31,0,0,1-.35.27,1.05,1.05,0,0,1-.44.1l-.26,0a1,1,0,0,1-.18-.07A.69.69,0,0,1,9.34,11.47Zm1.15,2.1.28,0H11a.19.19,0,0,1,.13.07.31.31,0,0,1,.06.13.17.17,0,0,1,0,.14.18.18,0,0,1-.11.1.4.4,0,0,1-.18,0l-.23,0h-.45v.47a2.06,2.06,0,0,0,.43,0,3,3,0,0,0,.43-.07h0l.12,0,.08.08a.21.21,0,0,1,0,.11.25.25,0,0,1,0,.12l-.05.06-.07.05a2.28,2.28,0,0,1-.51.09,3,3,0,0,1-.52,0H10a.39.39,0,0,1-.15-.06.24.24,0,0,1-.12-.22V13.06L9.67,13a.19.19,0,0,1,0-.1.16.16,0,0,1,0-.1.18.18,0,0,1,.07-.08.38.38,0,0,1,.18-.09l.19,0a1.9,1.9,0,0,1,.41,0h.55a.32.32,0,0,1,.14,0,.27.27,0,0,1,.12.09.31.31,0,0,1,0,.12.19.19,0,0,1,0,.13.27.27,0,0,1-.11.1A.49.49,0,0,1,11,13h-.5l-.3,0v.53Zm1-4.09a.45.45,0,0,1,0-.11l.06-.1.12-.09.16-.07.17,0,.14,0a1.4,1.4,0,0,1,.5,0,1.2,1.2,0,0,1,.43.19.8.8,0,0,1,.28.35.77.77,0,0,1,0,.5.47.47,0,0,1-.06.15.71.71,0,0,1-.08.15,1.19,1.19,0,0,1-.15.18l-.2.14a1.07,1.07,0,0,1,.14.16l.15.16.09.08.12.13.1.12c0,.05,0,.08,0,.11a.2.2,0,0,1,0,.13.22.22,0,0,1-.09.1.2.2,0,0,1-.11,0,.19.19,0,0,1-.12,0,.8.8,0,0,1-.13-.13.75.75,0,0,1-.12-.14,3.33,3.33,0,0,1-.25-.28l-.25-.27-.16,0h-.16v.58a.25.25,0,0,1-.08.16.37.37,0,0,1-.15.08.26.26,0,0,1-.15,0,.15.15,0,0,1-.07-.14c0-.3,0-.6,0-.92V9.66a.22.22,0,0,1-.09-.07A.21.21,0,0,1,11.54,9.48ZM13.67,14a.28.28,0,0,1-.14.09v.67a.33.33,0,0,1,0,.17.4.4,0,0,1-.12.11.26.26,0,0,1-.15,0,.22.22,0,0,1-.14-.1.36.36,0,0,1,0-.09s0-.06,0-.09v-.67h-.9v.66a.25.25,0,0,1,0,.08.19.19,0,0,1,0,.08.29.29,0,0,1-.13.12.2.2,0,0,1-.15,0,.31.31,0,0,1-.13-.1.35.35,0,0,1,0-.18v-2a.27.27,0,0,1,.06-.17.33.33,0,0,1,.14-.1.29.29,0,0,1,.16,0,.19.19,0,0,1,.11.12.14.14,0,0,1,0,.06v.93H13v-.83a.33.33,0,0,1,0-.14.23.23,0,0,1,.12-.12.23.23,0,0,1,.16,0,.24.24,0,0,1,.13.07.23.23,0,0,1,0,.17v.89a.19.19,0,0,1,.14.1.24.24,0,0,1,.05.14A.27.27,0,0,1,13.67,14Zm1.18,1.05-.1.1a.28.28,0,0,1-.13,0,.26.26,0,0,1-.15,0,.26.26,0,0,1-.11-.1.38.38,0,0,1-.06-.17.31.31,0,0,1,.11-.21.36.36,0,0,1,.19-.08.32.32,0,0,1,.19.07.26.26,0,0,1,.09.21A.22.22,0,0,1,14.85,15.06Zm.48-1.79a.53.53,0,0,1-.08.17.58.58,0,0,1-.11.15.75.75,0,0,1-.14.12l-.11.08-.1.08-.07.07s0,0,0,0l.09.06a.27.27,0,0,1,.07.08.2.2,0,0,1,0,.11.42.42,0,0,1,0,.1.27.27,0,0,1-.07.08.23.23,0,0,1-.11,0,.29.29,0,0,1-.18,0l-.15-.1a.39.39,0,0,1-.11-.17.45.45,0,0,1,0-.22.62.62,0,0,1,.07-.19,1,1,0,0,1,.14-.15l.16-.14.09-.07a.27.27,0,0,0,.08-.07.31.31,0,0,0,.07-.09.3.3,0,0,0,0-.1A.26.26,0,0,0,14.8,13a.2.2,0,0,0-.13,0l-.15.06-.13.09-.06.06-.06.07a.13.13,0,0,1-.07.06l-.08,0a.26.26,0,0,1-.15,0,.28.28,0,0,1-.1-.09.28.28,0,0,1,0-.13.24.24,0,0,1,.05-.14l.21-.21a1.32,1.32,0,0,1,.25-.16,1.07,1.07,0,0,1,.27-.09,1,1,0,0,1,.3,0,.53.53,0,0,1,.17.08.64.64,0,0,1,.13.15.89.89,0,0,1,.08.17.61.61,0,0,1,0,.18A.55.55,0,0,1,15.33,13.27Zm.47-1.7a.45.45,0,0,1-.09.1.23.23,0,0,1-.11,0,.2.2,0,0,1-.13,0l-.13-.13-.12-.14a3.33,3.33,0,0,1-.25-.28l-.25-.27-.16,0h-.15v.58a.3.3,0,0,1-.08.16.35.35,0,0,1-.16.08.22.22,0,0,1-.14,0S14,11.6,14,11.53c0-.3,0-.6,0-.92V9.66a.22.22,0,0,1-.09-.07.2.2,0,0,1,0-.11.22.22,0,0,1,0-.11.21.21,0,0,1,.06-.1A.35.35,0,0,1,14,9.18l.16-.07.18,0,.14,0A1.35,1.35,0,0,1,15,9a1.25,1.25,0,0,1,.44.19,1,1,0,0,1,.28.35.84.84,0,0,1,0,.5l-.06.15-.08.15-.16.18-.19.14.14.16a1.07,1.07,0,0,0,.14.16.31.31,0,0,1,.1.08l.11.13.1.12a.21.21,0,0,1,0,.11A.28.28,0,0,1,15.8,11.57Zm2.19-2-.14.21-.16.2-.13.16-.08.09-.07.09a.52.52,0,0,0-.1.11l-.09.12v.91a.29.29,0,0,1-.07.16.27.27,0,0,1-.14.07.17.17,0,0,1-.14,0,.17.17,0,0,1-.1-.13.58.58,0,0,1,0-.14v-.3a.57.57,0,0,0,0-.12v-.22c0-.07,0-.14,0-.22a4,4,0,0,1-.34-.38,2.52,2.52,0,0,1-.28-.44L16,9.53a.51.51,0,0,1,0-.17.15.15,0,0,1,0-.13.22.22,0,0,1,.1-.09.15.15,0,0,1,.13,0,.2.2,0,0,1,.13,0,.31.31,0,0,1,.07.09l0,.09a.49.49,0,0,1,0,.11,1,1,0,0,0,0,.1,3.16,3.16,0,0,0,.18.27,2.62,2.62,0,0,0,.22.25,1.64,1.64,0,0,1,.21-.25,1.64,1.64,0,0,0,.21-.25.44.44,0,0,0,.06-.1l.08-.13.09-.13a.29.29,0,0,1,.08-.08.24.24,0,0,1,.13,0l.12,0a.39.39,0,0,1,.08.1.19.19,0,0,1,0,.13A.38.38,0,0,1,18,9.53Z" fill="#fcb116"/></g><g opacity="0.7"><path d="M6.93,11.27a.32.32,0,0,1,0-.14A.21.21,0,0,1,7,11a.18.18,0,0,1,.1-.07.2.2,0,0,1,.15,0,.38.38,0,0,1,.13.09.4.4,0,0,0,.12.1.86.86,0,0,0,.21.07l.14,0H8l.1,0,.1-.06A.25.25,0,0,0,8.24,11a.33.33,0,0,0,0-.14.31.31,0,0,0-.06-.13.24.24,0,0,0-.12-.07,1.34,1.34,0,0,0-.27-.07l-.26-.06-.25-.1a.9.9,0,0,1-.21-.19A.49.49,0,0,1,7,10.15,1.3,1.3,0,0,1,7,10a.4.4,0,0,1,0-.31.63.63,0,0,1,.16-.23.71.71,0,0,1,.28-.21.9.9,0,0,1,.33-.09,1,1,0,0,1,.35,0,2.07,2.07,0,0,1,.33.1.23.23,0,0,1,.12.12.22.22,0,0,1,0,.16.28.28,0,0,1-.09.13.19.19,0,0,1-.15,0l-.18,0L8,9.65H7.86l-.14,0-.12,0-.08,0-.06.07a.17.17,0,0,0,0,.1.09.09,0,0,0,.05.1l.12.07.27.05.26.07.25.11a.69.69,0,0,1,.19.19.53.53,0,0,1,.13.23.54.54,0,0,1,0,.25,1,1,0,0,1-.06.25.6.6,0,0,1-.14.21l-.13.1-.14.09a.81.81,0,0,1-.34.08,1.48,1.48,0,0,1-.35-.05,2.07,2.07,0,0,1-.34-.15A1.39,1.39,0,0,1,7,11.31Z" fill="#fcb116"/><path d="M11.26,10.56a3.61,3.61,0,0,1-.16.42,2,2,0,0,1-.25.37,1.31,1.31,0,0,1-.35.27,1.05,1.05,0,0,1-.44.1l-.26,0a1,1,0,0,1-.18-.07.69.69,0,0,1-.28-.15.87.87,0,0,1-.19-.23A1.48,1.48,0,0,1,9,11c0-.1,0-.2,0-.3a1.76,1.76,0,0,1,0-.51,1.68,1.68,0,0,1,.2-.48,1.33,1.33,0,0,1,.34-.37A1,1,0,0,1,10,9.08a1.23,1.23,0,0,1,.27,0,1.27,1.27,0,0,1,.28.06.88.88,0,0,1,.2.09.52.52,0,0,1,.17.13.71.71,0,0,1,.19.23,1.07,1.07,0,0,1,.12.27,2.2,2.2,0,0,1,0,.36C11.29,10.32,11.28,10.44,11.26,10.56Zm-1,.65a.58.58,0,0,0,.2-.13l.16-.18a1.51,1.51,0,0,0,.11-.22l.08-.23c0-.1,0-.2,0-.3a.8.8,0,0,0-.06-.3.51.51,0,0,0-.17-.19.55.55,0,0,0-.24-.12.57.57,0,0,0-.26,0,.43.43,0,0,0-.24.1.92.92,0,0,0-.24.28,1.16,1.16,0,0,0-.14.34,1.45,1.45,0,0,0,0,.3,1,1,0,0,0,.05.31.53.53,0,0,0,.13.2.59.59,0,0,0,.18.14.86.86,0,0,0,.23.06A.48.48,0,0,0,10.26,11.21Z" fill="#fcb116"/><path d="M12.14,11.45a.25.25,0,0,1-.08.16.37.37,0,0,1-.15.08.26.26,0,0,1-.15,0,.15.15,0,0,1-.07-.14c0-.3,0-.6,0-.92V9.66a.22.22,0,0,1-.09-.07.21.21,0,0,1,0-.11.45.45,0,0,1,0-.11l.06-.1.12-.09.16-.07.17,0,.14,0a1.4,1.4,0,0,1,.5,0,1.2,1.2,0,0,1,.43.19.8.8,0,0,1,.28.35.77.77,0,0,1,0,.5.47.47,0,0,1-.06.15.71.71,0,0,1-.08.15,1.19,1.19,0,0,1-.15.18l-.2.14a1.07,1.07,0,0,1,.14.16l.15.16.09.08.12.13.1.12c0,.05,0,.08,0,.11a.2.2,0,0,1,0,.13.22.22,0,0,1-.09.1.2.2,0,0,1-.11,0,.19.19,0,0,1-.12,0,.8.8,0,0,1-.13-.13.75.75,0,0,1-.12-.14,3.33,3.33,0,0,1-.25-.28l-.25-.27-.16,0h-.16v.58Zm.7-1.87a.72.72,0,0,0-.34-.11.87.87,0,0,0-.36,0v.88l.35-.05a.79.79,0,0,0,.31-.14.44.44,0,0,0,.12-.15A.49.49,0,0,0,13,9.89a.33.33,0,0,0,0-.17A.39.39,0,0,0,12.84,9.58Z" fill="#fcb116"/><path d="M14.41,11.45a.3.3,0,0,1-.08.16.35.35,0,0,1-.16.08.22.22,0,0,1-.14,0S14,11.6,14,11.53c0-.3,0-.6,0-.92V9.66a.22.22,0,0,1-.09-.07.2.2,0,0,1,0-.11.22.22,0,0,1,0-.11.21.21,0,0,1,.06-.1A.35.35,0,0,1,14,9.18l.16-.07.18,0,.14,0A1.35,1.35,0,0,1,15,9a1.25,1.25,0,0,1,.44.19,1,1,0,0,1,.28.35.84.84,0,0,1,0,.5l-.06.15-.08.15-.16.18-.19.14.14.16a1.07,1.07,0,0,0,.14.16.31.31,0,0,1,.1.08l.11.13.1.12a.21.21,0,0,1,0,.11.28.28,0,0,1,0,.13.45.45,0,0,1-.09.1.23.23,0,0,1-.11,0,.2.2,0,0,1-.13,0l-.13-.13-.12-.14a3.33,3.33,0,0,1-.25-.28l-.25-.27-.16,0h-.15v.58Zm.69-1.87a.68.68,0,0,0-.34-.11.83.83,0,0,0-.35,0v.88l.34-.05a.73.73,0,0,0,.31-.14.64.64,0,0,0,.13-.15.34.34,0,0,0,.05-.17.33.33,0,0,0,0-.17A.31.31,0,0,0,15.1,9.58Z" fill="#fcb116"/><path d="M17.22,11.42a.29.29,0,0,1-.07.16.27.27,0,0,1-.14.07.17.17,0,0,1-.14,0,.17.17,0,0,1-.1-.13.58.58,0,0,1,0-.14v-.3a.57.57,0,0,0,0-.12v-.22c0-.07,0-.14,0-.22a4,4,0,0,1-.34-.38,2.52,2.52,0,0,1-.28-.44L16,9.53a.51.51,0,0,1,0-.17.15.15,0,0,1,0-.13.22.22,0,0,1,.1-.09.15.15,0,0,1,.13,0,.2.2,0,0,1,.13,0,.31.31,0,0,1,.07.09l0,.09a.49.49,0,0,1,0,.11,1,1,0,0,0,0,.1,3.16,3.16,0,0,0,.18.27,2.62,2.62,0,0,0,.22.25,1.64,1.64,0,0,1,.21-.25,1.64,1.64,0,0,0,.21-.25.44.44,0,0,0,.06-.1l.08-.13.09-.13a.29.29,0,0,1,.08-.08.24.24,0,0,1,.13,0l.12,0a.39.39,0,0,1,.08.1.19.19,0,0,1,0,.13.38.38,0,0,1-.06.18l-.14.21-.16.2-.13.16-.08.09-.07.09a.52.52,0,0,0-.1.11l-.09.12v.91Z" fill="#fcb116"/><path d="M11.1,14.46l.12,0,.08.08a.21.21,0,0,1,0,.11.25.25,0,0,1,0,.12l-.05.06-.07.05a2.18,2.18,0,0,1-.51.09,3,3,0,0,1-.52,0H10a.39.39,0,0,1-.15-.06.24.24,0,0,1-.12-.22V13.06L9.67,13a.19.19,0,0,1,0-.1.16.16,0,0,1,0-.1.18.18,0,0,1,.07-.08.38.38,0,0,1,.18-.09l.19,0a1.9,1.9,0,0,1,.41,0h.55a.32.32,0,0,1,.14,0,.27.27,0,0,1,.12.09.31.31,0,0,1,0,.12.19.19,0,0,1,0,.13.27.27,0,0,1-.11.1A.49.49,0,0,1,11,13h-.5l-.3,0v.53h.28l.28,0H11a.19.19,0,0,1,.13.07.31.31,0,0,1,.06.13.17.17,0,0,1,0,.14.18.18,0,0,1-.11.1.4.4,0,0,1-.18,0l-.23,0h-.45v.47a2.06,2.06,0,0,0,.43,0,3,3,0,0,0,.43-.07Z" fill="#fcb116"/><path d="M13.53,13.62a.19.19,0,0,1,.14.1.24.24,0,0,1,.05.14.27.27,0,0,1-.05.15.28.28,0,0,1-.14.09v.67a.33.33,0,0,1,0,.17.4.4,0,0,1-.12.11.26.26,0,0,1-.15,0,.22.22,0,0,1-.14-.1.36.36,0,0,1,0-.09s0-.06,0-.09v-.67h-.9v.66a.25.25,0,0,1,0,.08.19.19,0,0,1,0,.08.29.29,0,0,1-.13.12.2.2,0,0,1-.15,0,.31.31,0,0,1-.13-.1.35.35,0,0,1,0-.18v-2a.27.27,0,0,1,.06-.17.33.33,0,0,1,.14-.1.29.29,0,0,1,.16,0,.19.19,0,0,1,.11.12.14.14,0,0,1,0,.06v.93H13v-.83a.33.33,0,0,1,0-.14.23.23,0,0,1,.12-.12.23.23,0,0,1,.16,0,.24.24,0,0,1,.13.07.23.23,0,0,1,0,.17Z" fill="#fcb116"/><path d="M14.74,14l.09.06a.27.27,0,0,1,.07.08.2.2,0,0,1,0,.11.42.42,0,0,1,0,.1.27.27,0,0,1-.07.08.23.23,0,0,1-.11,0,.29.29,0,0,1-.18,0l-.15-.1a.39.39,0,0,1-.11-.17.45.45,0,0,1,0-.22.62.62,0,0,1,.07-.19,1,1,0,0,1,.14-.15l.16-.14.09-.07a.27.27,0,0,0,.08-.07.31.31,0,0,0,.07-.09.3.3,0,0,0,0-.1A.26.26,0,0,0,14.8,13a.2.2,0,0,0-.13,0l-.15.06-.13.09-.06.06-.06.07a.13.13,0,0,1-.07.06l-.08,0a.26.26,0,0,1-.15,0,.28.28,0,0,1-.1-.09.28.28,0,0,1,0-.13.24.24,0,0,1,.05-.14l.21-.21a1.32,1.32,0,0,1,.25-.16,1.07,1.07,0,0,1,.27-.09,1,1,0,0,1,.3,0,.53.53,0,0,1,.17.08.64.64,0,0,1,.13.15.89.89,0,0,1,.08.17.61.61,0,0,1,0,.18.55.55,0,0,1,0,.18.53.53,0,0,1-.08.17.58.58,0,0,1-.11.15.75.75,0,0,1-.14.12l-.11.08-.1.08-.07.07S14.71,14,14.74,14Zm-.44.93a.31.31,0,0,1,.11-.21.36.36,0,0,1,.19-.08.32.32,0,0,1,.19.07.26.26,0,0,1,.09.21.22.22,0,0,1,0,.16l-.1.1a.28.28,0,0,1-.13,0,.26.26,0,0,1-.15,0,.26.26,0,0,1-.11-.1A.38.38,0,0,1,14.3,14.91Z" fill="#fcb116"/></g></svg>