<svg id="Layer_1" data-name="Layer 1" xmlns="http://www.w3.org/2000/svg" viewBox="0 0 200 200"><g opacity="0.8"><polygon points="60.85 139.79 64.17 130.67 82.29 130.67 60.85 139.79" fill="#fcb116"/><path d="M102.5,80.29a4.12,4.12,0,0,0,1-1.16,3.56,3.56,0,0,0,.47-1.36,2.87,2.87,0,0,0-.19-1.36,2.58,2.58,0,0,0-1-1.17,5.93,5.93,0,0,0-2.71-.83,7,7,0,0,0-2.83.4v7a20.74,20.74,0,0,0,2.74-.36A5.69,5.69,0,0,0,102.5,80.29Z" fill="#fcb116"/><path d="M121.9,76.41a2.56,2.56,0,0,0-1-1.17,6,6,0,0,0-2.71-.83,6.93,6.93,0,0,0-2.83.4v7a21,21,0,0,0,2.74-.36,5.79,5.79,0,0,0,2.49-1.16,4.09,4.09,0,0,0,1-1.16,3.4,3.4,0,0,0,.47-1.36A2.75,2.75,0,0,0,121.9,76.41Z" fill="#fcb116"/><path d="M80.35,88.7a4.13,4.13,0,0,0,1.87-.36,5.36,5.36,0,0,0,1.63-1.07,8.22,8.22,0,0,0,1.22-1.47A8.71,8.71,0,0,0,86,84.08c.24-.6.45-1.22.64-1.84a17.28,17.28,0,0,0,.2-2.41,5.34,5.34,0,0,0-.51-2.36A4.18,4.18,0,0,0,85,75.88,5.4,5.4,0,0,0,83,75a5.61,5.61,0,0,0-2.12-.11,3.79,3.79,0,0,0-1.91.84,8.76,8.76,0,0,0-1.9,2.21A10,10,0,0,0,76,80.6a10.52,10.52,0,0,0-.34,2.48,6.57,6.57,0,0,0,.4,2.47,4.84,4.84,0,0,0,1,1.58,4.91,4.91,0,0,0,1.5,1.12A4.54,4.54,0,0,0,80.35,88.7Z" fill="#fcb116"/><path d="M151.58,60.21H48.42a6,6,0,0,0-6,6v58.46a6,6,0,0,0,6,6H151.58a6,6,0,0,0,6-6V66.21A6,6,0,0,0,151.58,60.21ZM69.5,88.54a5.12,5.12,0,0,1-1.12,1.66,6.73,6.73,0,0,1-1,.85c-.37.24-.75.47-1.17.7a5.66,5.66,0,0,1-2.66.65A10,10,0,0,1,60.67,92,11.34,11.34,0,0,1,58,90.8a10.76,10.76,0,0,1-2.17-1.65l-.21-.31a2.31,2.31,0,0,1-.14-1.18,2,2,0,0,1,.4-1,1.71,1.71,0,0,1,.85-.58,1.65,1.65,0,0,1,1.18.1,2.78,2.78,0,0,1,1,.73,3.16,3.16,0,0,0,1,.76,6.87,6.87,0,0,0,1.64.59,6.77,6.77,0,0,0,1.18.2c.39,0,.79,0,1.2,0l.81-.25a2.1,2.1,0,0,0,.74-.53,1.91,1.91,0,0,0,.61-1,2.27,2.27,0,0,0,0-1.1,2.51,2.51,0,0,0-.53-1,1.86,1.86,0,0,0-.94-.6,14.8,14.8,0,0,0-2.17-.57c-.72-.14-1.43-.3-2.11-.48a8.8,8.8,0,0,1-1.93-.79,5.9,5.9,0,0,1-1.69-1.47,3.12,3.12,0,0,1-.56-.93c-.08-.27-.17-.61-.28-1a3.92,3.92,0,0,1,.24-2.5,7.9,7.9,0,0,1,1.28-1.86,6.92,6.92,0,0,1,2.25-1.66A8.81,8.81,0,0,1,62.27,72a10,10,0,0,1,2.78.06,11.37,11.37,0,0,1,2.68.79,1.55,1.55,0,0,1,1,1,2.12,2.12,0,0,1,0,1.27,2,2,0,0,1-.71,1,1.52,1.52,0,0,1-1.24.28c-.49-.1-1-.21-1.39-.32s-.87-.22-1.3-.3a3.78,3.78,0,0,0-1.07,0,7.13,7.13,0,0,0-1.08.2c-.34.1-.66.2-.95.31a2.38,2.38,0,0,0-.65.36,3.37,3.37,0,0,0-.48.55,1.61,1.61,0,0,0-.26.78.9.9,0,0,0,.4.87,3.27,3.27,0,0,0,1,.49c.68.15,1.38.29,2.11.42a14.53,14.53,0,0,1,2.13.56,9.32,9.32,0,0,1,2,.91,5.14,5.14,0,0,1,1.56,1.49,4.78,4.78,0,0,1,1,1.82,5.78,5.78,0,0,1,.23,2A6.06,6.06,0,0,1,69.5,88.54Zm5.37,1.89a7.43,7.43,0,0,1-1.53-1.9,9.53,9.53,0,0,1-1-2.31A14.77,14.77,0,0,1,72,83.85a12.93,12.93,0,0,1,.35-4.08,12.68,12.68,0,0,1,1.57-3.83,11.32,11.32,0,0,1,2.73-3,8.74,8.74,0,0,1,3.75-1.66,10,10,0,0,1,2.19-.12,7.6,7.6,0,0,1,2.17.43,11.32,11.32,0,0,1,1.61.71,7.52,7.52,0,0,1,1.43,1,8,8,0,0,1,1.51,1.86,7.74,7.74,0,0,1,.9,2.2,11.39,11.39,0,0,1,.31,2.88,21.09,21.09,0,0,1-.25,2.85A22.74,22.74,0,0,1,88.9,86.5a13.38,13.38,0,0,1-2,3,9.67,9.67,0,0,1-2.74,2.1,7.68,7.68,0,0,1-3.58.81,12.71,12.71,0,0,1-2.06-.24,6.75,6.75,0,0,1-1.47-.51A5.45,5.45,0,0,1,74.87,90.43Zm9.19,16.8c.75,0,1.49-.09,2.23-.15.33,0,.66-.06,1-.1a4.35,4.35,0,0,1,1,0,1.56,1.56,0,0,1,1.06.56,2.15,2.15,0,0,1,.45,1,2,2,0,0,1-.2,1.13,1.65,1.65,0,0,1-.9.8,5.31,5.31,0,0,1-1.43.33q-.9.1-1.89.15c-.66,0-1.31.05-2,.05s-1.17,0-1.61,0v3.81a16.46,16.46,0,0,0,3.44.06,20.61,20.61,0,0,0,3.41-.59h.21a2.09,2.09,0,0,1,1,.29,2.45,2.45,0,0,1,.68.64,1.78,1.78,0,0,1,.31.85,1.84,1.84,0,0,1-.2,1,1.81,1.81,0,0,1-.39.51,1.32,1.32,0,0,1-.54.35,18,18,0,0,1-4.07.73,23.79,23.79,0,0,1-4.14-.08l-1.28-.12A2.75,2.75,0,0,1,79,118a2,2,0,0,1-1-1.77V103.08a1.94,1.94,0,0,1-.55-.62,1.89,1.89,0,0,1-.26-.79,1.56,1.56,0,0,1,.1-.8,1.62,1.62,0,0,1,.53-.67,3.31,3.31,0,0,1,1.42-.66c.54-.12,1.07-.22,1.58-.3A21.93,21.93,0,0,1,84.09,99l3.28,0a10.06,10.06,0,0,0,1.15-.07,2.39,2.39,0,0,1,1.15.1,2,2,0,0,1,.93.69,2.08,2.08,0,0,1,.4,1,1.68,1.68,0,0,1-1.12,1.79,3.93,3.93,0,0,1-1.65.28l-1.69,0c-.79,0-1.57,0-2.35,0a20.85,20.85,0,0,0-2.36.19v4.3A20.74,20.74,0,0,0,84.06,107.23Zm8.4-32.71a2.25,2.25,0,0,1,.1-.92,2.29,2.29,0,0,1,.47-.8,3.29,3.29,0,0,1,.93-.68,11.71,11.71,0,0,1,1.28-.58c.47-.17.93-.32,1.38-.44s.84-.22,1.15-.28a9.46,9.46,0,0,1,3.93,0,9.11,9.11,0,0,1,3.48,1.5,6.77,6.77,0,0,1,2.25,2.82,6,6,0,0,1,.15,4,9.77,9.77,0,0,1-.46,1.24,7.47,7.47,0,0,1-.65,1.15,6.77,6.77,0,0,1-1.24,1.42,12,12,0,0,1-1.55,1.15c.39.41.76.85,1.11,1.3A9.25,9.25,0,0,0,106,86.61c.17.14.41.37.73.68s.63.64.93,1a11.44,11.44,0,0,1,.79,1,1.39,1.39,0,0,1,.31.85,2.33,2.33,0,0,1-1,1.81,1.66,1.66,0,0,1-1.9-.08,6.78,6.78,0,0,1-1.06-1q-.49-.59-1-1.08c-.68-.75-1.34-1.49-2-2.25s-1.32-1.49-2-2.21a10.43,10.43,0,0,1-1.25.17l-1.26.11v4.61a1.94,1.94,0,0,1-.65,1.27,2.57,2.57,0,0,1-1.21.63A1.72,1.72,0,0,1,94.22,92a1.2,1.2,0,0,1-.57-1.12c-.1-2.37-.16-4.83-.16-7.38V75.89a1.51,1.51,0,0,1-.74-.55A1.84,1.84,0,0,1,92.46,74.52Zm17,36.19a1.67,1.67,0,0,1-1.08.7v5.39a2.52,2.52,0,0,1-.39,1.38,2.23,2.23,0,0,1-.94.85,1.9,1.9,0,0,1-1.18.11,2,2,0,0,1-1.11-.82,1.78,1.78,0,0,1-.3-.72,3.93,3.93,0,0,1-.07-.74V111.5H97.19v5.27a4,4,0,0,1-.06.69,2.1,2.1,0,0,1-.22.64,2,2,0,0,1-1,1,1.68,1.68,0,0,1-1.21,0,2.25,2.25,0,0,1-1-.8,2.31,2.31,0,0,1-.42-1.41v-16a2.12,2.12,0,0,1,.48-1.39,2.59,2.59,0,0,1,1.1-.82,1.79,1.79,0,0,1,1.25,0,1.55,1.55,0,0,1,1,1,2.54,2.54,0,0,1,.12.45,3,3,0,0,1,0,.45v7h7.22v-6.63a2.72,2.72,0,0,1,.27-1.18,2,2,0,0,1,1-1,2.08,2.08,0,0,1,1.24-.15,1.94,1.94,0,0,1,1,.6,1.85,1.85,0,0,1,.45,1.32v7.12a1.89,1.89,0,0,1,1.11.79,2,2,0,0,1,.36,1.19A2.07,2.07,0,0,1,109.48,110.71Zm9.45,8.38a2.39,2.39,0,0,1-.79.82,2.33,2.33,0,0,1-1.09.34,2.27,2.27,0,0,1-1.13-.19,2.23,2.23,0,0,1-.91-.75,2.8,2.8,0,0,1-.48-1.4,2.37,2.37,0,0,1,.85-1.68,2.53,2.53,0,0,1,1.56-.59,2.36,2.36,0,0,1,1.54.54,2.14,2.14,0,0,1,.73,1.67A2.28,2.28,0,0,1,118.93,119.09Zm3.84-14.29a5.9,5.9,0,0,1-.62,1.38,7.7,7.7,0,0,1-.93,1.2,5.45,5.45,0,0,1-1.09.93l-.88.62a7.77,7.77,0,0,0-.83.67,3.52,3.52,0,0,0-.52.57c-.1.17-.06.28.13.34a4,4,0,0,1,.73.44,2.44,2.44,0,0,1,.57.65,1.38,1.38,0,0,1,.15.85,2.12,2.12,0,0,1-.29.82,2,2,0,0,1-.62.62,1.79,1.79,0,0,1-.82.28,2.84,2.84,0,0,1-1.43-.25,5,5,0,0,1-1.23-.81,2.77,2.77,0,0,1-.9-1.36A3.92,3.92,0,0,1,114,110a4,4,0,0,1,.54-1.45,5.64,5.64,0,0,1,1.07-1.24c.44-.39.88-.76,1.33-1.13l.7-.53a7.78,7.78,0,0,0,.68-.59,3,3,0,0,0,.56-.68,1.84,1.84,0,0,0,.26-.84,1.38,1.38,0,0,0-.65-1,1.54,1.54,0,0,0-1-.13,3.78,3.78,0,0,0-1.15.47,10.12,10.12,0,0,0-1,.73,3.07,3.07,0,0,0-.51.51q-.23.28-.48.57a3.2,3.2,0,0,1-.54.5,1.58,1.58,0,0,1-.67.27,1.78,1.78,0,0,1-1.14-.17,1.92,1.92,0,0,1-.82-.72,1.77,1.77,0,0,1,.17-2.14,12.85,12.85,0,0,1,1.69-1.69,10,10,0,0,1,1.93-1.27,8.12,8.12,0,0,1,2.17-.71,6.81,6.81,0,0,1,2.38,0,3.12,3.12,0,0,1,1.38.63,4.78,4.78,0,0,1,1,1.15,6.15,6.15,0,0,1,.69,1.41,6.73,6.73,0,0,1,.36,1.42A4,4,0,0,1,122.77,104.8Zm3.75-13.56a2.32,2.32,0,0,1-.72.74,1.69,1.69,0,0,1-.91.26,1.72,1.72,0,0,1-1-.34,7.19,7.19,0,0,1-1.05-1q-.5-.59-1-1.08c-.68-.75-1.35-1.49-2-2.25s-1.32-1.49-2-2.21a10.43,10.43,0,0,1-1.25.17l-1.25.11v4.61a2,2,0,0,1-.66,1.27,2.59,2.59,0,0,1-1.2.63,1.72,1.72,0,0,1-1.19-.13,1.18,1.18,0,0,1-.58-1.12q-.15-3.55-.15-7.38V75.89a1.54,1.54,0,0,1-.75-.55,1.84,1.84,0,0,1-.29-.82,2.1,2.1,0,0,1,.11-.92,2.27,2.27,0,0,1,.46-.8,3.29,3.29,0,0,1,.93-.68,11.08,11.08,0,0,1,1.29-.58c.46-.17.92-.32,1.37-.44s.84-.22,1.15-.28a9.46,9.46,0,0,1,3.93,0,9.23,9.23,0,0,1,3.49,1.5,6.75,6.75,0,0,1,2.24,2.82,6,6,0,0,1,.16,4,9.84,9.84,0,0,1-.47,1.24,6.72,6.72,0,0,1-.65,1.15,6.49,6.49,0,0,1-1.24,1.42,11.32,11.32,0,0,1-1.55,1.15,15.35,15.35,0,0,1,1.12,1.3,8.14,8.14,0,0,0,1.18,1.24c.16.14.4.37.72.68s.63.64.93,1a11.44,11.44,0,0,1,.79,1,1.39,1.39,0,0,1,.31.85A2.31,2.31,0,0,1,126.52,91.24ZM144,74.84a19,19,0,0,1-1.11,1.71c-.43.57-.86,1.12-1.29,1.64l-1,1.23-.6.73c-.2.24-.4.47-.61.7s-.53.62-.77.93l-.74.93v3.53c0,1.17,0,2.35,0,3.53V90a2.11,2.11,0,0,1-.57,1.27,2.06,2.06,0,0,1-1.08.62,1.79,1.79,0,0,1-1.16-.15,1.72,1.72,0,0,1-.81-1.09,5.64,5.64,0,0,1-.2-1.14c0-.42,0-.82,0-1.23s0-.79.05-1.16,0-.68,0-.93c0-.59,0-1.18,0-1.76s0-1.17,0-1.77a25.86,25.86,0,0,1-2.77-3.08,24.09,24.09,0,0,1-2.25-3.48,12.62,12.62,0,0,1-.59-1.22,4.08,4.08,0,0,1-.31-1.32,1.36,1.36,0,0,1,.13-1.07,1.93,1.93,0,0,1,.76-.74,2,2,0,0,1,1.05-.25,1.7,1.7,0,0,1,1,.39,2.44,2.44,0,0,1,.55.65,4.38,4.38,0,0,1,.37.79c.11.28.21.56.3.85a4.21,4.21,0,0,0,.35.81,16.84,16.84,0,0,0,1.45,2.18c.52.67,1.08,1.34,1.68,2a19,19,0,0,1,1.74-2,17.41,17.41,0,0,0,1.7-2l.46-.76.65-1.07a11.69,11.69,0,0,1,.72-1,2.25,2.25,0,0,1,.65-.64,1.64,1.64,0,0,1,1-.28,1.91,1.91,0,0,1,.93.31,2.06,2.06,0,0,1,.67.76,1.84,1.84,0,0,1,.18,1A3.8,3.8,0,0,1,144,74.84Z" fill="#fcb116"/></g><g opacity="0.7"><path d="M55.6,88.84a2.31,2.31,0,0,1-.14-1.18,2,2,0,0,1,.4-1,1.71,1.71,0,0,1,.85-.58,1.65,1.65,0,0,1,1.18.1,2.78,2.78,0,0,1,1,.73,3.16,3.16,0,0,0,1,.76,6.87,6.87,0,0,0,1.64.59,6.77,6.77,0,0,0,1.18.2c.39,0,.79,0,1.2,0l.81-.25a2.1,2.1,0,0,0,.74-.53,1.91,1.91,0,0,0,.61-1,2.27,2.27,0,0,0,0-1.1,2.51,2.51,0,0,0-.53-1,1.85,1.85,0,0,0-1-.6,14.36,14.36,0,0,0-2.16-.57c-.72-.14-1.43-.3-2.11-.48a8.8,8.8,0,0,1-1.93-.79,5.9,5.9,0,0,1-1.69-1.47,3.12,3.12,0,0,1-.56-.93c-.08-.27-.17-.61-.28-1a3.92,3.92,0,0,1,.24-2.5,7.9,7.9,0,0,1,1.28-1.86,6.92,6.92,0,0,1,2.25-1.66A8.81,8.81,0,0,1,62.27,72a10,10,0,0,1,2.78.06,11.37,11.37,0,0,1,2.68.79,1.55,1.55,0,0,1,1,1,2.12,2.12,0,0,1,0,1.27,2,2,0,0,1-.71,1,1.52,1.52,0,0,1-1.24.28c-.49-.1-1-.21-1.39-.32s-.87-.22-1.3-.3a3.78,3.78,0,0,0-1.07,0,7.13,7.13,0,0,0-1.08.2c-.34.1-.66.2-.95.31a2.38,2.38,0,0,0-.65.36,3.37,3.37,0,0,0-.48.55,1.61,1.61,0,0,0-.26.78.9.9,0,0,0,.4.87,3.27,3.27,0,0,0,1,.49c.68.15,1.38.29,2.11.42a14.53,14.53,0,0,1,2.13.56,9.55,9.55,0,0,1,2,.91,5.14,5.14,0,0,1,1.56,1.49,4.78,4.78,0,0,1,1,1.82,5.76,5.76,0,0,1,.23,2,6.06,6.06,0,0,1-.48,2,5.12,5.12,0,0,1-1.12,1.66,6.73,6.73,0,0,1-1,.85c-.37.24-.75.47-1.17.7a5.66,5.66,0,0,1-2.66.65A10,10,0,0,1,60.67,92,11.52,11.52,0,0,1,58,90.8a10.76,10.76,0,0,1-2.17-1.65Z" fill="#fcb116"/><path d="M90.24,83.11A22.74,22.74,0,0,1,88.9,86.5a13.38,13.38,0,0,1-2,3,9.67,9.67,0,0,1-2.74,2.1,7.68,7.68,0,0,1-3.58.81,12.71,12.71,0,0,1-2.06-.24,6.75,6.75,0,0,1-1.47-.51,5.45,5.45,0,0,1-2.18-1.19,7.43,7.43,0,0,1-1.53-1.9,9.53,9.53,0,0,1-1-2.31A14.77,14.77,0,0,1,72,83.85a12.93,12.93,0,0,1,.35-4.08,12.68,12.68,0,0,1,1.57-3.83,11.32,11.32,0,0,1,2.73-3,8.74,8.74,0,0,1,3.75-1.66,10,10,0,0,1,2.19-.12,7.6,7.6,0,0,1,2.17.43,11.32,11.32,0,0,1,1.61.71,7.52,7.52,0,0,1,1.43,1,8.16,8.16,0,0,1,2.41,4.06,11.39,11.39,0,0,1,.31,2.88A21.09,21.09,0,0,1,90.24,83.11Zm-8,5.23a5.36,5.36,0,0,0,1.63-1.07,8.22,8.22,0,0,0,1.22-1.47A8.71,8.71,0,0,0,86,84.08c.24-.6.45-1.22.64-1.84a17.28,17.28,0,0,0,.2-2.41,5.34,5.34,0,0,0-.51-2.36A4.18,4.18,0,0,0,85,75.88,5.4,5.4,0,0,0,83,75a5.61,5.61,0,0,0-2.12-.11,3.88,3.88,0,0,0-1.91.84,8.76,8.76,0,0,0-1.9,2.21A10,10,0,0,0,76,80.6a10.52,10.52,0,0,0-.34,2.48,6.57,6.57,0,0,0,.4,2.47,4.84,4.84,0,0,0,1,1.58,4.91,4.91,0,0,0,1.5,1.12,4.54,4.54,0,0,0,1.78.45A4.13,4.13,0,0,0,82.22,88.34Z" fill="#fcb116"/><path d="M97.27,90.23a1.94,1.94,0,0,1-.65,1.27,2.57,2.57,0,0,1-1.21.63A1.72,1.72,0,0,1,94.22,92a1.2,1.2,0,0,1-.57-1.12c-.1-2.37-.16-4.83-.16-7.38V75.89a1.51,1.51,0,0,1-.74-.55,1.84,1.84,0,0,1-.29-.82,2.25,2.25,0,0,1,.1-.92,2.29,2.29,0,0,1,.47-.8,3.29,3.29,0,0,1,.93-.68,11.71,11.71,0,0,1,1.28-.58c.47-.17.93-.32,1.38-.44s.84-.22,1.15-.28a9.46,9.46,0,0,1,3.93,0,9.11,9.11,0,0,1,3.48,1.5,6.77,6.77,0,0,1,2.25,2.82,6,6,0,0,1,.15,4,9.77,9.77,0,0,1-.46,1.24,7.47,7.47,0,0,1-.65,1.15,6.77,6.77,0,0,1-1.24,1.42,12,12,0,0,1-1.55,1.15c.39.41.76.85,1.11,1.3A9.25,9.25,0,0,0,106,86.61c.17.14.41.37.73.68s.63.64.93,1a11.44,11.44,0,0,1,.79,1,1.39,1.39,0,0,1,.31.85,2.33,2.33,0,0,1-1,1.81,1.66,1.66,0,0,1-1.9-.08,6.78,6.78,0,0,1-1.06-1q-.49-.59-1-1.08c-.68-.75-1.34-1.49-2-2.25s-1.32-1.49-2-2.21a10.43,10.43,0,0,1-1.25.17l-1.26.11v4.61Zm5.54-15a5.93,5.93,0,0,0-2.71-.83,7,7,0,0,0-2.83.4v7a20.74,20.74,0,0,0,2.74-.36,5.69,5.69,0,0,0,2.49-1.16,4.12,4.12,0,0,0,1-1.16,3.56,3.56,0,0,0,.47-1.36,2.87,2.87,0,0,0-.19-1.36A2.58,2.58,0,0,0,102.81,75.24Z" fill="#fcb116"/><path d="M115.38,90.23a1.9,1.9,0,0,1-.65,1.27,2.59,2.59,0,0,1-1.2.63,1.72,1.72,0,0,1-1.19-.13,1.18,1.18,0,0,1-.58-1.12q-.15-3.55-.15-7.38V75.89a1.54,1.54,0,0,1-.75-.55,1.84,1.84,0,0,1-.29-.82,2.1,2.1,0,0,1,.11-.92,2.27,2.27,0,0,1,.46-.8,3.29,3.29,0,0,1,.93-.68,11.08,11.08,0,0,1,1.29-.58c.46-.17.92-.32,1.37-.44s.84-.22,1.15-.28a9.46,9.46,0,0,1,3.93,0,9.23,9.23,0,0,1,3.49,1.5,6.75,6.75,0,0,1,2.24,2.82,6,6,0,0,1,.16,4,9.84,9.84,0,0,1-.47,1.24,6.72,6.72,0,0,1-.65,1.15,6.49,6.49,0,0,1-1.24,1.42,11.32,11.32,0,0,1-1.55,1.15,15.35,15.35,0,0,1,1.12,1.3,8.14,8.14,0,0,0,1.18,1.24c.16.14.4.37.72.68s.63.64.93,1a11.44,11.44,0,0,1,.79,1,1.39,1.39,0,0,1,.31.85,2.26,2.26,0,0,1-1,1.81,1.69,1.69,0,0,1-.91.26,1.72,1.72,0,0,1-1-.34,7.19,7.19,0,0,1-1.05-1q-.5-.59-1-1.08c-.68-.75-1.35-1.49-2-2.25s-1.32-1.49-2-2.21a10.43,10.43,0,0,1-1.25.17l-1.26.11v4.61Zm5.55-15a6,6,0,0,0-2.71-.83,7,7,0,0,0-2.84.4v7a20.89,20.89,0,0,0,2.75-.36,5.79,5.79,0,0,0,2.49-1.16,4.09,4.09,0,0,0,1-1.16,3.4,3.4,0,0,0,.47-1.36,2.75,2.75,0,0,0-.19-1.36A2.56,2.56,0,0,0,120.93,75.24Z" fill="#fcb116"/><path d="M137.89,90a2.11,2.11,0,0,1-.57,1.27,2.06,2.06,0,0,1-1.08.62,1.79,1.79,0,0,1-1.16-.15,1.72,1.72,0,0,1-.81-1.09,5.64,5.64,0,0,1-.2-1.14c0-.42,0-.82,0-1.23s0-.79.05-1.16,0-.68,0-.93c0-.59,0-1.18,0-1.76s0-1.17,0-1.77a25.86,25.86,0,0,1-2.77-3.08,24.09,24.09,0,0,1-2.25-3.48,12.62,12.62,0,0,1-.59-1.22,4.08,4.08,0,0,1-.31-1.32,1.36,1.36,0,0,1,.13-1.07,1.93,1.93,0,0,1,.76-.74,2,2,0,0,1,1.05-.25,1.7,1.7,0,0,1,1,.39,2.44,2.44,0,0,1,.55.65,4.38,4.38,0,0,1,.37.79c.11.28.21.56.3.85a4.21,4.21,0,0,0,.35.81,16.84,16.84,0,0,0,1.45,2.18c.52.67,1.08,1.33,1.68,2a19,19,0,0,1,1.74-2,17.41,17.41,0,0,0,1.7-2l.46-.76.65-1.07a11.69,11.69,0,0,1,.72-1,2.25,2.25,0,0,1,.65-.64,1.64,1.64,0,0,1,1-.28,1.91,1.91,0,0,1,.93.31,2.06,2.06,0,0,1,.67.76,1.84,1.84,0,0,1,.18,1,3.8,3.8,0,0,1-.54,1.42,19,19,0,0,1-1.11,1.71c-.43.57-.86,1.12-1.29,1.64l-1,1.23-.6.73c-.2.24-.4.47-.61.7s-.53.62-.77.93l-.74.93v3.53c0,1.17,0,2.35,0,3.53Z" fill="#fcb116"/><path d="M88.89,114.29a2.09,2.09,0,0,1,1,.29,2.45,2.45,0,0,1,.68.64,1.78,1.78,0,0,1,.31.85,1.84,1.84,0,0,1-.2,1,1.81,1.81,0,0,1-.39.51,1.32,1.32,0,0,1-.54.35,18,18,0,0,1-4.07.73,23.79,23.79,0,0,1-4.14-.08l-1.28-.12A2.75,2.75,0,0,1,79,118a2,2,0,0,1-1-1.77V103.08a1.94,1.94,0,0,1-.55-.62,1.89,1.89,0,0,1-.26-.79,1.56,1.56,0,0,1,.1-.8,1.62,1.62,0,0,1,.53-.67,3.31,3.31,0,0,1,1.42-.66c.54-.12,1.07-.22,1.58-.3A21.93,21.93,0,0,1,84.09,99l3.28,0a9.93,9.93,0,0,0,1.15-.07,2.39,2.39,0,0,1,1.15.1,2,2,0,0,1,.93.69,2.08,2.08,0,0,1,.4,1,1.68,1.68,0,0,1-1.12,1.79,3.93,3.93,0,0,1-1.65.28l-1.69,0c-.79,0-1.57,0-2.35,0a20.85,20.85,0,0,0-2.36.19v4.3a20.74,20.74,0,0,0,2.23,0c.75,0,1.49-.09,2.23-.15.33,0,.66-.06,1-.1a4.43,4.43,0,0,1,1,0,1.56,1.56,0,0,1,1,.56,2.25,2.25,0,0,1,.45,1,1.9,1.9,0,0,1-.21,1.13,1.6,1.6,0,0,1-.89.8,5.31,5.31,0,0,1-1.43.33q-.9.1-1.89.15c-.66,0-1.31.05-2,.05s-1.17,0-1.61,0v3.81a16.46,16.46,0,0,0,3.44.06,20.61,20.61,0,0,0,3.41-.59Z" fill="#fcb116"/><path d="M108.4,107.57a2,2,0,0,1,1.12.79,2.11,2.11,0,0,1,.35,1.19,2.07,2.07,0,0,1-.39,1.16,1.67,1.67,0,0,1-1.08.7v5.39a2.52,2.52,0,0,1-.39,1.38,2.23,2.23,0,0,1-.94.85,1.9,1.9,0,0,1-1.18.11,2,2,0,0,1-1.11-.83,1.68,1.68,0,0,1-.3-.71,3.93,3.93,0,0,1-.07-.74V111.5H97.19v5.27a4,4,0,0,1-.06.69,1.87,1.87,0,0,1-.22.64,2,2,0,0,1-1,1,1.68,1.68,0,0,1-1.21,0,2.25,2.25,0,0,1-1-.8,2.31,2.31,0,0,1-.42-1.41v-16a2.12,2.12,0,0,1,.48-1.39,2.59,2.59,0,0,1,1.1-.82,1.79,1.79,0,0,1,1.25,0,1.55,1.55,0,0,1,1,1,2.54,2.54,0,0,1,.12.45,3,3,0,0,1,0,.45v7h7.22v-6.63a2.72,2.72,0,0,1,.27-1.18,2,2,0,0,1,1-1,2.08,2.08,0,0,1,1.24-.15,1.94,1.94,0,0,1,1,.6,1.85,1.85,0,0,1,.45,1.32Z" fill="#fcb116"/><path d="M118,110.51a4,4,0,0,1,.73.44,2.44,2.44,0,0,1,.57.65,1.38,1.38,0,0,1,.15.85,2,2,0,0,1-.29.82,2,2,0,0,1-.62.62,1.79,1.79,0,0,1-.82.28,2.78,2.78,0,0,1-1.42-.25,4.91,4.91,0,0,1-1.24-.81,2.77,2.77,0,0,1-.9-1.36A3.92,3.92,0,0,1,114,110a4,4,0,0,1,.54-1.45,5.64,5.64,0,0,1,1.07-1.24c.44-.39.88-.76,1.33-1.13l.7-.53a7.78,7.78,0,0,0,.68-.59,3,3,0,0,0,.56-.68,1.84,1.84,0,0,0,.26-.84,1.38,1.38,0,0,0-.65-1,1.54,1.54,0,0,0-1-.13,3.63,3.63,0,0,0-1.14.47,9.31,9.31,0,0,0-1.06.73,3.07,3.07,0,0,0-.51.51q-.23.28-.48.57a3.2,3.2,0,0,1-.54.5,1.58,1.58,0,0,1-.67.27,1.78,1.78,0,0,1-1.14-.17,1.92,1.92,0,0,1-.82-.72,1.77,1.77,0,0,1,.17-2.14,12.85,12.85,0,0,1,1.69-1.69,10,10,0,0,1,1.93-1.27,8.12,8.12,0,0,1,2.17-.71,6.81,6.81,0,0,1,2.38,0,3.12,3.12,0,0,1,1.38.63,4.78,4.78,0,0,1,1,1.15,6.28,6.28,0,0,1,.69,1.4,7,7,0,0,1,.36,1.43,4,4,0,0,1-.15,1.44,5.9,5.9,0,0,1-.62,1.38,7.7,7.7,0,0,1-.93,1.2,5.45,5.45,0,0,1-1.09.93l-.88.62a7.77,7.77,0,0,0-.83.67,3.52,3.52,0,0,0-.52.57C117.8,110.34,117.84,110.45,118,110.51Zm-3.5,7.4a2.37,2.37,0,0,1,.85-1.68,2.53,2.53,0,0,1,1.56-.59,2.36,2.36,0,0,1,1.54.54,2.14,2.14,0,0,1,.73,1.67,2.28,2.28,0,0,1-.28,1.24,2.39,2.39,0,0,1-.79.82,2.33,2.33,0,0,1-1.09.34,2.27,2.27,0,0,1-1.13-.19,2.23,2.23,0,0,1-.91-.75A2.8,2.8,0,0,1,114.53,117.91Z" fill="#fcb116"/></g></svg>