<svg id="Layer_1" data-name="Layer 1" xmlns="http://www.w3.org/2000/svg" viewBox="0 0 200 200"><path d="M113.83,85.56A16.79,16.79,0,0,0,100,92.85v19a16.8,16.8,0,1,0,13.85-26.31Zm-3.21,16.78a1.56,1.56,0,1,1,1.56-1.56A1.56,1.56,0,0,1,110.62,102.34Zm4.45-8.63a1.56,1.56,0,1,1,1.56,1.56A1.55,1.55,0,0,1,115.07,93.71Zm3.56,15.58a1.56,1.56,0,1,1,1.56-1.56A1.56,1.56,0,0,1,118.63,109.29Zm6-8a1.56,1.56,0,1,1,1.56-1.56A1.56,1.56,0,0,1,124.64,101.28Z" fill="#fcb116" opacity="0.9"/><g opacity="0.75"><path d="M100.08,33.44A51.32,51.32,0,1,0,151.4,84.76,51.31,51.31,0,0,0,100.08,33.44Zm15.23,30.37a6.76,6.76,0,1,1-6.76,6.76A6.76,6.76,0,0,1,115.31,63.81Zm-31.69,0a6.76,6.76,0,1,1-6.76,6.76A6.76,6.76,0,0,1,83.62,63.81Zm36.9,54A21.62,21.62,0,0,1,110,125.23c-.39,2.68-.85,4.77-1.4,5.31-1.09,1.09-16,1.23-17.26,0-.52-.51-1-2.63-1.41-5.36a21.55,21.55,0,0,1-10.48-7.44A16.8,16.8,0,1,1,100,92.85a16.8,16.8,0,1,1,20.53,24.92Z" fill="#fcb116"/></g><circle cx="83.62" cy="70.57" r="6.76" fill="#fcb116" opacity="0.3"/><circle cx="115.31" cy="70.57" r="6.76" fill="#fcb116" opacity="0.3"/><circle cx="115.31" cy="70.75" r="3.9" fill="#fff"/><circle cx="115.31" cy="70.75" r="3.9" fill="#fcb116"/><circle cx="83.62" cy="70.75" r="3.9" fill="#fff"/><circle cx="83.62" cy="70.75" r="3.9" fill="#fcb116"/><path d="M86.15,119.16a16.85,16.85,0,0,1-6.7-1.4,21.48,21.48,0,0,0,10.43,7.42c-.3-1.93-.56-4.16-.79-6.39A15.76,15.76,0,0,1,86.15,119.16Z" fill="#fcb116" opacity="0.6"/><path d="M113.83,119.16a16.66,16.66,0,0,1-3.17-.4c-.2,2.25-.43,4.52-.71,6.47a21.57,21.57,0,0,0,10.51-7.44A16.62,16.62,0,0,1,113.83,119.16Z" fill="#fcb116" opacity="0.6"/><path d="M86.15,85.56A16.8,16.8,0,1,0,100,111.87v-19A16.79,16.79,0,0,0,86.15,85.56ZM75.71,101.33a1.56,1.56,0,1,1,1.56-1.55A1.55,1.55,0,0,1,75.71,101.33Zm6,8a1.56,1.56,0,1,1,1.56-1.56A1.56,1.56,0,0,1,81.72,109.34Zm2-14a1.56,1.56,0,1,1,1.56-1.56A1.56,1.56,0,0,1,83.72,95.33Zm6,7.06a1.56,1.56,0,1,1,1.56-1.56A1.56,1.56,0,0,1,89.73,102.39Z" fill="#fcb116" opacity="0.9"/><path d="M99.94,96.06c-4.5,0-14.5-6.83-14-11.3.4-3.71,10.28-5.13,14-5.13s13.61,1.42,14,5.13C114.44,89.23,104.44,96.06,99.94,96.06Z" fill="#fcb116"/><path d="M100,111.89a1,1,0,0,1-1-1V95.08a1,1,0,0,1,2,0v15.81A1,1,0,0,1,100,111.89Z" fill="#fcb116"/><circle cx="110.62" cy="100.78" r="1.56" fill="#fcb116" opacity="0.55"/><circle cx="116.63" cy="93.71" r="1.56" fill="#fcb116" opacity="0.55"/><circle cx="118.63" cy="107.73" r="1.56" fill="#fcb116" opacity="0.55"/><circle cx="124.64" cy="99.72" r="1.56" fill="#fcb116" opacity="0.55"/><circle cx="89.73" cy="100.83" r="1.56" fill="#fcb116" opacity="0.55"/><circle cx="83.72" cy="93.77" r="1.56" fill="#fcb116" opacity="0.55"/><circle cx="81.72" cy="107.78" r="1.56" fill="#fcb116" opacity="0.55"/><circle cx="75.71" cy="99.78" r="1.56" fill="#fcb116" opacity="0.55"/><rect x="99.83" y="118.41" width="0.5" height="13" fill="#fcb116"/><path d="M143.12,56.85a7.76,7.76,0,0,0,3.64-6.48,7.9,7.9,0,0,0-7.9-7.89,7.76,7.76,0,0,0-5.94,2.85A51.91,51.91,0,0,1,143.12,56.85Z" fill="#fcb116" opacity="0.65"/><path d="M57,57A51.52,51.52,0,0,1,67.11,45.45a7.78,7.78,0,0,0-6-3,7.9,7.9,0,0,0-7.9,7.89A7.78,7.78,0,0,0,57,57Z" fill="#fcb116" opacity="0.65"/><path d="M100,111.87a16.68,16.68,0,0,1-10.9,6.92c.55,5.37,1.32,10.87,2.2,11.75,1.22,1.23,16.17,1.09,17.26,0,.94-.94,1.65-6.43,2.12-11.77A16.72,16.72,0,0,1,100,111.87Z" fill="#fcb116" opacity="0.25"/></svg>