<svg id="Layer_1" data-name="Layer 1" xmlns="http://www.w3.org/2000/svg" viewBox="0 0 25 25"><path d="M14.05,9.36c-.47-.42.28-1.27.47-1.65.37-.77.33-2.27.91-2.75.9-.74,3.43,1.07,3.19,2.69-.11.72-1.65,1-2.83,1.27C15.33,9,14.48,9.74,14.05,9.36Z" fill="none" stroke="#fcb116" stroke-linejoin="round" stroke-width="0.38" opacity="0.8"/><g opacity="0.8"><path d="M10.53,9.69a2.3,2.3,0,0,1-1.09-.47l-.29-.17A5.1,5.1,0,0,0,8,8.74a3,3,0,0,1-1.68-.65,1.61,1.61,0,0,1,.12-1.77A3.08,3.08,0,0,1,9.2,4.59C10,4.7,10.25,6,10.53,7.16l.09.4a2.93,2.93,0,0,0,.21.48c.24.46.54,1,.19,1.43A.62.62,0,0,1,10.53,9.69ZM9,5A2.88,2.88,0,0,0,6.79,6.51c-.32.56-.38,1.07-.16,1.34a2.85,2.85,0,0,0,1.46.53,5.25,5.25,0,0,1,1.23.33l.32.2c.46.3.89.54,1.1.31h0c.18-.2-.05-.65-.24-1a3.31,3.31,0,0,1-.25-.57l-.09-.4c-.22-1-.5-2.21-1-2.29Z" fill="#fcb116"/></g></svg>