<svg id="Layer_1" data-name="Layer 1" xmlns="http://www.w3.org/2000/svg" viewBox="0 0 200 200"><path d="M87.05,74.75c-3.39,3.79-10.12-2.19-13.19-3.7-6.13-3-18.18-2.71-22-7.32-5.94-7.21,8.56-27.39,21.54-25.5,5.7.83,7.84,13.15,10.09,22.61C84.37,64.52,90.13,71.3,87.05,74.75Z" fill="none" stroke="#000" stroke-linejoin="round" stroke-width="3"/><path d="M112.43,74.87c-3.79-3.39,2.18-10.12,3.69-13.19,3-6.13,2.72-18.18,7.33-22,7.21-6,27.39,8.56,25.5,21.53-.83,5.7-13.16,7.84-22.62,10.09C122.66,72.2,115.87,78,112.43,74.87Z" fill="none" stroke="#000" stroke-linejoin="round" stroke-width="3"/></svg>