<svg id="Layer_1" data-name="Layer 1" xmlns="http://www.w3.org/2000/svg" viewBox="0 0 300 300"><path d="M150,3c81.06,0,147,65.94,147,147S231.06,297,150,297,3,231.06,3,150,68.94,3,150,3m0-3A150,150,0,1,0,300,150,150,150,0,0,0,150,0Z" fill="#231f20"/><circle cx="150" cy="150" r="123.18" fill="#fff"/><path d="M150,27.49A122.51,122.51,0,1,1,27.49,150,122.65,122.65,0,0,1,150,27.49m0-1.5A124,124,0,1,0,274,150,124,124,0,0,0,150,26Z" fill="#231f20"/><path d="M59.16,54.07l.52-4.94-.9.33a.28.28,0,0,1-.33-.13l-1.12-2.2L56.1,49l0,0a.28.28,0,0,1-.29.06l-1-.42.09,2.55a.27.27,0,0,1-.08.19.08.08,0,0,1,0,0,.27.27,0,0,1-.37-.08l-2.46-3.64-.4,1.5h0a.21.21,0,0,1-.07.11.24.24,0,0,1-.27.06l-2.85-.92.92,2.85v0a.28.28,0,0,1-.07.25.19.19,0,0,1-.12.07l-1.5.4,3.65,2.46a.26.26,0,0,1,.11.23.23.23,0,0,1-.08.18.26.26,0,0,1-.19.08L48.48,55l.42,1a.28.28,0,0,1-.06.29l0,0-1.91,1.24,2.2,1.12a.27.27,0,0,1,.13.33l-.33.9,4.94-.52a.26.26,0,0,1,.27.16l.59,1.26,2.06-2.93,0,0h0a.38.38,0,0,1,.55,0l2.38,2.64.52-.52-2.64-2.38,0-.06a.39.39,0,0,1,0-.5l0,0,2.93-2.06-1.26-.59A.27.27,0,0,1,59.16,54.07Z"/><path d="M48.3,48.54l2.85.92a.24.24,0,0,0,.27-.06.23.23,0,0,0,.07-.1v0l.4-1.5,2.46,3.65a.27.27,0,0,0,.37.07.08.08,0,0,0,0,0,.27.27,0,0,0,.08-.19l-.09-2.55,1,.42a.28.28,0,0,0,.29-.06.08.08,0,0,1,0,0l1.23-1.91,1.12,2.2a.27.27,0,0,0,.33.13l.9-.33-.52,4.94a.27.27,0,0,0,.16.27l1.26.59L57.65,57l0,0a.39.39,0,0,0,0,.5l0,.06L60.25,60l-.52.52-2.38-2.64a.39.39,0,0,0-.55,0h0l0,0-2.06,2.93-.59-1.26a.26.26,0,0,0-.27-.16l-4.94.52.33-.9a.27.27,0,0,0-.13-.33l-2.2-1.12,1.91-1.24,0,0A.28.28,0,0,0,48.9,56l-.42-1,2.55.09a.26.26,0,0,0,.19-.08.23.23,0,0,0,.08-.18.26.26,0,0,0-.11-.23l-3.65-2.46,1.5-.4a.19.19,0,0,0,.12-.07.28.28,0,0,0,.07-.25v0l-.92-2.85m-.4-.4.15.47L49,51.47h0l-1.49.4-.54.14.46.31L51,54.8h0l-2.55-.09-.39,0,.15.37.41,1h0l-1.91,1.24-.37.24.39.2L49,58.92s0,0,0,0l-.33.9-.14.38.41,0,4.94-.52h0l.59,1.27.19.4L54.9,61,57,58v0h0a.14.14,0,0,1,.2,0l2.37,2.63.18.2.19-.19.52-.52.19-.19-.2-.18-2.63-2.37,0,0a.12.12,0,0,1,0-.17l0,0,2.93-2,.36-.25-.4-.19-1.26-.59h0l.52-4.94,0-.41-.38.14-.9.33h0L57.56,47l-.2-.39-.24.37L55.88,48.9h0l-1-.41-.37-.15,0,.39.09,2.55h0L52.1,47.64l-.31-.46-.14.54-.4,1.49h0l-2.86-.93-.47-.15Z" stroke="#231f20" stroke-miterlimit="10" stroke-width="0.05"/><path d="M101.54,27.24l2.24-4.43h-1a.27.27,0,0,1-.26-.24l-.27-2.46-1.83,1.35,0,0a.26.26,0,0,1-.29,0l-.81-.75-.82,2.41a.26.26,0,0,1-.14.15l0,0a.27.27,0,0,1-.32-.2l-1-4.28L96.07,20h0a.39.39,0,0,1-.1.08.26.26,0,0,1-.28,0l-2.34-1.88-.14,3h0a.29.29,0,0,1-.16.22.32.32,0,0,1-.14,0l-1.54-.16,2.53,3.6a.25.25,0,0,1,0,.25.24.24,0,0,1-.14.14.26.26,0,0,1-.21,0l-2.34-1,0,1.1a.27.27,0,0,1-.16.25h0l-2.22.48L90.47,28a.26.26,0,0,1,0,.36l-.63.72,4.81,1.27a.26.26,0,0,1,.19.24L95,32l3-2,.06,0h0a.39.39,0,0,1,.51.22l1.28,3.3.67-.3L98.84,30a.11.11,0,0,1,0-.07.39.39,0,0,1,.21-.46l.07,0,3.47-.88-1-1A.25.25,0,0,1,101.54,27.24Z"/><path d="M93.34,18.21l2.34,1.88a.26.26,0,0,0,.28,0,.25.25,0,0,0,.1-.08h0l.9-1.26,1,4.28a.26.26,0,0,0,.32.2l0,0a.26.26,0,0,0,.14-.15l.82-2.41.81.75a.26.26,0,0,0,.29,0l0,0,1.83-1.35.27,2.46a.27.27,0,0,0,.26.24h1l-2.24,4.43a.25.25,0,0,0,0,.31l1,1-3.46.88-.07,0a.39.39,0,0,0-.21.46.16.16,0,0,0,0,.08l1.61,3.15-.67.3-1.28-3.3a.39.39,0,0,0-.51-.22h0l-.06,0-3,2-.11-1.4a.26.26,0,0,0-.19-.24l-4.81-1.27.63-.72a.26.26,0,0,0,0-.36l-1.65-1.82L91,25.67h0a.27.27,0,0,0,.16-.25l0-1.1,2.34,1a.26.26,0,0,0,.21,0,.24.24,0,0,0,.14-.14.25.25,0,0,0,0-.25l-2.53-3.6,1.54.16a.22.22,0,0,0,.14,0,.31.31,0,0,0,.16-.22h0l.14-3m-.23-.51,0,.5-.15,3h0l-1.54-.16L90.83,21l.32.46L93.68,25h0l-2.35-1L91,23.92v.39l0,1.11h0l-2.22.48-.43.09.3.33,1.66,1.82v0l-.63.73-.27.31.4.1,4.8,1.27s0,0,0,0h0L94.7,32l0,.44.36-.24,3-2h0a.14.14,0,0,1,.17.08l1.28,3.3.1.25.24-.11.68-.3.24-.11-.12-.24-1.62-3.15s0,0,0,0a.13.13,0,0,1,.08-.15h0l3.47-.88.42-.11-.3-.31-1-1a0,0,0,0,1,0,0L104,22.93l.19-.37h-.41l-1,0h0l-.27-2.45,0-.44-.36.26-1.83,1.34h0l-.81-.75-.28-.26-.13.37L98.25,23h0a0,0,0,0,1,0,0l-1-4.28-.13-.54-.32.45-.91,1.26h0L93.5,18l-.39-.31Z" stroke="#231f20" stroke-miterlimit="10" stroke-width="0.05"/><path d="M207.11,30.78l4.81-1.25-.62-.72a.27.27,0,0,1,0-.36L213,26.63l-2.22-.49-.05,0a.26.26,0,0,1-.16-.25l0-1.1-2.35,1a.26.26,0,0,1-.21,0l0,0a.27.27,0,0,1-.06-.37l2.55-3.58-1.54.15h0a.27.27,0,0,1-.12,0,.24.24,0,0,1-.15-.23l-.14-3-2.34,1.87h0a.27.27,0,0,1-.26,0,.31.31,0,0,1-.11-.09l-.9-1.26-1,4.27a.25.25,0,0,1-.17.19.27.27,0,0,1-.2,0,.29.29,0,0,1-.14-.15l-.8-2.42-.82.74a.26.26,0,0,1-.29.05l0,0-1.83-1.35L199.25,23a.27.27,0,0,1-.26.24h-1l2.22,4.45a.26.26,0,0,1-.05.3l-1,1,3.46.9.07,0h0a.38.38,0,0,1,.17.52l-1.63,3.15.67.3,1.3-3.3a.25.25,0,0,1,0-.07.4.4,0,0,1,.48-.14l.06,0,3,2,.11-1.39A.27.27,0,0,1,207.11,30.78Z"/><path d="M208.48,18.66l.14,3a.24.24,0,0,0,.15.23.27.27,0,0,0,.12,0h0l1.54-.15-2.55,3.58a.27.27,0,0,0,.06.37l0,0a.26.26,0,0,0,.21,0l2.35-1,0,1.1a.26.26,0,0,0,.16.25l.05,0,2.22.49-1.67,1.82a.29.29,0,0,0,0,.36l.63.73-4.81,1.24a.28.28,0,0,0-.2.24l-.11,1.39-3-2-.06,0a.4.4,0,0,0-.48.14.25.25,0,0,0,0,.07l-1.3,3.3-.67-.3,1.63-3.15a.38.38,0,0,0-.17-.52h0l-.07,0-3.46-.9,1-1a.26.26,0,0,0,.05-.3L198,23.21h1a.27.27,0,0,0,.26-.24l.28-2.45,1.83,1.35,0,0a.26.26,0,0,0,.29-.05l.81-.74.81,2.42a.29.29,0,0,0,.14.15.27.27,0,0,0,.2,0,.25.25,0,0,0,.17-.19l1-4.27.9,1.26a.31.31,0,0,0,.11.09.25.25,0,0,0,.26,0h0l2.34-1.87m.24-.51-.39.31L206,20.33h0l-.9-1.26-.33-.46-.13.55-1,4.27h0l-.8-2.41-.13-.37-.29.26-.81.75h0l-1.83-1.35-.36-.26,0,.43L199,22.94h-1.38l.18.36L200,27.77h0l-1,1-.31.32.43.11,3.46.89h0a.15.15,0,0,1,.06.18l-1.64,3.15-.12.24.24.11.67.3.25.12.09-.25,1.3-3.3,0,0a.12.12,0,0,1,.16,0h0l2.95,2,.36.25,0-.44.11-1.39h0L212,29.78l.4-.1-.27-.31-.62-.73v0l1.67-1.82.29-.32-.43-.1-2.22-.49h0l0-1.1v-.39l-.36.15-2.35,1h0s0,0,0,0l2.55-3.59.32-.45-.55.05-1.55.15h0a0,0,0,0,1,0,0h0l-.13-3,0-.5Z" stroke="#231f20" stroke-miterlimit="10" stroke-width="0.05"/><path d="M245.89,59.41l4.94.52L250.5,59a.25.25,0,0,1,.13-.32l2.2-1.12-1.91-1.24s0,0,0,0a.27.27,0,0,1-.06-.29l.41-1-2.54.09a.24.24,0,0,1-.2-.07l0,0a.27.27,0,0,1,.07-.37l3.65-2.46-1.5-.4h0a.33.33,0,0,1-.1-.06.29.29,0,0,1-.07-.28l.93-2.85-2.85.93h0a.25.25,0,0,1-.26-.07.35.35,0,0,1-.07-.12l-.4-1.5-2.46,3.65a.24.24,0,0,1-.22.11.29.29,0,0,1-.19-.07.24.24,0,0,1-.07-.2l.09-2.54-1,.41a.26.26,0,0,1-.28-.06s0,0,0,0l-1.24-1.91-1.12,2.2a.25.25,0,0,1-.32.13l-.91-.33.52,4.94a.26.26,0,0,1-.15.27l-1.27.6L242.06,57l.06,0h0a.41.41,0,0,1,0,.56L239.47,60l.52.52,2.37-2.63.07-.06a.39.39,0,0,1,.5,0l0,0L245,60.82l.6-1.26A.25.25,0,0,1,245.89,59.41Z"/><path d="M251.42,48.54l-.93,2.85a.29.29,0,0,0,.07.28.24.24,0,0,0,.1.06h0l1.49.4-3.64,2.46a.27.27,0,0,0-.07.37l0,0a.24.24,0,0,0,.2.07l2.54-.09-.41,1a.26.26,0,0,0,.06.29s0,0,0,0l1.91,1.24-2.2,1.12a.25.25,0,0,0-.13.32l.33.91-5-.52a.26.26,0,0,0-.27.15L245,60.82,243,57.89l0,0a.39.39,0,0,0-.5,0l-.07.06L240,60.49l-.52-.52,2.63-2.37a.39.39,0,0,0,0-.55l0,0-.05,0-2.93-2.05,1.27-.6a.26.26,0,0,0,.15-.27L240,49.13l.91.33a.25.25,0,0,0,.32-.13l1.12-2.2L243.62,49s0,0,0,0a.26.26,0,0,0,.28.06l1-.41-.08,2.54a.24.24,0,0,0,.07.2.29.29,0,0,0,.18.07.25.25,0,0,0,.23-.11l2.46-3.65.4,1.5a.35.35,0,0,0,.07.12.25.25,0,0,0,.26.07h0l2.85-.93m.4-.4-.48.16-2.85.92h0l-.4-1.49-.15-.54-.31.46-2.46,3.64h0l.09-2.54v-.4l-.36.15-1,.41h0L242.6,47l-.24-.37-.2.4L241,49.21h0l-.9-.33-.38-.14,0,.41.52,4.94h0L239,54.7l-.4.19.36.25,2.93,2.06h0a.13.13,0,0,1,0,.19l-2.63,2.37-.2.18.19.19.52.52.19.19.18-.2L242.55,58l0,0a.15.15,0,0,1,.18,0v0L244.81,61l.26.36.18-.4.6-1.26s0,0,0,0l4.94.52.4,0-.14-.38-.32-.9s0,0,0,0l2.2-1.12.39-.2-.36-.24-1.91-1.24h0s0,0,0,0l.41-1,.14-.36h-.39l-2.54.09h0l3.65-2.46.46-.32-.54-.14-1.5-.4h0s0,0,0,0h0l.93-2.85.16-.48Z" stroke="#231f20" stroke-miterlimit="10" stroke-width="0.05"/><path d="M153.77,18l3.86-3.13-.87-.4a.28.28,0,0,1-.14-.33l.77-2.34-2.23.47h0a.27.27,0,0,1-.25-.16l-.43-1L152.7,13a.25.25,0,0,1-.2.09h-.05a.27.27,0,0,1-.21-.31l.84-4.32-1.34.78h0l-.12,0a.27.27,0,0,1-.24-.14L150,6.39l-1.36,2.68h0a.26.26,0,0,1-.23.13.28.28,0,0,1-.13,0l-1.35-.78.84,4.32a.24.24,0,0,1-.08.24.26.26,0,0,1-.18.07.24.24,0,0,1-.19-.08l-1.74-1.86-.43,1a.26.26,0,0,1-.25.16h0l-2.22-.47.76,2.34a.28.28,0,0,1-.14.33l-.87.4L146.23,18a.26.26,0,0,1,.08.3l-.47,1.31,3.52-.62h.08a.39.39,0,0,1,.38.4l-.19,3.55h.74l-.18-3.55s0-.05,0-.08a.39.39,0,0,1,.38-.32h.07l3.53.62-.48-1.31A.26.26,0,0,1,153.77,18Z"/><path d="M150,6.39l1.36,2.68a.27.27,0,0,0,.24.14.25.25,0,0,0,.12,0h0l1.34-.78-.84,4.32a.27.27,0,0,0,.21.31h.05a.28.28,0,0,0,.2-.09l1.73-1.86.43,1a.26.26,0,0,0,.25.16h0l2.23-.47-.77,2.34a.28.28,0,0,0,.14.33l.87.4L153.77,18a.26.26,0,0,0-.08.3l.47,1.31L150.64,19h-.07a.39.39,0,0,0-.38.32.28.28,0,0,0,0,.09l.19,3.54h-.74l.19-3.54a.39.39,0,0,0-.38-.41h-.08l-3.52.62.47-1.31a.26.26,0,0,0-.08-.3l-3.86-3.13.87-.4a.28.28,0,0,0,.14-.33l-.77-2.34,2.23.47h0a.26.26,0,0,0,.25-.16l.43-1L147.3,13a.28.28,0,0,0,.2.09.27.27,0,0,0,.18-.08.24.24,0,0,0,.08-.24l-.84-4.32,1.34.78a.35.35,0,0,0,.14,0,.26.26,0,0,0,.23-.13h0L150,6.39m0-.56-.23.45L148.41,9h0a0,0,0,0,1,0,0h0l-1.34-.78-.48-.28.1.55.84,4.32h0l-1.74-1.86-.26-.29-.16.36-.43,1h0l-2.22-.47-.43-.09.13.42.77,2.34s0,0,0,0l-.87.4-.37.18.32.25,3.86,3.13h0l-.47,1.32-.15.41.43-.08,3.52-.62h0a.14.14,0,0,1,.13.14l-.18,3.54,0,.27h1.28l0-.27-.18-3.54v0a.14.14,0,0,1,.13-.12h0l3.52.62.43.08-.15-.41-.47-1.32h0l3.86-3.13.32-.25-.37-.18-.87-.4s0,0,0,0l.77-2.34.13-.42-.43.09-2.22.47h0l-.43-1-.16-.36-.26.29-1.74,1.86h0l.84-4.32.1-.55-.48.28L151.61,9h0a0,0,0,0,1,0,0h0l-1.36-2.67L150,5.83Z" stroke="#231f20" stroke-miterlimit="10" stroke-width="0.05"/><path d="M30.3,93.26,29,88.48l-.72.64a.26.26,0,0,1-.35,0L26,87.5l-.44,2.23s0,0,0,0a.25.25,0,0,1-.24.16h-1.1l1,2.33a.3.3,0,0,1,0,.21l0,0a.25.25,0,0,1-.37.07l-3.64-2.46.19,1.53v0a.5.5,0,0,1,0,.12.26.26,0,0,1-.23.16l-3,.2,1.93,2.31h0a.32.32,0,0,1,0,.27.22.22,0,0,1-.09.1l-1.24.93,4.3.93a.29.29,0,0,1,.19.17.27.27,0,0,1,0,.2.23.23,0,0,1-.15.14l-2.39.87.76.79a.28.28,0,0,1,.05.29l0,0-1.31,1.86,2.46.22a.26.26,0,0,1,.24.25l0,1,4.4-2.31a.26.26,0,0,1,.31,0l1,1,.81-3.48,0-.06v0a.4.4,0,0,1,.52-.18L33.21,99l.29-.68-3.33-1.22-.08,0a.38.38,0,0,1-.14-.48l0-.06,2-3-1.4-.08A.28.28,0,0,1,30.3,93.26Z"/><path d="M18.15,92.16l3-.2a.26.26,0,0,0,.23-.16.43.43,0,0,0,0-.12v0l-.19-1.53,3.64,2.47a.26.26,0,0,0,.37-.08l0,0a.37.37,0,0,0,0-.21l-1-2.33h1.1a.25.25,0,0,0,.24-.16.08.08,0,0,0,0,0L26,87.5l1.86,1.63a.27.27,0,0,0,.35,0l.72-.63,1.35,4.78a.27.27,0,0,0,.24.19l1.4.08-2,3,0,.06a.38.38,0,0,0,.14.48l.08,0,3.33,1.23-.29.67L30,97.45a.4.4,0,0,0-.52.18v0l0,.06-.81,3.48-1-1a.26.26,0,0,0-.31,0l-4.4,2.31,0-1a.26.26,0,0,0-.24-.25l-2.46-.22,1.31-1.86,0,0a.28.28,0,0,0-.05-.29l-.76-.79,2.39-.87a.23.23,0,0,0,.15-.14.27.27,0,0,0,0-.2.29.29,0,0,0-.19-.17l-4.3-.93L20,94.86a.31.31,0,0,0,.09-.11.32.32,0,0,0,0-.27h0l-1.93-2.31m-.51-.22.32.39,1.92,2.3h0s0,0,0,0h0l-1.24.93-.45.33.54.12L23,97h0l-2.39.86-.37.13.27.28.76.8h0L20,100.93l-.26.36.44,0,2.46.22a0,0,0,0,1,0,0l0,1v.41l.36-.19,4.4-2.32h0l1,1,.32.3.1-.43.82-3.48v0h0a.14.14,0,0,1,.18-.06l3.18,1.56.24.12.11-.25.29-.67.11-.25-.26-.09-3.32-1.23h0a.16.16,0,0,1-.05-.17v0l2-3,.24-.37-.44,0-1.39-.08h0l-1.35-4.78-.11-.4-.3.28-.72.63h0l-1.86-1.62L25.86,87l-.09.43-.44,2.23h-1.5L24,90l1,2.33h0s0,0,0,0l-3.63-2.46-.47-.32.07.56.18,1.53h0l-3,.2-.5,0Z" stroke="#231f20" stroke-miterlimit="10" stroke-width="0.05"/><path d="M272.18,100.05l4.28,2.52.08-1a.26.26,0,0,1,.25-.24l2.47-.11L278,99.34l0,0a.25.25,0,0,1,.07-.28l.8-.76-2.36-1a.25.25,0,0,1-.14-.16s0,0,0,0a.27.27,0,0,1,.22-.31l4.34-.73-1.2-1h0a.23.23,0,0,1-.07-.1.27.27,0,0,1,.05-.27l2-2.22-3-.34h0a.27.27,0,0,1-.2-.17.32.32,0,0,1,0-.14l.26-1.53L275,92.57a.25.25,0,0,1-.25,0,.27.27,0,0,1-.14-.14.3.3,0,0,1,0-.21L275.77,90l-1.1,0a.26.26,0,0,1-.24-.17s0,0,0-.06l-.34-2.24L272.15,89a.26.26,0,0,1-.35,0l-.69-.68L269.54,93a.28.28,0,0,1-.25.18h-1.4l1.81,3.09a.09.09,0,0,1,0,.06h0a.38.38,0,0,1-.25.49l-3.38,1.07.26.69,3.25-1.41.08,0a.41.41,0,0,1,.44.25s0,0,0,.07l.66,3.51,1.06-.9A.26.26,0,0,1,272.18,100.05Z"/><path d="M281.72,92.45l-2,2.22a.25.25,0,0,0-.05.27.23.23,0,0,0,.07.1h0l1.2,1-4.34.73a.27.27,0,0,0-.22.31s0,0,0,0a.25.25,0,0,0,.14.16l2.35,1-.79.76a.25.25,0,0,0-.07.28l0,0,1.22,1.92-2.47.11a.26.26,0,0,0-.25.24l-.08,1-4.28-2.52a.26.26,0,0,0-.31,0l-1.06.9-.66-3.52a.14.14,0,0,0,0-.06.39.39,0,0,0-.43-.25l-.08,0-3.25,1.41-.26-.69,3.38-1.07a.39.39,0,0,0,.25-.49h0s0,0,0-.06l-1.81-3.09h1.39a.28.28,0,0,0,.26-.18l1.57-4.72.69.68a.26.26,0,0,0,.35,0l1.93-1.53.34,2.24a.13.13,0,0,0,0,.06.27.27,0,0,0,.24.17l1.1,0-1.14,2.28a.3.3,0,0,0,0,.21.29.29,0,0,0,.13.14.27.27,0,0,0,.26,0l3.75-2.3-.26,1.53a.32.32,0,0,0,0,.14.25.25,0,0,0,.2.17h0l3,.34m.53-.19-.5-.06-3-.34h0a0,0,0,0,0,0,0h0l.26-1.52.09-.55-.47.29-3.75,2.29h0L276,90.06l.17-.35-.39,0-1.1,0a0,0,0,0,1,0,0h0l-.34-2.25-.06-.44-.35.28L272,88.76h0l-.68-.67-.29-.28-.13.38-1.57,4.72h0l-1.39,0h-.44l.22.38,1.81,3.09v0h0a.14.14,0,0,1-.09.17L266,97.66l-.26.08.1.25.26.69.09.25.25-.1,3.25-1.42h0a.15.15,0,0,1,.16.09v0l.66,3.52.08.43.33-.28,1.07-.91h0l4.28,2.52.35.2,0-.4.08-1h0l2.47-.11.44,0-.24-.37-1.22-1.91h0l.8-.76.28-.27L279,98l-2.35-1h0l4.34-.73.55-.09-.43-.36-1.2-1h0l2-2.22.34-.36Z" stroke="#231f20" stroke-miterlimit="10" stroke-width="0.05"/><circle cx="14" cy="150" r="5.61"/><path d="M14,144.32A5.68,5.68,0,1,1,8.32,150,5.69,5.69,0,0,1,14,144.32m0-.1A5.78,5.78,0,1,0,19.79,150,5.78,5.78,0,0,0,14,144.22Z" fill="#231f20"/><circle cx="285.24" cy="149.88" r="5.61"/><path d="M285.24,144.2a5.69,5.69,0,1,1-5.69,5.68,5.69,5.69,0,0,1,5.69-5.68m0-.1a5.79,5.79,0,1,0,5.78,5.78,5.78,5.78,0,0,0-5.78-5.78Z" fill="#231f20"/></svg>