<svg id="Layer_1" data-name="Layer 1" xmlns="http://www.w3.org/2000/svg" viewBox="0 0 25 25"><path d="M15.8,6.81A1.79,1.79,0,0,1,15.49,9c-.14.14-.69-.42-.56-.57a1,1,0,0,0,.13-1.27A1,1,0,0,0,14,7c-.18.11-.31-.74-.12-.82A1.82,1.82,0,0,1,15.8,6.81Z" fill="#fff"/><path d="M9.23,14.94a1.21,1.21,0,0,0,1.11,1.17h4.31a1.19,1.19,0,0,0,1.1-1c.09-1.21.18-2.37.3-3.91a3,3,0,0,0-.88-2.5C14.8,8.3,14.3,8,14.11,7.51A2.47,2.47,0,0,1,14,7H11s0,0-.13.52-.87.94-1,1.09A2.94,2.94,0,0,0,9,11.14C9,12.6,9.12,13.75,9.23,14.94Z"/><path d="M10.27,14.14a.82.82,0,0,0,.75.8h3a.82.82,0,0,0,.75-.71c.06-.83.12-1.62.2-2.67a2.33,2.33,0,0,0-2.5-2.3,2.35,2.35,0,0,0-2.35,2.28C10.13,12.54,10.19,13.32,10.27,14.14Z" fill="#fff"/><polygon points="11.02 6.99 13.97 6.99 13.76 5.57 11.24 5.57 11.02 6.99" fill="#fff"/><path d="M11.24,5.57c-.18,0-.27,0-.27-.29V4.17a.63.63,0,0,1,.55-.52h2a.56.56,0,0,1,.55.51V5.32c0,.2,0,.25-.26.25Z"/></svg>