<svg id="Layer_1" data-name="Layer 1" xmlns="http://www.w3.org/2000/svg" viewBox="0 0 200 200"><path d="M96,51.22c.19-.47,0-.71-.46-.33a8.4,8.4,0,0,0-1.35,1.41c.24.36.46.81.69,1.23C95.35,52.6,95.78,51.77,96,51.22Z" fill="#fcb116"/><path d="M98.91,56c0-.59-.24-.58-.42-.22a9.81,9.81,0,0,1-1.67,2.05c.26.67.51,1.34.75,2A8.49,8.49,0,0,0,98.91,56Z" fill="#fcb116"/><path d="M89.81,86.48a14.85,14.85,0,0,0,3.77-3.21,47.63,47.63,0,0,0-12.63,3C84,87.75,87.13,88.11,89.81,86.48Z" fill="#fcb116"/><path d="M71.65,73.59a4.57,4.57,0,0,1-3.33.67A37.49,37.49,0,0,0,78.83,85.12a21.38,21.38,0,0,1,5.76-5.79c3-1.8,6.45-5.9,7.4-9.73.5-2,2.46-4.76,4.17-7.43-.26-1-.51-2.06-.82-3.06-1,.8-2,1.36-2.46,1-.79-.58.08-2.74,1.11-4.87-.24-.61-.51-1.15-.77-1.73C91,56.7,88.48,61,86.75,60.29c-2.31-1,.15-5.79-.28-7.95-.14-.7-.46-.55-.64,0C84.77,55.7,83,65.13,80.07,64.46c-1.86-.42,1.2-7,0-10.11-.19-.5-.59-.77-.76,0-.6,2.89-.72,9.58-3.91,9.84-2.91.24-7.24-11.37-6.75-13.66.27-1.29-.5-.69-.61-.17C65.88,61.51,78,69.14,71.65,73.59Z" fill="#fcb116"/><path d="M102.64,93c5.09-4.11,4.91-7.52,4.75-8.1-.08-.26-.65-.73-1.16,0-2.7,3.84-8.23,6.27-10.77,8.6-2.29,2.11-.35,5.25,2.71,3.83C99.64,96.61,99.61,95.4,102.64,93Z" fill="#fcb116"/><path d="M146.64,79.33c-1.27-3.63-4.77-2.93-15.33.82-5.49,1.95-13.64,5.1-22.88,4.52l-.15,0a7.47,7.47,0,0,1-1.07,4.72c-2.54,4.16-6,5.07-8.1,8.66,1.69,1.65,3.31,7.43,1.42,16.54-.74,3.55,6.24,8.94,7.87,12.17s4.43,11.8,8,12c3,.17,17.55,3.69,17.73,3.73C147.91,131.39,157.16,109.48,146.64,79.33Z" fill="#fcb116"/><path d="M93.17,93c1.63-2.55,7.77-5.24,12.11-8.71-.59-.09-1.19-.14-1.79-.24a48.73,48.73,0,0,1-10.41,5.61c-3.75,1.42-1.11,5.9-5.17,7-4.67,1.3-1.38-4.63-2.76-4.9-9.67-1.91-16.52-11.68-19.36-18.27C60.45,70.76,55,62.48,54.2,58.69c-.16-.75-.89-1-.9-.06-.23,14,21.47,22.79,17.4,27.55-2.86,3.35-17.87-2.49-21-10.83-.14-.38-.8-.61-.86.29C48.67,78.08,53.46,91.3,75,92.71c-4.75,6.28,1.91,4.34-14.93,19.36-3.9,3.48-1.52,12.52-1.37,18.22,0,1.66,2.43.91,5.11.23.57-.15,1.41.58,2.34.27,1.27-.43,1.19-2,1.74-1.92s.74,1.43,1.5,1.42c2.65,0,4.84-2.85,6.94-6l.06-.06c-.07,0,0-.16.13-.32,1.87-3.39,16.25-5.43,19-8.23,8.26-8.33,2-16.79,1.58-17.17C93.72,100,90.87,96.56,93.17,93ZM66.24,126c-.35,1-.9,3.17-1.77,3.71s-1.55.49-1.55-.57c0-1.31,1.83-2.37,2.26-3.27a4.34,4.34,0,0,0-.05-4.1c-.47-1.12.34-1,.86-.37C66.72,122.29,66.83,124.31,66.24,126Zm8.16-5.9c-.15.34.16,1-.35,1.41-.89.76-4.42,4.37-5.67,7.29-.06.15-.74.14-.61-.12,3.35-6.65,5.71-6.41,6.16-8.63,0-.1-.3-.08-.4-.09-.4,0-.37-.47.09-.4a9.49,9.49,0,0,0,1.19,0c.07,0,.28,0,.22.17S74.48,119.94,74.4,120.1Zm7.33-19a7.41,7.41,0,0,0-.76,1.56c-.12.53-.7.54-.6-.14.52-3.83,3.68-4.75,6.52-3.45.26.11.22.23.21.33C86.54,102.59,81.73,101.12,81.73,101.12Z" fill="#fcb116"/><path d="M64.33,68.13c.09-1.23.66-1.44,1,0,1.88,7.37,15.5,23.75,24.45,18.33C101.87,79.18,97.17,61,92.07,51c-.27-.54-.43-1.45.61-.55,4.5,3.87,7.08,19.14,9.19,18.93,4.19-.42,5.55-12.62,6.43-17.34.17-.9.64-1.13,1,.06C110.36,56,107.51,62.6,109,63c1.89.56,7.93-10.78,8.39-15.06.06-.51.53-1.7,1,0,1.1,4-5.43,12.76-4.1,14.28.9,1,5.36-5.35,5.81-7.72.27-1.4,1.29-1.86,1.78-.06,1.54,5.68-6.28,26.63-28.75,35.15-3.75,1.42-1.11,5.9-5.17,7-4.67,1.3-1.38-4.63-2.76-4.9C72,89.16,64,72.07,64.33,68.13Z" fill="#fcb116" opacity="0.7"/><path d="M86.89,99.09c-2.84-1.3-6-.38-6.52,3.45-.1.68.48.67.6.14a7.41,7.41,0,0,1,.76-1.56s4.81,1.47,5.37-1.7C87.11,99.32,87.15,99.2,86.89,99.09Zm-2.15.39c-.31,0-.56-.13-.56-.28s.25-.29.56-.29.57.13.57.29S85.05,99.48,84.74,99.48Z" fill="#fcb116" opacity="0.4"/><path d="M65.13,121.77c-.47-1.12.34-1,.86-.37.73.89.84,2.91.25,4.6-.35,1-.9,3.17-1.77,3.71s-1.55.49-1.55-.57c0-1.31,1.83-2.37,2.26-3.27A4.34,4.34,0,0,0,65.13,121.77Z" fill="#fcb116" opacity="0.4"/><path d="M67.77,128.68c-.13.26.55.27.61.12,1.24-2.92,4.78-6.53,5.67-7.29.51-.43.2-1.07.35-1.41.08-.16.55-.22.63-.39s-.15-.17-.22-.17a9.49,9.49,0,0,1-1.19,0c-.46-.07-.49.35-.09.4.1,0,.42,0,.4.09C73.48,122.27,71.12,122,67.77,128.68Z" fill="#fcb116" opacity="0.4"/><g opacity="0.8"><path d="M116.44,138.75c-3.61-.21-6.42-8.78-8-12s-8.61-8.62-7.87-12.17c1.89-9.11.27-14.89-1.42-16.54,2.13-3.59,5.56-4.5,8.1-8.66a7.58,7.58,0,0,0,.9-5.78c-.3-1.35-1.23-.72-1.52-.45-4.29,4-11.62,7-13.42,9.81-2.3,3.61.55,7.07,4,5.58.43.38,6.68,8.84-1.58,17.17-2.78,2.8-17.16,4.84-19,8.23-.12.22-.5.44,0,.35,3.41-.86.45,4.53,2.94,8.07,1.54,2.18,5.32,2.41,6.46,4.64,1.92,3.79-3.1,5.72.73,14.16,1.38,3,3.83,1.48,4.2.38.83-2.4-.27-5.92.67-10.18.46-2,4.12-5,3.79-8.24-.63-6.25,1.94-11.23,4.08-10.61,7.15,2,4.77,10.24,6.67,11.91s5.16,2.25,6.78,5.5c2.4,4.8,6.6,8.74,9.16,9.25,1.34.27,7.13-1.8,12.2-6.67C134.2,142.49,119.41,138.92,116.44,138.75ZM98.17,97.29c-3.06,1.42-5-1.72-2.71-3.83,2.54-2.33,8.07-4.76,10.77-8.6.51-.73,1.08-.26,1.16,0,.16.58.34,4-4.75,8.1C99.61,95.4,99.64,96.61,98.17,97.29Z" fill="#fcb116"/></g></svg>