<svg id="Layer_1" data-name="Layer 1" xmlns="http://www.w3.org/2000/svg" viewBox="0 0 25 25"><path d="M9.27,10.22c.7,0,2.26-.09,2.78.38A4.87,4.87,0,0,1,12.86,14a1.58,1.58,0,0,1-1,1.43A1.83,1.83,0,0,1,10,15.17a8.89,8.89,0,0,0-1.32-.79c-.32-.18-1-.46-1.52-2.24-.1-.38-.17-1.42.34-1.54A11.49,11.49,0,0,1,9.27,10.22Z"/><path d="M15.51,10.33c-.7,0-2.27.09-2.79-.38a4.91,4.91,0,0,1-.8-3.37,1.57,1.57,0,0,1,1-1.43,1.81,1.81,0,0,1,1.83.23,9.49,9.49,0,0,0,1.32.79c.32.18,1,.46,1.52,2.24.1.38.18,1.42-.34,1.54A11.63,11.63,0,0,1,15.51,10.33Z"/><path d="M11.35,10.75c-1,.23-3.86-.42-4.15-1s.38-2.87,1.73-3.66c.45-.26,1.16-.64,1.84-1,1.17-.56,1.52.18,1.77.73a5.68,5.68,0,0,1,.34,3.67A3,3,0,0,1,11.35,10.75Z" fill="#fff"/><path d="M12.07,11.08a3.75,3.75,0,0,0,.46,3.25c.68.95,1.42,1.27,2.24.76.41-.25,1.27-.67,1.47-1.25.08-.25.17-.42.65-.86a1.11,1.11,0,0,0,.53-.89c0-.7.66-1.23-.26-2.07a3.35,3.35,0,0,0-3.92-.3A7.94,7.94,0,0,0,12.07,11.08Z" fill="#fff"/><path d="M11,9.53c-.05.06-.06.22-.1.29a.9.9,0,0,1-.2.19s0,0,0,.08a.19.19,0,0,1,0,.29.16.16,0,0,0,0,.17.35.35,0,0,1,.06.27c0,.21.13.24.19.31s.27.1.24.19.09.15.15.18a.64.64,0,0,0,.24.1,1.89,1.89,0,0,1,.54.12c.05,0,.15,0,.19,0s.07,0,.09,0a.41.41,0,0,0,.52-.24c.06-.17.13-.17.21-.19a.33.33,0,0,0,.22-.28s0-.13.06-.07.25-.43.23-.63a.23.23,0,0,1,.07-.25c.11-.12.08-.25,0-.43s-.36-.25-.35-.38,0-.11-.18-.2-.14,0-.22-.16-.78-.25-1.18-.13c0,0,0,.15-.31.3-.07,0-.24.07-.22.22S11.05,9.46,11,9.53Z"/></svg>