<svg id="Layer_1" data-name="Layer 1" xmlns="http://www.w3.org/2000/svg" viewBox="0 0 25 25"><path d="M12.5.25A12.25,12.25,0,1,1,.25,12.5,12.27,12.27,0,0,1,12.5.25m0-.25A12.5,12.5,0,1,0,25,12.5,12.5,12.5,0,0,0,12.5,0Z" fill="#231f20"/><circle cx="12.5" cy="12.5" r="10.27" fill="#fff"/><path d="M12.5,2.29A10.21,10.21,0,1,1,2.29,12.5,10.22,10.22,0,0,1,12.5,2.29m0-.12A10.33,10.33,0,1,0,22.83,12.5,10.32,10.32,0,0,0,12.5,2.17Z" fill="#231f20"/><path d="M4.93,4.51l0-.42-.07,0s0,0,0,0l-.09-.18-.11.16h0l-.09,0v.21s0,0,0,0h0L4.32,4l0,.13h0L4,4l.08.24h0v0h0L4,4.34l.31.21a0,0,0,0,1,0,0H4l0,.09s0,0,0,0h0l-.16.11.18.09s0,0,0,0l0,.07.42,0h0l0,.11.17-.25h0a0,0,0,0,1,0,0L5,5,5,5,4.8,4.8h0a0,0,0,0,1,0,0h0l.25-.17-.11,0Z"/><path d="M4,4l.24.08h0l0-.13.21.31h0s0,0,0,0V4.06l.09,0h0l.11-.16.09.18s0,0,0,0l.07,0,0,.42v0l.11,0-.25.17h0a0,0,0,0,0,0,0h0L5,5,5,5l-.2-.22a0,0,0,0,0,0,0h0l-.17.25,0-.11h0L4.07,5l0-.07s0,0,0,0L3.91,4.8l.16-.11h0s0,0,0,0l0-.09h.24a0,0,0,0,0,0,0L4,4.34l.13,0h0v0h0L4,4M4,4v0l.08.24h0L4,4.32l0,0,0,0,.3.21H4v0l0,.09h0l-.15.1,0,0,0,0,.18.09h0l0,.08V5h0l.41,0h0l0,.11v0l0,0,.17-.24h0l.2.21,0,0H5L5,5h0L5,5l-.21-.2h0a0,0,0,0,1,0,0h0l.24-.17,0,0h0L5,4.51H5L5,4.1v0H5l-.08,0h0L4.8,3.92l0,0,0,0-.1.15h0L4.57,4h0v.24h0L4.34,4l0,0,0,0,0,.12h0L4,4Z" stroke="#231f20" stroke-miterlimit="10" stroke-width="0.05"/><path d="M8.46,2.27l.19-.37H8.57a0,0,0,0,1,0,0l0-.2-.15.11h0l-.06-.07-.07.2s0,0,0,0h0l0,0-.08-.35L8,1.67H8l-.19-.15v.25h0s0,0,0,0H7.61l.21.29a0,0,0,0,1,0,0h0L7.6,2v.11h0l-.19,0,.14.15a0,0,0,0,1,0,0l0,.06.4.11s0,0,0,0v.11l.25-.16h0a0,0,0,0,1,0,0l.11.28,0,0L8.24,2.5h0a.08.08,0,0,1,0,0h0l.29-.07L8.47,2.3A0,0,0,0,1,8.46,2.27Z"/><path d="M7.78,1.52,8,1.67H8l.07-.1.08.35,0,0h0s0,0,0,0l.07-.2.06.07h0l.15-.11,0,.2a0,0,0,0,0,0,0h.08l-.19.37a0,0,0,0,0,0,0l.08.08-.29.07h0a.08.08,0,0,0,0,0h0l.13.26,0,0-.11-.28a0,0,0,0,0,0,0h0l-.25.16V2.55s0,0,0,0l-.4-.11,0-.06a0,0,0,0,0,0,0L7.4,2.18l.19,0h0V2l.2.08h0a0,0,0,0,0,0,0l-.21-.29h.14s0,0,0,0h0V1.52m0-.05v.3h0l-.12,0h0l0,0,.21.3h0L7.61,2l0,0v.13h0l-.18,0h0l0,0,.13.16h0l0,.06,0,0h0l.4.11h0V2.7l0,0,.25-.17h0s0,0,0,0l.11.27v0h0l.06,0h0v0l-.13-.26h0s0,0,0,0h0l.29-.07h0l0,0-.08-.08h0l.19-.37v0H8.57l0-.21v0l0,0-.15.11h0l-.07-.06,0,0v0l-.07.2h0L8.1,1.56V1.51l0,0L8,1.66H8l-.2-.16,0,0Z" stroke="#231f20" stroke-miterlimit="10" stroke-width="0.05"/><path d="M17.26,2.57l.4-.11-.05-.06a0,0,0,0,1,0,0l.14-.15-.19,0h0V2.06l-.2.09h0s0,0,0,0l.21-.3-.13,0h0V1.56l-.19.15h0a0,0,0,0,1,0,0h0l-.08-.11L17,2h0s0,0,0,0a0,0,0,0,1,0,0l-.06-.2-.07.06a0,0,0,0,1,0,0h0l-.15-.11,0,.2a0,0,0,0,1,0,0H16.5l.19.37a0,0,0,0,1,0,0l-.08.08.29.08h0s0,0,0,0l-.14.27.06,0,.11-.27h0s0,0,0,0h0l.24.17V2.58Z"/><path d="M17.37,1.56v.25h0l.13,0-.21.3s0,0,0,0h0l.2-.09v.1s0,0,0,0h0l.19,0-.14.15a0,0,0,0,0,0,0l.05.06-.4.11h0V2.7L17,2.53h0s0,0,0,0h0l-.11.27-.06,0,.14-.27s0,0,0,0h0l-.29-.08.08-.08a0,0,0,0,0,0,0l-.19-.37h.08a0,0,0,0,0,0,0l0-.2.15.11h0a0,0,0,0,0,0,0l.07-.06.06.2a0,0,0,0,0,0,0s0,0,0,0h0l.08-.36.08.11h0a0,0,0,0,0,0,0h0l.19-.15m0-.05,0,0-.2.15h0l-.07-.1,0,0V1.6L17,2h0l-.06-.2v0l0,0-.07.06h0l-.15-.11,0,0v0l0,.2h-.11v0l.19.37h0l-.08.08,0,0h0l.28.08h0l-.13.27v0h0l.05,0h0v0L17,2.55h0l.24.17,0,0V2.59h0l.41-.11h0l0,0-.06-.06h0l.14-.16,0,0h0l-.18,0h0V2h0l-.2.09h0l.21-.29,0,0h0l-.13,0h0l0-.25v0Z" stroke="#231f20" stroke-miterlimit="10" stroke-width="0.05"/><path d="M20.49,5l.41,0,0-.07,0,0,.18-.09-.16-.11h0s0,0,0,0l0-.09H20.7a0,0,0,0,1,0,0l.3-.21-.12,0h0a0,0,0,0,1,0,0L21,4l-.24.08h0l0-.13-.2.31h0V4.06l-.08,0h0l-.1-.16-.09.18s0,0,0,0l-.08,0,.05.42,0,0-.1,0,.24.17h0a0,0,0,0,1,0,0L20,5l0,0,.2-.22h0s0,0,0,0h0l.17.25,0-.11Z"/><path d="M21,4l-.08.24a0,0,0,0,0,0,0h0l.12,0-.3.21a0,0,0,0,0,0,0h.24l0,.09s0,0,0,0h0l.16.11-.18.09,0,0,0,.07-.41,0h0l0,.11-.17-.25h0s0,0,0,0h0L20,5l0,0,.22-.2a0,0,0,0,0,0,0h0l-.24-.17.1,0,0,0L20,4.09l.08,0s0,0,0,0l.09-.18.1.16h0l.08,0v.23h0l.2-.31,0,.13h0L21,4m0,0h0l-.24.08h0l0-.12v0l0,0-.2.3h0V4h0l-.09,0h0l-.1-.15,0,0,0,0-.09.18h0l-.08,0h0v0l0,.41h0l-.1,0h0l0,0,.24.17h0s0,0,0,0l-.22.2,0,0h0l0,0h0l.2-.22h0l.17.24,0,0,0,0,0-.11h0l.41,0h0V5l0-.08h0l.18-.09,0,0,0,0-.16-.1h0l0-.09v0h-.25L21,4.36l0,0,0,0-.12,0h0L21,4.05V4Z" stroke="#231f20" stroke-miterlimit="10" stroke-width="0.05"/><path d="M12.81,1.5l.33-.26-.08,0s0,0,0,0l.07-.2-.19,0h0s0,0,0,0l0-.09-.15.16h0s0,0,0,0L12.76.7l-.12.06h0L12.5.53l-.11.23h0L12.24.7l.07.36v0h0L12.13.92l0,.09s0,0,0,0h0l-.19,0,.07.2s0,0,0,0l-.08,0,.33.26s0,0,0,0l0,.11.3,0h0s0,0,0,0v.29h.06V1.62h0a0,0,0,0,1,0,0h0l.3,0,0-.11S12.81,1.51,12.81,1.5Z"/><path d="M12.5.53l.11.23h0L12.76.7l-.07.36s0,0,0,0h0l.15-.16,0,.09s0,0,0,0h0l.19,0-.07.2s0,0,0,0l.08,0-.33.26s0,0,0,0l0,.11-.3,0h0a0,0,0,0,0,0,0h0v.29h-.06V1.62s0,0,0,0h0l-.3,0,0-.11s0,0,0,0l-.33-.26.08,0s0,0,0,0L11.88,1l.19,0h0s0,0,0,0l0-.09.15.16h0v0L12.24.7l.12.06h0L12.5.53m0,0,0,0-.11.23h0L12.25.68l0,0v0l.07.36h0L12.15.91l0,0v0l0,.08h0l-.18,0h0V1l.07.19h0l-.07,0h0l0,0,.32.26h0l0,.11v0h0l.29,0h0a0,0,0,0,1,0,0v.32h.1V1.61h0a0,0,0,0,1,0,0h0l.29,0h0v0l0-.11h0l.32-.26,0,0h0l-.07,0h0L13.14,1V1h0l-.18,0h0l0-.08v0l0,0-.14.15h0L12.78.7v0l0,0-.12.07h0L12.52.52l0,0Z" stroke="#231f20" stroke-miterlimit="10" stroke-width="0.05"/><path d="M2.52,7.77l-.11-.4-.06.06h0l-.15-.14,0,.19h0l0,0H2l.08.2s0,0,0,0h0l-.3-.21v.13h0l-.25,0,.16.19h0a0,0,0,0,1,0,0h0L1.57,8l.35.08h0v0h0l-.2.07.06.07s0,0,0,0h0l-.11.15.21,0a0,0,0,0,1,0,0v.08l.37-.19h0l.09.08.07-.29h0s0,0,0,0l.27.13,0-.06-.28-.1h0a0,0,0,0,1,0,0h0l.16-.25H2.55Z"/><path d="M1.51,7.68l.25,0h0V7.51l.3.21h0s0,0,0,0L2,7.5h.09l0,0h0l0-.19.15.14h0l.06-.06.11.4,0,0h.11L2.5,8h0a0,0,0,0,0,0,0h0l.28.1,0,.06L2.5,8.12s0,0,0,0h0l-.07.29L2.3,8.35h0l-.37.19V8.46a0,0,0,0,0,0,0l-.21,0,.11-.15h0s0,0,0,0l-.06-.07.2-.07h0v0h0L1.57,8l.1-.08h0a0,0,0,0,0,0,0h0l-.16-.19m0,0,0,0,.16.2h0L1.55,8l0,0h0l.36.08h0l-.2.07h0l0,0,.07.06h0l-.11.15,0,0h0l.21,0h0v.12l0,0,.37-.19h0l.08.08,0,0v0l.07-.29h0l.27.13h0v0l0-.06v0h0l-.28-.1h0s0,0,0,0h0l.16-.25,0,0H2.55l-.12-.4v0l0,0-.06,0h0l-.16-.13,0,0v0l0,.18H2v0l.08.2h0l-.3-.21,0,0v.17h0l-.25,0Z" stroke="#231f20" stroke-miterlimit="10" stroke-width="0.05"/><path d="M22.68,8.34l.36.21V8.47s0,0,0,0h.2l-.1-.16h0s0,0,0,0l.07-.06L23,8.11v0h0l0,0L23.41,8l-.1-.08h0v0l.17-.19-.25,0h0l0,0h0l0-.13-.31.19h0v0s0,0,0,0L23,7.5h-.11l0-.18-.16.12h0l-.06,0-.13.39h-.14l.16.25h0a.05.05,0,0,1,0,0l-.28.09,0,.06.27-.12h0s0,0,0,0h0l.06.3.09-.08Z"/><path d="M23.48,7.7l-.17.19v0h0l.1.08-.36.06,0,0h0v0l.2.08-.07.06s0,0,0,0h0l.1.16h-.2s0,0,0,0v.08l-.36-.21h0l-.09.08-.06-.3h0s0,0,0,0h0l-.27.12,0-.06.28-.09a.05.05,0,0,0,0,0h0l-.16-.25h.14l.13-.39.06,0h0l.16-.12,0,.18H23l-.09.19s0,0,0,0v0h0l.31-.19,0,.13h0l0,0h0l.25,0m0,0h0l-.25,0h0l0-.12v0l0,0-.31.2h0L23,7.51v0h-.12l0-.19v0l0,0-.16.13h0l-.05-.06,0,0v0l-.13.39h-.15l0,0,.15.25h0a0,0,0,0,1,0,0l-.28.09h0v0l0,.05v0h0l.27-.12h0l.06.29v0l0,0,.09-.07h0l.36.21h0V8.47h.24l0,0-.1-.16h0l.06-.07,0,0h0l-.2-.08h0L23.41,8h.05l0,0-.1-.09h0l.17-.18,0,0Z" stroke="#231f20" stroke-miterlimit="10" stroke-width="0.05"/><circle cx="1.17" cy="12.5" r="0.47"/><path d="M1.17,12.12a.38.38,0,0,1,0,.76.38.38,0,1,1,0-.76m0-.1a.48.48,0,1,0,.48.48A.48.48,0,0,0,1.17,12Z" fill="#231f20"/><circle cx="23.77" cy="12.49" r="0.47"/><path d="M23.77,12.11a.38.38,0,1,1-.38.38.38.38,0,0,1,.38-.38m0-.1a.48.48,0,1,0,.48.48.47.47,0,0,0-.48-.48Z" fill="#231f20"/></svg>