<svg id="Layer_1" data-name="Layer 1" xmlns="http://www.w3.org/2000/svg" viewBox="0 0 25 25"><circle cx="7.63" cy="6.3" r="0.99"/><circle cx="17.36" cy="6.3" r="0.99"/><circle cx="12.51" cy="10.59" r="6.42"/><circle cx="10.45" cy="8.82" r="0.84" fill="#fff"/><circle cx="14.41" cy="8.82" r="0.84" fill="#fff"/><path d="M11,13.47a14.74,14.74,0,0,0,.39,2.85,5.61,5.61,0,0,0,2.16,0,13.2,13.2,0,0,0,.36-2.85Z" fill="#fff"/><path d="M12.5,11.61a2.11,2.11,0,1,0,0,2.37Z"/><path d="M12.5,14a2.11,2.11,0,1,0,0-2.37Z"/><circle cx="13.83" cy="12.6" r="0.19" fill="#fff"/><circle cx="14.58" cy="11.71" r="0.19" fill="#fff"/><circle cx="14.83" cy="13.47" r="0.19" fill="#fff"/><circle cx="15.58" cy="12.46" r="0.19" fill="#fff"/><circle cx="11.22" cy="12.6" r="0.19" fill="#fff"/><circle cx="10.46" cy="11.72" r="0.19" fill="#fff"/><circle cx="10.21" cy="13.47" r="0.19" fill="#fff"/><circle cx="9.46" cy="12.47" r="0.19" fill="#fff"/></svg>