<svg id="Layer_1" data-name="Layer 1" xmlns="http://www.w3.org/2000/svg" viewBox="0 0 200 200"><circle cx="61.01" cy="50.37" r="7.9"/><circle cx="138.8" cy="50.37" r="7.9"/><circle cx="100.01" cy="84.76" r="51.32"/><circle cx="83.55" cy="70.57" r="6.76" fill="#fff"/><circle cx="115.24" cy="70.57" r="6.76" fill="#fff"/><path d="M88.1,107.78s1.33,21,3.12,22.76c1.22,1.23,16.17,1.09,17.26,0,1.93-1.92,2.86-22.76,2.86-22.76Z" fill="#fff"/><path d="M99.93,92.85a16.8,16.8,0,1,0,0,19Z"/><path d="M99.92,111.87a16.8,16.8,0,1,0,0-19Z"/><circle cx="110.56" cy="100.78" r="1.56" fill="#fff"/><circle cx="116.56" cy="93.72" r="1.56" fill="#fff"/><circle cx="118.57" cy="107.73" r="1.56" fill="#fff"/><circle cx="124.57" cy="99.72" r="1.56" fill="#fff"/><circle cx="89.66" cy="100.83" r="1.56" fill="#fff"/><circle cx="83.65" cy="93.77" r="1.56" fill="#fff"/><circle cx="81.65" cy="107.78" r="1.56" fill="#fff"/><circle cx="75.64" cy="99.78" r="1.56" fill="#fff"/></svg>