<svg id="Layer_1" data-name="Layer 1" xmlns="http://www.w3.org/2000/svg" viewBox="0 0 25 25"><path d="M12.49,3.63l1,2a.19.19,0,0,0,.18.11.15.15,0,0,0,.09,0h0l1-.59-.63,3.26a.21.21,0,0,0,.16.24h0a.18.18,0,0,0,.14-.06l1.31-1.41.33.76a.2.2,0,0,0,.18.13h.05l1.67-.35-.57,1.77a.2.2,0,0,0,.1.24l.66.31-2.91,2.36a.2.2,0,0,0-.07.23l.36,1L13,13.14h-.05a.3.3,0,0,0-.29.24v.06l.14,2.68h-.56l.14-2.68a.28.28,0,0,0-.28-.3H12l-2.66.47.36-1a.2.2,0,0,0-.06-.23L6.73,10l.65-.31a.2.2,0,0,0,.11-.24L6.91,7.71l1.68.35h0a.22.22,0,0,0,.19-.13l.32-.76,1.31,1.41a.22.22,0,0,0,.15.06.2.2,0,0,0,.14-.06.19.19,0,0,0,.06-.18l-.64-3.26,1,.59.1,0a.18.18,0,0,0,.17-.1h0l1-2m0-.42-.17.33-1,2h0l-1-.59L9.9,4.77l.08.42.63,3.26h0L9.28,7.05l-.2-.22L9,7.1l-.33.77h0L7,7.52l-.32-.07.1.32.58,1.77h0l-.66.31L6.37,10l.23.19,2.92,2.36h0l-.36,1-.11.31.33,0L12,13.33h0a.1.1,0,0,1,.1.1L12,16.11v.2h1v-.2l-.14-2.68v0a.1.1,0,0,1,.1-.08h0l2.66.47.33,0-.12-.31-.36-1a0,0,0,0,1,0,0l2.91-2.36.24-.19-.28-.13-.65-.31a0,0,0,0,1,0,0l.58-1.77.1-.32L18,7.52l-1.67.35h0L16,7.1l-.11-.27-.21.22-1.31,1.4h0a0,0,0,0,1,0,0L15,5.19l.08-.42L14.72,5l-1,.59h0l-1-2-.17-.33Z"/></svg>