<?xml version="1.0" encoding="utf-8"?>
<!-- Generator: Adobe Illustrator 26.0.3, SVG Export Plug-In . SVG Version: 6.00 Build 0)  -->
<svg version="1.1" id="Layer_1" xmlns="http://www.w3.org/2000/svg" xmlns:xlink="http://www.w3.org/1999/xlink" x="0px" y="0px"
	 viewBox="0 0 25 25" enable-background="new 0 0 25 25" xml:space="preserve">
<g>
	<g opacity="0.9">
		<path fill="#FCB116" d="M12.6,11.7L12.6,11.7c-0.1,0-0.1,0-0.2,0C12.5,11.8,12.6,11.8,12.6,11.7z"/>
		<path fill="#FCB116" d="M10.7,10.4C10.7,10.4,10.7,10.3,10.7,10.4C10.7,10.3,10.7,10.4,10.7,10.4z"/>
		<path fill="#FCB116" d="M11.9,11.6c-0.1,0-0.2,0-0.3,0c-0.1,0-0.2-0.1-0.2-0.1c-0.1,0-0.2-0.1-0.1-0.2S11,11.2,11,11.2
			s-0.2-0.1-0.2-0.3l0,0c-0.8,0-1.6-0.2-2.4-0.4l-0.9,0.2c-0.5,0.1-0.4,1.2-0.3,1.5c0.5,1.8,1.2,2.1,1.5,2.2
			c0.5,0.2,0.9,0.5,1.3,0.8c0.5,0.4,1.2,0.5,1.8,0.2c0.4-0.2,0.7-0.5,0.9-0.8c-0.1-0.1-0.1-0.2-0.2-0.2C12,13.6,11.8,12.6,11.9,11.6
			z"/>
		<path fill="#FCB116" d="M10.8,10.8c0,0,0-0.1,0-0.1C10.8,10.7,10.8,10.8,10.8,10.8z"/>
	</g>
	<g opacity="0.9">
		<path fill="#FCB116" d="M13.7,10.2c0,0,0-0.1,0.1-0.1C13.7,10.1,13.7,10.1,13.7,10.2z"/>
		<path fill="#FCB116" d="M12.1,8.7"/>
		<path fill="#FCB116" d="M17.6,8.4c-0.5-1.8-1.2-2.1-1.5-2.2c-0.5-0.2-0.9-0.5-1.3-0.8c-0.5-0.4-1.2-0.5-1.8-0.2
			c-0.2,0.1-0.4,0.2-0.5,0.4c0.1,0.1,0.1,0.2,0.2,0.3c0.4,1,0.6,2,0.5,3.1l0,0c0,0,0.2,0.1,0.2,0.2s0.2,0.1,0.2,0.2s0.1,0.2,0.2,0.2
			c1.2-0.5,2.5-0.3,3.5,0.5h0.1C17.8,9.8,17.7,8.8,17.6,8.4z"/>
		<path fill="#FCB116" d="M12.8,8.8L12.8,8.8L12.8,8.8z"/>
		<path fill="#FCB116" d="M12.4,8.7h0.1H12.4z"/>
	</g>
	<path opacity="0.9" fill="#FCB116" enable-background="new    " d="M10.7,10.6c0-0.1,0-0.1,0-0.2c0.1-0.1,0.1-0.2,0-0.3
		c0,0,0,0,0,0c0,0,0-0.1,0-0.1c0.1-0.1,0.1-0.1,0.2-0.2c0-0.1,0-0.2,0.1-0.3s0.3-0.2,0.3-0.2s0.1-0.2,0.2-0.2
		c0.3-0.1,0.3-0.3,0.3-0.3c0.4-0.1,1.1-0.1,1.2,0.1l0,0c0.1-1-0.1-2.1-0.5-3.1c-0.2-0.6-0.6-1.3-1.8-0.7c-0.7,0.3-1.4,0.7-1.8,1
		c-1.3,0.8-2.1,3-1.7,3.7c0.2,0.5,2.3,1,3.6,1C10.8,10.7,10.8,10.6,10.7,10.6z"/>
	<path opacity="0.9" fill="#FCB116" enable-background="new    " d="M17.2,10c-1-0.8-2.4-1-3.6-0.5c0.1,0,0.1,0.1,0.1,0.1
		c0.1,0.2,0.1,0.3,0,0.4c-0.1,0.1-0.1,0.2-0.1,0.2c0,0.2-0.1,0.8-0.2,0.6S13.4,11,13.4,11c0,0.1-0.1,0.2-0.2,0.3
		c-0.1,0-0.1,0-0.2,0.2c-0.1,0.2-0.3,0.3-0.5,0.2c0,0,0-0.1-0.1,0s-0.1,0-0.2,0l-0.3-0.1c-0.1,0.9,0.1,1.9,0.6,2.7
		c0.7,0.9,1.4,1.3,2.2,0.8c0.4-0.2,1.3-0.7,1.5-1.2c0.1-0.2,0.2-0.4,0.6-0.9c0.3-0.2,0.5-0.5,0.5-0.9C17.5,11.4,18.1,10.9,17.2,10z"
		/>
	<g opacity="0.5">
		<path fill="#FCB116" d="M11,9.5c-0.1,0.1-0.1,0.2-0.1,0.3c-0.1,0.1-0.1,0.1-0.2,0.2c0,0,0,0,0,0.1c0.1,0.1,0.1,0.2,0,0.3
			c0,0,0,0,0,0c0,0.1,0,0.1,0,0.2c0.1,0.1,0.1,0.2,0.1,0.3c0,0.2,0.1,0.2,0.2,0.3s0.3,0.1,0.2,0.2s0.1,0.1,0.1,0.2
			c0.1,0,0.2,0.1,0.2,0.1c0.2,0,0.4,0.1,0.5,0.1c0.1,0,0.1,0,0.2,0s0.1,0,0.1,0c0.2,0.1,0.4,0,0.5-0.2c0.1-0.2,0.1-0.2,0.2-0.2
			c0.1,0,0.2-0.2,0.2-0.3c0,0,0-0.1,0.1-0.1s0.2-0.4,0.2-0.6c0-0.1,0-0.2,0.1-0.2c0.1-0.1,0.1-0.2,0-0.4s-0.4-0.2-0.4-0.4
			s0-0.1-0.2-0.2S13,9.1,13,8.9s-0.8-0.2-1.2-0.1c0,0,0,0.1-0.3,0.3c-0.1,0-0.2,0.1-0.2,0.2S11.1,9.5,11,9.5z"/>
	</g>
</g>
</svg>
