<svg id="Layer_1" data-name="Layer 1" xmlns="http://www.w3.org/2000/svg" viewBox="0 0 200 200"><path d="M66.94,123.62h66c.93,0,1.08-.45,1.08-1.31v-21.8c0-6-4.53-9.14-7.51-10.25-6.14-2.29-20.6-6.84-20.6-6.84a48,48,0,0,0-11.8,0s-14.19,4.78-20.6,7.32C70.64,91.87,66,93.92,66,100.51v21.21C66,122.85,66,123.62,66.94,123.62Z"/><polygon points="96.85 84.89 96.85 123.62 103.17 123.62 103.17 84.65 96.85 84.89" fill="#fff"/><polygon points="94.11 77.6 94.11 83.42 100.01 86.89 100.01 78.78 94.11 77.6"/><polygon points="105.91 77.6 105.91 83.42 100.01 86.89 100.01 78.78 105.91 77.6"/><path d="M86.05,58.49c0,12.38,3.87,20.3,14,20.3s14.17-8.17,14.17-20.3Z" fill="#fff"/><path d="M76.51,58.49c-4,0-4-6.1,0-6.1h47c4.38,0,3.52,6.1,0,6.1Z" fill="#fff"/><rect x="84.32" y="45.81" width="31.45" height="6.58"/><path d="M84.28,45.81c0-3.46,0-8.83,6.5-9.59a3.08,3.08,0,0,0,3.07-3.31c0-2.75,2.52-3,3.71-3h5.21c1.36,0,3.36.71,3.36,2.91a3.7,3.7,0,0,0,3.55,3.47c5.42.41,6.06,3.7,6.06,9.52Z" fill="#fff"/><polygon points="111.48 85.2 117.42 87.13 84.99 123.62 76.98 123.62 111.48 85.2"/><path d="M67.49,90.61l1.83,3.56a.81.81,0,0,0,1.05.36l9.34-4.33a.79.79,0,0,0,.37-1.1l-1.73-3.25a.8.8,0,0,0-1-.36l-9.44,4A.81.81,0,0,0,67.49,90.61Z" fill="#fff"/><path d="M121.71,85.65l-1.56,3.68a.8.8,0,0,0,.39,1l9.3,4.41a.8.8,0,0,0,1.09-.42L132.32,91a.81.81,0,0,0-.38-1l-9.12-4.68A.82.82,0,0,0,121.71,85.65Z" fill="#fff"/></svg>