<svg id="Layer_1" data-name="Layer 1" xmlns="http://www.w3.org/2000/svg" viewBox="0 0 25 25"><polygon points="12.49 17.26 13.3 18.89 15.1 19.15 13.8 20.42 14.1 22.21 12.49 21.37 10.88 22.21 11.19 20.42 9.89 19.15 11.69 18.89 12.49 17.26"/><polygon points="7.78 16.38 8.36 17.56 9.65 17.74 8.72 18.66 8.94 19.94 7.78 19.34 6.62 19.94 6.84 18.66 5.91 17.74 7.2 17.56 7.78 16.38"/><polygon points="17.14 16.34 17.72 17.51 19.01 17.7 18.07 18.61 18.3 19.9 17.14 19.29 15.98 19.9 16.2 18.61 15.27 17.7 16.56 17.51 17.14 16.34"/></svg>