<svg id="Layer_1" data-name="Layer 1" xmlns="http://www.w3.org/2000/svg" viewBox="0 0 200 200"><polygon points="99.96 138.07 106.4 151.11 120.79 153.21 110.38 163.36 112.83 177.7 99.96 170.93 87.08 177.7 89.54 163.36 79.13 153.21 93.52 151.11 99.96 138.07"/><polygon points="62.24 131.07 66.87 140.44 77.22 141.95 69.73 149.25 71.5 159.55 62.24 154.69 52.98 159.55 54.75 149.25 47.26 141.95 57.61 140.44 62.24 131.07"/><polygon points="137.1 130.72 141.73 140.1 152.08 141.6 144.59 148.9 146.36 159.21 137.1 154.34 127.84 159.21 129.61 148.9 122.12 141.6 132.47 140.1 137.1 130.72"/></svg>