<?xml version="1.0" encoding="UTF-8"?><svg id="Layer_1" xmlns="http://www.w3.org/2000/svg" viewBox="0 0 200 200"><polygon points="70 131.98 70 175 100 188.52 130 175 130 131.98 70 131.98" fill="#fff"/><polygon points="70 131.98 70 175 100 188.52 130 175 130 131.98 70 131.98" fill="#963b22" opacity=".8"/><polygon points="83.82 126.67 83.82 181.25 100 198.4 116.18 181.25 116.18 126.67 83.82 126.67" fill="#fff"/><polygon points="83.82 126.67 83.82 181.25 100 198.4 116.18 181.25 116.18 126.67 83.82 126.67" fill="#963b22" opacity=".6"/><polygon points="100 4.46 107.23 8.98 115.24 6.06 121.37 11.99 129.81 10.8 134.58 17.87 143.08 18.46 146.28 26.37 154.47 28.71 155.95 37.11 163.48 41.11 163.18 49.63 169.71 55.11 167.65 63.38 172.9 70.1 169.16 77.76 172.9 85.42 167.65 92.14 169.71 100.41 163.18 105.89 163.48 114.41 155.95 118.41 154.47 126.81 146.28 129.15 143.08 137.06 134.58 137.65 129.81 144.72 121.37 143.53 115.24 149.46 107.23 146.54 100 151.06 92.77 146.54 84.76 149.46 78.63 143.53 70.19 144.72 65.42 137.65 56.92 137.06 53.72 129.15 45.53 126.81 44.05 118.41 36.52 114.41 36.82 105.89 30.29 100.41 32.35 92.14 27.1 85.42 30.84 77.76 27.1 70.1 32.35 63.38 30.29 55.11 36.82 49.63 36.52 41.11 44.05 37.11 45.53 28.71 53.72 26.37 56.92 18.46 65.42 17.87 70.19 10.8 78.63 11.99 84.76 6.06 92.77 8.98 100 4.46" fill="#fff"/><polygon points="100 4.46 107.23 8.98 115.24 6.06 121.37 11.99 129.81 10.8 134.58 17.87 143.08 18.46 146.28 26.37 154.47 28.71 155.95 37.11 163.48 41.11 163.18 49.63 169.71 55.11 167.65 63.38 172.9 70.1 169.16 77.76 172.9 85.42 167.65 92.14 169.71 100.41 163.18 105.89 163.48 114.41 155.95 118.41 154.47 126.81 146.28 129.15 143.08 137.06 134.58 137.65 129.81 144.72 121.37 143.53 115.24 149.46 107.23 146.54 100 151.06 92.77 146.54 84.76 149.46 78.63 143.53 70.19 144.72 65.42 137.65 56.92 137.06 53.72 129.15 45.53 126.81 44.05 118.41 36.52 114.41 36.82 105.89 30.29 100.41 32.35 92.14 27.1 85.42 30.84 77.76 27.1 70.1 32.35 63.38 30.29 55.11 36.82 49.63 36.52 41.11 44.05 37.11 45.53 28.71 53.72 26.37 56.92 18.46 65.42 17.87 70.19 10.8 78.63 11.99 84.76 6.06 92.77 8.98 100 4.46" fill="none" stroke="#963c22" stroke-miterlimit="10" stroke-width="2"/><circle cx="100" cy="77.76" r="61.96" fill="#963b22"/><circle cx="100" cy="77.76" r="46.47" fill="#fff"/><circle cx="100" cy="77.76" r="46.47" fill="#963b22" opacity=".6"/><polygon points="100 46.59 110.13 67.11 132.77 70.4 116.39 86.37 120.25 108.93 100 98.28 79.75 108.93 83.61 86.37 67.23 70.4 89.87 67.11 100 46.59" fill="#963b22" stroke="#6d2a1b" stroke-miterlimit="10"/></svg>