<?xml version="1.0" encoding="utf-8"?>
<!-- Generator: Adobe Illustrator 26.0.3, SVG Export Plug-In . SVG Version: 6.00 Build 0)  -->
<svg version="1.1" id="Layer_1" xmlns="http://www.w3.org/2000/svg" xmlns:xlink="http://www.w3.org/1999/xlink" x="0px" y="0px"
	 viewBox="0 0 25 25" style="enable-background:new 0 0 25 25;" xml:space="preserve">
<style type="text/css">
	.st0{fill:none;stroke:#000000;stroke-width:0.38;stroke-linejoin:round;}
</style>
<path class="st0" d="M10.9,9.3c-0.4,0.5-1.3-0.3-1.6-0.5C8.5,8.5,7,8.5,6.5,8C5.7,7.1,7.6,4.6,9.2,4.8c0.7,0.1,1,1.6,1.3,2.8
	C10.6,8.1,11.3,8.9,10.9,9.3z"/>
<path class="st0" d="M14.1,9.4c-0.5-0.4,0.3-1.3,0.5-1.7c0.4-0.8,0.3-2.3,0.9-2.8c0.9-0.7,3.4,1.1,3.2,2.7c-0.1,0.7-1.6,1-2.8,1.3
	C15.3,9,14.5,9.7,14.1,9.4z"/>
</svg>
