<svg id="Layer_1" data-name="Layer 1" xmlns="http://www.w3.org/2000/svg" viewBox="0 0 25 25"><polygon points="7.92 15 8.34 15.42 14.26 9.49 13.84 9.07 7.92 15" fill="none" stroke="#000" stroke-linejoin="round" stroke-width="0.38"/><polygon points="16.57 15.41 16.99 15 12.87 10.88 12.45 11.3 16.57 15.41" fill="none" stroke="#000" stroke-linejoin="round" stroke-width="0.38"/><polygon points="12.02 10.88 12.43 10.46 11.09 9.12 10.68 9.56 12.02 10.88" fill="none" stroke="#000" stroke-linejoin="round" stroke-width="0.38"/><circle cx="12.45" cy="6.7" r="0.92" fill="#fff"/><line x1="10.74" y1="9.24" x2="7.3" y2="5.73" fill="none" stroke="#fff" stroke-miterlimit="10" stroke-width="0.25"/><path d="M10.91,9c-.64-.6-2.32-2.94-2.32-4.13" fill="none" stroke="#fff" stroke-miterlimit="10" stroke-width="0.25"/><path d="M10.53,9.41C9.94,8.77,7.59,7.1,6.4,7.1" fill="none" stroke="#fff" stroke-miterlimit="10" stroke-width="0.25"/><path d="M9.11,8.83c0-.45-.79-1.42-.47-1.73s1.39.59,1.8.51" fill="none" stroke="#fff" stroke-miterlimit="10" stroke-width="0.25"/><path d="M7.7,8.49a3,3,0,0,1,2.36-2.41" fill="none" stroke="#fff" stroke-miterlimit="10" stroke-width="0.25"/><path d="M6.66,8.12c.07-1,1.61-3,3.09-3" fill="none" stroke="#fff" stroke-miterlimit="10" stroke-width="0.25"/><line x1="14.15" y1="9.22" x2="17.67" y2="5.78" fill="none" stroke="#fff" stroke-miterlimit="10" stroke-width="0.25"/><path d="M14.37,9.39c.6-.65,3-2.32,4.13-2.32" fill="none" stroke="#fff" stroke-miterlimit="10" stroke-width="0.25"/><path d="M14,9c.64-.6,2.32-2.94,2.32-4.13" fill="none" stroke="#fff" stroke-miterlimit="10" stroke-width="0.25"/><path d="M14.57,7.59c.45,0,1.42-.79,1.73-.47s-.59,1.39-.51,1.8" fill="none" stroke="#fff" stroke-miterlimit="10" stroke-width="0.25"/><path d="M14.91,6.17a3,3,0,0,1,2.41,2.37" fill="none" stroke="#fff" stroke-miterlimit="10" stroke-width="0.25"/><path d="M15.27,5.14c1,.07,3,1.6,3,3.09" fill="none" stroke="#fff" stroke-miterlimit="10" stroke-width="0.25"/></svg>