<svg id="Layer_1" data-name="Layer 1" xmlns="http://www.w3.org/2000/svg" viewBox="0 0 25 25"><g opacity="0.75"><circle cx="12.45" cy="6.7" r="0.92" fill="#fcb116"/></g><g opacity="0.75"><polygon points="10.65 9.33 7.21 5.82 7.39 5.64 10.83 9.15 10.65 9.33" fill="#fcb116"/></g><g opacity="0.75"><path d="M10.82,9.11c-.68-.63-2.36-3-2.36-4.22h.25c0,1.11,1.6,3.41,2.28,4Z" fill="#fcb116"/></g><g opacity="0.75"><path d="M10.44,9.5c-.63-.68-2.93-2.28-4-2.28V7C7.62,7,10,8.65,10.63,9.33Z" fill="#fcb116"/></g><g opacity="0.75"><path d="M9.24,8.83H9a2.27,2.27,0,0,0-.25-.67c-.22-.44-.44-.9-.19-1.15s.72,0,1.16.21a1.64,1.64,0,0,0,.7.26l.05.25a1.66,1.66,0,0,1-.86-.29c-.32-.16-.75-.38-.87-.25s.08.55.23.86A2.18,2.18,0,0,1,9.24,8.83Z" fill="#fcb116"/></g><g opacity="0.75"><path d="M7.82,8.49H7.57A3.09,3.09,0,0,1,10,6l0,.25A2.88,2.88,0,0,0,7.82,8.49Z" fill="#fcb116"/></g><g opacity="0.75"><path d="M6.78,8.13l-.25,0C6.61,7.1,8.14,5,9.75,5v.25C8.32,5.28,6.85,7.24,6.78,8.13Z" fill="#fcb116"/></g><g opacity="0.75"><polygon points="14.24 9.31 14.07 9.13 17.58 5.69 17.75 5.87 14.24 9.31" fill="#fcb116"/></g><g opacity="0.75"><path d="M14.47,9.47l-.19-.17c.64-.68,3-2.36,4.22-2.36v.25C17.4,7.19,15.1,8.79,14.47,9.47Z" fill="#fcb116"/></g><g opacity="0.75"><path d="M14.07,9.1l-.17-.18c.68-.63,2.28-2.94,2.28-4h.25C16.43,6.1,14.75,8.47,14.07,9.1Z" fill="#fcb116"/></g><g opacity="0.75"><path d="M15.67,8.94A1.58,1.58,0,0,1,16,8.08c.16-.32.38-.75.26-.87s-.55.08-.87.23a2.14,2.14,0,0,1-.77.28V7.47a2,2,0,0,0,.66-.26c.45-.21.91-.43,1.16-.18s0,.72-.21,1.16a1.85,1.85,0,0,0-.27.7Z" fill="#fcb116"/></g><g opacity="0.75"><path d="M17.19,8.56A2.83,2.83,0,0,0,14.9,6.3V6.05a3.08,3.08,0,0,1,2.53,2.47Z" fill="#fcb116"/></g><g opacity="0.75"><path d="M18.37,8.23h-.25c0-1.43-2-2.9-2.85-3V5C16.3,5.09,18.37,6.62,18.37,8.23Z" fill="#fcb116"/></g><g opacity="0.6"><path d="M14.39,9.36,14,8.94a.2.2,0,0,0-.27,0L7.79,14.87a.17.17,0,0,0,0,.26l.41.42a.24.24,0,0,0,.14,0,.24.24,0,0,0,.13,0l5.92-5.92A.18.18,0,0,0,14.39,9.36ZM8.34,15.15,8.19,15l5.65-5.67.15.16Z" fill="#fcb116"/></g><path d="M17.12,14.86l-4-4-.69.69,4,4a.19.19,0,0,0,.13.06.2.2,0,0,0,.14-.06l.41-.41A.2.2,0,0,0,17.12,14.86Zm-.55.29L12.71,11.3l.16-.15L16.72,15Z" fill="#fcb116" opacity="0.6"/><path d="M11.76,10.89l.68-.69L11.23,9A.2.2,0,0,0,11,9l-.43.42a.24.24,0,0,0,0,.13.24.24,0,0,0,0,.14Zm-.67-1.5,1.08,1.07-.15.16L10.93,9.54Z" fill="#fcb116" opacity="0.6"/></svg>