<svg id="Layer_1" data-name="Layer 1" xmlns="http://www.w3.org/2000/svg" viewBox="0 0 200 200"><path d="M75,92.67C70.25,99,76.9,97,60.07,112c-3.9,3.48-1.52,12.52-1.37,18.22,0,1.66,2.42.91,5.11.22.57-.14,1.41.58,2.34.27,1.27-.42,1.19-2,1.74-1.91s.73,1.42,1.49,1.42c2.66,0,4.84-2.85,7-6,3.58-5.31,25.39-3.6,25.39-3.6l19,27.26s.82,1.37,1.23,1.23c19.27-6.15,38.1-31.32,24.65-69.87-1.27-3.62-4.77-2.93-15.33.82-5.49,2-13.64,5.11-22.88,4.52-7.65-.48-13.19-4.39-30.55,2.74.24-2.52,4.47-6.71,6.71-8.08,3-1.8,6.45-5.9,7.4-9.73s7-10.17,6.91-13.64c0-.6-.23-.59-.41-.23-.85,1.69-4.66,5.14-5.61,4.43-1.38-1,2.3-6.89,3.12-8.93.19-.48,0-.71-.46-.34-2.64,2-6.43,10.4-8.8,9.4s.16-5.79-.27-8c-.14-.7-.46-.55-.64,0C84.76,55.66,83,65.1,80.07,64.43c-1.86-.43,1.2-7,0-10.12-.19-.49-.6-.77-.76,0-.61,2.88-.72,9.57-3.91,9.83-2.91.24-7.24-11.37-6.76-13.66.28-1.29-.5-.69-.6-.17C65.88,61.48,78,69.1,71.65,73.55s-16.39-9.64-17.46-14.9c-.15-.75-.88-1-.9-.06-.22,14,21.48,22.8,17.41,27.55-2.87,3.35-17.88-2.49-21-10.83-.14-.38-.8-.6-.86.29C48.66,78,53.46,91.27,75,92.67Z" fill="#fff"/><path d="M64.33,68.13c.09-1.23.66-1.44,1,0C67.24,75.52,80.85,91.9,89.8,86.48,101.87,79.18,97.17,61,92.07,51c-.27-.54-.43-1.45.61-.55,4.5,3.87,7.08,19.14,9.18,18.93,4.19-.42,5.56-12.62,6.44-17.34.16-.9.64-1.13,1,.06C110.35,56,107.5,62.6,109,63c1.89.56,7.93-10.78,8.39-15.06,0-.51.52-1.7,1,0,1.09,4-5.43,12.76-4.1,14.28.9,1,5.36-5.35,5.81-7.72.27-1.4,1.29-1.86,1.78-.06,1.54,5.68-6.28,26.63-28.75,35.15-3.75,1.42-1.11,5.9-5.17,7-4.68,1.3-1.38-4.63-2.76-4.9C72,89.16,64,72.07,64.33,68.13Z" fill="#fff"/><path d="M86.89,99.09c-2.85-1.3-6-.38-6.52,3.45-.1.68.47.67.59.14a7.82,7.82,0,0,1,.77-1.56s4.8,1.47,5.37-1.7C87.11,99.32,87.15,99.2,86.89,99.09Zm-2.15.39c-.31,0-.56-.13-.56-.28s.25-.29.56-.29.56.13.56.29S85.05,99.48,84.74,99.48Z"/><path d="M65.12,121.77c-.46-1.12.35-1,.87-.37.73.89.84,2.91.25,4.6-.36,1-.9,3.17-1.78,3.71-.72.46-1.54.49-1.54-.57,0-1.31,1.83-2.37,2.26-3.27A4.31,4.31,0,0,0,65.12,121.77Z"/><path d="M67.77,128.68c-.13.26.55.27.61.12,1.24-2.92,4.78-6.53,5.66-7.29.52-.43.21-1.07.36-1.41.08-.16.54-.22.62-.39s-.14-.17-.21-.17a9.49,9.49,0,0,1-1.19,0c-.47-.07-.49.35-.09.4.1,0,.41,0,.39.09C73.48,122.27,71.12,122,67.77,128.68Z"/><path d="M116.44,138.75c-3.61-.21-6.42-8.78-8-12s-8.62-8.62-7.88-12.17c1.9-9.11.28-14.89-1.41-16.54,2.13-3.59,5.56-4.5,8.1-8.66a7.67,7.67,0,0,0,.9-5.78c-.3-1.35-1.24-.72-1.53-.45-4.29,4-11.61,7-13.41,9.81-2.31,3.61.55,7.07,4,5.58.43.38,6.68,8.84-1.58,17.17-2.78,2.8-17.16,4.84-19,8.23-.12.22-.5.44,0,.35,3.4-.86.45,4.53,2.94,8.07,1.54,2.18,5.32,2.41,6.46,4.64,1.92,3.79-3.1,5.72.73,14.16,1.38,3,3.82,1.48,4.2.38.83-2.4-.28-5.92.67-10.18.46-2,4.12-5,3.79-8.24-.63-6.25,1.93-11.23,4.08-10.61,7.15,2,4.77,10.24,6.66,11.91s5.16,2.25,6.79,5.5c2.4,4.8,6.6,8.74,9.15,9.25,1.35.27,7.14-1.8,12.21-6.67C134.2,142.49,119.41,138.92,116.44,138.75ZM98.17,97.29c-3.06,1.42-5-1.72-2.71-3.83,2.54-2.33,8.07-4.76,10.77-8.6.51-.73,1.08-.26,1.15,0,.17.58.35,4-4.74,8.1C99.61,95.4,99.64,96.61,98.17,97.29Z"/></svg>