<svg id="Layer_1" data-name="Layer 1" xmlns="http://www.w3.org/2000/svg" viewBox="0 0 200 200"><path d="M126.43,54.52c3.24,5.08,2.64,12.2-2.53,17.63a32.55,32.55,0,0,0-4.47-4.57c3.8-4.23,2.57-8.13,1-10.16s-6.31-3-8.72-1.51l-1-6.55C116.44,46.84,124.21,51.05,126.43,54.52Z" fill="#fcb116" opacity="0.1"/><g opacity="0.8"><path d="M121.38,69.3c-3-2.86-7-5.19-8.51-9.19a26.47,26.47,0,0,1-1.14-4.2H88.14s.24-.27-1,4.2c-1.13,4-6.94,7.51-8.08,8.66C75,72.87,71,78,71.57,89.1c.64,11.67,1.36,20.87,2.26,30.45.48,5.14,4.32,9.37,8.89,9.37h34.49a9.56,9.56,0,0,0,8.82-8.33c.73-9.71,1.43-19,2.37-31.3C128.86,83.29,127.76,75.42,121.38,69.3Zm-3.6,44.54a6.53,6.53,0,0,1-6,5.69H88.2c-3.12,0-5.74-2.89-6.07-6.39-.62-6.55-1.11-12.83-1.54-20.8-.5-9.18,8.43-18.23,18.75-18.23,12.09,0,20.77,9,20,18.36C118.75,100.86,118.27,107.22,117.78,113.84Z" fill="#fcb116"/></g><path d="M82.13,113.14c.33,3.5,3,6.39,6.07,6.39h23.55a6.53,6.53,0,0,0,6-5.68c.49-6.63,1-13,1.61-21.37.72-9.41-8-18.37-20-18.37-10.32,0-19.25,9-18.75,18.23C81,100.31,81.51,106.59,82.13,113.14Z" fill="#fcb116" opacity="0.5"/><path d="M99.2,110.39l.31-5.83a.41.41,0,0,0-.4-.43H99l-5.94,1,.87-2.41a.21.21,0,0,0-.06-.25l-6.38-5.16,1.67-.79a.22.22,0,0,0,.12-.26L88,92.24l3.87.82h0a.23.23,0,0,0,.21-.13l.8-1.9,3,3.19a.24.24,0,0,0,.16.07.2.2,0,0,0,.15-.06.24.24,0,0,0,.07-.21l-1.42-7.28,2.52,1.45a.2.2,0,0,0,.11,0,.21.21,0,0,0,.19-.11h0L100,83.5l2.34,4.6a.24.24,0,0,0,.2.12l.1,0h0l2.52-1.45L103.75,94a.23.23,0,0,0,.18.26h0a.24.24,0,0,0,.16-.07l3-3.18.8,1.89a.23.23,0,0,0,.21.13h0l3.87-.82L110.7,96.3a.24.24,0,0,0,.12.27l1.67.78-6.38,5.16a.21.21,0,0,0-.06.25l.87,2.41-5.94-1h-.07a.43.43,0,0,0-.41.35s0,.06,0,.09l.31,5.83Z" fill="#fcb116"/><polygon points="88.14 55.91 111.73 55.91 110.71 48.9 110.08 44.57 89.95 44.57 88.14 55.91" fill="#fcb116" opacity="0.1"/><path d="M90,44.57c-1.46,0-2.15-.22-2.15-2.37V33.39c0-1.44,1.93-4.19,4.37-4.19h15.59c1.87,0,4.44,1.61,4.44,4.07v9.3c0,1.55-.14,2-2.12,2Z" fill="#fcb116" opacity="0.55"/></svg>