<svg id="Layer_1" data-name="Layer 1" xmlns="http://www.w3.org/2000/svg" viewBox="0 0 300 300"><path d="M99.15,29.53l-.06,0c-.08,0-.07.15-.11.22s0-.18.11-.21l.06,0,3.47-.88h0Z"/><path d="M99.85,33.54l-1.29-3.3a.38.38,0,0,0-.5-.22h0a.09.09,0,0,0-.06,0l-3,2-.1-1.4a.28.28,0,0,0-.2-.24l-4.8-1.27.1-.11-.1.11,4.8,1.28a.26.26,0,0,1,.2.23l.1,1.4,3-2L98,30h0a.38.38,0,0,1,.5.22l1.29,3.3.67-.3h0Z"/><rect x="152.36" y="12.12" width="2.54" transform="translate(40.02 116.25) rotate(-47.02)"/><polygon points="102.71 25.15 103.84 22.91 103.84 22.91 102.71 25.15"/><path d="M90.54,28.44h0a.27.27,0,0,0,0-.36l-1.66-1.82h0l1.66,1.82A.27.27,0,0,1,90.54,28.44Z"/><polygon points="97.04 18.88 97.04 18.88 96.69 19.37 97.04 18.88"/><rect x="91.3" y="24.41" height="1.1" transform="translate(-0.48 1.83) rotate(-1.14)"/><path d="M94,25.25h0A.28.28,0,0,0,94,25l-2.53-3.6h0L94,25A.25.25,0,0,1,94,25.25Z"/><polygon points="93.41 18.31 93.41 18.31 93.27 21.16 93.41 18.31"/><rect x="144.87" y="11.7" width="1.1" transform="translate(77.76 140.95) rotate(-66.97)"/><path d="M145.9,19.7l.48-1.31a.27.27,0,0,0-.09-.3L142.43,15h0l3.86,3.12a.27.27,0,0,1,.09.3l-.48,1.31,2.91-.51Z"/><path d="M147.75,13.06h0a.26.26,0,0,0,.07-.24L147,8.5h0l.83,4.32A.26.26,0,0,1,147.75,13.06Z"/><polygon points="153.14 8.5 153.14 8.5 152.65 8.79 153.14 8.5"/><path d="M151.78,9.29h0Z"/><path d="M150.31,19.35s-.05,0-.06,0h0S150.3,19.38,150.31,19.35Z"/><polygon points="148.7 9.17 150.06 6.49 150.06 6.49 148.7 9.17 148.7 9.18 148.7 9.17"/><polygon points="59.69 49.75 59.75 49.23 59.75 49.23 59.69 49.75"/><path d="M23.34,97h0a.27.27,0,0,0-.19-.17l-4.3-.93h0l4.3.94A.24.24,0,0,1,23.34,97Z"/><path d="M21.6,99.27h0a.26.26,0,0,0-.05-.29l-.76-.79h0l.76.79A.24.24,0,0,1,21.6,99.27Z"/><path d="M20.15,94.58s0,0,0,0,0,0,0,0h0l-1.6-1.92,1.6,1.92Z"/><path d="M33.27,99.12l-3.18-1.57a.39.39,0,0,0-.52.18v0a.14.14,0,0,0,0,.06l-.82,3.48-1-1a.26.26,0,0,0-.31,0L23,102.61l0-1a.27.27,0,0,0-.25-.26l-2.45-.22h0l2.45.22a.27.27,0,0,1,.25.26l0,1,4.39-2.32a.27.27,0,0,1,.31,0l1,1,.82-3.49a.14.14,0,0,1,0-.06v0a.39.39,0,0,1,.52-.18l3.18,1.57.29-.68h0Z"/><path d="M149.7,23l.18-3.54a.39.39,0,0,0-.37-.41h0a.39.39,0,0,1,.37.41L149.7,23h0Z"/><path d="M30,96.63l0,.06h0l0,0,2-3h0Z"/><path d="M98.56,23.19l.82-2.41h0l-.83,2.41h0Z"/><polygon points="21.44 91.58 21.46 91.77 21.46 91.77 21.46 91.77 21.44 91.58"/><rect x="24.8" y="89.93" height="2.55" transform="translate(-34.73 17.79) rotate(-23.83)"/><rect x="54.86" y="48.83" height="2.54" transform="translate(-1.74 1.97) rotate(-2.03)"/><rect x="48.75" y="55.05" height="1.1" transform="translate(-17.26 22.28) rotate(-21.97)"/><path d="M59.79,60.59,57.42,58a.38.38,0,0,0-.55,0h0l0,.05-2.05,2.93-.59-1.26a.27.27,0,0,0-.27-.16L49,60h0l4.94-.51a.25.25,0,0,1,.27.15l.59,1.26L56.81,58l0-.05h0a.39.39,0,0,1,.55,0l2.37,2.63.52-.52h0Z"/><path d="M57.72,57.09l0,0a.38.38,0,0,0-.05.5h0a.38.38,0,0,1,.05-.5l0,0L60.65,55h0Z"/><path d="M49.28,59.12h0a.26.26,0,0,0-.13-.33L47,57.67h0l2.2,1.12A.27.27,0,0,1,49.28,59.12Z"/><polygon points="54.42 51.53 53.62 50.34 54.42 51.53 54.42 51.53"/><path d="M51.37,54.92h0a.28.28,0,0,0-.12-.23l-3.64-2.45h0l3.64,2.46A.25.25,0,0,1,51.37,54.92Z"/><path d="M49.29,51.51h0v0l-.93-2.85h0l.93,2.85Z"/><path d="M143.3,14.56h0a.26.26,0,0,0,.14-.33l-.76-2.34h0l.76,2.35A.27.27,0,0,1,143.3,14.56Z"/><path d="M241,49.56a.26.26,0,0,0,.33-.13l1.12-2.2h0l-1.12,2.2a.26.26,0,0,1-.33.13Z"/><path d="M239.53,60.07l2.64-2.37a.38.38,0,0,0,0-.55v0l-.05,0L239.2,55l1.26-.6a.25.25,0,0,0,.16-.26l-.52-5h0l.52,5a.25.25,0,0,1-.16.26l-1.26.6,2.93,2.05.05,0v0a.39.39,0,0,1,0,.55l-2.64,2.37.52.52h0Z"/><path d="M243,58l0-.06a.39.39,0,0,0-.5,0h0a.39.39,0,0,1,.5,0l0,.06,2.06,2.93h0Z"/><path d="M278.62,92.07s0,0,0,0h0S278.61,92.06,278.62,92.07Z"/><rect x="248.42" y="57.28" height="4.97"/><path d="M248.61,49.57h0l2.85-.93h0l-2.85.93Z"/><rect x="243.97" y="49.03" width="1.1" transform="translate(-0.59 95.05) rotate(-21.97)"/><polygon points="251.29 55.09 251.29 55.09 251.12 55.1 251.29 55.09"/><path d="M245.2,51.65a.29.29,0,0,0,.23-.12l2.46-3.64h0l-2.46,3.64a.29.29,0,0,1-.23.12Z"/><path d="M270.22,97.57a.64.64,0,0,0,0-.07.39.39,0,0,0-.44-.24h0a.39.39,0,0,1,.44.24.64.64,0,0,1,0,.07l.65,3.51h0Z"/><path d="M278.79,92.21h0l2.65.3-2.65-.3Z"/><polygon points="274.01 101.19 276.53 102.67 276.53 102.67 274.01 101.19"/><path d="M274.82,92.69a.27.27,0,0,0,.26,0l3.74-2.29h0l-3.75,2.29a.25.25,0,0,1-.25,0Z"/><rect x="271.95" y="88.3" width="2.47" transform="translate(4.45 189.32) rotate(-38.51)"/><path d="M266.17,98l3.38-1.06a.39.39,0,0,0,.25-.5h0l0-.06L268,93.28h1.4a.26.26,0,0,0,.25-.18l1.58-4.71h0l-1.58,4.71a.27.27,0,0,1-.25.18H268l1.82,3.09,0,.06h0a.38.38,0,0,1-.25.49L266.17,98l.26.69h0Z"/><path d="M201.76,22l.81-.75h0l-.81.75s0,0,0,0S201.74,22,201.76,22Z"/><polygon points="206.2 20.63 208.55 18.76 208.55 18.76 206.2 20.63 206.19 20.64 206.2 20.63"/><path d="M206,20.67s0,0,0,0h0S205.94,20.66,206,20.67Z"/><path d="M203.72,23.78a.27.27,0,0,0,.17-.19l1-4.27h0l-1,4.27a.27.27,0,0,1-.17.19Z"/><path d="M150.71,19.08h0l3.53.62h0Z"/><polygon points="210.63 24.88 210.63 24.88 208.97 25.57 210.63 24.88"/><rect x="155.77" y="14.05" height="4.97"/><polygon points="210.52 21.87 210.52 21.87 210.35 21.88 210.52 21.87"/><path d="M201.36,33.66,203,30.51a.39.39,0,0,0-.17-.52h0l-.06,0-3.47-.9,1-1a.26.26,0,0,0,.05-.3l-2.22-4.45h0l2.22,4.45a.26.26,0,0,1-.05.3l-1,1,3.47.9.06,0h0a.39.39,0,0,1,.17.52l-1.64,3.15.67.3h0Z"/><path d="M203.37,30.59h0c.08-.11.22-.1.35-.1C203.59,30.49,203.45,30.48,203.37,30.59Z"/><polygon points="207.17 30.88 207.17 30.88 210.74 29.96 207.17 30.88"/><path d="M203.91,30.49s0,0,0,0h0s0,0,.06,0l3,2h0Z"/><path d="M199.05,23.3a.25.25,0,0,0,.26-.24l.28-2.45h0l-.28,2.45a.25.25,0,0,1-.26.24h0Z"/><path d="M150,3A147,147,0,1,0,297,150,147,147,0,0,0,150,3Zm89.09,51.81,1.27-.6h0l-.52-4.94,0-.4.38.13.9.33h0l1.12-2.2.2-.4.24.37L243.9,49h0l1-.41.37-.14,0,.39-.09,2.54h0l2.46-3.65.31-.46.14.54.4,1.5h0l2.86-.93.47-.16-.15.48-.93,2.85h0v0h0l1.49.4.54.15-.46.31-3.64,2.46s0,0,0,0h0l2.55-.09h.39l-.15.36-.41,1h0L253,57.46l.37.24-.39.2L250.81,59v0l.33.9.14.38-.41,0-4.94-.52a0,0,0,0,0,0,0L245.32,61l-.19.4-.25-.36-2-2.93,0,0a.14.14,0,0,0-.17,0s0,0,0,0l-2.38,2.63-.18.2-.19-.19-.52-.52-.19-.19.2-.18L242,57.51a.13.13,0,0,0,0-.19h0l-2.93-2-.36-.26Zm-41-31.75h1l.28-2.46,0-.43.35.26,1.83,1.35h0l.82-.75.29-.26.12.37.81,2.41h0l1-4.27.13-.54.32.45.9,1.26h0l2.35-1.87.39-.31,0,.5.13,3h0a0,0,0,0,0,0,0h0l1.54-.15.56-.05-.33.46-2.55,3.58h0l2.35-1,.36-.15v.39l0,1.1h0l2.22.5.43.09-.3.33-1.67,1.82h0l.63.73.26.31-.39.1-4.81,1.25s0,0,0,0l-.11,1.39,0,.44-.36-.25-2.95-2h0a.14.14,0,0,0-.17,0s0,0,0,0l-1.3,3.3-.1.25-.24-.11-.68-.31-.24-.11.12-.24,1.64-3.14a.15.15,0,0,0-.06-.19h0l-3.46-.89-.43-.11.31-.32,1-1h0s0,0,0,0l-2.22-4.44-.18-.37ZM142.44,12l-.14-.42.43.09,2.23.47h0l.43-1,.15-.36.27.29,1.73,1.86h0l-.83-4.32L146.63,8l.48.28,1.35.78h0l1.36-2.67.22-.45.23.45,1.36,2.67h0L153,8.28,153.5,8l-.11.55-.84,4.32h0L154.31,11l.27-.29.15.36.43,1h0l2.23-.47.43-.09-.14.42-.76,2.34v0l.87.4.37.18-.31.25L154,18.29a0,0,0,0,0,0,0l.48,1.32.15.41-.43-.08-3.53-.61h0a.15.15,0,0,0-.14.12v0l.19,3.54v.27h-1.27V23l.19-3.54a.15.15,0,0,0-.13-.14h0l-3.53.61-.43.08.15-.41.48-1.32h0a0,0,0,0,0,0,0l-3.86-3.13-.31-.25.37-.18.86-.4s0,0,0,0ZM88.83,26l2.22-.48h0l0-1.1V24l.36.16,2.34,1h0v0l-2.53-3.59-.32-.46.55.06,1.54.16h0l.14-3,0-.5.39.31L95.91,20h0a0,0,0,0,0,0,0h0l.9-1.26.33-.45.13.54,1,4.28s0,0,0,0h0l.82-2.41.13-.37.29.26.8.75h0L102.21,20l.35-.26,0,.44.26,2.45s0,0,0,0l1,0h.41l-.18.37-2.24,4.43s0,0,0,0l1,1,.31.31-.43.11-3.47.88h0a.13.13,0,0,0-.07.16,0,0,0,0,0,0,0l1.62,3.16.12.23-.25.11-.67.31-.25.11-.09-.25-1.28-3.31a.14.14,0,0,0-.18-.07h0l-3,2-.36.24,0-.43-.11-1.4h0l-4.81-1.27-.39-.1.26-.31.63-.73s0,0,0,0l-1.66-1.83-.29-.33Zm-42,31.45,1.91-1.24h0l-.42-1-.14-.37.39,0,2.54.09h0l-3.65-2.46L47,52.13l.54-.14,1.5-.4h0v0h0l-.93-2.85L48,48.24l.48.16,2.85.92h0l.4-1.49.15-.54.31.46,2.46,3.64h0l-.09-2.55v-.39l.36.15,1,.41h0l1.23-1.91.24-.37.2.4,1.12,2.19h0l.9-.33.38-.14,0,.41-.52,4.94h0l1.26.59.4.19-.36.25L57.86,57.3h0a.14.14,0,0,0,0,.18l0,0,2.63,2.37.2.18-.19.19-.52.52-.19.19-.18-.2-2.37-2.63a.13.13,0,0,0-.19,0h0l0,0L55,61.07l-.26.36-.18-.4-.59-1.26h0L49,60.28l-.4,0,.14-.38L49,59a0,0,0,0,0,0,0l-2.2-1.12-.39-.2ZM14.07,155.89a5.79,5.79,0,1,1,5.78-5.79A5.79,5.79,0,0,1,14.07,155.89ZM22.76,103l0-.41,0-1s0,0,0,0l-2.46-.22-.43,0,.25-.36,1.31-1.86h0l-.76-.8-.28-.28L20.7,98l2.4-.86h0s0,0,0,0h0l-4.3-.93L18.25,96l.45-.33,1.24-.93h0v0h0L18,92.43,17.7,92l.5,0,3-.2h0a0,0,0,0,0,0,0h0L21,90.26,21,89.7l.46.32,3.64,2.47h0l-1-2.33-.16-.35h1.49s0,0,0,0h0l.45-2.23.08-.43.33.29L28.11,89h0l.71-.64.3-.27.12.39,1.35,4.78a0,0,0,0,0,0,0l1.39.08.44,0-.24.37-1.95,3v0a.13.13,0,0,0,.05.17s0,0,0,0l3.33,1.23.25.09-.11.25-.29.68-.1.24-.24-.12L30,97.78a.14.14,0,0,0-.18.06h0v0L29,101.35l-.1.43-.32-.3-1-1h0l-4.39,2.32ZM150,274A124,124,0,1,1,274,150,124,124,0,0,1,150,274ZM276.87,101.72h0l-.07,1,0,.41-.35-.21-4.28-2.52h0l-1.06.91-.34.28-.08-.43L270,97.61v0a.12.12,0,0,0-.15-.08h0l-3.25,1.42-.24.1-.1-.25-.26-.69-.09-.25.25-.08,3.38-1.07a.14.14,0,0,0,.09-.17h0v0l-1.82-3.09-.22-.38H268l1.4,0h0l1.57-4.72.13-.38.29.28.69.68h0L274,87.33l.34-.28.07.44.33,2.25h0l1.1,0,.4,0-.18.35-1.14,2.28h0l3.75-2.3.48-.29-.09.55L278.82,92h0l3,.34.5.06-.34.36-2,2.22h0l1.19,1,.43.36-.55.09-4.33.73h0l2.36,1,.36.14-.29.27-.79.76s0,0,0,0h0l1.23,1.91.23.38h-.44Zm8.43,54.05a5.79,5.79,0,1,1,5.79-5.79A5.78,5.78,0,0,1,285.3,155.77Z"/><g opacity="0.3"><circle cx="150" cy="150" r="122.81"/></g><circle cx="54.42" cy="54.08" r="10.13" opacity="0.85"/><circle cx="26.33" cy="95.61" r="10.13" opacity="0.85"/><circle cx="14.07" cy="150.1" r="5.79" opacity="0.85"/><circle cx="274.01" cy="95.54" r="10.13" opacity="0.85"/><circle cx="285.3" cy="149.98" r="5.79" opacity="0.85"/><circle cx="245.95" cy="54.08" r="10.13" opacity="0.85"/><circle cx="205.36" cy="25.99" r="10.13" opacity="0.85"/><circle cx="149.96" cy="13.9" r="10.13" opacity="0.85"/><circle cx="96.69" cy="25.57" r="10.13" opacity="0.85"/></svg>