<svg id="Layer_1" data-name="Layer 1" xmlns="http://www.w3.org/2000/svg" viewBox="0 0 25 25"><path d="M9.38,9.24c-.6.78.23.54-1.87,2.42-.49.43-.19,1.56-.17,2.28,0,.2.3.11.64,0,.07,0,.17.08.29,0s.15-.26.22-.24.09.18.18.18c.33,0,.61-.36.87-.75.45-.67,3.17-.45,3.17-.45l2.38,3.41s.11.17.16.15c2.41-.77,4.76-3.92,3.08-8.73-.16-.46-.6-.37-1.92.1a7,7,0,0,1-2.86.56,5.61,5.61,0,0,0-3.82.35c0-.32.56-.84.84-1a2.3,2.3,0,0,0,.93-1.22c.12-.47.88-1.27.86-1.71,0-.07,0-.07,0,0-.11.21-.58.64-.7.55s.29-.86.39-1.12C12,4,12,4,11.94,4c-.33.25-.8,1.3-1.1,1.18s0-.73,0-1c0-.09-.06-.07-.08,0-.13.42-.35,1.6-.72,1.52s.15-.88,0-1.27c0-.06-.07-.09-.1,0-.07.36-.09,1.2-.48,1.23S8.52,4.25,8.58,4s-.06-.09-.07,0C8.24,5.34,9.75,6.29,9,6.85S6.91,5.64,6.77,5c0-.1-.11-.13-.11,0,0,1.75,2.69,2.85,2.18,3.44-.36.42-2.24-.31-2.63-1.35,0-.05-.1-.08-.11,0C6.08,7.41,6.68,9.06,9.38,9.24Z" fill="#fff"/><path d="M8,6.17c0-.15.08-.18.13,0,.23.92,1.94,3,3.06,2.29,1.5-.91.92-3.18.28-4.43,0-.06,0-.18.08-.07.56.49.88,2.4,1.14,2.37.53,0,.7-1.58.81-2.17,0-.11.08-.14.12,0,.13.48-.22,1.31,0,1.36s1-1.34,1.05-1.88c0-.06.07-.21.12,0,.14.5-.68,1.6-.51,1.78s.67-.66.73-1,.16-.23.22,0c.19.71-.79,3.33-3.6,4.4-.46.17-.13.73-.64.88s-.17-.58-.35-.62A3.9,3.9,0,0,1,8,6.17Z" fill="#fff"/><path d="M10.86,10a.53.53,0,0,0-.81.43c0,.09.06.09.07,0a1.17,1.17,0,0,1,.1-.2s.6.19.67-.21C10.89,10.07,10.89,10.06,10.86,10Zm-.27.05s-.07,0-.07,0,0,0,.07,0,.07,0,.07,0S10.63,10.09,10.59,10.09Z"/><path d="M8.14,12.88c-.06-.14,0-.13.11-.05a.68.68,0,0,1,0,.57c0,.13-.11.4-.22.47s-.2.06-.2-.07.23-.3.29-.41A.55.55,0,0,0,8.14,12.88Z"/><path d="M8.47,13.74s.07,0,.08,0a3.22,3.22,0,0,1,.71-.91c.06-.05,0-.13,0-.17s.07,0,.08-.05,0,0,0,0H9.2c-.06,0-.06,0,0,.05h.05C9.19,12.94,8.89,12.91,8.47,13.74Z"/><path d="M14.55,15c-.45,0-.8-1.1-1-1.5s-1.08-1.08-1-1.52a2.6,2.6,0,0,0-.18-2.07c.26-.45.69-.56,1-1.08a1,1,0,0,0,.11-.73c0-.17-.15-.09-.19,0-.53.5-1.45.87-1.67,1.22s.06.89.49.7a1.58,1.58,0,0,1-.2,2.15c-.34.35-2.14.6-2.38,1,0,0-.06,0,0,0,.42-.11,0,.57.36,1,.19.27.67.3.81.58.24.47-.39.71.09,1.77a.28.28,0,0,0,.53.05c.1-.3,0-.74.08-1.28.06-.25.51-.63.47-1-.07-.78.25-1.4.51-1.32.9.25.6,1.28.84,1.49s.64.28.84.68a2.3,2.3,0,0,0,1.15,1.16,2.73,2.73,0,0,0,1.52-.83S14.93,15,14.55,15ZM12.27,9.82c-.38.17-.62-.22-.34-.48a7.33,7.33,0,0,0,1.35-1.08c.06-.09.13,0,.14,0s.05.5-.59,1C12.45,9.58,12.45,9.73,12.27,9.82Z"/></svg>