<svg id="Layer_1" data-name="Layer 1" xmlns="http://www.w3.org/2000/svg" viewBox="0 0 25 25"><path d="M12,4.06C12,4,12,4,11.94,4a.9.9,0,0,0-.17.17l.09.16Z" fill="#fcb116"/><path d="M12.36,4.65c0-.08,0-.07,0,0a1.32,1.32,0,0,1-.21.26,1.86,1.86,0,0,1,.1.25A1,1,0,0,0,12.36,4.65Z" fill="#fcb116"/><path d="M11.23,8.46a1.81,1.81,0,0,0,.47-.4,6.19,6.19,0,0,0-1.58.38A1.13,1.13,0,0,0,11.23,8.46Z" fill="#fcb116"/><path d="M9,6.85a.62.62,0,0,1-.42.09A4.68,4.68,0,0,0,9.85,8.29a2.88,2.88,0,0,1,.72-.72,2.27,2.27,0,0,0,.93-1.22A4.06,4.06,0,0,1,12,5.43c0-.13-.06-.26-.1-.39-.13.1-.26.17-.31.13s0-.34.14-.6c0-.08-.07-.15-.1-.22-.28.39-.59.93-.81.84s0-.72,0-1c0-.09-.06-.07-.08,0-.13.42-.35,1.6-.72,1.51s.15-.87,0-1.26c0-.06-.07-.1-.09,0-.08.36-.1,1.2-.49,1.23S8.52,4.26,8.58,4s-.06-.09-.07,0C8.24,5.34,9.75,6.3,9,6.85Z" fill="#fcb116"/><path d="M12.83,9.27c.64-.51.61-.94.59-1s-.08-.09-.14,0a7.33,7.33,0,0,1-1.35,1.08c-.28.26,0,.65.34.48C12.45,9.73,12.45,9.58,12.83,9.27Z" fill="#fcb116"/><path d="M18.33,7.57c-.16-.45-.6-.37-1.92.1a7,7,0,0,1-2.86.57h0a.92.92,0,0,1-.13.59c-.32.52-.75.63-1,1.08A2.6,2.6,0,0,1,12.57,12c-.1.44.78,1.11,1,1.52s.55,1.47,1,1.5,2.2.46,2.22.46C18.49,14.08,19.64,11.34,18.33,7.57Z" fill="#fcb116"/><path d="M11.65,9.27c.2-.32,1-.65,1.51-1.09a1.66,1.66,0,0,1-.22,0,6.21,6.21,0,0,1-1.3.71c-.47.17-.14.73-.65.88s-.17-.58-.35-.62A3.87,3.87,0,0,1,8.22,6.84,3.61,3.61,0,0,1,6.77,5c0-.09-.11-.12-.11,0,0,1.76,2.69,2.85,2.18,3.45-.36.42-2.24-.31-2.63-1.36,0,0-.1-.07-.11,0,0,.3.58,2,3.28,2.13-.6.79.23.55-1.87,2.42-.49.44-.19,1.57-.17,2.28,0,.21.3.11.64,0,.07,0,.17.07.29,0s.15-.25.22-.24.09.18.18.18c.33,0,.61-.36.87-.75h0s0,0,0,0c.24-.43,2-.68,2.38-1a1.57,1.57,0,0,0,.2-2.15C11.71,10.16,11.36,9.72,11.65,9.27ZM8.28,13.4c0,.13-.11.4-.22.47s-.2.06-.2-.07.23-.3.29-.41a.55.55,0,0,0,0-.51c-.06-.14,0-.13.11-.05A.68.68,0,0,1,8.28,13.4Zm1-.73s0,.12,0,.17a3.22,3.22,0,0,0-.71.91s-.1,0-.08,0c.42-.83.72-.8.77-1.08H9.19s0-.06,0-.05h.15s0,0,0,0S9.31,12.65,9.3,12.67Zm.92-2.38a1.17,1.17,0,0,0-.1.2c0,.07-.09.07-.07,0a.53.53,0,0,1,.81-.43s0,0,0,0C10.82,10.48,10.22,10.29,10.22,10.29Z" fill="#fcb116"/><path d="M8,6.17c0-.15.08-.18.13,0,.23.92,1.94,3,3.06,2.29,1.5-.91.92-3.18.28-4.43,0-.06,0-.18.08-.07.56.49.88,2.4,1.14,2.37.53,0,.7-1.58.81-2.17,0-.11.08-.14.12,0,.13.48-.22,1.31,0,1.36s1-1.34,1.05-1.88c0-.06.07-.21.12,0,.14.5-.68,1.6-.51,1.78s.67-.66.73-1,.16-.23.22,0c.19.71-.79,3.33-3.6,4.4-.46.17-.13.73-.64.88s-.17-.58-.35-.62A3.9,3.9,0,0,1,8,6.17Z" fill="#fcb116" opacity="0.7"/><path d="M10.86,10a.53.53,0,0,0-.81.43c0,.09.06.09.07,0a1.17,1.17,0,0,1,.1-.2s.6.19.67-.21C10.89,10.07,10.89,10.06,10.86,10Zm-.27.05s-.07,0-.07,0,0,0,.07,0,.07,0,.07,0S10.63,10.09,10.59,10.09Z" fill="#fcb116" opacity="0.4"/><path d="M8.14,12.88c-.06-.14,0-.13.11-.05a.68.68,0,0,1,0,.57c0,.13-.11.4-.22.47s-.2.06-.2-.07.23-.3.29-.41A.55.55,0,0,0,8.14,12.88Z" fill="#fcb116" opacity="0.4"/><path d="M8.47,13.74s.07,0,.08,0a3.22,3.22,0,0,1,.71-.91c.06-.05,0-.13,0-.17s.07,0,.08-.05,0,0,0,0H9.2c-.06,0-.06,0,0,.05h.05C9.19,12.94,8.89,12.91,8.47,13.74Z" fill="#fcb116" opacity="0.4"/><g opacity="0.8"><path d="M14.55,15c-.45,0-.8-1.1-1-1.5s-1.08-1.08-1-1.52a2.6,2.6,0,0,0-.18-2.07c.26-.45.69-.56,1-1.08a1,1,0,0,0,.11-.73c0-.17-.15-.09-.19,0-.53.5-1.45.87-1.67,1.22s.06.89.49.7a1.58,1.58,0,0,1-.2,2.15c-.34.35-2.14.6-2.38,1,0,0-.06,0,0,0,.42-.11,0,.57.36,1,.19.27.67.3.81.58.24.47-.39.71.09,1.77a.28.28,0,0,0,.53.05c.1-.3,0-.74.08-1.28.06-.25.51-.63.47-1-.07-.78.25-1.4.51-1.32.9.25.6,1.28.84,1.49s.64.28.84.68a2.3,2.3,0,0,0,1.15,1.16,2.73,2.73,0,0,0,1.52-.83S14.93,15,14.55,15ZM12.27,9.82c-.38.17-.62-.22-.34-.48a7.33,7.33,0,0,0,1.35-1.08c.06-.09.13,0,.14,0s.05.5-.59,1C12.45,9.58,12.45,9.73,12.27,9.82Z" fill="#fcb116"/></g></svg>