<svg id="Layer_1" data-name="Layer 1" xmlns="http://www.w3.org/2000/svg" viewBox="0 0 200 200"><path d="M75,99.85c5.62-.23,18.14-.72,22.31,3.06,5.13,4.66,7.71,20.15,6.43,27-.64,3.43-.55,7.58-7.93,11.47-3.28,1.72-9.35,2-14.69-1.86a79.18,79.18,0,0,0-10.54-6.35c-2.59-1.39-8.35-3.65-12.16-17.9-.82-3-1.4-11.36,2.71-12.32C64.6,102.11,71.46,100,75,99.85Z"/><path d="M125,100.79c-5.63.23-18.14.72-22.31-3.06-5.14-4.65-7.71-20.15-6.43-27,.64-3.43.55-7.58,7.93-11.47,3.28-1.72,9.35-2,14.69,1.86a79.29,79.29,0,0,0,10.54,6.36c2.59,1.39,8.34,3.65,12.16,17.89.81,3,1.4,11.36-2.71,12.32C135.36,98.53,128.5,100.65,125,100.79Z"/><path d="M91.72,104.1c-8.35,1.87-30.9-3.33-33.25-8.1-2.67-5.4,3.07-22.92,13.85-29.25C75.9,64.64,81.6,61.64,87,59c9.39-4.48,12.19,1.5,14.19,5.9,3.86,8.5,5.48,22.53,2.68,29.31C102.41,97.87,95.54,103.24,91.72,104.1Z" fill="#fff"/><path d="M97.43,106.79c-3.29,6-1.3,19.07,3.67,26,5.49,7.62,11.35,10.18,18,6.1,3.26-2,10.13-5.43,11.71-10,.71-2,1.42-3.34,5.27-6.85,1.75-1.59,3.93-2.84,4.18-7.18.32-5.59,5.34-9.78-2-16.55-11.13-10.24-27.91-5.83-31.41-2.42C104.2,98.35,99.15,103.62,97.43,106.79Z" fill="#fff"/><path d="M88.78,94.35c-.39.46-.48,1.8-.81,2.31a6.22,6.22,0,0,1-1.57,1.5c-.15.09-.31.36,0,.65a1.56,1.56,0,0,1,.27,2.35,1.14,1.14,0,0,0,.14,1.39,2.65,2.65,0,0,1,.48,2.11c-.18,1.72,1,1.94,1.49,2.49s2.17.81,2,1.56.73,1.14,1.22,1.43a4.61,4.61,0,0,0,1.91.75,17.68,17.68,0,0,1,4.29,1c.44.16,1.23.46,1.53,0s.57-.07.75,0a3.25,3.25,0,0,0,4.15-1.91,2,2,0,0,1,1.62-1.52,2.51,2.51,0,0,0,1.79-2.23c0-.18-.07-1,.47-.57,1.38,1.19,2-3.4,1.84-5a1.87,1.87,0,0,1,.61-2c.87-.93.64-2-.17-3.41-.51-.9-2.9-2-2.79-3.06.08-.72-.29-.85-1.43-1.6-.46-.3-1.15-.21-1.77-1.29-1-1.8-6.29-2-9.43-1C95,88.3,95,89.36,92.8,90.6c-.54.31-1.94.55-1.77,1.74C91.14,93.08,89.28,93.78,88.78,94.35Z"/></svg>