<svg id="Layer_1" data-name="Layer 1" xmlns="http://www.w3.org/2000/svg" viewBox="0 0 200 200"><path d="M99.91,29.05l8.22,16.16a1.63,1.63,0,0,0,1.45.9,1.57,1.57,0,0,0,.72-.18l.09,0,8.1-4.68-5,26.07a1.61,1.61,0,0,0,1.28,1.89,1.53,1.53,0,0,0,.3,0,1.63,1.63,0,0,0,1.17-.5l10.48-11.26,2.61,6.13a1.6,1.6,0,0,0,1.48,1,1.84,1.84,0,0,0,.33,0l13.43-2.85-4.61,14.18a1.6,1.6,0,0,0,.84,2L146,80.23,122.68,99.12a1.61,1.61,0,0,0-.49,1.81l2.87,7.93-21.29-3.74a2.69,2.69,0,0,0-.4,0,2.36,2.36,0,0,0-2.32,2,2.19,2.19,0,0,0,0,.51l1.12,21.39H97.67l1.12-21.39a2.36,2.36,0,0,0-2.24-2.46h-.11a2.69,2.69,0,0,0-.4,0l-21.29,3.74,2.87-7.93a1.62,1.62,0,0,0-.49-1.81L53.81,80.23l5.25-2.45a1.61,1.61,0,0,0,.84-2L55.29,61.65,68.73,64.5a1.73,1.73,0,0,0,.32,0,1.6,1.6,0,0,0,1.48-1l2.61-6.12L83.62,68.68a1.59,1.59,0,0,0,1.17.51,1.63,1.63,0,0,0,1.11-.44,1.6,1.6,0,0,0,.47-1.48L81.32,41.2l8.1,4.68a1.62,1.62,0,0,0,2.21-.57l.05-.1,8.23-16.16m0-3.38-1.37,2.69L90.31,44.52h0a.09.09,0,0,1-.07,0h0l-8.11-4.68-2.92-1.69.65,3.31,5,26.07a.06.06,0,0,1,0,.07s0,0,0,0-.05,0-.05,0L74.26,56.38l-1.61-1.73-.93,2.18L69.12,63a.07.07,0,0,1-.07,0h0L55.61,60.14,53,59.59l.82,2.53L58.44,76.3s0,.08,0,.09l-5.24,2.45-2.23,1,1.91,1.55,23.32,18.89a.06.06,0,0,1,0,.08h0l-2.87,7.94-.91,2.5,2.61-.46,21.3-3.75h.17a.82.82,0,0,1,.77.85l-1.11,21.39-.09,1.61h7.71l-.09-1.61-1.12-21.39a1.11,1.11,0,0,1,0-.17.81.81,0,0,1,.8-.68h.14l21.29,3.74,2.61.46-.9-2.49-2.88-7.94a.1.1,0,0,1,0-.09L147,81.43l1.91-1.55-2.23-1-5.24-2.45s0,0,0-.09L146,62.12l.82-2.53-2.6.56L130.77,63h0a.07.07,0,0,1-.07,0l-2.6-6.12-.93-2.17-1.61,1.73L115.07,67.63l0,0h0a.08.08,0,0,1-.06-.09l5-26.07.65-3.31-2.92,1.69-8.11,4.68h0a.09.09,0,0,1-.07,0h0l-8.23-16.15-1.36-2.69Z" fill="#fcb116" opacity="0.6"/><path d="M139.91,75.83l4.61-14.18L131.09,64.5a1.84,1.84,0,0,1-.33,0,1.6,1.6,0,0,1-1.48-1l-2.61-6.13L116.19,68.69a1.63,1.63,0,0,1-1.17.5,1.53,1.53,0,0,1-.3,0,1.61,1.61,0,0,1-1.28-1.89l5-26.07-8.1,4.68-.09,0a1.57,1.57,0,0,1-.72.18,1.63,1.63,0,0,1-1.45-.9L99.91,29.05,91.68,45.21l-.05.1a1.62,1.62,0,0,1-2.21.57l-8.1-4.68,5.05,26.07a1.6,1.6,0,0,1-.47,1.48,1.63,1.63,0,0,1-1.11.44,1.59,1.59,0,0,1-1.17-.51L73.14,57.43l-2.61,6.12a1.6,1.6,0,0,1-1.48,1,1.73,1.73,0,0,1-.32,0L55.29,61.65,59.9,75.82a1.62,1.62,0,0,1-.84,2l-5.25,2.45L77.13,99.12a1.62,1.62,0,0,1,.49,1.81l-2.87,7.93L96,105.12a2.69,2.69,0,0,1,.4,0h.11a2.36,2.36,0,0,1,2.24,2.46l-1.12,21.39h4.47L101,107.55a2.19,2.19,0,0,1,0-.51,2.36,2.36,0,0,1,2.32-2,2.69,2.69,0,0,1,.4,0l21.29,3.74-2.87-7.93a1.61,1.61,0,0,1,.49-1.81L146,80.23l-5.26-2.45A1.6,1.6,0,0,1,139.91,75.83Z" fill="#fcb116"/></svg>