<svg id="Layer_1" data-name="Layer 1" xmlns="http://www.w3.org/2000/svg" viewBox="0 0 200 200"><path d="M86.05,58.49c0,12.38,3.87,20.3,14,20.3s14.17-8.17,14.17-20.3Z" fill="#fcb116" opacity="0.65"/><path d="M76.51,58.49c-4,0-4-6.1,0-6.1h47c4.38,0,3.52,6.1,0,6.1Z" fill="#fcb116" opacity="0.9"/><rect x="84.28" y="45.81" width="31.45" height="6.58" fill="#fcb116" opacity="0.7"/><path d="M84.28,45.81c0-3.46,0-8.83,6.5-9.59a3.08,3.08,0,0,0,3.07-3.31c0-2.75,2.52-3,3.71-3h5.21c1.36,0,3.36.71,3.36,2.91a3.7,3.7,0,0,0,3.55,3.47c5.42.41,6.06,3.7,6.06,9.52Z" fill="#fcb116" opacity="0.9"/><polygon points="111.48 85.2 117.42 87.13 84.99 123.62 76.98 123.62 111.48 85.2" fill="#fcb116" opacity="0.5"/><path d="M67.49,90.61l1.83,3.56a.81.81,0,0,0,1.05.36l9.34-4.33a.79.79,0,0,0,.37-1.1l-1.73-3.25a.8.8,0,0,0-1-.36l-9.44,4A.81.81,0,0,0,67.49,90.61Z" fill="#fcb116"/><path d="M121.71,85.65l-1.56,3.68a.8.8,0,0,0,.39,1l9.3,4.41a.8.8,0,0,0,1.09-.42L132.32,91a.81.81,0,0,0-.38-1l-9.12-4.68A.82.82,0,0,0,121.71,85.65Z" fill="#fcb116"/><path d="M100.08,78.78H100v8.11l5.9-3.47V77.6l-.17,0A14.13,14.13,0,0,1,100.08,78.78Z" fill="#fcb116" opacity="0.8"/><path d="M94.5,77.68l-.39-.08v5.82l5.9,3.47V78.78h-.07A14.2,14.2,0,0,1,94.5,77.68Z" fill="#fcb116" opacity="0.9"/><g opacity="0.5"><polygon points="96.85 110.27 96.85 123.62 103.17 123.62 103.17 103.16 96.85 110.27" fill="#fcb116" opacity="0.9"/><polygon points="103.17 94.45 103.17 85.03 100.01 86.89 96.85 85.03 96.85 101.49 103.17 94.45" fill="#fcb116" opacity="0.9"/></g><path d="M116.65,86.88l.76.26h0Z" fill="#fcb116" opacity="0.75"/><path d="M116.65,86.88l-5.06-1.65Z" fill="#fcb116" opacity="0.75"/><path d="M126.51,90.26c-2.28-.85-5.7-2-9.1-3.12L85,123.62H96.85V110.27l6.32-7.11v20.46h29.77c.93,0,1.08-.45,1.08-1.31v-21.8C134,94.53,129.49,91.37,126.51,90.26Z" fill="#fcb116" opacity="0.75"/><path d="M105.91,83.42h0L103.17,85v9.42l-6.32,7V85L100,86.89l-5.9-3.47h0s-14.19,4.78-20.6,7.32C70.64,91.87,66,93.92,66,100.51v21.21c0,1.13,0,1.9,1,1.9H77l34.5-38.42C108.29,84.17,105.91,83.42,105.91,83.42Z" fill="#fcb116" opacity="0.75"/></svg>