<svg id="Layer_1" data-name="Layer 1" xmlns="http://www.w3.org/2000/svg" viewBox="0 0 200 200"><path d="M112.43,74.87c-3.79-3.39,2.18-10.12,3.69-13.19,3-6.13,2.72-18.18,7.33-22,7.21-6,27.39,8.56,25.5,21.53-.83,5.7-13.16,7.84-22.62,10.09C122.66,72.2,115.87,78,112.43,74.87Z" fill="none" stroke="#fcb116" stroke-linejoin="round" stroke-width="3" opacity="0.8"/><g opacity="0.8"><path d="M84.26,77.51c-3,0-6.29-2.14-8.76-3.72a25.58,25.58,0,0,0-2.31-1.39c-2.3-1.13-5.74-1.8-9.06-2.45-5.32-1-10.81-2.11-13.41-5.27s-2.22-8.4,1-14.1c4.4-7.82,13.3-15.09,21.91-13.84,6.09.89,8.37,10.89,10.59,20.56L85,60.5a20.26,20.26,0,0,0,1.72,3.85C88.59,68,91,72.62,88.16,75.75A5,5,0,0,1,84.26,77.51ZM71.68,39.6c-6.73,0-13.82,6.17-17.35,12.45-2.54,4.51-3,8.62-1.3,10.73C55,65.1,59.9,66.07,64.7,67c3.52.68,7.15,1.39,9.82,2.7.7.35,1.6.92,2.59,1.56,3.72,2.37,7.17,4.33,8.82,2.48h0c1.42-1.59-.43-5.15-1.91-8a21.75,21.75,0,0,1-2-4.54L81.29,58c-1.8-7.87-4-17.66-8.1-18.26A11,11,0,0,0,71.68,39.6Z" fill="#fcb116"/></g></svg>