<svg id="Layer_1" data-name="Layer 1" xmlns="http://www.w3.org/2000/svg" viewBox="0 0 200 200"><polygon points="63.36 120 66.69 123.33 114.08 75.94 110.69 72.54 63.36 120" fill="none" stroke="#000" stroke-linejoin="round" stroke-width="3"/><polygon points="132.58 123.3 135.91 119.97 102.98 87.04 99.58 90.44 132.58 123.3" fill="none" stroke="#000" stroke-linejoin="round" stroke-width="3"/><polygon points="96.15 87.04 99.47 83.72 88.72 72.96 85.46 76.49 96.15 87.04" fill="none" stroke="#000" stroke-linejoin="round" stroke-width="3"/><circle cx="99.64" cy="53.58" r="7.4" fill="#fff"/><line x1="85.95" y1="73.94" x2="58.44" y2="45.85" fill="none" stroke="#fff" stroke-miterlimit="10" stroke-width="2"/><path d="M87.26,72.18c-5.12-4.78-18.55-23.57-18.55-33" fill="none" stroke="#fff" stroke-miterlimit="10" stroke-width="2"/><path d="M84.27,75.31c-4.79-5.12-23.57-18.55-33-18.55" fill="none" stroke="#fff" stroke-miterlimit="10" stroke-width="2"/><path d="M72.9,70.64c0-3.6-6.33-11.35-3.78-13.88S80.26,61.5,83.5,60.84" fill="none" stroke="#fff" stroke-miterlimit="10" stroke-width="2"/><path d="M61.56,67.9c.29-8,9.47-17.9,18.93-19.27" fill="none" stroke="#fff" stroke-miterlimit="10" stroke-width="2"/><path d="M53.28,65C53.85,57.05,66.13,41.23,78,41.23" fill="none" stroke="#fff" stroke-miterlimit="10" stroke-width="2"/><line x1="113.23" y1="73.77" x2="141.32" y2="46.26" fill="none" stroke="#fff" stroke-miterlimit="10" stroke-width="2"/><path d="M115,75.08c4.78-5.12,23.56-18.55,33-18.55" fill="none" stroke="#fff" stroke-miterlimit="10" stroke-width="2"/><path d="M111.87,72.09c5.12-4.78,18.54-23.57,18.54-33" fill="none" stroke="#fff" stroke-miterlimit="10" stroke-width="2"/><path d="M116.54,60.73c3.6,0,11.35-6.34,13.87-3.79s-4.73,11.14-4.08,14.38" fill="none" stroke="#fff" stroke-miterlimit="10" stroke-width="2"/><path d="M119.27,49.39c8,.28,17.91,9.46,19.28,18.93" fill="none" stroke="#fff" stroke-miterlimit="10" stroke-width="2"/><path d="M122.19,41.1c7.94.57,23.75,12.85,23.75,24.71" fill="none" stroke="#fff" stroke-miterlimit="10" stroke-width="2"/></svg>