<svg id="Layer_1" data-name="Layer 1" xmlns="http://www.w3.org/2000/svg" viewBox="0 0 25 25"><path d="M8.37,15.45h8.25c.11,0,.13,0,.13-.16V12.56a1.38,1.38,0,0,0-.94-1.28c-.76-.28-2.57-.85-2.57-.85a6.11,6.11,0,0,0-1.48,0s-1.77.6-2.57.91a1.24,1.24,0,0,0-.94,1.22v2.65C8.25,15.36,8.25,15.45,8.37,15.45Z"/><polygon points="12.11 10.61 12.11 15.45 12.9 15.45 12.9 10.58 12.11 10.61" fill="#fff"/><polygon points="11.76 9.7 11.76 10.43 12.5 10.86 12.5 9.85 11.76 9.7"/><polygon points="13.24 9.7 13.24 10.43 12.5 10.86 12.5 9.85 13.24 9.7"/><path d="M10.76,7.31c0,1.55.48,2.54,1.75,2.54s1.77-1,1.77-2.54Z" fill="#fff"/><path d="M9.56,7.31a.38.38,0,0,1,0-.76h5.88c.55,0,.44.76,0,.76Z" fill="#fff"/><rect x="10.54" y="5.73" width="3.93" height="0.82"/><path d="M10.54,5.73c0-.44,0-1.11.81-1.2a.39.39,0,0,0,.38-.42c0-.34.32-.37.47-.37h.65a.38.38,0,0,1,.42.36.46.46,0,0,0,.44.44c.68,0,.76.46.76,1.19Z" fill="#fff"/><polygon points="13.94 10.65 14.68 10.89 10.62 15.45 9.62 15.45 13.94 10.65"/><path d="M8.44,11.33l.23.44a.1.1,0,0,0,.13.05L10,11.28a.1.1,0,0,0,0-.14l-.22-.41a.1.1,0,0,0-.12,0l-1.18.5A.09.09,0,0,0,8.44,11.33Z" fill="#fff"/><path d="M15.21,10.71l-.19.46a.1.1,0,0,0,.05.13l1.16.55a.11.11,0,0,0,.14,0l.17-.43a.1.1,0,0,0-.05-.13l-1.14-.58A.1.1,0,0,0,15.21,10.71Z" fill="#fff"/></svg>