<svg id="Layer_1" data-name="Layer 1" xmlns="http://www.w3.org/2000/svg" viewBox="0 0 200 200"><g opacity="0.95"><path d="M102,112h0a2.83,2.83,0,0,1-1.6-.16A2.83,2.83,0,0,0,102,112Z" fill="#fcb116"/><path d="M86.67,101.16a1.69,1.69,0,0,0,.34-.71A1.9,1.9,0,0,1,86.67,101.16Z" fill="#fcb116"/><path d="M96.11,111.26a14.68,14.68,0,0,0-2.25-.37,4.61,4.61,0,0,1-1.91-.75c-.5-.29-1.48-.58-1.23-1.43s-1.53-1.09-1.94-1.56-1.67-.77-1.49-2.49c0-.07,0-.12,0-.19A71.13,71.13,0,0,1,68,101.15c-2.57.65-5.12,1.37-6.83,1.76-4.11,1-3.53,9.28-2.71,12.32,3.81,14.25,9.57,16.51,12.16,17.9a79.18,79.18,0,0,1,10.54,6.35c5.34,3.85,11.41,3.58,14.69,1.86,4.17-2.2,5.92-4.47,6.8-6.66-.51-.61-1-1.21-1.52-1.91C97.14,127.27,95.13,117.91,96.11,111.26Z" fill="#fcb116"/><path d="M87.28,104.46a3.31,3.31,0,0,0,0-1A3.33,3.33,0,0,1,87.28,104.46Z" fill="#fcb116"/></g><g opacity="0.9"><path d="M110.28,99.58a2.31,2.31,0,0,1,.63-1A2.26,2.26,0,0,0,110.28,99.58Z" fill="#fcb116"/><path d="M97.7,87.73h0c.42,0,.85,0,1.27-.06C98.54,87.69,98.13,87.69,97.7,87.73Z" fill="#fcb116"/><path d="M141.53,85.41c-3.82-14.24-9.57-16.5-12.16-17.89a78.19,78.19,0,0,1-10.54-6.36c-5.34-3.85-11.41-3.58-14.69-1.86a18.89,18.89,0,0,0-4.26,3c.51.9,1,1.82,1.35,2.69A51.35,51.35,0,0,1,105,89.47c-.09-.11-.18-.11-.27-.26.62,1.08,1.31,1,1.77,1.29,1.14.75,1.51.88,1.43,1.6s.89,1.37,1.73,2c6.1-2.72,18.91-4.32,28.15,3.84.31-.08.71-.19,1-.25C142.93,96.77,142.34,88.46,141.53,85.41Z" fill="#fcb116"/><path d="M103.42,88.25a5.86,5.86,0,0,0-.67-.21C103,88.11,103.22,88.17,103.42,88.25Z" fill="#fcb116"/><path d="M100.29,87.66c.36,0,.7.06,1,.1C101,87.72,100.66,87.68,100.29,87.66Z" fill="#fcb116"/></g><path d="M86.81,102.55a1.14,1.14,0,0,1-.14-1.39,1.56,1.56,0,0,0-.27-2.35c-.31-.29-.15-.56,0-.65A6.22,6.22,0,0,0,88,96.66c.33-.51.42-1.85.81-2.31s2.36-1.27,2.25-2c-.17-1.19,1.23-1.43,1.77-1.74C95,89.36,95,88.3,95.32,88.19c3.14-1,8.41-.78,9.43,1,.09.15.18.15.27.26a51.35,51.35,0,0,0-3.79-24.53c-2-4.4-4.8-10.38-14.19-5.9-5.44,2.6-11.14,5.6-14.72,7.71C61.54,73.08,55.8,90.6,58.47,96c2,4.08,18.77,8.45,28.81,8.47A2.53,2.53,0,0,0,86.81,102.55Z" fill="#fcb116" opacity="0.9"/><path d="M138.2,98.26c-9.26-8.52-22.34-6.88-28.52-4.12a4.53,4.53,0,0,1,1.06,1c.81,1.41,1,2.48.17,3.41a1.87,1.87,0,0,0-.61,2c.19,1.61-.46,6.2-1.84,5-.54-.46-.48.39-.47.57a2.51,2.51,0,0,1-1.79,2.23,2,2,0,0,0-1.62,1.52,3.25,3.25,0,0,1-4.15,1.91c-.18-.07-.38-.57-.75,0s-1.09.16-1.53,0a17.28,17.28,0,0,0-2-.59c-1,6.65,1,16,5,21.51,5.49,7.62,11.35,10.18,18,6.11,3.26-2,10.13-5.44,11.71-10,.71-2,1.42-3.34,5.27-6.85,1.75-1.59,3.92-2.84,4.18-7.18C140.53,109.22,145.55,105,138.2,98.26Z" fill="#fcb116" opacity="0.9"/><g opacity="0.5"><path d="M88.78,94.35c-.4.46-.48,1.8-.81,2.31a6.22,6.22,0,0,1-1.57,1.5c-.15.09-.31.36,0,.65a1.56,1.56,0,0,1,.27,2.35,1.14,1.14,0,0,0,.14,1.39,2.65,2.65,0,0,1,.48,2.11c-.18,1.72,1,1.94,1.49,2.49s2.17.81,2,1.56.72,1.14,1.22,1.43a4.61,4.61,0,0,0,1.91.75,17.68,17.68,0,0,1,4.29,1c.44.16,1.23.46,1.53,0s.57-.07.75,0a3.25,3.25,0,0,0,4.15-1.91,2,2,0,0,1,1.62-1.52,2.51,2.51,0,0,0,1.79-2.23c0-.18-.07-1,.47-.57,1.38,1.19,2-3.4,1.84-5a1.87,1.87,0,0,1,.61-2c.87-.93.64-2-.17-3.41-.51-.9-2.9-2-2.79-3.06.08-.72-.29-.85-1.43-1.6-.46-.3-1.15-.21-1.77-1.29-1-1.8-6.29-2-9.43-1C95,88.3,95,89.36,92.8,90.6c-.54.31-1.94.55-1.77,1.74C91.14,93.08,89.27,93.78,88.78,94.35Z" fill="#fcb116"/></g></svg>