<svg id="Layer_1" data-name="Layer 1" xmlns="http://www.w3.org/2000/svg" viewBox="0 0 25 25"><path d="M8.26,2.46h0v0h0l.29-.07h0Z"/><path d="M8.32,2.8l-.11-.28s0,0,0,0h0l-.25.17V2.56a0,0,0,0,0,0,0l-.4-.11h0l.4.11a0,0,0,0,1,0,0v.11l.25-.17h0s0,0,0,0l.11.28.06,0h0Z"/><rect x="12.7" y="1.01" width="0.21" transform="translate(3.33 9.69) rotate(-47.02)"/><polygon points="8.56 2.1 8.65 1.91 8.65 1.91 8.56 2.1"/><path d="M7.55,2.37h0a0,0,0,0,0,0,0l-.13-.15h0l.13.15A0,0,0,0,1,7.55,2.37Z"/><polygon points="8.09 1.57 8.09 1.57 8.06 1.61 8.09 1.57"/><rect x="7.61" y="2.03" height="0.09" transform="translate(-0.04 0.15) rotate(-1.14)"/><path d="M7.83,2.1h0v0l-.21-.3h0l.21.3Z"/><polygon points="7.78 1.53 7.78 1.53 7.77 1.76 7.78 1.53"/><rect x="12.07" y="0.97" width="0.09" transform="translate(6.48 11.75) rotate(-66.97)"/><path d="M12.16,1.64l0-.11s0,0,0,0l-.32-.26h0l.32.26s0,0,0,0l0,.11.24,0Z"/><path d="M12.31,1.09h0s0,0,0,0L12.25.71h0l.07.36S12.32,1.08,12.31,1.09Z"/><polygon points="12.76 0.71 12.76 0.71 12.72 0.73 12.76 0.71"/><polygon points="12.65 0.77 12.65 0.77 12.65 0.77 12.65 0.77 12.65 0.77"/><polygon points="12.53 1.61 12.52 1.62 12.52 1.62 12.53 1.61"/><polygon points="12.39 0.76 12.51 0.54 12.51 0.54 12.39 0.76 12.39 0.77 12.39 0.76"/><polygon points="4.97 4.15 4.98 4.1 4.98 4.1 4.97 4.15"/><path d="M2,8.08h0L1.57,8h0l.36.08Z"/><path d="M1.8,8.27h0v0l-.07-.07h0l.07.07Z"/><polygon points="1.68 7.88 1.68 7.88 1.68 7.88 1.68 7.88 1.54 7.72 1.68 7.88 1.68 7.88"/><path d="M2.77,8.26l-.26-.13a0,0,0,0,0,0,0h0l-.07.29-.08-.08h0l-.36.19V8.47a0,0,0,0,0,0,0l-.2,0h0l.2,0a0,0,0,0,1,0,0v.08l.36-.19h0l.08.08.07-.29h0a0,0,0,0,1,0,0l.26.13,0-.06h0Z"/><path d="M12.47,1.92l0-.3a0,0,0,0,0,0,0h0a0,0,0,0,1,0,0l0,.3h0Z"/><polygon points="2.5 8.05 2.5 8.06 2.5 8.06 2.5 8.05 2.67 7.8 2.67 7.8 2.5 8.05"/><polygon points="8.21 1.93 8.28 1.73 8.28 1.73 8.21 1.93 8.21 1.93 8.21 1.93"/><polygon points="1.79 7.63 1.79 7.65 1.79 7.65 1.79 7.65 1.79 7.63"/><rect x="2.07" y="7.49" height="0.21" transform="translate(-2.89 1.48) rotate(-23.83)"/><rect x="4.57" y="4.07" height="0.21" transform="translate(-0.14 0.16) rotate(-2.03)"/><rect x="4.06" y="4.59" height="0.09" transform="translate(-1.44 1.86) rotate(-21.97)"/><path d="M5,5.05l-.2-.22h0l-.17.25,0-.11h0L4.08,5h0l.41,0h0l0,.11.17-.25h0l.2.22L5,5H5Z"/><path d="M4.81,4.76h0a0,0,0,0,0,0,0h0a0,0,0,0,1,0,0h0l.24-.17h0Z"/><path d="M4.11,4.93h0s0,0,0,0l-.19-.09h0l.19.09S4.11,4.92,4.11,4.93Z"/><polygon points="4.54 4.29 4.47 4.2 4.54 4.29 4.54 4.29"/><path d="M4.28,4.58h0s0,0,0,0L4,4.35H4l.3.21S4.28,4.57,4.28,4.58Z"/><polygon points="4.11 4.29 4.11 4.29 4.11 4.29 4.03 4.05 4.03 4.05 4.11 4.29 4.11 4.29"/><path d="M11.94,1.21h0s0,0,0,0L11.89,1h0l.06.2S12,1.21,11.94,1.21Z"/><path d="M20.08,4.13h0l.09-.18h0l-.09.18Z"/><path d="M20,5l.22-.2a0,0,0,0,0,0,0h0l-.25-.17.11,0a0,0,0,0,0,0,0l0-.41h0l0,.41a0,0,0,0,1,0,0l-.11,0,.25.17h0a0,0,0,0,1,0,0L20,5l0,0h0Z"/><path d="M20.25,4.83h0l.17.25h0Z"/><polygon points="23.22 7.67 23.21 7.67 23.21 7.67 23.22 7.67"/><rect x="20.7" y="4.77" height="0.41"/><polygon points="20.72 4.13 20.72 4.13 20.96 4.05 20.96 4.05 20.72 4.13 20.72 4.13 20.72 4.13"/><rect x="20.33" y="4.09" width="0.09" transform="translate(-0.05 7.92) rotate(-21.97)"/><polygon points="20.94 4.59 20.94 4.59 20.93 4.59 20.94 4.59"/><path d="M20.43,4.3h0l.21-.3h0l-.21.3Z"/><path d="M22.52,8.13h0s0,0,0,0h0s0,0,0,0h0l.05.29h0Z"/><polygon points="23.23 7.68 23.23 7.68 23.45 7.71 23.23 7.68 23.23 7.68"/><polygon points="22.83 8.43 23.04 8.56 23.04 8.56 22.83 8.43"/><path d="M22.9,7.72s0,0,0,0l.32-.19h0l-.32.19s0,0,0,0Z"/><rect x="22.66" y="7.36" width="0.21" transform="translate(0.37 15.78) rotate(-38.51)"/><path d="M22.18,8.17l.28-.09s0,0,0,0h0l-.15-.26h.14l.13-.4h0l-.13.4h-.14l.15.26h0s0,0,0,0l-.28.09,0,.05h0Z"/><polygon points="16.81 1.83 16.88 1.77 16.88 1.77 16.81 1.83 16.81 1.83 16.81 1.83"/><polygon points="17.18 1.72 17.38 1.56 17.38 1.56 17.18 1.72 17.18 1.72 17.18 1.72"/><polygon points="17.16 1.72 17.16 1.72 17.16 1.72 17.16 1.72"/><path d="M17,2h0l.09-.36h0L17,2Z"/><polygon points="12.56 1.59 12.55 1.59 12.55 1.59 12.56 1.59 12.85 1.64 12.85 1.64 12.56 1.59"/><polygon points="17.55 2.07 17.55 2.07 17.41 2.13 17.55 2.07"/><rect x="12.98" y="1.17" height="0.41"/><polygon points="17.54 1.82 17.54 1.82 17.53 1.82 17.54 1.82"/><path d="M16.78,2.8l.14-.26a0,0,0,0,0,0,0h0l-.29-.08.08-.08a0,0,0,0,0,0,0l-.18-.37h0l.18.37a0,0,0,0,1,0,0l-.08.08.29.08h0a0,0,0,0,1,0,0l-.14.26.06,0h0Z"/><path d="M17,2.55Z"/><polygon points="17.27 2.57 17.26 2.57 17.56 2.5 17.27 2.57"/><polygon points="16.99 2.54 16.99 2.54 16.99 2.54 16.99 2.54 17.24 2.71 17.24 2.71 16.99 2.54"/><path d="M16.59,1.94a0,0,0,0,0,0,0l0-.2h0l0,.2a0,0,0,0,1,0,0Z"/><path d="M12.5.25A12.25,12.25,0,1,0,24.75,12.5,12.24,12.24,0,0,0,12.5.25Zm7.42,4.32L20,4.52h0l0-.41v0h0l.07,0h0l.09-.18,0,0,0,0,.1.16h0l.08,0h0v.24h0l.21-.3,0,0V4l0,.13h0L21,4h0v0l-.08.24h0l.13,0h0l0,0-.3.21H21v0l0,.08h0l.16.1,0,0,0,0-.18.09h0l0,.07V5h0l-.42,0h0l0,.11v0l0,0-.17-.24h0l-.2.22v0l0,0,0,0h0l0,0,.22-.2h0l-.25-.17,0,0ZM16.51,1.92h.08l0-.2v0l0,0,.15.11h0l.07-.06,0,0v0L17,2h0l.09-.36v0l0,0,.08.1h0l.2-.15,0,0v.29h.18l0,0-.21.3h0l.19-.08h0v.13h0l.19,0h0l0,0-.14.15h0l.05.06,0,0h0l-.4.1h0v.15l0,0L17,2.56h0s0,0,0,0h0l-.1.28v0h0l-.06,0h0l.14-.27h0l-.29-.08h0l0,0,.08-.09h0L16.49,2l0,0ZM11.87,1V1h0l.19,0h0l0-.09v0l0,0,.15.15h0L12.23.71v0l0,0,.11.06h0l.12-.22,0,0v0l.12.22h0l.11-.06,0,0v0l-.07.36h0l.15-.15,0,0v0l0,.09h0l.19,0h0V1l-.06.19h0l.07,0h0l0,0-.32.26h0l0,.1v0h0l-.29,0h0l0,.3v0h-.11v0l0-.3h0l-.3,0h0v0l0-.1h0l-.32-.26,0,0h0l.07,0h0ZM7.4,2.17l.19,0h0V2h0l.19.09h0L7.6,1.8l0,0h0l.13,0h0V1.48l0,0L8,1.67H8l.08-.11,0,0v.05l.08.36h0l.07-.21v0l0,0,.06.06h0l.16-.11,0,0v0l0,.21h.12l0,0-.18.37h0l.08.08,0,0h0l-.29.07h0s0,0,0,0h0l.14.26v0h0l-.06,0h0v0l-.11-.27h0l-.25.17,0,0V2.56h0l-.4-.11h0l0,0,0-.06h0L7.39,2.2l0,0ZM3.9,4.79l.16-.1h0L4,4.6l0,0h.25L4,4.37l0,0H4l.13,0h0L4,4.06V4H4l.23.08h0l0-.13v0l0,0,.2.3h0V4h0l.08,0h0l.11-.16,0,0v0l.1.18h0l.07,0H5v0l0,.42H5l.1.05h0l0,0-.25.17h0L5,5h0L5,5l0,0,0,0v0l-.2-.22h0l-.17.25,0,0,0,0,0-.11h0L4.08,5h0V5l0-.07h0L3.9,4.83l0,0ZM1.17,13a.49.49,0,0,1-.48-.48A.48.48,0,0,1,1.17,12a.47.47,0,0,1,.48.48A.48.48,0,0,1,1.17,13Zm.73-4.4V8.47h0l-.2,0h0l0,0,.11-.16h0L1.72,8.2l0,0h0l.19-.07h0L1.57,8H1.52l0,0,.1-.07h0L1.5,7.7l0,0h0l.25,0h0l0-.13v0l0,0,.3.21h0L2,7.51v0h.13l0-.18v0l0,0,.15.14h0l.06,0,0,0v0l.11.39H2.7l0,0-.16.25h0l.27.1h0v0l0,.06v0h0L2.5,8.15h0l-.07.29v0l0,0-.09-.08h0l-.36.19ZM12.5,22.83A10.33,10.33,0,1,1,22.83,12.5,10.32,10.32,0,0,1,12.5,22.83ZM23.07,8.48h0v.11l0,0-.35-.21h0l-.09.08,0,0v0l-.05-.3h0s0,0,0,0h0l-.27.11h0v0l0-.06v0h0l.29-.09a0,0,0,0,0,0,0h0l-.15-.26,0,0h.16l.13-.39v0l0,0,.06.06h0l.16-.13,0,0v0l0,.19H23v0l-.1.19h0l.31-.19,0,0v0l0,.13h0l.24,0h.05l0,0-.17.18h0l.1.09,0,0h0l-.36.06h0l.19.08h0l0,0-.07.06h0l.1.16,0,0h-.24Zm.71,4.5a.49.49,0,0,1-.49-.48.49.49,0,1,1,.49.48Z"/><g opacity="0.3"><circle cx="12.5" cy="12.5" r="10.23"/></g><circle cx="4.53" cy="4.51" r="0.84" opacity="0.85"/><circle cx="2.19" cy="7.97" r="0.84" opacity="0.85"/><circle cx="1.17" cy="12.51" r="0.48" opacity="0.85"/><circle cx="22.83" cy="7.96" r="0.84" opacity="0.85"/><circle cx="23.78" cy="12.5" r="0.48" opacity="0.85"/><circle cx="20.5" cy="4.51" r="0.84" opacity="0.85"/><circle cx="17.11" cy="2.17" r="0.84" opacity="0.85"/><circle cx="12.5" cy="1.16" r="0.84" opacity="0.85"/><circle cx="8.06" cy="2.13" r="0.84" opacity="0.85"/></svg>