<?xml version="1.0" encoding="utf-8"?>
<!-- Generator: Adobe Illustrator 26.0.3, SVG Export Plug-In . SVG Version: 6.00 Build 0)  -->
<svg version="1.1" id="Layer_1" xmlns="http://www.w3.org/2000/svg" xmlns:xlink="http://www.w3.org/1999/xlink" x="0px" y="0px"
	 viewBox="0 0 25 25" enable-background="new 0 0 25 25" xml:space="preserve">
<path opacity="0.1" fill="#FCB116" enable-background="new    " d="M15.8,6.8c0.4,0.7,0.3,1.6-0.3,2.2c-0.2-0.2-0.4-0.4-0.6-0.6
	c0.3-0.3,0.4-0.9,0.1-1.3C14.8,6.9,14.4,6.8,14,7l-0.1-0.8C14.6,6,15.3,6.2,15.8,6.8z"/>
<g opacity="0.8">
	<path fill="#FCB116" d="M15.2,8.7c-0.4-0.4-0.9-0.7-1.1-1.1C14.1,7.3,14,7.2,14,7h-3c0,0,0,0-0.1,0.5s-0.9,0.9-1,1.1
		c-0.7,0.7-1,1.6-0.9,2.5c0.1,1.5,0.1,2.6,0.2,3.8c0,0.6,0.5,1.1,1.2,1.2h4.3c0.6,0,1-0.5,1.1-1c0.1-1.2,0.2-2.4,0.3-3.9
		C16.2,10.3,15.9,9.3,15.2,8.7z M14.7,14.2c-0.1,0.4-0.4,0.7-0.8,0.7h-3c-0.4,0-0.7-0.4-0.8-0.8c-0.1-0.8-0.1-1.6-0.2-2.6
		c0-1.3,1.1-2.3,2.3-2.3c1.3-0.1,2.4,0.9,2.5,2.2c0,0,0,0.1,0,0.1C14.8,12.6,14.8,13.4,14.7,14.2z"/>
</g>
<path opacity="0.5" fill="#FCB116" enable-background="new    " d="M10.2,14.1c0,0.4,0.3,0.8,0.7,0.8h3c0.4,0,0.7-0.3,0.8-0.7
	c0.1-0.8,0.1-1.6,0.2-2.7c0-1.3-1.1-2.3-2.4-2.3c0,0-0.1,0-0.1,0c-1.3,0-2.3,1-2.3,2.3C10.1,12.5,10.2,13.3,10.2,14.1z"/>
<path fill="#FCB116" d="M12.3,13l-0.7,0.1l0.1-0.3l0,0L11,12.2l0.2-0.1l0,0L11,11.5l0.5,0.1l0,0l0,0l0.1-0.2l0.4,0.4l0,0l0,0
	l-0.2-0.9l0.3,0.2l0,0l0,0l0,0l0.3-0.6l0.3,0.6l0,0l0,0l0.3-0.2l-0.2,0.9l0,0l0,0l0.4-0.4l0.1,0.2l0,0l0,0l0.5-0.1L13.6,12l0,0
	l0.2,0.1L13,12.8l0,0l0.1,0.3L12.5,13l0.1,0.7h-0.3L12.3,13z"/>
<polygon opacity="0.1" fill="#FCB116" enable-background="new    " points="11,7 14,7 13.8,6.1 13.8,5.6 11.2,5.6 "/>
<path opacity="0.55" fill="#FCB116" enable-background="new    " d="M11.2,5.6c-0.2,0-0.3,0-0.3-0.3V4.2c0-0.3,0.3-0.5,0.6-0.5h2
	c0.3,0,0.5,0.2,0.6,0.5v1.2c0,0.2,0,0.2-0.3,0.2H11.2z"/>
</svg>
