<svg id="Layer_1" data-name="Layer 1" xmlns="http://www.w3.org/2000/svg" viewBox="0 0 25 25"><path d="M18.93,16.5H6a.74.74,0,0,1-.75-.75V8.45A.74.74,0,0,1,6,7.7H18.93a.74.74,0,0,1,.75.75v7.3A.74.74,0,0,1,18.93,16.5Z" fill="#fff"/><polygon points="7.59 17.64 8.01 16.5 10.27 16.5 7.59 17.64" fill="#fff"/><path d="M7.17,11.33a.26.26,0,0,1,0-.15.17.17,0,0,1,0-.12A.25.25,0,0,1,7.3,11a.2.2,0,0,1,.15,0,.38.38,0,0,1,.13.09.27.27,0,0,0,.12.09.9.9,0,0,0,.21.08l.15,0h.15l.1,0a.28.28,0,0,0,.09-.07.25.25,0,0,0,.08-.12.33.33,0,0,0,0-.14.75.75,0,0,0-.07-.12.25.25,0,0,0-.12-.08L8,10.66a1.1,1.1,0,0,1-.26-.06.64.64,0,0,1-.24-.1.73.73,0,0,1-.22-.18.92.92,0,0,1-.1-.24.55.55,0,0,1,0-.32,1.19,1.19,0,0,1,.16-.23.94.94,0,0,1,.28-.21A1.78,1.78,0,0,1,8,9.23a1.38,1.38,0,0,1,.35,0,1.15,1.15,0,0,1,.33.1.18.18,0,0,1,.12.12.22.22,0,0,1,0,.16.18.18,0,0,1-.09.12.16.16,0,0,1-.15,0l-.18,0-.16,0H8.09L8,9.72l-.12,0-.08.05a.22.22,0,0,0-.06.07.14.14,0,0,0,0,.09.12.12,0,0,0,0,.11l.12.06.27,0,.27.07a1.34,1.34,0,0,1,.24.12.86.86,0,0,1,.2.18.57.57,0,0,1,.12.23.58.58,0,0,1,0,.26.5.5,0,0,1-.06.24.6.6,0,0,1-.14.21.69.69,0,0,1-.13.11l-.14.08a.66.66,0,0,1-.33.09,1.13,1.13,0,0,1-.36-.06,1.43,1.43,0,0,1-.34-.14l-.27-.21Z"/><path d="M11.5,10.61a3.2,3.2,0,0,1-.17.43,1.6,1.6,0,0,1-.25.37,1.23,1.23,0,0,1-.34.26.93.93,0,0,1-.45.1.88.88,0,0,1-.26,0,.64.64,0,0,1-.18-.06.69.69,0,0,1-.28-.15,1.12,1.12,0,0,1-.19-.24A1.26,1.26,0,0,1,9.26,11c0-.1,0-.2,0-.29a1.48,1.48,0,0,1,0-.51,1.46,1.46,0,0,1,.19-.48,1.54,1.54,0,0,1,.34-.38,1.16,1.16,0,0,1,.47-.2,1.09,1.09,0,0,1,.55,0l.2.09.18.13a2.11,2.11,0,0,1,.19.23,1,1,0,0,1,.11.28,1.47,1.47,0,0,1,0,.36Zm-1,.66a.74.74,0,0,0,.21-.13.9.9,0,0,0,.15-.19,2.12,2.12,0,0,0,.11-.21c0-.08.06-.16.08-.23a1.56,1.56,0,0,0,0-.31A.58.58,0,0,0,11,9.91a.62.62,0,0,0-.16-.2,1.15,1.15,0,0,0-.25-.12.75.75,0,0,0-.26,0,.44.44,0,0,0-.24.11,1,1,0,0,0-.24.27,1.26,1.26,0,0,0-.13.34,1.54,1.54,0,0,0-.05.31,1.06,1.06,0,0,0,.05.31.63.63,0,0,0,.13.2.67.67,0,0,0,.19.14.54.54,0,0,0,.22.05A.45.45,0,0,0,10.49,11.27Z"/><path d="M12.37,11.5a.19.19,0,0,1-.08.16.28.28,0,0,1-.15.08.26.26,0,0,1-.15,0,.16.16,0,0,1-.07-.14c0-.3,0-.61,0-.93V9.71a.16.16,0,0,1-.09-.07.3.3,0,0,1,0-.1.22.22,0,0,1,0-.11.23.23,0,0,1,.05-.1A.38.38,0,0,1,12,9.24l.16-.07.17-.06.15,0a1.16,1.16,0,0,1,.49,0,1,1,0,0,1,.43.19.8.8,0,0,1,.28.35.7.7,0,0,1,0,.5.88.88,0,0,1-.05.15.67.67,0,0,1-.09.14.65.65,0,0,1-.15.18,1.33,1.33,0,0,1-.19.14l.14.17a1,1,0,0,0,.14.15l.09.09.12.12a1.13,1.13,0,0,1,.1.13.19.19,0,0,1,0,.11.5.5,0,0,1,0,.13l-.09.09a.19.19,0,0,1-.12,0,.21.21,0,0,1-.12,0,.49.49,0,0,1-.13-.12l-.12-.14c-.09-.09-.17-.19-.25-.28l-.25-.28-.16,0-.16,0v.57Zm.7-1.87a.7.7,0,0,0-.34-.1.9.9,0,0,0-.36.05v.87l.35,0a.69.69,0,0,0,.31-.15.53.53,0,0,0,.12-.14.29.29,0,0,0,.06-.17.32.32,0,0,0,0-.17A.29.29,0,0,0,13.07,9.63Z"/><path d="M14.64,11.5a.27.27,0,0,1-.08.16.37.37,0,0,1-.15.08.24.24,0,0,1-.15,0,.14.14,0,0,1-.07-.14c0-.3,0-.61,0-.93V9.71a.18.18,0,0,1-.1-.07.17.17,0,0,1,0-.1.21.21,0,0,1,0-.11.17.17,0,0,1,.06-.1.48.48,0,0,1,.11-.09l.17-.07.17-.06.14,0a1.16,1.16,0,0,1,.49,0,1.09,1.09,0,0,1,.44.19.87.87,0,0,1,.28.35.76.76,0,0,1,0,.5l-.06.15a.64.64,0,0,1-.08.14.93.93,0,0,1-.16.18,1.33,1.33,0,0,1-.19.14,2.09,2.09,0,0,1,.14.17.71.71,0,0,0,.15.15l.09.09.11.12a1.13,1.13,0,0,1,.1.13.19.19,0,0,1,0,.11.28.28,0,0,1,0,.13.2.2,0,0,1-.09.09.15.15,0,0,1-.11,0,.24.24,0,0,1-.13,0,.71.71,0,0,1-.13-.12l-.12-.14-.25-.28c-.08-.09-.16-.19-.25-.28l-.15,0-.16,0v.57Zm.69-1.87a.65.65,0,0,0-.34-.1.83.83,0,0,0-.35.05v.87l.34,0a.64.64,0,0,0,.31-.15.57.57,0,0,0,.13-.14.58.58,0,0,0,.06-.17.32.32,0,0,0,0-.17A.29.29,0,0,0,15.33,9.63Z"/><path d="M17.45,11.47a.22.22,0,0,1-.07.16.26.26,0,0,1-.13.08.26.26,0,0,1-.15,0,.19.19,0,0,1-.1-.13l0-.15v-.15a.76.76,0,0,1,0-.15v-.55a2.57,2.57,0,0,1-.35-.39,3.18,3.18,0,0,1-.28-.43.77.77,0,0,1-.07-.16.32.32,0,0,1,0-.16.15.15,0,0,1,0-.13.32.32,0,0,1,.1-.1.28.28,0,0,1,.13,0,.21.21,0,0,1,.13.05.27.27,0,0,1,.07.08l.05.1,0,.11a.47.47,0,0,0,0,.1,1.59,1.59,0,0,0,.18.27,2.32,2.32,0,0,0,.21.25,1.73,1.73,0,0,1,.21-.25,2.75,2.75,0,0,0,.22-.26l.06-.09a1,1,0,0,1,.08-.14.51.51,0,0,1,.09-.13.3.3,0,0,1,.08-.08l.12,0a.25.25,0,0,1,.12,0,.24.24,0,0,1,.08.09.2.2,0,0,1,0,.13.38.38,0,0,1-.06.18c0,.07-.09.14-.14.21l-.16.21-.13.15-.08.1-.07.08-.1.12-.09.11v.91Z"/><path d="M11.33,14.51a.28.28,0,0,1,.12,0,.3.3,0,0,1,.08.08.13.13,0,0,1,0,.1.19.19,0,0,1,0,.13l-.05.06a.15.15,0,0,1-.07.05,3.86,3.86,0,0,1-.51.09,4.34,4.34,0,0,1-.51,0l-.16,0a.3.3,0,0,1-.16,0,.24.24,0,0,1-.12-.22V13.11A.27.27,0,0,1,9.9,13a.32.32,0,0,1,0-.09.41.41,0,0,1,0-.11.27.27,0,0,1,.07-.08.37.37,0,0,1,.18-.08l.2,0a2.6,2.6,0,0,1,.4,0h.55a.21.21,0,0,1,.14,0,.27.27,0,0,1,.12.09.18.18,0,0,1,.05.12.2.2,0,0,1,0,.13.23.23,0,0,1-.12.09.46.46,0,0,1-.21,0h-.5l-.29,0v.54h.27l.28,0h.25a.23.23,0,0,1,.14.07.21.21,0,0,1,0,.13.23.23,0,0,1,0,.14.2.2,0,0,1-.12.1.61.61,0,0,1-.17,0l-.24,0h-.44v.48a2,2,0,0,0,.42,0,3,3,0,0,0,.43-.08Z"/><path d="M13.77,13.67a.24.24,0,0,1,.18.25.3.3,0,0,1,0,.15.2.2,0,0,1-.13.08v.68a.34.34,0,0,1,0,.17.23.23,0,0,1-.12.1.2.2,0,0,1-.15,0,.26.26,0,0,1-.14-.1.16.16,0,0,1,0-.09.38.38,0,0,1,0-.1v-.67h-.91v.75l0,.08a.25.25,0,0,1-.13.12.19.19,0,0,1-.15,0,.29.29,0,0,1-.12-.1.28.28,0,0,1-.06-.18v-2a.28.28,0,0,1,.06-.18.45.45,0,0,1,.14-.1.22.22,0,0,1,.16,0,.2.2,0,0,1,.12.12s0,0,0,.06v.93h.91v-.83a.4.4,0,0,1,0-.15.23.23,0,0,1,.12-.12.31.31,0,0,1,.16,0,.26.26,0,0,1,.13.08.21.21,0,0,1,.06.16Z"/><path d="M15,14l.09.05a.22.22,0,0,1,.07.09.12.12,0,0,1,0,.1.18.18,0,0,1,0,.1.14.14,0,0,1-.07.08l-.11,0a.47.47,0,0,1-.17,0l-.16-.1a.42.42,0,0,1-.11-.18.42.42,0,0,1,0-.22.64.64,0,0,1,.06-.18.66.66,0,0,1,.14-.15l.16-.15.09-.06.09-.07.07-.09a.19.19,0,0,0,0-.1c0-.07,0-.11-.08-.13a.27.27,0,0,0-.13,0,.42.42,0,0,0-.14.06l-.13.09a.23.23,0,0,0-.07.07l-.06.07-.07.06a.2.2,0,0,1-.08,0,.22.22,0,0,1-.14,0,.24.24,0,0,1-.11-.09.28.28,0,0,1,0-.13.19.19,0,0,1,.06-.13,1,1,0,0,1,.21-.21.78.78,0,0,1,.24-.16.62.62,0,0,1,.27-.09.76.76,0,0,1,.3,0,.38.38,0,0,1,.17.08.86.86,0,0,1,.13.14,1.51,1.51,0,0,1,.09.18,1.16,1.16,0,0,1,0,.18.37.37,0,0,1,0,.18.65.65,0,0,1-.08.17l-.11.15-.14.12-.11.07-.1.09L15,14S15,14,15,14Zm-.44.93a.31.31,0,0,1,.11-.22.34.34,0,0,1,.19-.07.31.31,0,0,1,.2.07.29.29,0,0,1,.09.21.24.24,0,0,1,0,.15.19.19,0,0,1-.1.1.29.29,0,0,1-.13,0,.32.32,0,0,1-.14,0,.27.27,0,0,1-.12-.09A.38.38,0,0,1,14.53,15Z"/></svg>