<svg id="Layer_1" data-name="Layer 1" xmlns="http://www.w3.org/2000/svg" viewBox="0 0 36.3 39.9"><g id="Regular-S"><path d="M1.93,6.2c0,7.6,3.8,12.5,11.3,14.6a16.48,16.48,0,0,0,3.2,2.8v7.9h-2.6a3.74,3.74,0,0,0-4.1,4.1v2.9a1.5,1.5,0,0,0,1.6,1.5h17.5a1.56,1.56,0,0,0,1.6-1.5V35.6a3.74,3.74,0,0,0-4.1-4.1h-2.6V23.6a13.69,13.69,0,0,0,3.2-2.8c7.5-2.1,11.3-7,11.3-14.6A2.87,2.87,0,0,0,35,3.1h-3.7c-.3-1.9-1.7-3-4-3H13c-2.3,0-3.7,1.1-4,3H5.33C3.13,3,1.93,4.2,1.93,6.2Zm27.5,10.7a17.08,17.08,0,0,0,1.9-7.6V6.1h3.5a.43.43,0,0,1,.4.4C35.13,11.6,33.23,15.1,29.43,16.9ZM4.83,6.5a.43.43,0,0,1,.4-.4h3.5V9.3a15.85,15.85,0,0,0,1.9,7.6C6.83,15.1,4.83,11.6,4.83,6.5Z" transform="translate(-1.93 -0.1)"/></g></svg>