<svg id="Layer_1" data-name="Layer 1" xmlns="http://www.w3.org/2000/svg" viewBox="0 0 40 40"><path d="M20,0A20.19,20.19,0,0,0,0,20,20.19,20.19,0,0,0,20,40,20.19,20.19,0,0,0,40,20,20.19,20.19,0,0,0,20,0Zm8.9,21.8H19.5l-4.6-.2,2.4,1.9,2.1,2.1a1.66,1.66,0,0,1,.5,1.2,1.69,1.69,0,0,1-1.7,1.7A1.66,1.66,0,0,1,17,28l-6.6-6.6A1.89,1.89,0,0,1,9.7,20a1.57,1.57,0,0,1,.7-1.3L17,12.1a1.59,1.59,0,0,1,1.2-.4,1.63,1.63,0,0,1,1.7,1.7,1.66,1.66,0,0,1-.5,1.2l-2.1,2.1-2.4,1.9,4.6-.2h9.4a1.7,1.7,0,1,1,0,3.4Z"/></svg>