<svg id="Layer_1" data-name="Layer 1" xmlns="http://www.w3.org/2000/svg" viewBox="0 0 40 40"><g id="Regular-S"><path d="M20,40A20.19,20.19,0,0,0,40,20,20.19,20.19,0,0,0,20,0,20.19,20.19,0,0,0,0,20,20.19,20.19,0,0,0,20,40Zm0-3.8A16.2,16.2,0,1,1,36.08,20,16.13,16.13,0,0,1,20,36.2Z" transform="translate(0.02)"/><path d="M20,29.7a1.61,1.61,0,0,0,1.7-1.6V19.4l-.2-4.4,1.9,2.3,2,2a1.66,1.66,0,0,0,1.2.5,1.58,1.58,0,0,0,1.6-1.6,1.37,1.37,0,0,0-.4-1.1l-6.3-6.3a1.76,1.76,0,0,0-1.3-.6,1.94,1.94,0,0,0-1.3.6l-6.3,6.3a1.5,1.5,0,0,0-.4,1.1,1.58,1.58,0,0,0,1.6,1.6,1.66,1.66,0,0,0,1.2-.5l2-2,1.8-2.3-.2,4.4v8.7A1.29,1.29,0,0,0,20,29.7Z" transform="translate(0.02)" fill="#212121"/></g></svg>