<?xml version="1.0" encoding="UTF-8"?><svg id="Layer_1" xmlns="http://www.w3.org/2000/svg" viewBox="0 0 308.09 100.27"><path d="M37.03,5.47h20.5c20.44,0,37.03,16.59,37.03,37.03v20.74c0,20.44-16.59,37.03-37.03,37.03h-20.5C16.59,100.27,0,83.68,0,63.24v-20.74C0,22.06,16.59,5.47,37.03,5.47Z" fill="#aa1f3b"/><path d="M62.71,58.15c-4.49,0-8.31,2.87-9.73,6.87h-11.43c-1.04-2.92-3.35-5.24-6.27-6.28v-11.72c2.91-1.03,5.22-3.33,6.26-6.24h11.47c1.44,3.96,5.24,6.8,9.7,6.8,5.7,0,10.32-4.62,10.32-10.32,0-5.7-4.62-10.32-10.32-10.32-4.51,0-8.35,2.9-9.75,6.94h-11.39c-1.41-4.02-5.24-6.9-9.74-6.9-5.7,0-10.32,4.62-10.32,10.32,0,4.49,2.87,8.31,6.87,9.73v11.72c-4,1.42-6.87,5.24-6.87,9.73,0,5.7,4.62,10.32,10.32,10.32,4.49,0,8.31-2.87,9.73-6.87h11.43c1.42,4,5.24,6.87,9.73,6.87,5.7,0,10.32-4.62,10.32-10.32,0-5.7-4.62-10.32-10.32-10.32Z" fill="#fff"/><path d="M197.85,25.35v59.83h-16.95V25.35h16.95" fill="#010101"/><path d="M231.77,24.5h.23c7.11,.05,12.79,2.89,14.34,3.74v12.72c-1.95-.86-5.8-2.86-9.75-2.86-.51,0-1.01,.02-1.5,.07-1.06,.13-3.71,.6-5.35,2.15-1.56,1.47-2.35,3.36-2.35,5.6v39.17h-17.39l.14-43.12c.07-6.62,1.81-9.68,4.61-12.46,2.97-2.95,9.97-5.01,17.02-5.01" fill="#010101"/><path d="M189.37,0c4.85,0,8.8,4.05,8.8,9.04s-3.95,9.04-8.8,9.04-8.8-4.05-8.8-9.04c0-4.98,3.95-9.04,8.8-9.04" fill="#010101"/><path d="M151.97,24.61c9.87,0,15.36,3.42,16.9,3.98v12.87c-1.31-.42-5.84-3.19-13.96-3.19-5.67,0-10.81,1.54-13.69,4.58-2.87,3.02-4.33,7.2-4.33,12.4s1.46,9.38,4.33,12.4c2.89,3.04,8.02,4.58,13.69,4.58,8.98,0,13.48-3.61,13.96-4v13.14c-.84,.5-7.32,4.52-17.73,4.52-5.14,0-8.99-.75-13.08-2.23-4.07-1.47-7.55-3.57-10.34-6.24-2.78-2.66-4.94-5.9-6.42-9.63-1.48-3.75-2.23-7.97-2.23-12.53s.75-8.78,2.23-12.53c1.47-3.73,3.63-6.97,6.42-9.63,2.78-2.66,6.26-4.76,10.33-6.24,4.09-1.48,8.77-2.23,13.91-2.23" fill="#010101"/><path d="M280.18,24.58c8.23,0,14.67,2.37,19.78,6.36,5.86,4.57,7.97,11.58,7.97,20.31l.17,33.97h-16.75v-5.7s.02-2.43,.02-2.43l-1.55,1.83c-2.71,3.19-7.58,6.99-15.41,6.99-4.63,0-8.68-.84-12.03-2.5-3.32-1.64-5.86-3.88-7.55-6.66-1.69-2.78-2.54-6-2.54-9.58,0-2.87,.53-5.44,1.59-7.64,1.05-2.2,2.65-4.11,4.76-5.68,4.31-3.2,11.11-4.83,20.21-4.83h12.56s.68-11.39-14.88-11.65c-5.07,0-12.34,.74-18.94,4.14l-.06-12.94c8.19-3.38,14.79-3.98,22.66-3.98m.25,49.02c2.67,0,5.05-.68,7.08-2.03,1.59-1.05,2.86-2.52,3.77-4.36l.1-.19v-.22s.01-7.06,.01-7.06v-.92s-.88,0-.88,0h-8.71c-8.54,0-10.34,4.02-10.34,7.39,0,2.25,.84,4.07,2.5,5.42,1.59,1.3,3.77,1.96,6.47,1.96" fill="#010101"/></svg>