<svg id="Layer_1" data-name="Layer 1" xmlns="http://www.w3.org/2000/svg" viewBox="0 0 40 34"><g id="Regular-S"><path d="M34,33.9c3.9,0,5.9-2,5.9-5.9V5.8c0-3.9-2-5.9-5.9-5.9H18a7.33,7.33,0,0,0-5.7,2.3L1.74,13.3a5.38,5.38,0,0,0-1.8,3.6,5.38,5.38,0,0,0,1.8,3.6l10.6,11.1A7.69,7.69,0,0,0,18,33.9Zm0-3.4H18a3.93,3.93,0,0,1-3.1-1.2l-10.6-11a1.83,1.83,0,0,1-.7-1.4,2.27,2.27,0,0,1,.7-1.4l10.5-11a3.52,3.52,0,0,1,3.1-1.2h16a2.33,2.33,0,0,1,2.6,2.6V27.7C36.64,29.6,35.74,30.5,34,30.5Z" transform="translate(0.06 0.1)"/><path d="M17.24,24.8a1.85,1.85,0,0,0,1.2-.5l5-5,5,5a1.66,1.66,0,0,0,1.2.5,1.75,1.75,0,0,0,1.7-1.7,1.85,1.85,0,0,0-.5-1.2l-5-5,5-5a1.61,1.61,0,0,0,.5-1.1,1.69,1.69,0,0,0-1.7-1.7,1.27,1.27,0,0,0-1.1.5l-5,5-5-5a1.61,1.61,0,0,0-1.1-.5,1.67,1.67,0,0,0-1.7,1.6,1.61,1.61,0,0,0,.5,1.1l5,5-5,5a1.61,1.61,0,0,0-.5,1.1A1.55,1.55,0,0,0,17.24,24.8Z" transform="translate(0.06 0.1)"/></g></svg>