<svg id="Layer_1" data-name="Layer 1" xmlns="http://www.w3.org/2000/svg" viewBox="0 0 40 40"><g id="Regular-S"><path d="M20,40A20.19,20.19,0,0,0,40,20,20.19,20.19,0,0,0,20,0,20.19,20.19,0,0,0,0,20,20.19,20.19,0,0,0,20,40Zm0-3.8A16.2,16.2,0,1,1,36.08,20,16.13,16.13,0,0,1,20,36.2Z" transform="translate(0.02)"/><path d="M19.58,24.1a1.64,1.64,0,0,0,1.8-1.6v-.1c0-1,.6-1.7,2-2.6,1.8-1.2,3.3-2.3,3.3-4.8,0-3.4-3-5.2-6.4-5.2S14.58,11.3,14,13a3.55,3.55,0,0,0-.2,1,1.47,1.47,0,0,0,1.5,1.5,1.94,1.94,0,0,0,1.6-.8l.4-.5a3.47,3.47,0,0,1,2.8-1.5,2.4,2.4,0,0,1,2.7,2.4c0,1.3-.8,1.9-2.5,3-1.3.9-2.5,2-2.5,4v.1C17.78,23.5,18.38,24.1,19.58,24.1Zm0,5.9a2.31,2.31,0,0,0,2.3-2.2,2.24,2.24,0,0,0-2.3-2.2,2.31,2.31,0,0,0-2.3,2.2A2.24,2.24,0,0,0,19.58,30Z" transform="translate(0.02)"/></g></svg>