<?xml version="1.0" encoding="UTF-8"?><svg id="Layer_1" xmlns="http://www.w3.org/2000/svg" xmlns:xlink="http://www.w3.org/1999/xlink" viewBox="0 0 100 100"><defs><filter id="drop-shadow-1" filterUnits="userSpaceOnUse"><feOffset dx=".56" dy=".28"/><feGaussianBlur result="blur" stdDeviation="2"/><feFlood flood-color="#231f20" flood-opacity="1"/><feComposite in2="blur" operator="in"/><feComposite in="SourceGraphic"/></filter></defs><g filter="url(#drop-shadow-1)"><path d="M47.24,95.8l1.05-20.12c.04-.79-.58-1.46-1.37-1.5-.02,0-.04,0-.06,0-.08,0-.16,0-.24,.02l-20.48,3.6,3.02-8.32c.12-.31,.02-.65-.23-.86L6.91,50.8l5.77-2.7c.34-.16,.52-.56,.4-.93l-4.55-14,13.36,2.83s.1,.02,.15,.02c.31,0,.58-.18,.7-.46l2.78-6.53,10.23,10.98c.14,.15,.34,.23,.55,.23,.2,0,.38-.07,.53-.21,.19-.18,.27-.44,.22-.7l-4.87-25.13,8.67,5.01c.12,.07,.25,.11,.39,.11,.27,0,.52-.14,.66-.38,0-.01,.01-.02,.02-.03L50,3.03l8.08,15.87c.13,.27,.4,.43,.69,.43,.12,0,.23-.03,.34-.08,.02,0,.03-.02,.04-.02l8.68-5.02-4.87,25.13c-.08,.41,.19,.81,.61,.89,.05,0,.1,.01,.14,.01,.21,0,.41-.09,.55-.24l10.23-10.98,2.78,6.54c.12,.28,.4,.46,.7,.46,.05,0,.1,0,.16-.02l13.35-2.83-4.55,14c-.12,.37,.05,.76,.4,.93l5.77,2.69-22,17.82c-.25,.2-.35,.55-.23,.86l3.02,8.32-20.48-3.6c-.08-.01-.16-.02-.24-.02-.7,0-1.3,.5-1.42,1.19-.02,.1-.03,.21-.02,.31l1.05,20.12h-5.51Z" fill="red"/><path d="M50,4.57l7.46,14.65c.26,.51,.77,.81,1.31,.81,.22,0,.44-.05,.65-.15,.03-.01,.06-.03,.08-.05l7.35-4.25-4.58,23.63c-.15,.79,.37,1.56,1.16,1.71,.09,.02,.18,.03,.28,.03,.4,0,.78-.16,1.06-.46l9.5-10.2,2.36,5.55c.23,.54,.77,.88,1.34,.88,.1,0,.2,0,.3-.03l12.18-2.58-4.18,12.85c-.23,.7,.1,1.46,.76,1.77l4.76,2.22-21.14,17.12c-.49,.39-.67,1.05-.45,1.64l2.61,7.19-19.3-3.39c-.12-.02-.24-.03-.36-.03-1.02,0-1.92,.73-2.1,1.77-.03,.15-.04,.31-.03,.46l1.01,19.39h-4.04l1.01-19.39c.05-1.18-.86-2.18-2.03-2.23-.03,0-.06,0-.1,0-.12,0-.24,.01-.36,.03l-19.3,3.39,2.61-7.19c.22-.59,.04-1.25-.45-1.64L8.21,50.96l4.76-2.22c.67-.31,.99-1.08,.76-1.77l-4.18-12.85,12.18,2.58c.1,.02,.2,.03,.3,.03,.57,0,1.11-.34,1.34-.88l2.36-5.55,9.5,10.2c.29,.3,.67,.46,1.06,.46,.36,0,.72-.13,1-.4,.36-.34,.52-.85,.43-1.34l-4.58-23.63,7.35,4.25c.23,.14,.49,.2,.74,.2,.5,0,.99-.26,1.26-.72,.02-.03,.03-.06,.05-.08l7.46-14.65m0-3.07l-1.24,2.44-7.46,14.65h0s-.05,.05-.06,.05c-.01,0-.02,0-.03,0h0s0,0,0,0l-7.35-4.25-2.65-1.53,.58,3,4.58,23.63s0,.04-.02,.06c0,0-.02,.02-.05,.02s-.04-.01-.05-.02l-9.5-10.19-1.46-1.57-.84,1.97-2.36,5.55s-.04,.04-.06,.04c0,0,0,0-.01,0l-12.17-2.58-2.36-.5,.75,2.29,4.18,12.85s0,.07-.03,.08l-4.76,2.22-2.02,.94,1.73,1.4,21.14,17.12s.03,.05,.02,.07h0s0,0,0,0l-2.61,7.19-.82,2.26,2.37-.42,19.3-3.39s.08,0,.12,0c.01,0,.02,0,.03,0,.41,.02,.72,.36,.7,.77l-1.01,19.38-.08,1.46h6.98l-.08-1.47-1.01-19.38c0-.05,0-.1,0-.15,.06-.36,.37-.62,.73-.62,.04,0,.08,0,.13,.01l19.29,3.39,2.37,.42-.82-2.26-2.61-7.19s0-.06,.02-.08l21.14-17.12,1.73-1.4-2.02-.94-4.76-2.22s-.05-.05-.03-.08l4.18-12.85,.75-2.29-2.36,.5-12.18,2.58h0s-.05,0-.06-.04l-2.36-5.54-.84-1.97-1.46,1.57-9.5,10.19s-.03,.02-.05,.02c0,0,0,0-.01,0-.04,0-.06-.04-.05-.08l4.58-23.63,.58-3-2.65,1.53-7.35,4.25h0s0,0,0,0c0,0-.02,0-.03,0s-.04,0-.06-.04h0s0,0,0,0l-7.46-14.65-1.24-2.44h0Z" fill="#fff"/></g></svg>