<?xml version="1.0" encoding="utf-8"?>
<!-- Generator: Adobe Illustrator 26.0.3, SVG Export Plug-In . SVG Version: 6.00 Build 0)  -->
<svg version="1.1" id="Layer_1" xmlns="http://www.w3.org/2000/svg" xmlns:xlink="http://www.w3.org/1999/xlink" x="0px" y="0px"
	 viewBox="0 0 690 726" style="enable-background:new 0 0 690 726;" xml:space="preserve">
<g>
	<path style="fill:#FFFFFF;" d="M344.51,40.47l58,113.91c0.95,1.91,2.84,3.07,4.93,3.07c0.85,0,1.67-0.2,2.44-0.58
		c0.15-0.07,0.21-0.11,0.27-0.14l62.31-36.01l-34.99,180.45c-0.57,2.96,1.38,5.84,4.35,6.42c0.34,0.07,0.69,0.1,1.03,0.1
		c1.5,0,2.95-0.62,3.98-1.71l73.44-78.83l19.95,46.92c0.86,2,2.84,3.31,5.03,3.31c0.37,0,0.75-0.04,1.12-0.12l95.88-20.34
		l-32.68,100.5c-0.86,2.63,0.37,5.49,2.87,6.67l41.41,19.32L495.89,511.34c-1.82,1.47-2.5,3.95-1.68,6.16l21.66,59.76l-147.06-25.83
		c-0.57-0.1-1.16-0.15-1.75-0.15c-5.03,0-9.3,3.61-10.16,8.57c-0.13,0.74-0.18,1.48-0.14,2.22l7.54,144.42h-39.58l7.53-144.45
		c0.26-5.65-4.15-10.49-9.84-10.75c-0.15-0.01-0.3-0.01-0.46-0.01c-0.58,0-1.18,0.05-1.75,0.15l-147.05,25.84l21.65-59.74
		c0.83-2.23,0.15-4.7-1.68-6.18L35.15,383.4l41.43-19.35c2.47-1.17,3.71-4.03,2.85-6.65L46.75,256.89l95.89,20.35
		c0.35,0.07,0.73,0.11,1.1,0.11c2.19,0,4.17-1.3,5.03-3.32l19.95-46.91l73.48,78.86c1.02,1.07,2.43,1.68,3.95,1.68
		c1.41,0,2.75-0.53,3.77-1.5c1.37-1.29,1.97-3.17,1.61-5.01L216.54,120.7l62.24,35.97c0.87,0.51,1.83,0.77,2.79,0.77
		c1.94,0,3.76-1.04,4.75-2.71c0.06-0.1,0.1-0.17,0.13-0.23L344.51,40.47 M344.51,0.8l-16.04,31.5l-52.04,102.22l-50.88-29.4
		l-34.2-19.76l7.52,38.77l26.68,137.58l-43.66-46.85L163,194.58l-10.84,25.5l-15.91,37.41l-85.76-18.2L20,232.82l9.64,29.65
		l29.26,89.99l-31.36,14.65L1.45,379.27l22.37,18.12l151.04,122.34l-18.63,51.41l-10.6,29.24l30.64-5.38l137.5-24.16l-7.02,134.72
		l-0.99,18.94h18.96h39.58h18.96l-0.99-18.94l-7.03-134.72l137.51,24.15l30.64,5.38l-10.6-29.24l-18.64-51.42L665.18,397.4
		l22.38-18.12l-26.1-12.18l-31.35-14.63l29.26-89.98l9.64-29.64l-30.49,6.47l-85.78,18.2l-15.9-37.4L526,194.62l-18.89,20.28
		l-43.65,46.85l26.68-137.58l7.52-38.77l-34.2,19.76l-50.85,29.39L360.55,32.3L344.51,0.8L344.51,0.8z"/>
</g>
</svg>
