<?xml version="1.0" encoding="UTF-8"?><svg id="Capa_1" xmlns="http://www.w3.org/2000/svg" viewBox="0 0 400 400"><path d="M399.5,79.64c-.82-2.31-2.54-4.21-4.77-5.24l-76.26-35.2c-16.22-5.5-32.75-9.84-49.44-13.01-.59-.12-1.17-.17-1.75-.17-4.13,0-7.83,2.85-8.75,7.03-6.09,26.83-29.84,46.91-58.54,46.91s-52.45-20.08-58.54-46.91c-.93-4.18-4.62-7.03-8.75-7.03-.58,0-1.16,.06-1.75,.17-16.69,3.17-33.21,7.51-49.46,13.01L5.26,74.4c-2.24,1.03-3.97,2.93-4.75,5.24-.81,2.34-.66,4.86,.48,7.06l33.11,65.34c1.55,3.1,4.7,4.96,8.04,4.96,.86,0,1.73-.12,2.59-.38l36.77-10.9v219.23c0,4.98,4.06,9.04,9.05,9.04h218.89c4.98,0,9.03-4.06,9.03-9.04V145.72l36.8,10.9c.86,.26,1.73,.38,2.59,.38,3.33,0,6.47-1.86,8.04-4.96l33.12-65.34c1.12-2.2,1.28-4.73,.48-7.06Z"/><g><path d="M197.43,240.21c.05-1.19-.87-2.2-2.07-2.26h-.1c-.12,0-.25,0-.37,.03l-30.86,5.42,4.54-12.54c.17-.47,.03-.99-.35-1.3l-33.16-26.86,8.7-4.06c.52-.25,.78-.85,.6-1.4l-6.86-21.1,20.13,4.27c.07,0,.15,.02,.23,.02,.46,0,.88-.27,1.06-.7l4.19-9.85,15.42,16.55c.21,.22,.51,.35,.83,.35,.3,0,.58-.11,.79-.31,.29-.27,.41-.67,.34-1.05l-7.34-37.88,13.06,7.55c.18,.11,.38,.16,.59,.16,.41,0,.79-.22,1-.57,0-.02,.02-.04,.03-.05l12.19-23.93,12.17,23.91c.2,.4,.6,.64,1.03,.64,.18,0,.35-.04,.51-.12,.03,0,.04-.02,.06-.03l13.08-7.56-7.34,37.88c-.12,.62,.29,1.23,.91,1.35,.07,0,.14,.02,.22,.02,.31,0,.62-.13,.84-.36l15.41-16.55,4.19,9.85c.18,.42,.6,.69,1.06,.69,.08,0,.16,0,.24-.03l20.12-4.27-6.86,21.09c-.18,.55,.08,1.15,.6,1.4l8.69,4.06-33.15,26.85c-.38,.31-.52,.83-.35,1.29l4.55,12.54-30.87-5.42c-.12-.02-.24-.03-.37-.03-1.06,0-1.95,.76-2.13,1.8-.03,.16-.04,.31-.03,.47l1.58,30.31h-8.31l1.56-30.27Z" fill="red" stroke="#fff" stroke-miterlimit="10" stroke-width="4"/><path d="M200,133.05l11.24,22.07c.39,.77,1.16,1.22,1.97,1.22,.33,0,.67-.08,.98-.23,.04-.02,.09-.04,.13-.07l11.07-6.4-6.91,35.61c-.23,1.19,.55,2.35,1.74,2.58,.14,.03,.28,.04,.42,.04,.6,0,1.18-.25,1.6-.69l14.32-15.37,3.56,8.36c.35,.82,1.16,1.33,2.02,1.33,.15,0,.3,0,.45-.05l18.35-3.89-6.3,19.36c-.34,1.05,.15,2.2,1.15,2.67l7.18,3.35-31.86,25.8c-.73,.59-1,1.59-.68,2.47l3.93,10.83-29.08-5.11c-.18-.03-.37-.05-.55-.05-1.54,0-2.9,1.1-3.17,2.67-.04,.23-.05,.46-.04,.69l1.53,29.22h-6.1l1.52-29.21c.08-1.77-1.29-3.28-3.06-3.36h-.14c-.18,0-.37,.02-.55,.05l-29.08,5.11,3.93-10.83c.33-.88,.05-1.88-.68-2.47l-31.86-25.8,7.18-3.35c1-.47,1.5-1.62,1.15-2.67l-6.3-19.36,18.35,3.89c.15,.03,.3,.05,.45,.05,.86,0,1.67-.51,2.02-1.33l3.56-8.36,14.32,15.37c.43,.46,1.01,.69,1.6,.69,.54,0,1.09-.2,1.51-.6,.55-.52,.79-1.28,.65-2.01l-6.91-35.61,11.07,6.4c.35,.21,.73,.3,1.11,.3,.76,0,1.49-.39,1.9-1.09,.03-.04,.05-.08,.07-.13l11.24-22.07m0-4.63l-1.87,3.67-11.24,22.07v.02s-.08,.05-.1,.05-.03,0-.05,0h0l-11.07-6.4-3.99-2.3,.88,4.52,6.91,35.61s0,.07-.03,.09c0,0-.03,.03-.07,.03s-.06-.02-.07-.03l-14.31-15.36-2.2-2.36-1.26,2.97-3.56,8.36s-.07,.06-.09,.06h-.02l-18.34-3.89-3.56-.75,1.13,3.46,6.3,19.36c.02,.05,0,.1-.05,.13l-7.17,3.34-3.04,1.42,2.61,2.11,31.86,25.8s.05,.07,.03,.11h0s-3.93,10.84-3.93,10.84l-1.24,3.41,3.57-.63,29.08-5.11c.06,0,.12,0,.18,0h.05c.61,.03,1.09,.55,1.06,1.16l-1.52,29.21-.12,2.21h10.52l-.12-2.21-1.53-29.21c0-.08,0-.16,0-.23,.09-.54,.56-.93,1.1-.93,.06,0,.13,0,.19,.02l29.07,5.11,3.57,.63-1.24-3.41-3.93-10.83c-.02-.05,0-.1,.03-.12l31.85-25.8,2.61-2.11-3.04-1.42-7.17-3.34s-.07-.08-.05-.12l6.3-19.37,1.13-3.46-3.56,.75-18.35,3.89h0s-.07,0-.09-.06l-3.55-8.35-1.26-2.97-2.2,2.36-14.31,15.36s-.05,.03-.07,.03h-.02c-.06,0-.09-.07-.08-.12l6.91-35.61,.88-4.52-3.99,2.3-11.07,6.4h0s-.03,0-.04,0-.07,0-.09-.06h0s-11.24-22.08-11.24-22.08l-1.87-3.67h0l-.04-.02Z" fill="#fff" stroke="#fff" stroke-miterlimit="10" stroke-width="4"/></g><g><path d="M195.84,270.51l1.58-30.32c.05-1.19-.87-2.2-2.07-2.26h-.1c-.12,0-.25,0-.37,.03l-30.86,5.42,4.54-12.54c.17-.47,.03-.99-.35-1.3l-33.16-26.86,8.7-4.06c.52-.25,.78-.85,.6-1.4l-6.86-21.1,20.13,4.27c.07,0,.15,.02,.23,.02,.46,0,.88-.27,1.06-.7l4.19-9.85,15.42,16.55c.21,.22,.51,.35,.83,.35,.3,0,.58-.11,.79-.31,.29-.27,.41-.67,.34-1.05l-7.34-37.88,13.06,7.55c.18,.11,.38,.16,.59,.16,.41,0,.79-.22,1-.57,0-.02,.02-.04,.03-.05l12.19-23.93,12.17,23.91c.2,.4,.6,.64,1.03,.64,.18,0,.35-.04,.51-.12,.03,0,.04-.02,.06-.03l13.08-7.56-7.34,37.88c-.12,.62,.29,1.23,.91,1.35,.07,0,.14,.02,.22,.02,.31,0,.62-.13,.84-.36l15.41-16.55,4.19,9.85c.18,.42,.6,.69,1.06,.69,.08,0,.16,0,.24-.03l20.12-4.27-6.86,21.09c-.18,.55,.08,1.15,.6,1.4l8.69,4.06-33.15,26.85c-.38,.31-.52,.83-.35,1.29l4.55,12.54-30.87-5.42c-.12-.02-.24-.03-.37-.03-1.06,0-1.95,.76-2.13,1.8-.03,.16-.04,.31-.03,.47l1.58,30.31h-8.31l-.02,.05Z" fill="red"/><path d="M199.99,133.03l11.24,22.07c.39,.77,1.16,1.22,1.97,1.22,.33,0,.67-.08,.98-.23,.04-.02,.09-.04,.13-.07l11.07-6.4-6.91,35.61c-.23,1.19,.55,2.35,1.74,2.58,.14,.03,.28,.04,.42,.04,.6,0,1.18-.25,1.6-.69l14.32-15.37,3.56,8.36c.35,.82,1.16,1.33,2.02,1.33,.15,0,.3,0,.45-.05l18.35-3.89-6.3,19.36c-.34,1.05,.15,2.2,1.15,2.67l7.18,3.35-31.86,25.8c-.73,.59-1,1.59-.68,2.47l3.93,10.83-29.08-5.11c-.18-.03-.37-.05-.55-.05-1.54,0-2.9,1.1-3.17,2.67-.04,.23-.05,.46-.04,.69l1.53,29.22h-6.1l1.52-29.21c.08-1.77-1.29-3.28-3.06-3.36h-.14c-.18,0-.37,.02-.55,.05l-29.08,5.11,3.93-10.83c.33-.88,.05-1.88-.68-2.47l-31.86-25.8,7.18-3.35c1-.47,1.5-1.62,1.15-2.67l-6.3-19.36,18.35,3.89c.15,.03,.3,.05,.45,.05,.86,0,1.67-.51,2.02-1.33l3.56-8.36,14.32,15.37c.43,.46,1.01,.69,1.6,.69,.54,0,1.09-.2,1.51-.6,.55-.52,.79-1.28,.65-2.01l-6.91-35.61,11.07,6.4c.35,.21,.73,.3,1.11,.3,.76,0,1.49-.39,1.9-1.09,.03-.04,.05-.08,.07-.13l11.24-22.07m0-4.63l-1.87,3.67-11.24,22.07v.02s-.08,.05-.1,.05-.03,0-.05,0h0l-11.07-6.4-3.99-2.3,.88,4.52,6.91,35.61s0,.07-.03,.09c0,0-.03,.03-.07,.03s-.06-.02-.07-.03l-14.31-15.36-2.2-2.36-1.26,2.97-3.56,8.36s-.07,.06-.09,.06h-.02l-18.34-3.89-3.56-.75,1.13,3.46,6.3,19.36c.02,.05,0,.1-.05,.13l-7.17,3.34-3.04,1.42,2.61,2.11,31.86,25.8s.05,.07,.03,.11h0s-3.93,10.84-3.93,10.84l-1.24,3.41,3.57-.63,29.08-5.11c.06,0,.12,0,.18,0h.05c.61,.03,1.09,.55,1.06,1.16l-1.52,29.21-.12,2.21h10.52l-.12-2.21-1.53-29.21c0-.08,0-.16,0-.23,.09-.54,.56-.93,1.1-.93,.06,0,.13,0,.19,.02l29.07,5.11,3.57,.63-1.24-3.41-3.93-10.83c-.02-.05,0-.1,.03-.12l31.85-25.8,2.61-2.11-3.04-1.42-7.17-3.34s-.07-.08-.05-.12l6.3-19.37,1.13-3.46-3.56,.75-18.35,3.89h0s-.07,0-.09-.06l-3.55-8.35-1.26-2.97-2.2,2.36-14.31,15.36s-.05,.03-.07,.03h-.02c-.06,0-.09-.07-.08-.12l6.91-35.61,.88-4.52-3.99,2.3-11.07,6.4h0s-.03,0-.04,0-.07,0-.09-.06h0s-11.24-22.08-11.24-22.08l-1.87-3.67h0l-.04-.02Z" fill="#fff"/></g></svg>