<?xml version="1.0" encoding="UTF-8"?><svg id="Layer_1" xmlns="http://www.w3.org/2000/svg" viewBox="0 0 78.85 78.81"><path d="M39.36,0C17.83,0,0,17.87,0,39.4s17.92,39.4,39.4,39.4h0c21.53,.01,39.45-17.86,39.45-39.39S60.89,0,39.36,0Zm.05,59.38c-9.91,0-17.92-8.11-17.92-18.16h-.01c0-9.82,8.15-17.54,16.99-17.54h.44l-2-2.1c-.39-.49-.78-1.22-.78-2,0-1.56,1.22-2.83,2.83-2.83,.78,0,1.51,.29,2,.83l7.47,7.57c.98,1.07,1.07,2.98,0,4.05l-7.52,7.42c-.49,.49-1.22,.83-1.95,.83-1.61,0-2.83-1.22-2.83-2.78,0-.78,.34-1.51,.83-1.95l3.08-3.08c-.15-.05-.44-.05-.63-.05-6.49,0-11.72,5.27-11.72,11.82s5.22,11.77,11.72,11.77,11.77-5.27,11.77-11.77c0-1.71,1.42-3.08,3.12-3.08,1.61,0,3.03,1.37,3.03,3.08,0,9.86-8.01,17.97-17.92,17.97Z"/></svg>