<svg id="Layer_1" data-name="Layer 1" xmlns="http://www.w3.org/2000/svg" viewBox="0 0 40.1 34"><g id="Regular-S"><path d="M0,35.2A1.79,1.79,0,0,0,1.76,37h36.5a1.8,1.8,0,0,0,0-3.6H1.76A1.79,1.79,0,0,0,0,35.2Z" transform="translate(0.04 -3)"/><path d="M1.76,28.7a1.58,1.58,0,0,0,1.7,1.7h4a1.53,1.53,0,0,0,1.7-1.7V13.1a1.58,1.58,0,0,0-1.7-1.7h-4a1.58,1.58,0,0,0-1.7,1.7Z" transform="translate(0.04 -3)"/><path d="M11.46,28.7a1.53,1.53,0,0,0,1.7,1.7h3.9a1.53,1.53,0,0,0,1.7-1.7V4.7A1.63,1.63,0,0,0,17.06,3h-3.9a1.53,1.53,0,0,0-1.7,1.7Z" transform="translate(0.04 -3)"/><path d="M21.16,28.7a1.58,1.58,0,0,0,1.7,1.7h3.9a1.53,1.53,0,0,0,1.7-1.7V8.8a1.58,1.58,0,0,0-1.7-1.7h-3.9a1.53,1.53,0,0,0-1.7,1.7Z" transform="translate(0.04 -3)"/><path d="M30.76,28.7a1.58,1.58,0,0,0,1.7,1.7h4a1.53,1.53,0,0,0,1.7-1.7V17.1a1.58,1.58,0,0,0-1.7-1.7h-4a1.58,1.58,0,0,0-1.7,1.7Z" transform="translate(0.04 -3)"/></g></svg>