<svg id="Layer_1" data-name="Layer 1" xmlns="http://www.w3.org/2000/svg" viewBox="0 0 36.5 39.9"><g id="Regular-S"><path d="M20,40a18.44,18.44,0,0,0,18.3-18.3A18.44,18.44,0,0,0,20,3.4,18.3,18.3,0,0,0,20,40Zm0-15.2a3.12,3.12,0,0,1-3.1-3.1,3.29,3.29,0,0,1,1.7-2.8V10.6a1.4,1.4,0,1,1,2.8,0v8.3a3.05,3.05,0,0,1,1.7,2.8A3.12,3.12,0,0,1,20,24.8ZM31,8.3l2.9,3.1,1.7-1.8a2.29,2.29,0,0,0,.7-1.6,2,2,0,0,0-2.1-2,1.86,1.86,0,0,0-1.6.7ZM17.88,4.5h4.3V2.3A2.2,2.2,0,0,0,20.08.1,2.14,2.14,0,0,0,18,2.3V4.5Z" transform="translate(-1.78 -0.1)"/></g></svg>