<?xml version="1.0" encoding="UTF-8"?><svg id="Layer_1" xmlns="http://www.w3.org/2000/svg" viewBox="0 0 2500 2500"><circle cx="1250" cy="1250" r="1250"/><path d="M2051.48,752.77c-58.96,26.16-122.29,43.85-188.87,51.8,67.95-40.69,120.01-105.17,144.59-181.92-64.55,38.34-135.2,65.33-208.87,79.8-59.95-63.9-145.45-103.8-240.03-103.8-181.55,0-328.79,147.18-328.79,328.83,0,25.74,2.9,50.85,8.47,74.96-273.3-13.74-515.59-144.65-677.78-343.57-28.32,48.58-44.53,105.07-44.53,165.34,0,114.07,58.06,214.72,146.28,273.67-52.23-1.62-103.31-15.72-148.97-41.11v4.16c0,159.34,113.33,292.2,263.77,322.42-27.64,7.57-56.64,11.53-86.64,11.53-21.21,0-41.8-2.01-61.9-5.79,41.85,130.6,163.29,225.66,307.14,228.35-112.54,88.22-254.35,140.81-408.37,140.81-26.53,0-52.75-1.58-78.48-4.69,145.55,93.33,318.36,147.81,504.07,147.81,604.82,0,935.6-501.07,935.6-935.6,0-14.27-.31-28.43-1-42.53,64.45-46.61,120.08-104.33,164.29-170.45h0Z" fill="#fff"/></svg>