<?xml version="1.0" encoding="UTF-8"?><svg id="Layer_1" xmlns="http://www.w3.org/2000/svg" viewBox="0 0 500 500"><path d="M132.73,125.69c-3.29,4.92-7.33,8.53-12.12,10.85-4.79,2.31-10.68,3.47-17.67,3.47-23.78,0-35.67-13.33-35.67-40,0-13.65,3.01-23.73,9.04-30.24,6.03-6.51,14.72-9.76,26.07-9.76,7.51,0,13.63,1.27,18.36,3.8,4.73,2.53,8.34,5.85,10.82,9.96l-12.15,9.43c-1.78-2.66-3.4-4.59-4.88-5.77s-3.16-2.07-5.05-2.66-4.14-.89-6.77-.89c-6.29,0-11.08,2.01-14.37,6.02s-4.94,10.72-4.94,20.11c0,8.77,1.54,15.31,4.63,19.64,3.09,4.33,8.02,6.49,14.79,6.49,4.55,0,8.09-.87,10.62-2.61,2.53-1.74,4.84-4.05,6.91-6.93l12.37,9.1Z"/><path d="M412.95,140l-29.13-57.17v57.17h-15.95V60h21.16l27.11,53.93V60h16.01v80h-19.19Z"/><path d="M432.17,405.57c0,12.25-2.49,21.05-7.46,26.4s-13.21,8.03-24.71,8.03-19.59-2.65-24.62-7.94c-5.03-5.3-7.55-14.12-7.55-26.49v-45.57h15.94v44.44c0,5.31,.51,9.5,1.53,12.55s2.64,5.3,4.86,6.73,5.47,2.15,9.72,2.15c6.07,0,10.31-1.61,12.72-4.83,2.41-3.22,3.62-8.68,3.62-16.37v-44.66h15.94v45.57Z"/><path d="M261.47,440l-22.14-33.41-4.86,5.61v27.8h-16.3v-80h16.3v31.21l26.18-31.21h19.02l-29.83,34.45,31.97,45.55h-20.35Z"/><path d="M212.89,140l26.47-80h21.21l26.53,80h-16.71l-5.32-16.24h-30.81l-5.2,16.24h-16.18Zm26.01-30.52h21.56l-10.75-33.06-10.81,33.06Z"/><line x1="175" y1="25" x2="175" y2="475" fill="none" stroke="#231f20" stroke-miterlimit="10" stroke-width="2"/><line x1="325" y1="25" x2="325" y2="475" fill="none" stroke="#231f20" stroke-miterlimit="10" stroke-width="2"/><line x1="475" y1="175" x2="25" y2="175" fill="none" stroke="#231f20" stroke-miterlimit="10" stroke-width="2"/><line x1="475" y1="325" x2="25" y2="325" fill="none" stroke="#231f20" stroke-miterlimit="10" stroke-width="2"/><path d="M133.07,400c0,13.35-2.82,23.36-8.46,30.01s-13.84,9.99-24.6,9.99c-11.35,0-19.7-3.5-25.05-10.51-5.34-7.01-8.02-16.84-8.02-29.49s2.67-22.57,8.02-29.54c5.34-6.97,13.69-10.46,25.05-10.46s19.8,3.49,25.1,10.46c5.31,6.97,7.96,16.82,7.96,29.54Zm-16.14,0c0-9.1-1.29-15.73-3.86-19.89-2.57-4.16-6.93-6.24-13.07-6.24s-10.49,2.08-13.07,6.24c-2.57,4.16-3.86,10.79-3.86,19.89s1.3,15.73,3.91,19.89,6.94,6.24,13.01,6.24,10.49-2.08,13.07-6.24,3.86-10.79,3.86-19.89Z" fill="#231f20"/><g><path d="M114.64,219.25c4.97,0,10.21,3.22,11.98,5.98,3.27,5.13,2.66,12.31-2.55,17.79-1.35-1.68-2.86-3.23-4.51-4.61,3.83-4.27,2.59-8.2,1.01-10.25-1.05-1.36-3.52-2.25-5.78-2.25-1.13,0-2.21,.23-3.02,.73l-1.01-6.61c1.23-.54,2.55-.77,3.89-.77m0-1.68h0c-1.64,0-3.18,.31-4.56,.91-.7,.31-1.1,1.04-.98,1.79l1.01,6.61c.08,.56,.44,1.03,.96,1.27,.22,.1,.47,.16,.7,.16,.31,0,.61-.08,.88-.25,.5-.31,1.26-.48,2.14-.48,2.01,0,3.84,.81,4.45,1.6,.88,1.14,2.56,4.22-.93,8.11-.3,.34-.46,.78-.42,1.24,.03,.45,.25,.88,.6,1.17,1.56,1.31,3,2.78,4.28,4.38,.3,.38,.75,.6,1.24,.62h.07c.46,0,.9-.19,1.22-.52,5.52-5.8,6.63-13.78,2.75-19.85-2.08-3.25-7.79-6.76-13.39-6.76h0Z" fill="#010101"/><g><path d="M82.57,301.13c-4.96,0-9.26-4.48-9.8-10.21-1-10.6-1.68-19.8-2.28-30.74-.6-11.63,3.71-17.02,7.8-21.15,.31-.31,.81-.7,1.51-1.23,2.11-1.61,5.63-4.3,6.43-7.14,.77-2.77,.94-3.64,.99-3.89-.03-.24,.04-.49,.21-.67,.16-.18,.39-.29,.63-.29h23.81c.4,0,.75,.29,.83,.69,.26,1.39,.63,2.77,1.12,4.1,1.04,2.74,3.44,4.74,5.76,6.67,.88,.73,1.79,1.48,2.61,2.27,6.86,6.61,7.77,14.99,7.32,20.85-.95,12.41-1.65,21.78-2.39,31.57v.04c-.63,4.94-4.7,8.79-9.67,9.13h-34.85Z" fill="#010101"/><path d="M88.04,226.64h0m23.81,0c.27,1.44,.65,2.86,1.15,4.24,1.52,4.03,5.56,6.38,8.58,9.27,6.41,6.18,7.52,14.12,7.06,20.17-.95,12.41-1.65,21.78-2.39,31.57-.58,4.56-4.31,8.08-8.9,8.4h-34.78c-4.61,0-8.48-4.27-8.97-9.45-.91-9.63-1.64-18.94-2.28-30.71-.57-11.19,3.46-16.37,7.55-20.51,1.15-1.16,7.01-4.7,8.15-8.74,1.05-3.78,1.05-4.2,1.02-4.24h23.8m-23.81-1.68c-.48,0-.94,.21-1.26,.56-.3,.33-.44,.76-.42,1.2-.06,.3-.26,1.22-.95,3.71-.73,2.56-4.24,5.26-6.13,6.7-.73,.55-1.25,.96-1.59,1.3-4.21,4.27-8.65,9.81-8.04,21.78,.6,10.97,1.28,20.17,2.29,30.79,.57,6.15,5.25,10.97,10.64,10.97h34.9c5.37-.37,9.76-4.52,10.44-9.86,0-.03,0-.06,0-.09,.71-9.43,1.43-18.94,2.39-31.57,.46-6.04-.47-14.67-7.57-21.51-.86-.81-1.77-1.58-2.66-2.32-2.34-1.95-4.55-3.79-5.51-6.32-.47-1.28-.83-2.62-1.07-3.96-.15-.8-.84-1.37-1.65-1.37h-23.81Z" fill="#010101"/></g><path d="M110.16,215.21l1.67,11.44h-23.79l1.82-11.44h20.3m0-1.68h-20.3c-.83,0-1.53,.6-1.66,1.41l-1.82,11.44c-.08,.49,.06,.98,.38,1.35,.32,.37,.78,.59,1.28,.59h23.79c.49,0,.95-.21,1.27-.58s.46-.86,.39-1.34l-1.67-11.44c-.12-.83-.83-1.43-1.66-1.43h0Z" fill="#010101"/><g><path d="M89.91,216.05c-1.86,0-3.01-.54-3.01-3.23v-8.89c0-2,2.35-5.07,5.25-5.07h15.72c2.22,0,5.32,1.88,5.32,4.94v9.38c0,1.93-.44,2.86-2.98,2.86h-20.3Z" fill="#010101"/><path d="M107.87,199.71c1.89,0,4.48,1.62,4.48,4.11v9.38c0,1.56-.14,2.02-2.14,2.02h-20.3c-1.47,0-2.17-.22-2.17-2.39v-8.89c0-1.45,1.95-4.23,4.41-4.23h15.72m0-1.68h-15.72c-3.47,0-6.09,3.58-6.09,5.91v8.89c0,3.61,2.06,4.07,3.85,4.07h20.3c3.17,0,3.82-1.48,3.82-3.7v-9.38c0-3.31-3.25-5.78-6.16-5.78h0Z" fill="#010101"/></g></g><path d="M126.66,225.23c3.27,5.13,2.66,12.31-2.55,17.79-1.35-1.68-2.86-3.23-4.51-4.61,3.83-4.27,2.59-8.2,1.01-10.25-1.59-2.05-6.37-3.03-8.8-1.52l-1.01-6.61c5.78-2.54,13.63,1.71,15.87,5.21h0Z" fill="#fcb116" isolation="isolate" opacity=".1"/><path d="M73.63,290.84c.48,5.18,4.36,9.45,8.97,9.45h34.79c4.59-.32,8.31-3.84,8.9-8.4,.74-9.79,1.44-19.16,2.39-31.57,.47-6.05-.65-13.99-7.06-20.17-3.02-2.89-7.06-5.23-8.58-9.27-.5-1.38-.88-2.79-1.15-4.24h-23.81s.24-.27-1.01,4.24c-1.14,4.03-7,7.57-8.15,8.74-4.09,4.14-8.13,9.32-7.55,20.51,.65,11.77,1.37,21.08,2.28,30.71h0Z" fill="#010101"/><path d="M82,284.37c.33,3.53,3.02,6.45,6.12,6.45h23.75c3.12-.23,5.65-2.63,6.05-5.73,.49-6.69,1.01-13.11,1.62-21.55,.73-9.49-8.07-18.53-20.17-18.53-10.41,0-19.41,9.08-18.91,18.39,.39,8.04,.91,14.37,1.54,20.98Z" fill="#fff"/><polygon points="88.07 226.65 111.86 226.65 110.19 215.21 89.89 215.21 88.07 226.65" fill="#fff"/><path d="M89.94,215.21c-1.47,0-2.17-.22-2.17-2.39v-8.89c0-1.45,1.95-4.23,4.41-4.23h15.72c1.89,0,4.48,1.62,4.48,4.11v9.38c0,1.56-.14,2.02-2.14,2.02h-20.3Z" fill="#010101"/><g><path d="M126.69,225.25c3.27,5.13,2.66,12.31-2.55,17.78-1.11,1.17-5.58-3.41-4.51-4.61,3.83-4.27,2.59-8.2,1.01-10.25s-6.36-3.02-8.8-1.52c-1.42,.87-2.48-5.92-1.01-6.61,5.78-2.54,13.61,1.7,15.85,5.2h0Z" fill="#fff"/><g opacity=".9"><path d="M121.56,240.15c-3.03-2.89-7.06-5.24-8.59-9.27-.5-1.38-.88-2.8-1.15-4.24h-23.81s.24-.27-1.01,4.24c-1.14,4.04-7,7.58-8.15,8.74-4.1,4.14-8.14,9.32-7.56,20.52,.65,11.78,1.37,21.06,2.28,30.73,.49,5.19,4.36,9.46,8.97,9.46h34.81c4.59-.32,8.32-3.84,8.9-8.41,.74-9.8,1.44-19.18,2.39-31.59,.47-6.06-.65-14-7.08-20.17h0Zm-3.63,44.95c-.39,3.11-2.93,5.52-6.06,5.74h-23.8c-3.15,0-5.79-2.91-6.13-6.45-.62-6.61-1.12-12.95-1.56-20.99-.5-9.26,8.51-18.4,18.92-18.4,12.2,0,20.96,9.08,20.19,18.53-.6,8.47-1.08,14.89-1.57,21.57h0Z" fill="#fcb116"/></g><path d="M81.95,284.4c.33,3.53,3.03,6.45,6.13,6.45h23.77c3.12-.23,5.66-2.63,6.06-5.73,.49-6.69,1.01-13.12,1.62-21.57,.73-9.5-8.07-18.54-20.19-18.54-10.41,0-19.43,9.08-18.92,18.4,.39,8.04,.91,14.38,1.54,20.99h0Z" fill="#fcb116" isolation="isolate" opacity=".5"/><path d="M99.2,278.68l.31-5.88c.01-.23-.16-.42-.39-.43h-.12l-5.99,1.01,.88-2.43c.04-.09,.02-.19-.06-.25l-6.44-5.21,1.69-.8c.1-.05,.15-.16,.12-.26l-1.29-4.06,3.9,.83h0c.09,0,.17-.05,.21-.13l.81-1.92,3.03,3.22s.1,.07,.16,.07c.06,0,.11-.02,.15-.06,.06-.05,.08-.13,.07-.21l-1.43-7.35,2.54,1.46s.08,0,.11,0c.08,0,.16-.04,.19-.11h0l2.36-4.62,2.36,4.64c.04,.07,.12,.12,.2,.12h.1l2.54-1.46-1.42,7.3c-.02,.12,.06,.24,.18,.26h0c.06,0,.12-.03,.16-.07l3.03-3.21,.81,1.91c.04,.08,.12,.13,.21,.13h0l3.9-.83-1.28,4.13c-.03,.11,.02,.22,.12,.27l1.69,.79-6.44,5.21c-.08,.06-.1,.16-.06,.25l.88,2.43-5.99-1.01h-.07c-.21,0-.38,.15-.42,.35v.09l.31,5.88-1.62-.05h-.01Z" fill="#d22026"/><polygon points="88.01 226.63 111.82 226.63 110.79 219.56 110.15 215.19 89.84 215.19 88.01 226.63" fill="#fcb116" isolation="isolate" opacity=".1"/><path d="M89.89,215.19c-1.47,0-2.17-.22-2.17-2.39v-8.89c0-1.46,1.95-4.23,4.41-4.23h15.74c1.89,0,4.48,1.62,4.48,4.11v9.39c0,1.56-.14,2.02-2.14,2.02h-20.32Z" fill="#fcb116" isolation="isolate" opacity=".55"/><g opacity=".52"><path d="M88.92,287.9c-.32-.13-.57-.31-.75-.55s-.29-.52-.31-.85v-.06h1.07v.04c.03,.14,.1,.26,.2,.36s.23,.18,.39,.23,.34,.08,.55,.08,.39-.03,.54-.08,.27-.13,.35-.24,.12-.22,.12-.36h0c0-.18-.07-.33-.21-.43s-.38-.19-.72-.26l-.57-.12c-.53-.1-.94-.29-1.2-.54s-.41-.59-.41-.99h0c0-.34,.09-.62,.27-.86s.42-.44,.73-.57,.66-.21,1.07-.21,.78,.07,1.08,.2,.54,.31,.71,.55,.26,.51,.28,.83v.07h-1.07v-.05c-.03-.14-.08-.26-.17-.36s-.21-.18-.35-.23-.31-.08-.49-.08-.36,.03-.5,.08-.25,.13-.32,.23-.11,.21-.11,.34h0c0,.18,.07,.31,.22,.42s.37,.19,.68,.25l.57,.12c.38,.08,.69,.18,.93,.31s.42,.3,.54,.5,.18,.44,.18,.73h0c0,.35-.09,.65-.26,.91s-.42,.45-.75,.59-.72,.21-1.17,.21c-.43,0-.8-.06-1.12-.19h0Z" fill="#010101"/><path d="M94.16,285.97l-1.88-3.39h1.22l1.21,2.31h.03l1.21-2.31h1.22l-1.88,3.39v2.02h-1.13v-2.02Z" fill="#010101"/><path d="M97.73,282.58h2.23c.4,0,.75,.07,1.04,.21s.51,.34,.66,.6,.23,.57,.23,.93h0c0,.36-.09,.68-.26,.96s-.42,.47-.71,.59l1.14,2.13h-1.28l-1-1.95h-.91v1.95h-1.13v-5.41h0Zm2.11,2.58c.28,0,.5-.08,.66-.23s.24-.36,.24-.62h0c0-.27-.08-.47-.25-.62s-.39-.23-.67-.23h-.96v1.7h.98Z" fill="#010101"/><path d="M103.71,287.84c-.34-.17-.6-.4-.79-.7s-.28-.65-.28-1.05v-3.5h1.13v3.39c0,.23,.05,.43,.13,.6s.22,.31,.39,.4,.37,.14,.62,.14,.45-.05,.62-.14,.3-.23,.39-.4,.13-.37,.13-.6v-3.39h1.13v3.5c0,.4-.09,.75-.28,1.05s-.44,.54-.78,.7-.74,.25-1.2,.25-.86-.08-1.2-.25h0Z" fill="#010101"/><path d="M108.07,282.58h1.13v5.41h-1.13v-5.41Zm.57,2.82h1.33c.32,0,.58-.08,.75-.25s.27-.4,.27-.7h0c0-.32-.09-.55-.27-.72s-.43-.25-.75-.25h-1.33v-.9h1.6c.38,0,.71,.08,1,.23s.51,.37,.67,.65,.24,.6,.24,.97h0c0,.38-.08,.7-.24,.98s-.38,.49-.67,.65-.62,.23-1,.23h-1.6v-.89h0Z" fill="#010101"/></g></g><g><path d="M251.91,262.79c3.73,.43,7.07,.82,10.79,1.24l-.95-3.12c-.14-.55,.05-1.13,.49-1.48l10.82-8.81-2.24-1.05c-.98-.35-.72-.91-.36-2.24l1.65-6.02-6.28,1.33c-.61,.09-1.02-.3-1.11-.67l-.81-2.83-4.97,5.58c-.71,.9-2.14,.9-1.69-1.17l2.12-11.3-2.85,1.48c-.8,.45-1.6,.52-2.04-.28l-3.93-7.36h0l-3.93,7.36c-.45,.8-1.24,.73-2.05,.28l-2.85-1.48,2.12,11.3c.45,2.06-.98,2.06-1.69,1.17l-4.97-5.57-.81,2.83c-.09,.37-.5,.76-1.11,.67l-6.28-1.33,1.65,6.02c.35,1.34,.63,1.89-.36,2.24l-2.24,1.05,10.82,8.81c.43,.33,.64,.93,.49,1.48l-.95,3.12,10.79-1.24c.33,0,.55,.18,.55,.56l-.67,11.52h2.97l-.66-11.52c0-.38,.22-.56,.55-.56h0Z" fill="#d42e27"/><g><path d="M206.47,209.58c-6.87,0-12.44,5.57-12.44,12.44v55.97c0,6.87,5.57,12.44,12.44,12.44h18.66v-80.84h-18.66Zm87.06,0h-18.66v80.84h18.66c6.87,0,12.44-5.57,12.44-12.44v-55.97c0-6.87-5.57-12.44-12.44-12.44Z" fill="#d42e27"/><path d="M225.12,209.58h49.75v80.84h-49.75v-80.84Z" fill="#eeedee"/><path d="M251.91,262.79c3.73,.43,7.07,.82,10.79,1.24l-.95-3.12c-.14-.55,.05-1.13,.49-1.48l10.82-8.81-2.24-1.05c-.98-.35-.72-.91-.36-2.24l1.65-6.02-6.28,1.33c-.61,.09-1.02-.3-1.11-.67l-.81-2.83-4.97,5.58c-.71,.9-2.14,.9-1.69-1.17l2.12-11.3-2.85,1.48c-.8,.45-1.6,.52-2.04-.28l-3.93-7.36h0l-3.93,7.36c-.45,.8-1.24,.73-2.05,.28l-2.85-1.48,2.12,11.3c.45,2.06-.98,2.06-1.69,1.17l-4.97-5.57-.81,2.83c-.09,.37-.5,.76-1.11,.67l-6.28-1.33,1.65,6.02c.35,1.34,.63,1.89-.36,2.24l-2.24,1.05,10.82,8.81c.43,.33,.64,.93,.49,1.48l-.95,3.12,10.79-1.24c.33,0,.55,.18,.55,.56l-.67,11.52h2.97l-.66-11.52c0-.38,.22-.56,.55-.56h0Z" fill="#d42e27"/></g></g><path d="M457.47,227.55s-3.59,26.94-21.55,26.94h-71.84c-17.96,0-21.54-26.94-21.54-26.94,0,0,7.18,5.39,57.47,5.39s57.47-5.39,57.47-5.39h0Z" fill="#20a449" stroke="#010101" stroke-linecap="round" stroke-linejoin="round" stroke-width="1.91"/><path d="M408.43,215.2l8.12,4.68-5.12,1.38-23.43,40.57,1.38,5.12-10.31,17.85-9.74-5.62,10.31-17.85,5.12-1.38,23.42-40.58,.25-4.18h0s0,0,0,0Z" fill="#8e5b24" stroke="#010101" stroke-linejoin="round" stroke-width="1.44"/></svg>