<?xml version="1.0" encoding="UTF-8"?><svg id="Layer_1" xmlns="http://www.w3.org/2000/svg" viewBox="0 0 40 40"><g id="Regular-S"><path d="M20.02,40c11-.1,19.9-9,20-20C39.92,9,31.02,.1,20.02,0,9.02,.1,.12,9,.02,20c.1,11,9,19.9,20,20Zm0-3.8c-8.95,.07-16.25-7.13-16.32-16.08S10.83,3.87,19.78,3.8c8.95-.07,16.25,7.13,16.32,16.08,0,.04,0,.08,0,.12,.04,8.91-7.15,16.16-16.06,16.2,0,0-.01,0-.02,0Z" fill="#fff"/><path d="M19.6,24.1c.9,.09,1.7-.57,1.79-1.47,0-.04,0-.09,0-.13v-.1c0-1,.6-1.7,2-2.6,1.8-1.2,3.3-2.3,3.3-4.8,0-3.4-3-5.2-6.4-5.2s-5.7,1.5-6.28,3.2c-.11,.32-.18,.66-.2,1-.02,.81,.63,1.48,1.44,1.5,.02,0,.04,0,.06,0,.63,0,1.23-.29,1.6-.8l.4-.5c.64-.92,1.68-1.48,2.8-1.5,1.32-.17,2.52,.77,2.68,2.08,.01,.11,.02,.21,.02,.32,0,1.3-.8,1.9-2.5,3-1.3,.9-2.5,2-2.5,4v.1c-.02,1.3,.58,1.9,1.78,1.9Zm0,5.9c1.23,0,2.24-.97,2.3-2.2-.02-1.24-1.04-2.22-2.28-2.2,0,0-.01,0-.02,0-1.23,0-2.24,.97-2.3,2.2,.02,1.24,1.04,2.22,2.28,2.2,0,0,.01,0,.02,0Z" fill="#fff"/></g></svg>