<?xml version="1.0" encoding="UTF-8"?><svg id="Layer_1" xmlns="http://www.w3.org/2000/svg" viewBox="0 0 40.1 34"><g id="Regular-S"><path d="M.04,32.2c0,.98,.78,1.78,1.76,1.8H38.3c.99,0,1.8-.81,1.8-1.8,0-.99-.81-1.8-1.8-1.8H1.8c-.98,.02-1.77,.82-1.76,1.8Z" fill="#fff"/><path d="M1.8,25.7c-.07,.87,.58,1.63,1.45,1.7,.08,0,.17,0,.25,0H7.5c.84,.1,1.6-.5,1.7-1.34,.01-.12,.01-.24,0-.36V10.1c.07-.87-.58-1.63-1.45-1.7-.08,0-.17,0-.25,0H3.5c-.87-.07-1.63,.58-1.7,1.45,0,.08,0,.17,0,.25v15.6Z" fill="#fff"/><path d="M11.5,25.7c-.1,.84,.5,1.6,1.34,1.7,.12,.01,.24,.01,.36,0h3.9c.84,.1,1.6-.5,1.7-1.34,.01-.12,.01-.24,0-.36V1.7c.04-.9-.66-1.66-1.56-1.7-.05,0-.1,0-.14,0h-3.9c-.84-.1-1.6,.5-1.7,1.34-.01,.12-.01,.24,0,.36V25.7Z" fill="#fff"/><path d="M21.2,25.7c-.07,.87,.58,1.63,1.45,1.7,.08,0,.17,0,.25,0h3.9c.84,.1,1.6-.5,1.7-1.34,.01-.12,.01-.24,0-.36V5.8c.07-.87-.58-1.63-1.45-1.7-.08,0-.17,0-.25,0h-3.9c-.84-.1-1.6,.5-1.7,1.34-.01,.12-.01,.24,0,.36V25.7Z" fill="#fff"/><path d="M30.8,25.7c-.07,.87,.58,1.63,1.45,1.7,.08,0,.17,0,.25,0h4c.84,.1,1.6-.5,1.7-1.34,.01-.12,.01-.24,0-.36V14.1c.07-.87-.58-1.63-1.45-1.7-.08,0-.17,0-.25,0h-4c-.87-.07-1.63,.58-1.7,1.45,0,.08,0,.17,0,.25v11.6Z" fill="#fff"/></g></svg>