<?xml version="1.0" encoding="UTF-8"?><svg id="Layer_1" xmlns="http://www.w3.org/2000/svg" viewBox="0 0 39.14 26.32"><g id="g5253"><path id="path2403" d="M18.82.57c.42-.11.92.08,1.36.08.43,0,.85.01,1.28,0,.47,0,.92-.08,1.39-.08,1.14.15,1.79.91,2.24,1.81.06.12-.69-.16-.76-.28-.17-.3-.36-.58-.61-.82-.01,0-.02,0-.03,0-.44-.02-.88.05-1.31.09-.42.02-.84.02-1.26.02-.74,0-1.72.06-2.26.31.18.35.02.79-.06,1.15-.03.14-.76-.22-.74-.36.04-.32.26-.78.01-1.02-.51-.48-1.42-.41-2.13-.52-.49-.08-.98-.14-1.47-.21-.36-.09-.63-.07-.96.11-.27.22-.58.4-.85.63-.2.2-.47.37-.57.64-.06.22.04.39.19.53.25.09,1.62.63,1.8.68-.73-.05-1.14-.19-1.57-.04-.05.1-.24-.12-.37-.16-.34-.12-.69-.19-1.05-.24-.5-.06-1-.04-1.5,0-.51.04-.94.23-1.34.53-.29.27-.37.67-.4,1.04-.04.33.03.56.24.83.08.1.18.19.24.3.05.09.06.2.1.3.01.04-.2-.05-.23-.07-.77-.52-1.46-.86-1.35-1.83.05-.42.19-.84.51-1.15.43-.3.88-.54,1.43-.57.53-.07,1.07-.05,1.61.02.42.08.82.18,1.2.31-.35-.25-.62-.55-.49-1,.13-.29.38-.49.61-.71.28-.23.61-.41.89-.63.25-.17.5-.27.78-.25.09,0,.19.02.29.06.49.1,1,.14,1.5.24.77.14,1.56.26,2.31.49.07.04.26-.16.34-.13" fill="#fff" stroke-width="0"/><path id="path2402" d="M28.76,16.52c.05,0,.11.01.16.01.47,0,.94,0,1.41.02,1.11.12,2.35.47,2.95,1.44.23.53.11,1.07.16,1.63.16,1.76.56,4.61.02,5.25-.2.6-.73.91-1.27,1.21-.93.42-1.93.17-2.86-.09-1.07-.35-2.15-.7-3.05-1.38,0,.22-.03.44-.18.62-.05.06-.12.11-.19.16-.48.22-.95.07-1.44-.03-.62-.09-1.2-.24-1.77-.49-.62-.32-.46-.23-1.43-.79-.04-.02-.06-.04-.1-.06-.06-.02-.13-.05-.23-.09-.83-.17-1.63-.36-2.4-.7-.83-.39-1.59-.86-2.19-1.51-.1.19-.33.36-.51.46-.29.17-.82.23-1.17.05-.83-.44-1.48-.81-2.13-1.48-.4-.36-.49-.91-.56-1.41-.04-.34.02-.71.19-1.02.23-.18.7-.22.81.1.15.32-.09.61-.18.91,0,.4.03.83.21,1.21.26.49.74.84,1.2,1.16.02.02.06.05.11.08.21.04.56.08.65.02.49-.31.61-1.05.57-1.6-.06-.28-.09-.57-.11-.87,0-.06-.03-.87,0-.93.06-.15.23-.23.35-.34,0,0,.01,0,.02,0,.08,0,.27.1.29.15.09.2.22.39.27.61.08.3-.06.62.02.92.06.7.2,1.39.66,1.97.2.24.4.46.64.67.09.08.41.24.29.23-.03,0-.05,0-.07-.01.73.33,1.48.55,2.29.66.74.26.3.08,1.5.75.16.09.57.32.6.35.48.2.97.32,1.48.41.47.09.95.29,1.43.17.06-.04.12-.06.17-.11.37-.38.1-1.04.02-1.49-.08-.18-.16-.37-.24-.57-.16-1.13-.74-2.2-1.13-3.26-.08-.15-.12-.35-.25-.47-.03-.02-.12-.09-.15-.1,0,0-.03-.02-.04-.03-.11-.01-.21,0-.32.04-.01.01-.04.02-.04.04,0,.03.01.05.02.08,0,.05.02.1.03.15.02.1-.53-.13-.58-.22-.13-.21-.24-.29-.06-.5.14-.06.29-.08.43-.07.05,0,.1,0,.15.02.43.23.75.39,1.1.68.19.16.26.4.33.62.29,1.19.92,2.25,1.35,3.39.29.62.69,1.2,1.22,1.66.03.02.05.04.08.06.41.16.84.27,1.25.44.89.27,1.84.55,2.74.17.5-.27,1.05-.5,1.28-1.04.39-1.5.23-3.36.15-5.14-.03-.6-.01-1.1-.32-1.63.1,0,0-.09-.14-.19-.07-.03-.14-.07-.19-.09-.34-.1-.53-.11-.88-.15-.65-.09-1.32.04-1.96-.04-.15-.02-.77-.37-.69-.49.03-.05.04-.14.1-.16.05-.02.1-.02.16-.02h0ZM17.39,22.35s.29.15.4.21c0,0,.02,0,.03.01-.14-.06-.25-.17-.4-.21-.02,0-.03,0-.03,0ZM21.76,24.12c.08.04.18.1.23.13.03.01.06.03.09.04-.11-.06-.22-.11-.32-.17h0Z" fill="#fff" stroke-width="0"/><path id="path2404" d="M14.96,7.51c.69.05,1.48.29,1.85.89.29.62.67,1.2.92,1.82.46.49,1.03,1.2,1.82,1.04.76-.07,1.7.28,2.32-.3.5-.4.96-.84,1.56-1.11.59-.35,1.27-.3,1.92-.25,1.05,0,2.16-.03,3.1.5,1.35.6,2.49,1.53,3.04,2.86.07.2.09.41.15.62.02.1.08.37.04.47-.02.04-.05.06-.08.09-.05.06-.41-.12-.44-.2-.03-.05-.05-.11-.07-.16-.04-.12,0-.32-.04-.45-.03-.19-.02-.39-.09-.57-.7-1.84-2.97-2.39-4.8-2.5-.77,0-1.69-.16-2.27.45-.58.62-1.1,1.4-1.02,2.27-.11.6.26,1.15.11,1.75-.14.29-.13.71.03,1.03.03,0,.05,0,.09.01.45.06.73.13,1,.24.32-.26.49-1.04.54-1.42.32-.36.81.6.52,1,0,.28-.1.58-.29.79.12.06.23.11.38.19.24.12.47.25.68.41.24.17.44.39.66.58.2.24.42.46.6.7,1.95,2.71,1.25,3.46,3.91,3.83.05.1-1.15,1.13-1.76.69-1.93-1.02-1.77-3.14-2.93-4.78-.19-.24-.41-.46-.62-.7-.36-.3-.63-.63-1.05-.8-.46-.18-1.04-.18-1.54-.19-.18,0-.34.02-.64.04-1.63.2-3.16,1.18-2.64,2.97.09.21.22.4.33.6.53.73,1.2,1.34,2.03,1.76.05.02-.13-.14-.07-.13.25.04.48.16.72.23.18.05.38.1.56.14.18.05-.18.5-.36.47-1.21-.17-.76-.37-1.9-1-.56-.31-1.08-.72-1.51-1.18-.19-.21-.35-.45-.53-.67-.11-.22-.25-.42-.33-.64-.02-.05-.03-.09-.05-.14h0s0,0,0-.01c0-.04-.02-.07-.03-.11v-.03s0,0,0-.01c-.43-1.12-.03-2.25-1.06-2.91-.63-.32-1.48-.72-3.45-.4-.88.13-1.4.42-1.78,1.14-.31.54-.17.8.11,1.29.25.37.57.66.95.91.32.21.52.38.61.74,0,.11.04.22.17.25.2.04-1.01-.17-1.12-.33-.08-.11-.12-.23-.14-.35-.12-.28-.38-.46-.63-.63-.37-.27-.68-.6-.91-.98-.18-.33-.27-.6-.23-.89-.03,0-.06,0-.08,0-.1,0-.2,0-.31,0-.03,0-.07,0-.1,0-.01.07-.08.12-.17.13-.2-.02-.04,0-.4-.27,0,0-.03-.02-.03-.02-.09-.07-.18-.15-.27-.22,0,0,0,0,0,0-.02-.01-.03-.02-.05-.04,0,0,0,0,.01,0,.02,0,.03,0,.04.02,0,0,0-.01,0-.03.07-.14.02-.12.12-.13.04,0,.08,0,.11,0,.11,0,.21,0,.32,0,.15,0,.3.02.44.01.16,0,.32.01.47,0,.05,0,.09-.02.14-.04.16-.25.31-.51.58-.58.04-.14.07-.28.09-.42-.02,0-.03,0-.05,0-.32,0-.64.01-.97-.01-.39-.09-.78-.1-1.17-.15-.49-.08-1.65-.7-1.23-.99.13-.09.67.22.8.35.25.01.51.01.75.08.31.08.63.04.95.05.47,0,.93-.07,1.39-.15.39,0,.78,0,1.17.08.44.1.89.19,1.34.27.81.03,1.56-.36,2.03-.99.11-.14,1,.35.89.49-.39.5-.91.86-1.51,1.03.06.02.13.04.19.06.54.19,1.75.59,2.01,1.09.03.05.04.1.05.15.86.38,1.42-.18,2.24-.36.41-.32.76-.72.84-1.24.24-.69-.07-1.4-.41-2-.74-.75-1.96-.43-2.83-.96-.62-.28-1.18-.72-1.67-1.08-.72-.09-1.46-.32-2.19-.18-.5.23-.46,1.42-1.23.77-.7-.43-.22-1.66.61-1.61.72,0,1.43.17,2.13.28.37.09.55.24.29-.19-.22-.47-.46-1.3-.97-1.39-.52.01-1.51-.04-1.42-.72.26,0,.51,0,.77,0h0ZM8.93,13.9s.07.06.1.07c.02,0,.04.02.07.02-.06-.03-.11-.06-.17-.09Z" fill="#fff" stroke-width="0"/><path id="path2418" d="M3.48,14.01c.45,0,.92-.41.69-.04-.06.45-.38,1.43-.04,1.8.43.45,1.06,1.08,1.59,1.41.89.55,1.86,1.36,2.73,1.93,1.12.74,1.93,1.03,3.08.45.33-.33.37-.89.35-1.32.05-.29-.04-.58.12-.76.54.04.55.57.62.96.1.58.17,1.25-.19,1.76-1.27.98-3.25-.09-4.33-.91-1.29-.98-2.52-1.92-3.89-2.83-.5-.33-.97-.87-.94-1.5.05-.27-.19-.89.2-.97h0Z" fill="#fff" stroke-width="0"/><path id="path2420" d="M9.26,18.04c-.11-.06-.23-.11-.33-.18-.07-.05.28.17.22.11-.1-.12-.26-.18-.38-.28-.37-.31-.68-.67-1-1.02-.38-.4-.59-.87-.77-1.37-.14-.42-.14-.87-.12-1.31,0-.49.07-.97.16-1.46.1-.54.4-.98.77-1.4.41-.42.98-.55,1.56-.6.55,0,1.09.03,1.64.06.09.03.34.14.26.1-1.29-.76-.63-.32-.4-.12.25.22.45.47.64.74.15.26.3.51.41.79.07.16.03.08.13.24.1.15.95.56.97.39.02-.13.02-.06-.01-.21-.12-.29-.26-.57-.43-.84-.6-.81-1.34-1.58-2.43-1.76-.53,0-1.06-.04-1.6,0-.62.07-1.17.25-1.59.72-.36.44-.64.94-.74,1.5-.06.5-.18.99-.12,1.5,0,.46,0,.93.15,1.37.19.51.39,1.01.78,1.42.86.93,1.48,1.53,2.72,2.08.11.05-.4-.41-.51-.47h0Z" fill="#fff" stroke-width="0"/><path id="path2422" d="M11.69,10.77c.38-.69.66-.76,1.52-.79.17,0,.34.02.51.04.13.03.26.07.39.1.17.04-.58-.6-.75-.64-.16-.04-.33-.09-.49-.13-.17,0-.34,0-.51.01-.96.14-1.05.24-1.39,1.03-.06.13.65.5.72.38h0Z" fill="#fff" stroke-width="0"/><path id="path2424" d="M6.75,13c-.25-.57-.45-1.15-.89-1.61-.48-.35-1.05-.71-1.67-.76-.39-.01-.76-.04-1.12.09-.48.11-.81.37-.9.84l.37.37s.07.04.08.04l.45.06c.26-.34.38-.6.85-.72.32-.1.66-.11,1-.1.13.02.26.05.39.09.05.02.2.09.16.06-.12-.08-.88-.52-.39-.22.51.42.73,1.03,1,1.59.05.11.73.37.68.26h0Z" fill="#fff" stroke-width="0"/><path id="path2426" d="M5.57,5.25c.19,0,.38.01.57.02.76.09,1.4.45,2.01.89.65.52.74,1.07.89,1.84.03.15-.82-.19-.84-.35-.13-.67-.28-1.19-.79-1.61-.16-.05-.31-.09-.47-.12-.36-.04-.73-.04-1.09,0-.33.04-.61.19-.85.41-.18.18-.36.37-.49.59-.03.11-.08.21-.13.32-.1.13.02.21,0,.3.21.17.4.38.52.61.07.13.22.61.27.73.23.58.25,1.18.24,1.8-.1.33.06.4-.33.41-.14,0-.61-.28-.71-.38-.22-.25-.1-.22-.07-.53.02-.58-.02-1.16-.21-1.71-.08-.22-.17-.49-.3-.7-.04-.06-.08-.11-.12-.16-.35-.03-.71.02-1.05.09-.48.1-.99.14-1.27.57-.28.55-.49,1.11-.44,1.73,0,.78.04,1.57.35,2.31.18.49.38.97.71,1.39.16.2.32.38.51.55.01,0,.03.03.05.04.58.05.96-.28,1.38-.71.11-.11.61.02.51.13-.47.54-.64,1.21-1.4,1.14-.82-.27-1.49-.8-1.98-1.47-.32-.43-.52-.93-.68-1.43C.04,11.2.02,10.39,0,9.6c-.05-.64.15-1.24.44-1.81.25-.5.79-.59,1.3-.72.44-.11.9-.18,1.35-.14.06.01.12.03.18.05.05-.05.14-.08.16-.22.04-.12.07-.24.13-.35.16-.21.33-.42.52-.61.26-.24.54-.42.9-.49.19-.04.38-.06.57-.06h0ZM2.18,14.19s.03.02.1.06c0,0,.02,0,.03,0-.04-.02-.09-.04-.12-.06Z" fill="#fff" stroke-width="0"/><path id="path2430" d="M32.17,17.33c.23-.61.49-1.24.27-1.88-.36-.67-.85-1.26-1.29-1.88-.33-.29-.42-.88-.77-1.14-.06-.04-.13-.08-.2-.11-.09-.05-.46-.21-.56-.2-.04,0-.09-.02-.12,0-.06.06.07.15.12.22.18.3.31.62.53.89.43.62.91,1.21,1.31,1.85.31.59.07,1.25-.12,1.84-.05.15.78.56.83.41h0Z" fill="#fff" stroke-width="0"/><path id="path2432" d="M26.54,17.51c-.56-.58-.85-1.25-1.04-2.01-.09-.45-.03-.84.27-1.2.37-.42.83-.57,1.39-.63.49-.02.96.03,1.44-.07.16-.03-.55-.54-.71-.57-.55-.09-1.1-.13-1.66-.06-.58.1-1.04.35-1.39.81-.25.45-.3.91-.13,1.4.29.89.56,1.32,1.21,2,.08.08.7.41.62.33h0Z" fill="#fff" stroke-width="0"/><path id="path2438" d="M20.37,2.03c.89.03,1.76.28,2.52.73,1.1.57,2.3,1.22,2.91,2.3.14-.53.71-.88,1.28-.83.56.05,1.11.29,1.48.7.1.08.43.41.09.2-.54-.28-1.24-.38-1.79-.08-.35.23-.56.71-.25,1.04.13.39.3.76.64,1.03.39.41.84.78,1.25,1.16.2.14.47.47.52.78.13.43.16.88.19,1.31-.37-.02-.9-.25-.81-.68-.06-.65-.31-1.34-.91-1.72-.46-.37-1.03-.59-1.57-.8-.74-.24-1.19-.02-1.98.17-.21.05-1.07.41-2,.85.72-.82,2.49-1.68,3.15-1.79.28-.09.71.18.85.16-.11-.46-.27-.94-.64-1.28-1.76-.87-4.34.87-6-.12-.48-.21,0-.71.38-.55,3.1-.65,6.25.72,3.69-1.04-.89-.54-1.44-.8-2.51-.72-.66-.08-1.28.11-1.88.35-.62.23-1.09.77-1.26,1.38.19.55.44,1.24.97,1.56.72.26.98,1.01,2.06,1.18-1.79.68-1.64.44-2.63-.97-.41-.52-.85-1.08-1.53-1.29-.55-.18-1.14-.19-1.69-.34-1.03-.1-2.11.18-2.93.77-.55.39-.9,1.09-.62,1.72.19.82.59,1.09,1.13,1.74.2.2.88.64.21.27-.04-.02-.07-.03-.09-.04.04.04.61.35.65.25.7.28,1.57-.09,2.18.33.48.37-.61.13-.82.19-.89.02-1.74-.31-2.41-.86-.7-.49-1.03-.79-1.42-1.51-.23-.63-.56-1.36-.15-1.99.59-1.01,1.85-1.42,2.99-1.55.65-.07,1.26.19,1.88.31.47-.16,1.12-.48,1-1.05.13-.55-.84-.92-.79-1.22.64.04,1.19.67,1.56.89.43-.49,1.1-.68,1.69-.9.34-.08.69-.05,1.03-.06.13,0,.26,0,.38,0h0Z" fill="#fff" stroke-width="0"/><path id="path2458" d="M11.02,7.8c.18.5,1.22,1.28.1,1.91-.24.13-.39.2-.59.19-.35-.01-.69-.03-1.04-.04-.36.02-.7,0-1.06-.07-.37-.05-.71-.16-1.08-.19-.02.06-.64-.2-.56-.16,1.29.72.73.43.46.14-.21-.25-.22-.56-.2-.86.03-.18,0-.36.13-.5.15-.15.09-.06.15-.29.04-.16-.66-.54-.81-.47-.23.11-.13.04-.3.2-.17.21-.14.36-.14.62-.01.34-.03.67.16.98.47.61,1.17.92,1.93,1.02.36.06.72.16,1.08.2.35.06.71.04,1.07.05.35,0,.69.02,1.04.02.29-.03.54-.13.5-.45-.07-.57,1.1-.23.86-.76-.06-.12-1.74-1.66-1.7-1.53Z" fill="#fff" stroke-width="0"/><path id="path2462" d="M32.39,24.9c.65.37,1.06,1.06,1.82,1.25.55.17,1.19.08,1.62-.3.34-.26.61-.6.74-.99.13-.39.27-.79.26-1.21.02-.5-.06-1-.23-1.46-.12-.45-.69-1.56-.62-2.03.02-.34.19-.44.08-.74-.12-.29-.53.19-.79.11-.15-.04-.47-.07-.53-.11.28.06.23.42.4.6.15.25.03.54.08.8.06.38.19.76.32,1.12.14.35.18.74.18,1.12,0,.34-.04.67-.15.99-.04.43-.29.83-.63,1.11-.21.28-.63.31-.94.17-.38-.15-.72-.37-1.07-.56.15.12.44.23.53.34-.37-.06-.72-.18-1.09-.23h.01Z" fill="#fff" stroke-width="0"/><path id="path2464" d="M34.52,15.7c.14,0,.28.03.43.08.78.29,1.54.67,2.19,1.18.39.3.77.62.96,1.08.15.36.25.72.21,1.12,0,.39,0,.79-.1,1.18-.06.25-.08.51-.09.77-.02.39.09.78.19,1.16.14.53.25,1.07.04,1.6-.04.07-.08.16-.14.22-.35.36-1.26.69-1.65.58-.15-.04-.17-1.34-.01-1.31.21.75,1.23,1.09,1.26.16.02-.52-.32-1.13-.46-1.63-.14-.4-.22-.81-.25-1.23-.02-.28.02-.55.09-.82.09-.37.09-.75.09-1.13.03-.39-.11-.72-.27-1.07-.2-.42-.58-.69-.96-.97-.31-.15-.61-.33-.96-.31-.06,0-.12,0-.18-.01-.18-.01-.9-.25-.86-.42.01-.04.02-.09.03-.13.14-.06.28-.08.42-.08Z" fill="#fff" stroke-width="0"/><path id="path2466" d="M37.87,17.84c.49-.22.8-.75,1.03-1.28.08-.19.21-.69.23-.77.09-.45-.12-.7-.37-1.1-.61-.7-1.56-1-2.37-1.45,1.84,1.04-.32-.35-.58-.51-.11-.07-.81-.32-.73-.22.58.7,1.4,1.11,2.19,1.56.11.06.22.12.33.18.78.42-.16-.1-.5-.29-.12-.06.24.13.34.22.04.03.08.07.12.11.55.48.92,1.18.36,1.83-.3.34-.95.63-1.41.49-.18-.06,1.18,1.32,1.35,1.24h0Z" fill="#fff" stroke-width="0"/><path id="path2468" d="M31.7,14.27c.63-.49,1.34-.78,2.16-.74.66.18,1.26.51,1.86.81l-.02-.14s-.12-.11-.15-.14c-.21-.15-.41-.3-.62-.45-.6-.32-1.22-.66-1.91-.74-.8.04-1.5.4-2.09.91-.12.11.64.59.77.49h0Z" fill="#fff" stroke-width="0"/><path id="path2470" d="M30.32,11.43c.45-.47.69-.66,1.33-.89.36-.09.75-.09,1.11,0,.22.04.44.12.64.22.09.04.34.18.26.13-.83-.45-.88-.49-.47-.24.65.43,1.29.93,2.03.57.23-.23.34-.54.39-.85.06-.89-1.48-1.29-2.05-1.54-.05-.02.19.15.21.19.15.31.85.39.79.85-.03.24-.09.53-.28.71-.17.07-.31.08-.5.05-.05-.01-.2-.07-.15-.04.28.18,1.19.66.62.36-.7-.47-1.47-.95-2.32-1.11-.38-.04-.76-.02-1.11.13-.56.29-.83.57-1.25,1.02-.11.11.64.55.74.44h0Z" fill="#fff" stroke-width="0"/><path id="path2472" d="M31.18,7.09c.24,0,.47.03.7.07.77.21,1.77.6,2.48.97.95.49,1.49,1.24,1.89,2.12.05.11-.91-.2-.96-.32-.14-.79-.51-1.24-1.16-1.65-.47-.3-1.04-.45-1.6-.58-.41-.07-.83-.05-1.24.03-.29.11-.5.29-.55.59-.02.27.08.31.28.48,0,0,0,0,.01,0,.01,0,0,0,.01.01.03.02.06.05.1.07.01,0,.04.01.04.02-.21.52-.72.1-1.07-.29-.39-.01-.75.2-1.09.38-.52.32-.29.69-.11,1.16.06.17-.94-.21-1.01-.38-.25-.58-.42-1.01.19-1.41.42-.2.88-.45,1.36-.42.11.01.22.04.32.08,0-.05,0-.11.03-.17.1-.34.36-.58.7-.72.23-.04.47-.06.7-.05h0Z" fill="#fff" stroke-width="0"/><path id="path2476" d="M25.75,1.39c.37.03.71.23,1.19.52.35.22.62.53.92.81.4.39.75.83,1.12,1.25.06.05.08.07.11.1.01,0,.03.01.04.01.07.01.14.01.21.02.04,0,.08.01.12.02.02,0,.04,0,.07,0,.01,0,.03,0,.04.01,0,0,0,0,0,0,.75.14,1.37.4,2.02.89.7.59,1,1.55.99,2.45,0,.15-.73-.07-.79-.36-.2-2.59-1.82-2.55-2.93-2.82-.32-.08-.64-.2-.96-.31-.09-.03-.5-.4-.41-.37.27.1.56.15.81.28-.08-.07-.15-.14-.22-.22-.36-.44-.72-.86-1.13-1.25-.16-.14-.3-.29-.46-.42-.04,0-.08-.01-.12-.01-.19,0-.36.04-.52.12-.55.23-.75.62-.91.82.01.04.02.07.01.09-.25.46-.12.23-.38.71-.06.11-.64-.19-.63-.31.05-.6.1-.68.33-1.16,0-.04,0-.09,0-.12.12-.3.41-.5.72-.6.29-.12.53-.17.75-.15h0Z" fill="#fff" stroke-width="0"/><path id="path2486" d="M7.85,1.79c.26,0,.52.04.67.2.14.11.43.43.13.47-.09-.02-.18-.04-.25-.06.03.02.05.03.09.05-.15-.1-.42-.08-.61-.07-.4.03-.71.31-.92.62-.19.3-.51.49-.81.69-.26.11-.47.57-.56.77-.31.42-.32.71-.36,1.22-.11.05-.3-.07-.41-.13-.28-.15-.12-.49-.12-.72.11-.5.28-1,.57-1.42.14-.23.35-.41.56-.59.21-.17.43-.33.6-.55.28-.34.47-.4.98-.44.14-.02.3-.03.46-.03h0Z" fill="#fff" stroke-width="0"/><path id="path2488" d="M37.59,13.91c.23-.62.38-1.39.26-2.04-.04-.37-.21-.66-.47-.93-.47-.4-1.05-.68-1.61-.95-.26-.08-.64-.2-.89-.06-.13.08.52.49.67.52.32.07.65.04.95.2.35.17.32.16-.56-.32-.05-.03.09.06.14.09.14.08.3.14.41.25.3.25.54.52.63.9.05.17.1.3.12.48.04.42-.14,1.14-.26,1.53-.04.11.58.43.62.32h0Z" fill="#fff" stroke-width="0"/><path id="path2640" d="M31.08,7.33c-.36-.4-.85-.72-1.38-.89-.3-.09-.52.07-.74.25-.05.05-.11.11-.2.08-.02,0-.07-.04-.05-.03.14.07.28.14.43.22-.13-.14-.24-.31-.29-.5,0,0,0-.03,0-.02-.11.08.23.05.24.05.03-.02.03-.07.04-.1.02-.04-.18-.16-.22-.17-.09-.03-.18-.06-.27-.08-.04,0-.08,0-.12,0-.08,0-.24-.01-.2.11.07.19.16.38.28.54.31.18.59.51.87.2.19-.16.39-.28.65-.2.23.08.23.09-.11-.11-.06-.03.12.07.18.11.12.08.23.16.33.25.05.04.09.09.14.14.06.06.5.21.45.15h0Z" fill="#fff" stroke-width="0"/><path id="path2642" d="M28.86,16.66c.08.1-.52-.23-.39-.16.07.04.14.1.22.11.06,0-.09-.06-.13-.1-.1-.1-.11-.12-.17-.24-.08-.17-.13-.34-.08-.52.13-.23.21-.05.33-.07.02,0,0-.04,0-.06,0,0-.01-.01-.01-.01-.25-.18-.64-.56-.82-.1-.05.2.01.41.1.59.02.05.04.1.07.14.23.37.82.6,1.24.72.08.02-.4-.36-.35-.3h0Z" fill="#fff" stroke-width="0"/><path id="path2644" d="M34.64,17.29c.32.01.68.63.89.8-.24,0-.45-.13-.64-.27-.13.11-.35.17-.54.22-.18-.24-.17-.34-.06-.62.03-.02.31-.13.35-.13Z" fill="#fff" stroke-width="0"/><path id="path2648" d="M32.08,8.53c.17.14.31.31.46.47.06.06.48.23.45.15-.08-.21-.17-.29-.34-.45-.08-.07-.65-.24-.57-.17h0Z" fill="#fff" stroke-width="0"/></g></svg>