<?xml version="1.0" encoding="UTF-8"?><svg id="Layer_1" xmlns="http://www.w3.org/2000/svg" viewBox="0 0 36 36"><path d="M1,22h34v5H1v-5Z" fill="#c1694f" stroke-width="0"/><path d="M36,29c0,.55-.45,1-1,1s-1-.45-1-1v-14c0-.55.45-1,1-1s1,.45,1,1v14ZM0,29c0,.55.45,1,1,1s1-.45,1-1V7c0-.55-.45-1-1-1s-1,.45-1,1v22Z" fill="#c1694f" stroke-width="0"/><path d="M32,17H4c-1.1,0-2,.9-2,2v4h32v-4c0-1.1-.9-2-2-2Z" fill="#269" stroke-width="0"/><path d="M32,17H4c-1.1,0-2,.9-2,2v4h32v-4c0-1.1-.9-2-2-2Z" fill="#5c913b" stroke-width="0"/><path d="M2.13,13.94c-.26,1.07,1.49,2.42,3.9,3.01,2.41.59,4.58.19,4.85-.88.26-1.07-1.48-2.42-3.9-3.01-2.41-.59-4.59-.19-4.85.88Z" fill="#06c" stroke-width="0"/></svg>