<?xml version="1.0" encoding="UTF-8"?><svg id="Layer_1" xmlns="http://www.w3.org/2000/svg" xmlns:xlink="http://www.w3.org/1999/xlink" viewBox="0 0 32 32"><defs><radialGradient id="radial-gradient" cx="-280.12" cy="599.95" fx="-280.12" fy="599.95" r="1" gradientTransform="translate(-1506.03 -701.83) rotate(139.93) scale(2.57 -2.55)" gradientUnits="userSpaceOnUse"><stop offset="0" stop-color="#8f7ebf"/><stop offset=".68" stop-color="#755caf"/><stop offset="1" stop-color="#8672b9" stop-opacity="0"/></radialGradient><radialGradient id="radial-gradient-2" cx="10.38" cy="741.19" fx="10.38" fy="741.19" r="1" gradientTransform="translate(-750.66 -145.89) rotate(100.01) scale(1.08 -1.07)" gradientUnits="userSpaceOnUse"><stop offset="0" stop-color="#8978b8"/><stop offset="1" stop-color="#8a79b9" stop-opacity="0"/></radialGradient><radialGradient id="radial-gradient-3" cx="-501.03" cy="767.33" fx="-501.03" fy="767.33" r="1" gradientTransform="translate(-644.66 -810.24) rotate(173.83) scale(1.16 -1.15)" gradientUnits="userSpaceOnUse"><stop offset="0" stop-color="#9280c3"/><stop offset="1" stop-color="#9483c4" stop-opacity="0"/></radialGradient><radialGradient id="radial-gradient-4" cx="31.85" cy="33.36" fx="31.85" fy="33.36" r="19.1" gradientTransform="translate(0 34) scale(1 -1)" gradientUnits="userSpaceOnUse"><stop offset="0" stop-color="#8c65c9"/><stop offset="1" stop-color="#625996"/></radialGradient><radialGradient id="radial-gradient-5" cx="-287.87" cy="458.03" fx="-287.87" fy="458.03" r="1" gradientTransform="translate(-5383.14 -1865.33) rotate(141.23) scale(10.58 -10.58)" gradientUnits="userSpaceOnUse"><stop offset=".1" stop-color="#a38dd9"/><stop offset=".59" stop-color="#7e65b8"/><stop offset="1" stop-color="#4d348e"/></radialGradient><radialGradient id="radial-gradient-6" cx="-283.93" cy="452.92" fx="-283.93" fy="452.92" r="1" gradientTransform="translate(-6145.01 -1453.17) rotate(135.43) scale(11.84 -11.84)" gradientUnits="userSpaceOnUse"><stop offset="0" stop-color="#a38dd9"/><stop offset="1" stop-color="#714bb3"/></radialGradient><radialGradient id="radial-gradient-7" cx="-243.39" cy="429.4" fx="-243.39" fy="429.4" r="1" gradientTransform="translate(-3288.98 3573.05) rotate(72.45) scale(9.83 -9.83)" gradientUnits="userSpaceOnUse"><stop offset=".12" stop-color="#532ea8"/><stop offset=".5" stop-color="#573a9c" stop-opacity=".58"/><stop offset=".63" stop-color="#583b9c" stop-opacity=".25"/><stop offset=".96" stop-color="#583b9c" stop-opacity="0"/></radialGradient><radialGradient id="radial-gradient-8" cx="-297.47" cy="310.78" fx="-297.47" fy="310.78" r="1" gradientTransform="translate(1999.25 155.88) rotate(-42.06) scale(4.65 -4.65)" gradientUnits="userSpaceOnUse"><stop offset="0" stop-color="#716380"/><stop offset=".63" stop-color="#4b2e68"/><stop offset="1" stop-color="#351a50"/></radialGradient><radialGradient id="radial-gradient-9" cx="29.52" cy="21.56" fx="29.52" fy="21.56" r="25.39" gradientTransform="translate(0 34) scale(1 -1)" gradientUnits="userSpaceOnUse"><stop offset="0" stop-color="#8c65c9"/><stop offset="1" stop-color="#625996"/></radialGradient><radialGradient id="radial-gradient-10" cx="-283.63" cy="446.47" fx="-283.63" fy="446.47" r="1" gradientTransform="translate(-7272.38 -1418.39) rotate(133.56) scale(14.06 -14.06)" gradientUnits="userSpaceOnUse"><stop offset="0" stop-color="#9e87d8"/><stop offset=".47" stop-color="#8d65da"/><stop offset=".7" stop-color="#7f58ca"/><stop offset="1" stop-color="#7b48ca"/></radialGradient><radialGradient id="radial-gradient-11" cx="-308.85" cy="417.82" fx="-308.85" fy="417.82" r="1" gradientTransform="translate(561.54 -12083.87) rotate(-140.98) scale(23.33 -23.33)" gradientUnits="userSpaceOnUse"><stop offset=".27" stop-color="#000" stop-opacity="0"/><stop offset=".4" stop-color="#715ba7" stop-opacity="0"/><stop offset=".61" stop-color="#7862ad"/></radialGradient><radialGradient id="radial-gradient-12" cx="-199.95" cy="296.26" fx="-199.95" fy="296.26" r="1" gradientTransform="translate(672.12 982.26) rotate(-1.13) scale(3.16 -3.29)" gradientUnits="userSpaceOnUse"><stop offset="0" stop-color="#b382f3"/><stop offset="1" stop-color="#af7ff0"/></radialGradient><radialGradient id="radial-gradient-13" cx="-294.7" cy="344.19" fx="-294.7" fy="344.19" r="1" gradientTransform="translate(3120.56 421.5) rotate(-42.06) scale(6.9 -6.9)" gradientUnits="userSpaceOnUse"><stop offset="0" stop-color="#716380"/><stop offset=".63" stop-color="#4b2e68"/><stop offset="1" stop-color="#351a50"/></radialGradient><linearGradient id="linear-gradient" x1="21.9" y1="20.66" x2="26.4" y2="16.08" gradientTransform="translate(0 34) scale(1 -1)" gradientUnits="userSpaceOnUse"><stop offset="0" stop-color="#b993f4" stop-opacity="0"/><stop offset=".17" stop-color="#c7a7f9"/><stop offset=".41" stop-color="#ae97f6" stop-opacity="0"/><stop offset=".72" stop-color="#cdaeff"/><stop offset="1" stop-color="#c19cfa" stop-opacity="0"/></linearGradient><linearGradient id="linear-gradient-2" x1="9.41" y1="28.52" x2="10.86" y2="24.15" gradientTransform="translate(0 34) scale(1 -1)" gradientUnits="userSpaceOnUse"><stop offset="0" stop-color="#b993f4" stop-opacity="0"/><stop offset=".17" stop-color="#c7a7f9"/><stop offset=".41" stop-color="#ae97f6" stop-opacity="0"/><stop offset=".72" stop-color="#cdaeff"/><stop offset="1" stop-color="#c19cfa" stop-opacity="0"/></linearGradient></defs><path d="M26.39,2.06c-.55.01-.82.45-.85.67l2.22,1.67,1.54,2.1c.29-.11.57-.38.62-.64.08-.52-.06-.75-.26-.95s-.36-.25-.88-.25c.44-.25.72-.71.6-1.27,0,0-.12-.56-.69-.72-.49-.15-1.02,0-1.34.59.02-.27-.05-.63-.11-.71-.06-.08-.3-.5-.85-.49Z" fill="#7a63b4" stroke-width="0"/><path d="M26.39,2.06c-.55.01-.82.45-.85.67l2.22,1.67,1.54,2.1c.29-.11.57-.38.62-.64.08-.52-.06-.75-.26-.95s-.36-.25-.88-.25c.44-.25.72-.71.6-1.27,0,0-.12-.56-.69-.72-.49-.15-1.02,0-1.34.59.02-.27-.05-.63-.11-.71-.06-.08-.3-.5-.85-.49Z" fill="url(#radial-gradient)" stroke-width="0"/><path d="M26.39,2.06c-.55.01-.82.45-.85.67l2.22,1.67,1.54,2.1c.29-.11.57-.38.62-.64.08-.52-.06-.75-.26-.95s-.36-.25-.88-.25c.44-.25.72-.71.6-1.27,0,0-.12-.56-.69-.72-.49-.15-1.02,0-1.34.59.02-.27-.05-.63-.11-.71-.06-.08-.3-.5-.85-.49Z" fill="url(#radial-gradient-2)" stroke-width="0"/><path d="M26.39,2.06c-.55.01-.82.45-.85.67l2.22,1.67,1.54,2.1c.29-.11.57-.38.62-.64.08-.52-.06-.75-.26-.95s-.36-.25-.88-.25c.44-.25.72-.71.6-1.27,0,0-.12-.56-.69-.72-.49-.15-1.02,0-1.34.59.02-.27-.05-.63-.11-.71-.06-.08-.3-.5-.85-.49Z" fill="url(#radial-gradient-3)" stroke-width="0"/><path d="M22.65,16.68c4.05,0,7.34-3.29,7.34-7.34s-3.29-7.34-7.34-7.34-7.34,3.29-7.34,7.34,3.29,7.34,7.34,7.34Z" fill="url(#radial-gradient-4)" stroke-width="0"/><path d="M22.65,16.68c4.05,0,7.34-3.29,7.34-7.34s-3.29-7.34-7.34-7.34-7.34,3.29-7.34,7.34,3.29,7.34,7.34,7.34Z" fill="url(#radial-gradient-5)" stroke-width="0"/><path d="M9.98,19.14c4.41,0,7.98-3.57,7.98-7.98s-3.57-7.98-7.98-7.98-7.98,3.57-7.98,7.98,3.57,7.98,7.98,7.98Z" fill="url(#radial-gradient-6)" stroke-width="0"/><path d="M9.98,19.14c4.41,0,7.98-3.57,7.98-7.98s-3.57-7.98-7.98-7.98-7.98,3.57-7.98,7.98,3.57,7.98,7.98,7.98Z" fill="url(#radial-gradient-7)" stroke-width="0"/><path d="M10.3,7.05c-.23-.41-.13-1.44-1.19-1.93-1.06-.48-1.6.14-2.06.26-.46.12-1.51-.28-2.22.57s-.34,1.52-.39,2.12c-.06.6-.57,1.09-.19,2.03.39.95,1.53.94,1.99,1.15.46.22,1.19,1.12,2.06.82.87-.3,1.22-1.19,1.53-1.48.31-.3,1.56-.7,1.44-1.93-.13-1.23-.73-1.22-.96-1.62Z" fill="#a97de4" stroke-width="0"/><path d="M7.28,10.89c1.34,0,2.43-1.09,2.43-2.43s-1.09-2.43-2.43-2.43-2.43,1.09-2.43,2.43,1.09,2.43,2.43,2.43Z" fill="url(#radial-gradient-8)" stroke-width="0"/><path d="M18.69,30c4.95,0,8.97-4.02,8.97-8.97s-4.02-8.97-8.97-8.97-8.97,4.02-8.97,8.97,4.02,8.97,8.97,8.97Z" fill="url(#radial-gradient-9)" stroke-width="0"/><path d="M18.69,30c4.95,0,8.97-4.02,8.97-8.97s-4.02-8.97-8.97-8.97-8.97,4.02-8.97,8.97,4.02,8.97,8.97,8.97Z" fill="url(#radial-gradient-10)" stroke-width="0"/><path d="M18.69,30c4.95,0,8.97-4.02,8.97-8.97s-4.02-8.97-8.97-8.97-8.97,4.02-8.97,8.97,4.02,8.97,8.97,8.97Z" fill="url(#radial-gradient-11)" stroke-width="0"/><path d="M23.74,14.84c-.56-.4-1.09-1.86-2.83-1.85-1.74.02-2.07,1.19-2.62,1.65s-2.21.58-2.64,2.18c-.42,1.6.51,2.27.81,3.11.3.84-.09,1.83,1.04,2.86,1.12,1.04,2.65.3,3.41.3.76,0,2.32.76,3.3-.19.98-.95.9-2.37,1.12-2.97.23-.6,1.67-1.93.72-3.51s-1.76-1.18-2.32-1.58Z" fill="url(#radial-gradient-12)" stroke-width="0"/><path d="M20.97,22.06c1.99,0,3.61-1.62,3.61-3.61s-1.62-3.61-3.61-3.61-3.61,1.62-3.61,3.61,1.62,3.61,3.61,3.61Z" fill="url(#radial-gradient-13)" stroke-width="0"/><path d="M21.48,13.23c.62.13,1.64,1.22,1.78,1.48s.41.49.59.49c.22,0,1.44.15,2.04,1.28.19.37.39,1.34.09,2.05" fill="none" stroke="url(#linear-gradient)" stroke-linecap="round" stroke-width=".2"/><path d="M9.3,5.23c.35.28.63,1.32.63,1.54,0,.22.1.45.21.51.14.07.86.56.86,1.48,0,.3-.2,1-.63,1.36" fill="none" stroke="url(#linear-gradient-2)" stroke-linecap="round" stroke-width=".2"/></svg>