<?xml version="1.0" encoding="UTF-8"?><svg id="Layer_1" xmlns="http://www.w3.org/2000/svg" viewBox="0 0 565.71 696.09"><path d="M171.89,240.69c-3.29,4.92-7.33,8.53-12.12,10.85-4.79,2.31-10.68,3.47-17.67,3.47-23.78,0-35.67-13.33-35.67-40,0-13.65,3.01-23.73,9.04-30.24s14.72-9.76,26.07-9.76c7.51,0,13.63,1.27,18.36,3.8,4.73,2.53,8.34,5.85,10.82,9.96l-12.15,9.43c-1.78-2.66-3.4-4.59-4.88-5.77s-3.16-2.07-5.05-2.66-4.14-.89-6.77-.89c-6.29,0-11.08,2.01-14.37,6.02s-4.94,10.72-4.94,20.11c0,8.77,1.54,15.31,4.63,19.64s8.02,6.49,14.79,6.49c4.55,0,8.09-.87,10.62-2.61,2.53-1.74,4.84-4.05,6.91-6.93l12.37,9.1h.01Z" stroke-width="0"/><path d="M452.11,255l-29.13-57.17v57.17h-15.95v-80h21.16l27.11,53.93v-53.93h16.01v80h-19.2Z" stroke-width="0"/><path d="M471.33,520.57c0,12.25-2.49,21.05-7.46,26.4s-13.21,8.03-24.71,8.03-19.59-2.65-24.62-7.94c-5.03-5.3-7.55-14.12-7.55-26.49v-45.57h15.94v44.44c0,5.31.51,9.5,1.53,12.55s2.64,5.3,4.86,6.73,5.47,2.15,9.72,2.15c6.07,0,10.31-1.61,12.72-4.83s3.62-8.68,3.62-16.37v-44.66h15.94v45.57h0Z" stroke-width="0"/><path d="M300.63,555l-22.14-33.41-4.86,5.61v27.8h-16.3v-80h16.3v31.21l26.18-31.21h19.02l-29.83,34.45,31.97,45.55h-20.35.01Z" stroke-width="0"/><path d="M252.05,255l26.47-80h21.21l26.53,80h-16.71l-5.32-16.24h-30.81l-5.2,16.24h-16.18,0ZM278.06,224.48h21.56l-10.75-33.06-10.81,33.06Z" stroke-width="0"/><line x1="214.16" y1="140" x2="214.16" y2="590" fill="none" stroke="#231f20" stroke-miterlimit="10" stroke-width="2"/><line x1="364.16" y1="140" x2="364.16" y2="590" fill="none" stroke="#231f20" stroke-miterlimit="10" stroke-width="2"/><line x1="514.16" y1="290" x2="64.16" y2="290" fill="none" stroke="#231f20" stroke-miterlimit="10" stroke-width="2"/><line x1="514.16" y1="440" x2="64.16" y2="440" fill="none" stroke="#231f20" stroke-miterlimit="10" stroke-width="2"/><path d="M172.23,515c0,13.35-2.82,23.36-8.46,30.01s-13.84,9.99-24.6,9.99c-11.35,0-19.7-3.5-25.05-10.51-5.34-7.01-8.02-16.84-8.02-29.49s2.67-22.57,8.02-29.54c5.34-6.97,13.69-10.46,25.05-10.46s19.8,3.49,25.1,10.46c5.31,6.97,7.96,16.82,7.96,29.54ZM156.09,515c0-9.1-1.29-15.73-3.86-19.89s-6.93-6.24-13.07-6.24-10.49,2.08-13.07,6.24c-2.57,4.16-3.86,10.79-3.86,19.89s1.3,15.73,3.91,19.89,6.94,6.24,13.01,6.24,10.49-2.08,13.07-6.24,3.86-10.79,3.86-19.89h0Z" fill="#231f20" stroke-width="0"/><path d="M165.82,340.23c3.27,5.13,2.66,12.31-2.55,17.79-1.35-1.68-2.86-3.23-4.51-4.61,3.83-4.27,2.59-8.2,1.01-10.25-1.59-2.05-6.37-3.03-8.8-1.52l-1.01-6.61c5.78-2.54,13.63,1.71,15.87,5.21h0Z" fill="#fbb016" isolation="isolate" opacity=".1" stroke-width="0"/><polygon points="127.23 341.65 151.02 341.65 149.35 330.21 129.05 330.21 127.23 341.65" fill="#fff" stroke-width="0"/><path d="M291.07,377.79c3.73.43,7.07.82,10.79,1.24l-.95-3.12c-.14-.55.05-1.13.49-1.48l10.82-8.81-2.24-1.05c-.98-.35-.72-.91-.36-2.24l1.65-6.02-6.28,1.33c-.61.09-1.02-.3-1.11-.67l-.81-2.83-4.97,5.58c-.71.9-2.14.9-1.69-1.17l2.12-11.3-2.85,1.48c-.8.45-1.6.52-2.04-.28l-3.93-7.36h0l-3.93,7.36c-.45.8-1.24.73-2.05.28l-2.85-1.48,2.12,11.3c.45,2.06-.98,2.06-1.69,1.17l-4.97-5.57-.81,2.83c-.09.37-.5.76-1.11.67l-6.28-1.33,1.65,6.02c.35,1.34.63,1.89-.36,2.24l-2.24,1.05,10.82,8.81c.43.33.64.93.49,1.48l-.95,3.12,10.79-1.24c.33,0,.55.18.55.56l-.67,11.52h2.97l-.66-11.52c0-.38.22-.56.55-.56h-.01Z" fill="#d32d27" stroke-width="0"/><path d="M245.63,324.58c-6.87,0-12.44,5.57-12.44,12.44v55.97c0,6.87,5.57,12.44,12.44,12.44h18.66v-80.84h-18.66ZM332.69,324.58h-18.66v80.84h18.66c6.87,0,12.44-5.57,12.44-12.44v-55.97c0-6.87-5.57-12.44-12.44-12.44h0Z" fill="#d32d27" stroke-width="0"/><path d="M264.28,324.58h49.75v80.84h-49.75v-80.84h0Z" fill="#edeced" stroke-width="0"/><path d="M291.07,377.79c3.73.43,7.07.82,10.79,1.24l-.95-3.12c-.14-.55.05-1.13.49-1.48l10.82-8.81-2.24-1.05c-.98-.35-.72-.91-.36-2.24l1.65-6.02-6.28,1.33c-.61.09-1.02-.3-1.11-.67l-.81-2.83-4.97,5.58c-.71.9-2.14.9-1.69-1.17l2.12-11.3-2.85,1.48c-.8.45-1.6.52-2.04-.28l-3.93-7.36h0l-3.93,7.36c-.45.8-1.24.73-2.05.28l-2.85-1.48,2.12,11.3c.45,2.06-.98,2.06-1.69,1.17l-4.97-5.57-.81,2.83c-.09.37-.5.76-1.11.67l-6.28-1.33,1.65,6.02c.35,1.34.63,1.89-.36,2.24l-2.24,1.05,10.82,8.81c.43.33.64.93.49,1.48l-.95,3.12,10.79-1.24c.33,0,.55.18.55.56l-.67,11.52h2.97l-.66-11.52c0-.38.22-.56.55-.56h-.01Z" fill="#d32d27" stroke-width="0"/><rect x="82.06" y="632.68" width="47.93" height="47.56" fill="#e92628" stroke-width="0"/><rect x="134.46" y="632.68" width="47.93" height="47.56" fill="#e92628" stroke-width="0"/><rect x="186.85" y="632.68" width="47.93" height="47.56" fill="#e92628" stroke-width="0"/><rect x="239.25" y="632.68" width="47.93" height="47.56" fill="#e92628" stroke-width="0"/><rect x="292.22" y="632.68" width="47.93" height="47.56" fill="#e92628" stroke-width="0"/><rect x="344.62" y="632.68" width="47.93" height="47.56" fill="#e92628" stroke-width="0"/><rect x="397.01" y="632.68" width="47.93" height="47.56" fill="#e92628" stroke-width="0"/><rect x="449.42" y="632.68" width="47.93" height="47.56" fill="#e92628" stroke-width="0"/><path d="M274.84,658.71c0,4.5-.91,7.74-2.74,9.71s-4.86,2.95-9.09,2.95-7.2-.97-9.05-2.92-2.78-5.19-2.78-9.74v-16.76h5.86v16.34c0,1.95.19,3.49.56,4.62s.97,1.95,1.79,2.47,2.01.79,3.58.79c2.23,0,3.79-.59,4.68-1.78s1.33-3.19,1.33-6.02v-16.43h5.86v16.76h0Z" fill="#fff" stroke-width="0"/><path d="M118.22,666.04c-1.23,1.83-2.73,3.18-4.52,4.04s-3.98,1.29-6.59,1.29c-8.87,0-13.3-4.97-13.3-14.91,0-5.09,1.12-8.85,3.37-11.27s5.49-3.64,9.72-3.64c2.8,0,5.08.47,6.85,1.42s3.11,2.18,4.03,3.71l-4.53,3.52c-.66-.99-1.27-1.71-1.82-2.15s-1.18-.77-1.88-.99-1.54-.33-2.52-.33c-2.34,0-4.13.75-5.36,2.24s-1.84,4-1.84,7.5c0,3.27.58,5.71,1.73,7.32s2.99,2.42,5.51,2.42c1.7,0,3.02-.32,3.96-.97s1.8-1.51,2.57-2.59l4.61,3.39h0Z" fill="#fff" stroke-width="0"/><path d="M328.39,666.04c-1.23,1.83-2.73,3.18-4.52,4.04s-3.98,1.29-6.59,1.29c-8.87,0-13.3-4.97-13.3-14.91,0-5.09,1.12-8.85,3.37-11.27s5.49-3.64,9.72-3.64c2.8,0,5.08.47,6.85,1.42s3.11,2.18,4.03,3.71l-4.53,3.52c-.66-.99-1.27-1.71-1.82-2.15s-1.18-.77-1.88-.99-1.54-.33-2.52-.33c-2.34,0-4.13.75-5.36,2.24s-1.84,4-1.84,7.5c0,3.27.58,5.71,1.73,7.32s2.99,2.42,5.51,2.42c1.7,0,3.02-.32,3.96-.97s1.8-1.51,2.57-2.59l4.61,3.39h0Z" fill="#fff" stroke-width="0"/><path d="M145.27,670.64l9.38-28.35h7.52l9.4,28.35h-5.92l-1.88-5.76h-10.92l-1.84,5.76h-5.74ZM154.49,659.82h7.64l-3.81-11.72-3.83,11.72Z" fill="#fff" stroke-width="0"/><path d="M215.4,670.63l-10.32-20.24v20.24h-5.65v-28.33h7.49l9.6,19.1v-19.1h5.67v28.33h-6.79Z" fill="#fff" stroke-width="0"/><path d="M274.84,658.71c0,4.5-.91,7.74-2.74,9.71s-4.86,2.95-9.09,2.95-7.2-.97-9.05-2.92-2.78-5.19-2.78-9.74v-16.76h5.86v16.34c0,1.95.19,3.49.56,4.62s.97,1.95,1.79,2.47,2.01.79,3.58.79c2.23,0,3.79-.59,4.68-1.78s1.33-3.19,1.33-6.02v-16.43h5.86v16.76h0Z" fill="#fff" stroke-width="0"/><path d="M464.18,670.62v-28.32h18.39v5.09h-12.62v6.04h10.64v5.11h-10.64v6.79h12.62v5.28h-18.39,0Z" fill="#fff" stroke-width="0"/><path d="M372.65,670.61l-7.83-11.82-1.72,1.98v9.83h-5.76v-28.29h5.76v11.04l9.26-11.04h6.73l-10.55,12.18,11.31,16.11h-7.2Z" fill="#fff" stroke-width="0"/><path d="M412.14,670.63v-28.33h5.77v23.05h11.91v5.28h-17.68Z" fill="#fff" stroke-width="0"/><path d="M288.07,613.24c0,1.81-.37,3.22-1.11,4.24s-1.78,1.53-3.11,1.53c-.57,0-1.13-.12-1.68-.35s-1.02-.52-1.42-.85v.88h-1.76v-15.24h1.76v5.58c.4-.39.89-.72,1.45-.98s1.17-.4,1.82-.4c1.32,0,2.33.48,3.01,1.45s1.03,2.35,1.03,4.15h0ZM286.25,613.28c0-1.43-.22-2.47-.66-3.11s-1.07-.96-1.9-.96c-.55,0-1.07.14-1.59.42s-.96.6-1.35.96v5.68c.39.33.84.6,1.35.82s1.01.33,1.5.33c.79,0,1.43-.33,1.91-1s.73-1.72.73-3.14h0Z" stroke-width="0"/><path d="M289.56,620.96c.44.2.96.3,1.55.3.83,0,1.53-.75,2.1-2.24l.36-.92-3.92-10.15h1.9l2.96,7.86,2.98-7.86h1.84l-4.59,11.56c-.48,1.18-1,2.01-1.56,2.5s-1.27.73-2.16.73c-.32,0-.66-.03-1.02-.09s-.66-.13-.88-.21l.44-1.45v-.03Z" stroke-width="0"/><path d="M174.48,390.13c0,.82-.2,1.88-.42,2.76-1.53,6.18-8.32,13.11-17.88,12.48-8.67-.57-15.72-4.73-15.72-10.56s7.04-10.56,15.72-10.56,18.25.05,18.31,5.89Z" fill="#ea596e" stroke-width="0"/><path d="M156.17,385.23c-4.66,0-15.31,1.29-17.75,1.29-4.32,0-7.82,2.71-7.82,6.05,0,1.61.82,3.06,2.14,4.14,0,0,2.9,2.91,8.12,1.51,2.28-.61,6-5.15,12.54-5.87,3.26-.36,9.36,2.16,20.09,2.22.46-.99.56-1.68.56-1.68,0-5.84-9.2-7.67-17.88-7.67Z" fill="#dd2e44" stroke-width="0"/><path d="M174.06,392.89s6.29-1.28,10.2-6.42c4.56-6,3.96-12.42,3.96-12.42,4.62-8.64-1.44-16.75-1.44-16.75-.6-9.12-6.24-12.9-6.24-12.9-3.66-8.7-11.76-11.04-11.76-11.04-6.36-7.44-17.65-7.2-17.65-7.2,0,0-10.57-3.87-25.09.48-2.4.72-10.44,2.4-16.33,6-18.54,11.35-19.94,29.05-19.69,31.93,1.44,16.08,12.72,18.96,19.92,20.64,1.68,4.56,7.86,12.96,18.96,9.84,13.68-2.4,19.45-6.48,22.81-6.48s12.72,3.6,22.33,4.32Z" fill="#f4abba" stroke-width="0"/><path d="M139.45,367.03c6.71-3.62,10.34-3.28,13.55-2.99,1.02.09,1.98.16,2.96.16,5.72-.13,10.35-2.54,12.39-4.87.52-.6.46-1.51-.13-2.03-.59-.52-1.5-.47-2.03.13-1.58,1.8-5.47,3.78-10.29,3.89-.86.03-1.73-.06-2.63-.14-3.44-.32-7.72-.71-15.19,3.32-1.92,1.03-4.54,1.42-7.39,1.71-6.33-9.14-2.52-17.09-1.43-18.99.11,0,.21.04.32.04,1.15,0,2.31-.28,3.36-.88.69-.39.94-1.27.54-1.96s-1.27-.94-1.96-.54c-1.84,1.04-4.27.44-5.42-1.35-.43-.67-1.32-.87-1.99-.44-.67.43-.86,1.32-.44,1.99.68,1.07,1.64,1.87,2.73,2.41-1.5,3.05-4.35,11.06,1.07,20.03-3.81.37-7.63.91-10.62,2.84-1.93,1.24-3.9,3.07-5.41,5.16-1.81-.31-8.45-1.94-9.6-9.31.72-.56,1.3-1.3,1.66-2.21.29-.74-.07-1.58-.81-1.87s-1.58.07-1.87.81c-.26.65-.72,1.12-1.31,1.33-.58.21-1.24.14-1.85-.2-.7-.39-1.57-.13-1.96.56-.39.69-.14,1.57.56,1.96.82.46,1.69.69,2.56.69.11,0,.21-.05.31-.05,1.37,6.95,6.87,10.01,10.75,10.93-.51,1.12-.85,2.27-.95,3.43-.07.79.52,1.49,1.31,1.56h.13c.74,0,1.37-.56,1.43-1.31.31-3.49,3.64-7.14,6.61-9.06,2.78-1.79,6.84-2.17,10.78-2.53,3.82-.35,7.42-.68,10.25-2.21ZM176.52,362.7c-.38.7-.12,1.57.58,1.95.22.12.46.18.69.18.51,0,1-.27,1.26-.75.05-.1,5.31-9.94-4.53-16.55-.66-.44-1.55-.27-2,.39-.44.66-.27,1.56.39,2,7.62,5.12,3.77,12.46,3.6,12.77ZM116.8,339.44c.45,0,.89-.21,1.17-.6,4.18-5.81,9.96-3.82,10.21-3.73.75.27,1.57-.11,1.84-.85.28-.75-.1-1.57-.85-1.85-2.77-1.03-9.15-1.35-13.54,4.75-.46.64-.32,1.54.33,2.01.26.18.55.27.84.27ZM154.46,334c6.41-.52,9.33,4.13,9.46,4.34.27.46.75.71,1.24.71.25,0,.5-.06.73-.2.69-.4.92-1.28.52-1.97-.16-.26-3.86-6.39-12.17-5.76-.79.06-1.38.75-1.32,1.55.06.79.78,1.39,1.55,1.32ZM180.82,376.09c-.71-.04-1.49.52-1.55,1.32,0,.05-.46,4.95-5.5,6.61-.75.25-1.17,1.06-.92,1.82.2.6.76.99,1.37.99.15,0,.3-.02.45-.07,6.83-2.24,7.45-8.83,7.47-9.11.06-.8-.53-1.49-1.32-1.56Z" fill="#ea596e" stroke-width="0"/><path d="M109.52,362.1c-.21.77.25,1.56,1.02,1.77.12.03.25.05.37.05.64,0,1.22-.42,1.39-1.07.55-2.05,2.67-3.36,4.76-2.92.78.16,1.54-.33,1.71-1.11.16-.78-.33-1.54-1.11-1.71-1.23-.26-2.46-.14-3.6.25-3.36-5.74-2.71-11.41-2.7-11.47.1-.79-.45-1.51-1.24-1.62-.78-.1-1.51.44-1.62,1.23-.04.28-.81,6.67,3.06,13.29-.96.87-1.69,2-2.05,3.31ZM141.72,354.98c1.17-1.09,3.05-1.07,4.19.04.28.27.64.41,1.01.41s.75-.15,1.03-.44c.55-.57.54-1.48-.03-2.04-.66-.64-1.45-1.07-2.3-1.34.85-2.93.52-4.23-.28-6.66-.14-.42-.29-.9-.45-1.43l-.09-.29c-1.05-3.48-1.74-5.78.25-9.02.42-.68.2-1.56-.47-1.98-.67-.41-1.56-.21-1.98.47-2.67,4.34-1.69,7.6-.55,11.36l.09.29c.17.56.33,1.05.47,1.49.71,2.19.93,2.93.06,5.58-1.06.2-2.08.68-2.91,1.45-.58.54-.61,1.45-.07,2.04.54.58,1.46.61,2.04.07ZM160.06,346.38c.84,0,1.69-.18,2.47-.55.72-.34,1.03-1.2.69-1.92-.34-.72-1.21-1.02-1.92-.69-1.45.68-3.23.09-3.99-1.32-.38-.7-1.26-.96-1.95-.59-.7.37-.97,1.25-.59,1.95.52.97,1.29,1.73,2.19,2.26-1.55,3.76-.67,7.75.05,9.87.2.6.76.98,1.37.98.15,0,.31-.02.46-.07.75-.25,1.16-1.07.9-1.82-.48-1.43-1.42-5.06,0-8.14.11,0,.21.04.32.04ZM173.88,373.54c-.05-.79-.74-1.42-1.53-1.35-2.92.21-5.41-2.01-5.61-4.91-.06-.79-.76-1.38-1.54-1.34-.79.05-1.39.74-1.34,1.54.12,1.7.77,3.23,1.75,4.48-2.32,2.73-5.35,3.5-7.04,3.7-1.5.18-2.8.03-4.32-.15-1.39-.16-2.95-.34-4.89-.28h-.01c-.06-.82-.25-2.02-.88-3.02-.42-.67-1.31-.88-1.98-.46-.67.42-.88,1.31-.46,1.98.39.62.46,1.61.46,2.09-1.45.52-2.71,1.29-3.84,2.03-2.03,1.32-3.63,2.36-6.03,1.82-2.18-.5-4.36-.6-6.21-.34-.29-.72-.74-1.59-1.45-2.25-.58-.55-1.49-.52-2.04.06-.54.58-.52,1.49.06,2.04.25.23.44.57.6.91-3.18,1.31-4.77,3.49-4.85,3.6-.46.65-.31,1.54.33,2,.25.18.55.27.84.27.45,0,.89-.2,1.17-.59.01-.02,1.6-2.14,4.72-3,1.61-.44,3.93-.41,6.18.11.63.14,1.22.19,1.78.2.27.63.37,1.37.39,1.65.05.77.68,1.36,1.44,1.36h.08c.79-.05,1.4-.72,1.36-1.51,0-.14-.07-1-.37-1.98,1.33-.48,2.48-1.23,3.57-1.94,1.65-1.07,3.21-2.09,5.24-2.16,1.71-.06,3.11.1,4.47.26,1.37.16,2.71.26,4.19.18.26.73.24,1.7.2,2.03-.1.79.46,1.51,1.25,1.61.06,0,.12.01.18.01.71,0,1.33-.53,1.43-1.25.02-.18.17-1.48-.17-2.83,2.07-.56,4.63-1.76,6.76-4.24,1.24.76,2.69,1.21,4.23,1.21.18,0,.36,0,.54-.02.79-.05,1.39-.73,1.34-1.53Z" fill="#ea596e" stroke-width="0"/><path d="M434.38,345.54h8.95c.27-.45.35-1.04.14-1.59l-9.09-11.12v12.71h0Z" fill="#ef9645" stroke-width="0"/><path d="M427.41,375.63c-.13-.79-.28-1.54-.47-2.2-1.4-5.03-2.58-7.16-2.08-12.43.66-3.58.62-10.78,10.14-9.66,2.52.3,6.43,2.1,8.68,2.06,1.28-.02,2.22-2.62,2.3-3.48.12-1.19-1.96-3.21-2.82-3.52s-4.55-1.43-6.07-1.86c-2.35-.68-2.23-3.86-2.38-4.99-.07-.53.19-1.06.67-1.34s.85-.02,1.31.28l2,1.47c1.12.96-1.98,2.81-1.14,3.11,0,0,3.97,1.49,5.67,1.8.93.17,4.15-3.46,4.34-5.59.15-1.67-7.69-9.24-13.28-12.18-1.96-1.03-3.12-1.63-4.41-1.57-1.55.07-2.03.68-3.96,2.33-8.71,7.45-17.15,23.55-18.39,27.12-5.08,14.62-5.88,22.32-6.06,26.67-.11,1.34-.17,2.66-.17,3.98.15,0-2.26,11.31,0,13.58s12.05,2.26,12.05,2.26c22.63,9.03,64.65,6.67,64.65-16.37,0-27.54-42.57-23.89-50.6-9.48Z" fill="#ffdc5d" stroke-width="0"/><path d="M445.38,399.22c-7.47-.78-13.3-4.44-13.63-4.65-1.1-.7-1.42-2.16-.72-3.26s2.16-1.42,3.26-.73c.09.06,9.46,5.89,18.54,3.47,5.02-1.34,9.14-5,12.23-10.87.61-1.16,2.05-1.6,3.19-.99,1.15.61,1.6,2.04.99,3.19-3.75,7.1-8.87,11.56-15.23,13.25-2.97.78-5.91.88-8.63.6Z" fill="#ef9645" stroke-width="0"/><g id="_03tURy"><polygon points="441.9 19.38 542.11 19.38 520.86 54.47 542.11 90.85 469.06 90.85 441.9 19.38" fill="#a3a3a3" stroke-width="0"/><polygon points="123.81 19.38 23.6 19.38 44.85 54.47 23.6 90.85 96.65 90.85 123.81 19.38" fill="#a3a3a3" stroke-width="0"/><rect x="69.63" y="54.47" width="426.59" height="60.03" fill="#d6d6d6" stroke-width="0"/><polygon points="123.81 54.47 69.5 54.47 123.81 19.38 123.81 54.47" fill="#666" stroke-width="0"/><polygon points="441.9 54.47 496.21 54.47 441.9 19.38 441.9 54.47" fill="#666" stroke-width="0"/></g><rect x="292.28" y="69.55" width="28.9" height="28.68" fill="#636363" stroke-width="0"/><rect x="323.88" y="69.55" width="28.9" height="28.68" fill="#636363" stroke-width="0"/><rect x="355.47" y="69.55" width="28.9" height="28.68" fill="#636363" stroke-width="0"/><rect x="387.07" y="69.55" width="28.9" height="28.68" fill="#636363" stroke-width="0"/><rect x="419.01" y="69.55" width="28.9" height="28.68" fill="#636363" stroke-width="0"/><rect x="450.81" y="69.55" width="28.9" height="28.68" fill="#636363" stroke-width="0"/><path d="M310.26,92.85v-7.62h-7.06v7.62h-3.65v-17.93h3.65v6.97h7.06v-6.97h3.67v17.93h-3.67Z" fill="#fff" stroke-width="0"/><path d="M332.51,92.85v-17.93h11.64v3.23h-7.99v3.82h6.74v3.24h-6.74v4.3h7.99v3.34h-11.64Z" fill="#fff" stroke-width="0"/><path d="M361.61,92.85l5.93-17.93h4.75l5.95,17.93h-3.74l-1.19-3.64h-6.9l-1.17,3.64h-3.63ZM367.43,86.01h4.83l-2.41-7.41-2.42,7.41Z" fill="#fff" stroke-width="0"/><path d="M395.92,92.85v-17.93h3.65v14.58h7.54v3.34h-11.19Z" fill="#fff" stroke-width="0"/><path d="M435.28,78.27v14.58h-3.65v-14.58h-5.52v-3.34h14.69v3.34h-5.52Z" fill="#fff" stroke-width="0"/><path d="M468.78,92.85v-7.62h-7.06v7.62h-3.65v-17.93h3.65v6.97h7.06v-6.97h3.67v17.93h-3.67Z" fill="#fff" stroke-width="0"/><rect x="85.55" y="69.55" width="28.9" height="28.68" fill="#636363" stroke-width="0"/><rect x="117.15" y="69.55" width="28.9" height="28.68" fill="#636363" stroke-width="0"/><rect x="148.74" y="69.55" width="28.9" height="28.68" fill="#636363" stroke-width="0"/><rect x="180.33" y="69.55" width="28.9" height="28.68" fill="#636363" stroke-width="0"/><rect x="212.27" y="69.55" width="28.9" height="28.68" fill="#636363" stroke-width="0"/><path d="M134.54,92.85l-4.57-6.79h-1.85v6.79h-3.65v-17.93h6.51c2.31,0,3.99.41,5.06,1.24s1.6,2.19,1.6,4.08c0,1.53-.32,2.75-.96,3.65s-1.56,1.49-2.74,1.74l4.79,7.21h-4.18ZM133.93,80.4c0-.92-.23-1.53-.69-1.84s-1.22-.47-2.29-.47h-2.84v4.78h2.68c.82,0,1.45-.08,1.89-.23s.76-.4.95-.73.29-.83.29-1.52Z" fill="#fff" stroke-width="0"/><path d="M154.87,92.85l5.93-17.93h4.75l5.95,17.93h-3.74l-1.19-3.64h-6.9l-1.17,3.64h-3.63ZM160.7,86.01h4.83l-2.41-7.41-2.42,7.41Z" fill="#fff" stroke-width="0"/><path d="M199.11,92.85h-8.65v-2.81h2.5v-12.3h-2.5v-2.81h8.65v2.81h-2.49v12.3h2.49v2.81Z" fill="#fff" stroke-width="0"/><path d="M229.62,92.85l-6.53-12.81v12.81h-3.57v-17.93h4.74l6.07,12.08v-12.08h3.59v17.93h-4.3Z" fill="#fff" stroke-width="0"/><path d="M106.86,87.66c0,1.8-.62,3.11-1.85,3.94s-2.95,1.25-5.14,1.25h-6.74v-17.93h6.33c2.3,0,3.94.33,4.93,1s1.49,1.73,1.49,3.18c0,1.11-.27,2.02-.81,2.71s-1.38,1.15-2.53,1.39c1.5.21,2.6.68,3.28,1.42s1.03,1.75,1.03,3.03ZM102.2,79.91c0-.68-.25-1.15-.75-1.42s-1.28-.4-2.33-.4h-2.33v3.85h2.23c1.08,0,1.88-.15,2.4-.45s.78-.83.78-1.58ZM103.13,87.33c0-.8-.27-1.37-.82-1.7s-1.56-.5-3.06-.5h-2.47v4.48h1.85c1.42,0,2.41-.07,2.95-.21s.93-.37,1.18-.7.37-.79.37-1.37Z" fill="#fff" stroke-width="0"/><rect x="248.66" y="65.96" width="36.14" height="35.87" fill="#424242" stroke-width="0"/><g id="layer1"><path id="path19449" d="M263.1,96.35h12.48c-.52-2.46-1.15-6.52-.88-7.51.45-1.69,1.88-2.96,2.42-4.31,2.75-6.87-.61-12.85-8.21-13.64-6.71-.7-10.44,3.11-10.97,7.04-.06.42,0,.84.2,1.28-.92,1.44-3.04,3.56-3.23,4.58-.11.61.61.83.96,1.04.33.11.7.03.92.3.16.2-.06.53-.1.78,0,.41-.48.6-.44.98.05.32.32.45.56.64.26.21-.67.6-.37.97.31.36.76.77.6,1.28-.23.79-.68,1.61-.31,2.22.37.6.87.96,1.66,1.12,1.23,0,2.47.02,3.71.02.43.37.73,1.58.97,3.2h0Z" fill="#fff" stroke-width="0"/></g><g id="g5253"><path id="path2403" d="M268.22,72.11c.18-.05.4.04.59.03.18,0,.37,0,.55,0,.2,0,.4-.03.6-.03.49.07.77.39.97.78.03.05-.3-.07-.33-.12-.07-.13-.16-.25-.26-.35,0,0,0,0-.01,0-.19,0-.38.02-.57.04-.18,0-.36,0-.55,0-.32,0-.74.03-.98.13.08.15,0,.34-.03.49-.01.06-.33-.1-.32-.15.02-.14.11-.34,0-.44-.22-.21-.61-.18-.92-.22-.21-.03-.42-.06-.63-.09-.16-.04-.27-.03-.41.05-.12.1-.25.17-.37.27-.09.09-.2.16-.25.27-.03.1.02.17.08.23.11.04.7.27.78.29-.32-.02-.49-.08-.68-.02-.02.04-.1-.05-.16-.07-.15-.05-.3-.08-.45-.1-.21-.03-.43-.02-.65,0-.22.02-.41.1-.58.23-.13.12-.16.29-.17.45-.02.14.01.24.1.36.03.04.08.08.1.13.02.04.03.09.04.13,0,.02-.09-.02-.1-.03-.33-.22-.63-.37-.58-.79.02-.18.08-.36.22-.49.18-.13.38-.23.62-.24.23-.03.46-.02.69,0,.18.03.35.08.52.13-.15-.11-.27-.24-.21-.43.06-.13.16-.21.27-.31.12-.1.26-.18.39-.27.11-.07.22-.12.34-.11.04,0,.08.01.12.02.21.04.43.06.65.1.33.06.67.11,1,.21.03.02.11-.07.15-.05" stroke-width="0"/><path id="path2402" d="M272.5,78.98s.05,0,.07,0c.2,0,.41,0,.61.01.48.05,1.01.2,1.27.62.1.23.05.46.07.7.07.76.24,1.99.01,2.26-.09.26-.32.39-.55.52-.4.18-.83.08-1.23-.04-.46-.15-.93-.3-1.31-.6,0,.1-.01.19-.08.27-.02.03-.05.05-.08.07-.21.1-.41.03-.62-.01-.27-.04-.52-.11-.76-.21-.27-.14-.2-.1-.62-.34-.02,0-.03-.02-.04-.03-.02-.01-.05-.02-.1-.04-.36-.07-.7-.16-1.04-.3-.36-.17-.69-.37-.95-.65-.04.08-.14.15-.22.2-.12.07-.35.1-.5.02-.36-.19-.64-.35-.92-.64-.17-.16-.21-.39-.24-.61-.02-.15,0-.31.08-.44.1-.08.3-.1.35.04.06.14-.04.26-.08.39,0,.17.01.36.09.52.11.21.32.36.52.5,0,0,.03.02.05.03.09.02.24.04.28.01.21-.14.26-.45.25-.69-.03-.12-.04-.25-.05-.37,0-.03-.01-.38,0-.4.03-.06.1-.1.15-.15,0,0,0,0,.01,0,.03,0,.12.04.13.06.04.09.09.17.12.26.03.13-.03.27,0,.4.03.3.09.6.28.85.09.1.17.2.28.29.04.03.18.1.12.1-.01,0-.02,0-.03,0,.32.14.64.24.99.28.32.11.13.03.65.33.07.04.25.14.26.15.21.08.42.14.64.18.2.04.41.13.62.07.02-.02.05-.02.07-.05.16-.16.04-.45.01-.64-.03-.08-.07-.16-.1-.25-.07-.49-.32-.95-.49-1.41-.03-.07-.05-.15-.11-.2-.01-.01-.05-.04-.07-.04,0,0-.01,0-.02-.01-.05,0-.09,0-.14.02,0,0-.02,0-.02.02,0,.01,0,.02,0,.04,0,.02,0,.04.01.06,0,.04-.23-.06-.25-.1-.06-.09-.1-.13-.03-.22.06-.02.12-.04.19-.03.02,0,.04,0,.06,0,.18.1.32.17.47.29.08.07.11.17.14.27.12.51.4.97.58,1.46.13.27.3.52.53.72.01,0,.02.02.03.02.18.07.36.12.54.19.38.12.79.24,1.18.08.21-.12.45-.22.55-.45.17-.65.1-1.45.06-2.22-.01-.26,0-.47-.14-.7.04,0,0-.04-.06-.08-.03-.01-.06-.03-.08-.04-.15-.04-.23-.05-.38-.07-.28-.04-.57.02-.85-.02-.07,0-.33-.16-.3-.21.01-.02.02-.06.04-.07.02,0,.04,0,.07,0h0ZM267.6,81.5s.13.06.17.09c0,0,0,0,.01,0-.06-.03-.11-.07-.17-.09,0,0-.01,0-.01,0ZM269.49,82.26s.08.04.1.06c.01,0,.03.01.04.02-.05-.02-.09-.05-.14-.07h0Z" stroke-width="0"/><path id="path2404" d="M266.55,75.1c.3.02.64.13.8.38.12.27.29.52.4.79.2.21.44.52.78.45.33-.03.73.12,1-.13.22-.17.41-.36.67-.48.25-.15.55-.13.83-.11.45,0,.93-.01,1.34.22.58.26,1.07.66,1.31,1.23.03.09.04.18.07.27,0,.04.03.16.02.2,0,.02-.02.02-.03.04-.02.03-.18-.05-.19-.09-.01-.02-.02-.05-.03-.07-.02-.05,0-.14-.02-.19-.01-.08,0-.17-.04-.25-.3-.79-1.28-1.03-2.07-1.08-.33,0-.73-.07-.98.2-.25.27-.47.6-.44.98-.05.26.11.5.05.75-.06.12-.06.31.01.44.01,0,.02,0,.04,0,.19.03.31.06.43.1.14-.11.21-.45.23-.61.14-.16.35.26.23.43,0,.12-.04.25-.12.34.05.03.1.05.17.08.1.05.2.11.29.18.1.07.19.17.28.25.09.1.18.2.26.3.84,1.17.54,1.49,1.69,1.65.02.04-.5.49-.76.3-.83-.44-.76-1.36-1.26-2.06-.08-.11-.18-.2-.27-.3-.16-.13-.27-.27-.45-.35-.2-.08-.45-.08-.67-.08-.08,0-.15,0-.28.02-.7.09-1.36.51-1.14,1.28.04.09.1.17.14.26.23.32.52.58.88.76.02.01-.05-.06-.03-.06.11.02.21.07.31.1.08.02.16.04.24.06.08.02-.08.21-.16.2-.52-.08-.33-.16-.82-.43-.24-.13-.47-.31-.65-.51-.08-.09-.15-.19-.23-.29-.05-.09-.11-.18-.14-.28,0-.02-.01-.04-.02-.06h0s0,0,0,0c0-.02,0-.03-.01-.05h0s0-.02,0-.02c-.19-.48-.01-.97-.46-1.25-.27-.14-.64-.31-1.49-.17-.38.06-.61.18-.77.49-.13.23-.07.34.05.56.11.16.25.29.41.39.14.09.22.17.26.32,0,.05.02.1.07.11.09.02-.43-.07-.48-.14-.03-.05-.05-.1-.06-.15-.05-.12-.16-.2-.27-.27-.16-.12-.29-.26-.39-.42-.08-.14-.12-.26-.1-.38-.01,0-.02,0-.04,0-.04,0-.09,0-.13,0-.01,0-.03,0-.04,0,0,.03-.03.05-.07.06-.08-.01-.02,0-.17-.12,0,0-.01,0-.01,0-.04-.03-.08-.06-.12-.1,0,0,0,0,0,0,0,0-.01,0-.02-.02,0,0,0,0,0,0,0,0,.01,0,.02,0,0,0,0,0,0-.01.03-.06,0-.05.05-.06.02,0,.03,0,.05,0,.05,0,.09,0,.14,0,.06,0,.13,0,.19,0,.07,0,.14,0,.2,0,.02,0,.04,0,.06-.02.07-.11.14-.22.25-.25.02-.06.03-.12.04-.18,0,0-.01,0-.02,0-.14,0-.28,0-.42,0-.17-.04-.34-.04-.51-.07-.21-.03-.71-.3-.53-.43.05-.04.29.1.34.15.11,0,.22,0,.33.03.13.03.27.02.41.02.2,0,.4-.03.6-.06.17,0,.34,0,.5.03.19.04.38.08.58.12.35.01.67-.16.87-.43.05-.06.43.15.39.21-.17.22-.39.37-.65.44.03,0,.05.02.08.03.23.08.76.25.87.47.01.02.02.04.02.06.37.16.61-.08.97-.16.18-.14.33-.31.36-.54.1-.3-.03-.6-.18-.86-.32-.32-.85-.19-1.22-.41-.27-.12-.51-.31-.72-.47-.31-.04-.63-.14-.94-.08-.22.1-.2.61-.53.33-.3-.19-.09-.71.26-.69.31,0,.61.07.92.12.16.04.24.1.12-.08-.09-.2-.2-.56-.42-.6-.22,0-.65-.02-.61-.31.11,0,.22,0,.33,0h0ZM263.95,77.85s.03.03.04.03c0,0,.02,0,.03,0-.02-.01-.05-.03-.07-.04Z" stroke-width="0"/><path id="path2418" d="M261.6,77.9c.19,0,.4-.18.3-.02-.03.2-.16.62-.02.78.18.2.46.47.69.61.38.24.8.59,1.18.83.48.32.83.44,1.33.2.14-.14.16-.38.15-.57.02-.13-.02-.25.05-.33.23.02.24.24.27.42.04.25.07.54-.08.76-.55.42-1.4-.04-1.87-.39-.56-.42-1.09-.83-1.68-1.22-.22-.14-.42-.37-.41-.65.02-.12-.08-.39.09-.42h0Z" stroke-width="0"/><path id="path2420" d="M264.09,79.64s-.1-.05-.14-.08c-.03-.02.12.07.1.05-.04-.05-.11-.08-.16-.12-.16-.13-.29-.29-.43-.44-.16-.17-.26-.37-.33-.59-.06-.18-.06-.38-.05-.57,0-.21.03-.42.07-.63.04-.23.17-.42.33-.6.18-.18.42-.24.67-.26.24,0,.47.01.71.02.04.01.15.06.11.04-.56-.33-.27-.14-.17-.05.11.1.19.2.28.32.07.11.13.22.18.34.03.07.01.04.06.1.04.07.41.24.42.17,0-.06,0-.03,0-.09-.05-.12-.11-.24-.18-.36-.26-.35-.58-.68-1.05-.76-.23,0-.46-.02-.69,0-.27.03-.51.11-.68.31-.16.19-.28.4-.32.65-.03.22-.08.43-.05.65,0,.2,0,.4.07.59.08.22.17.44.34.61.37.4.64.66,1.17.9.05.02-.17-.18-.22-.2h0Z" stroke-width="0"/><path id="path2422" d="M265.14,76.5c.16-.3.28-.33.65-.34.07,0,.15.01.22.02.06.01.11.03.17.04.07.02-.25-.26-.32-.28-.07-.02-.14-.04-.21-.06-.07,0-.15,0-.22,0-.41.06-.45.1-.6.44-.02.06.28.22.31.16h0Z" stroke-width="0"/><path id="path2424" d="M263.01,77.46c-.11-.24-.19-.5-.38-.69-.21-.15-.45-.31-.72-.33-.17,0-.33-.02-.48.04-.21.05-.35.16-.39.36l.16.16s.03.02.04.02l.19.03c.11-.15.16-.26.37-.31.14-.04.29-.05.43-.04.06,0,.11.02.17.04.02,0,.09.04.07.03-.05-.04-.38-.23-.17-.09.22.18.32.44.43.69.02.05.31.16.29.11h0Z" stroke-width="0"/><path id="path2426" d="M262.5,74.12c.08,0,.17,0,.25,0,.33.04.6.19.87.38.28.23.32.46.38.79.01.07-.35-.08-.36-.15-.06-.29-.12-.51-.34-.69-.07-.02-.14-.04-.2-.05-.16-.02-.32-.02-.47,0-.14.02-.26.08-.36.18-.08.08-.16.16-.21.25-.01.05-.03.09-.05.14-.04.06,0,.09,0,.13.09.07.17.16.22.26.03.06.1.26.12.31.1.25.11.51.1.77-.04.14.02.17-.14.18-.06,0-.27-.12-.3-.17-.09-.11-.04-.09-.03-.23,0-.25,0-.5-.09-.74-.04-.1-.07-.21-.13-.3-.02-.02-.03-.05-.05-.07-.15-.01-.3,0-.45.04-.21.04-.43.06-.55.25-.12.24-.21.48-.19.75,0,.34.02.68.15,1,.08.21.17.42.31.6.07.08.14.16.22.24,0,0,.01.01.02.02.25.02.41-.12.6-.31.05-.05.26,0,.22.06-.2.23-.27.52-.61.49-.35-.12-.64-.35-.85-.63-.14-.18-.22-.4-.29-.61-.13-.32-.14-.67-.14-1.02-.02-.28.07-.53.19-.78.11-.22.34-.26.56-.31.19-.05.39-.08.58-.06.03,0,.05.01.08.02.02-.02.06-.03.07-.1.02-.05.03-.11.06-.15.07-.09.14-.18.22-.26.11-.1.23-.18.39-.21.08-.02.16-.02.24-.03h0ZM261.04,77.98s.01,0,.04.02c0,0,0,0,.01,0-.02,0-.04-.02-.05-.03Z" stroke-width="0"/><path id="path2430" d="M273.97,79.33c.1-.26.21-.53.12-.81-.16-.29-.37-.54-.56-.81-.14-.12-.18-.38-.33-.49-.03-.02-.06-.03-.09-.05-.04-.02-.2-.09-.24-.09-.02,0-.04,0-.05,0-.03.03.03.06.05.09.08.13.13.27.23.38.19.27.39.52.56.8.13.26.03.54-.05.79-.02.07.33.24.36.18h0Z" stroke-width="0"/><path id="path2432" d="M271.54,79.41c-.24-.25-.37-.54-.45-.87-.04-.19-.01-.36.12-.52.16-.18.36-.25.6-.27.21,0,.41.01.62-.03.07-.01-.24-.23-.31-.24-.24-.04-.47-.06-.72-.03-.25.04-.45.15-.6.35-.11.2-.13.39-.06.61.13.38.24.57.52.86.03.04.3.18.27.14h0Z" stroke-width="0"/><path id="path2438" d="M268.88,72.73c.38.01.76.12,1.09.31.47.25.99.53,1.25.99.06-.23.31-.38.55-.36.24.02.48.13.64.3.04.04.18.18.04.08-.23-.12-.54-.16-.77-.04-.15.1-.24.31-.11.45.06.17.13.33.28.44.17.18.36.33.54.5.09.06.2.2.23.33.05.18.07.38.08.57-.16,0-.39-.11-.35-.29-.03-.28-.13-.58-.39-.74-.2-.16-.44-.25-.68-.35-.32-.1-.51-.01-.85.07-.09.02-.46.18-.86.37.31-.35,1.07-.72,1.36-.77.12-.04.31.08.36.07-.05-.2-.12-.4-.28-.55-.76-.38-1.87.38-2.59-.05-.21-.09,0-.3.17-.24,1.34-.28,2.69.31,1.59-.45-.38-.23-.62-.35-1.08-.31-.29-.04-.55.05-.81.15-.27.1-.47.33-.54.59.08.24.19.53.42.67.31.11.42.44.89.51-.77.29-.71.19-1.14-.42-.18-.22-.37-.47-.66-.55-.24-.08-.49-.08-.73-.14-.44-.04-.91.08-1.26.33-.24.17-.39.47-.27.74.08.35.26.47.49.75.09.09.38.27.09.12-.02,0-.03-.01-.04-.02.02.02.27.15.28.11.3.12.68-.04.94.14.21.16-.26.06-.35.08-.38,0-.75-.13-1.04-.37-.3-.21-.44-.34-.61-.65-.1-.27-.24-.59-.06-.86.25-.43.8-.61,1.29-.67.28-.03.54.08.81.13.2-.07.48-.21.43-.45.06-.24-.36-.39-.34-.53.28.02.51.29.67.38.18-.21.47-.29.73-.39.15-.03.3-.02.45-.03.06,0,.11,0,.17,0h0Z" stroke-width="0"/><path id="path2458" d="M264.85,75.22c.08.22.53.55.04.82-.1.06-.17.09-.25.08-.15,0-.3-.01-.45-.02-.16,0-.3,0-.46-.03-.16-.02-.31-.07-.47-.08,0,.03-.28-.09-.24-.07.56.31.32.19.2.06-.09-.11-.09-.24-.08-.37.01-.08,0-.16.05-.22.06-.07.04-.03.06-.13.02-.07-.28-.23-.35-.2-.1.05-.06.02-.13.09-.07.09-.06.16-.06.27,0,.15-.01.29.07.42.2.26.5.4.83.44.16.03.31.07.47.08.15.02.31.02.46.02.15,0,.3,0,.45,0,.12-.01.23-.06.22-.2-.03-.25.47-.1.37-.33-.02-.05-.75-.72-.73-.66Z" stroke-width="0"/><path id="path2462" d="M274.07,82.59c.28.16.46.46.78.54.24.07.51.03.7-.13.15-.11.26-.26.32-.43.06-.17.12-.34.11-.52,0-.21-.02-.43-.1-.63-.05-.19-.3-.67-.27-.87,0-.14.08-.19.03-.32-.05-.13-.23.08-.34.05-.06-.02-.2-.03-.23-.05.12.03.1.18.17.26.07.11.01.23.03.35.02.17.08.33.14.48.06.15.08.32.08.48,0,.14-.02.29-.06.43-.02.19-.12.36-.27.48-.09.12-.27.13-.4.07-.16-.06-.31-.16-.46-.24.07.05.19.1.23.15-.16-.02-.31-.08-.47-.1h0Z" stroke-width="0"/><path id="path2464" d="M274.99,78.63c.06,0,.12.01.19.03.34.13.66.29.95.51.17.13.33.27.41.47.07.16.11.31.09.48,0,.17,0,.34-.04.51-.03.11-.03.22-.04.33-.01.17.04.34.08.5.06.23.11.46.02.69-.02.03-.03.07-.06.1-.15.16-.54.3-.71.25-.06-.02-.07-.58,0-.56.09.32.53.47.55.07,0-.22-.14-.49-.2-.7-.06-.17-.09-.35-.11-.53-.01-.12.01-.24.04-.35.04-.16.04-.32.04-.49.01-.17-.05-.31-.11-.46-.09-.18-.25-.3-.41-.42-.13-.07-.26-.14-.41-.13-.03,0-.05,0-.08,0-.08,0-.39-.11-.37-.18,0-.02,0-.04.01-.06.06-.03.12-.04.18-.04Z" stroke-width="0"/><path id="path2466" d="M276.43,79.55c.21-.1.34-.33.44-.55.04-.08.09-.3.1-.33.04-.19-.05-.3-.16-.47-.26-.3-.67-.43-1.02-.63.79.45-.14-.15-.25-.22-.05-.03-.35-.14-.31-.09.25.3.6.48.95.67.05.03.09.05.14.08.34.18-.07-.04-.21-.12-.05-.03.1.06.15.09.02.01.04.03.05.05.24.21.4.51.16.79-.13.15-.41.27-.61.21-.08-.02.51.57.58.54h0Z" stroke-width="0"/><path id="path2468" d="M273.77,78.01c.27-.21.58-.34.93-.32.28.08.54.22.8.35v-.06s-.06-.05-.07-.06c-.09-.06-.18-.13-.27-.19-.26-.14-.53-.28-.82-.32-.35.02-.65.17-.9.39-.05.05.28.25.33.21h0Z" stroke-width="0"/><path id="path2470" d="M273.17,76.79c.2-.2.3-.28.57-.38.16-.04.32-.04.48,0,.1.02.19.05.28.09.04.02.15.08.11.06-.36-.19-.38-.21-.2-.1.28.18.55.4.88.25.1-.1.15-.23.17-.37.03-.38-.64-.56-.89-.66-.02,0,.08.06.09.08.07.13.37.17.34.37-.01.11-.04.23-.12.31-.07.03-.14.03-.21.02-.02,0-.09-.03-.07-.02.12.08.51.29.27.15-.3-.2-.63-.41-1-.48-.16-.02-.33,0-.48.06-.24.12-.36.25-.54.44-.05.05.28.24.32.19h0Z" stroke-width="0"/><path id="path2472" d="M273.55,74.91c.1,0,.2.01.3.03.33.09.77.26,1.07.42.41.21.64.54.82.91.02.05-.39-.09-.42-.14-.06-.34-.22-.53-.5-.71-.2-.13-.45-.19-.69-.25-.18-.03-.36-.02-.53.01-.12.05-.22.13-.24.25-.01.12.04.14.12.21,0,0,0,0,0,0,0,0,0,0,0,0,.01.01.03.02.04.03,0,0,.02,0,.02.01-.09.22-.31.04-.46-.12-.17,0-.32.09-.47.16-.22.14-.13.3-.05.5.03.07-.4-.09-.44-.16-.11-.25-.18-.44.08-.61.18-.09.38-.19.58-.18.05,0,.09.02.14.03,0-.02,0-.05.01-.07.04-.15.15-.25.3-.31.1-.02.2-.02.3-.02h0Z" stroke-width="0"/><path id="path2476" d="M271.2,72.46c.16.01.31.1.51.22.15.1.27.23.4.35.17.17.32.36.48.54.02.02.03.03.05.04,0,0,.01,0,.02,0,.03,0,.06,0,.09,0,.02,0,.03,0,.05,0,0,0,.02,0,.03,0,0,0,.01,0,.02,0,0,0,0,0,0,0,.32.06.59.17.87.38.3.26.43.67.43,1.06,0,.06-.31-.03-.34-.16-.09-1.11-.78-1.1-1.26-1.21-.14-.03-.28-.09-.41-.13-.04-.01-.22-.17-.18-.16.12.04.24.07.35.12-.03-.03-.07-.06-.1-.09-.15-.19-.31-.37-.49-.54-.07-.06-.13-.12-.2-.18-.02,0-.04,0-.05,0-.08,0-.15.02-.23.05-.24.1-.32.27-.39.35,0,.02.01.03,0,.04-.11.2-.05.1-.16.31-.03.05-.27-.08-.27-.13.02-.26.04-.29.14-.5,0-.02,0-.04,0-.05.05-.13.18-.21.31-.26.13-.05.23-.07.33-.06h0Z" stroke-width="0"/><path id="path2486" d="M263.49,72.63c.11,0,.22.02.29.09.06.05.18.19.05.2-.04,0-.08-.02-.11-.03.01,0,.02.01.04.02-.07-.04-.18-.03-.26-.03-.17.01-.31.13-.4.27-.08.13-.22.21-.35.3-.11.05-.2.25-.24.33-.14.18-.14.31-.16.52-.05.02-.13-.03-.18-.06-.12-.07-.05-.21-.05-.31.05-.22.12-.43.25-.61.06-.1.15-.18.24-.25.09-.07.19-.14.26-.24.12-.15.2-.17.42-.19.06,0,.13-.01.2-.02h0Z" stroke-width="0"/><path id="path2488" d="M276.31,77.85c.1-.27.16-.6.11-.88-.02-.16-.09-.29-.2-.4-.2-.17-.45-.29-.69-.41-.11-.03-.28-.09-.39-.02-.06.03.22.21.29.22.14.03.28.02.41.08.15.07.14.07-.24-.14-.02-.01.04.02.06.04.06.03.13.06.18.11.13.11.23.23.27.39.02.07.04.13.05.21.02.18-.06.49-.11.66-.02.05.25.19.27.14h0Z" stroke-width="0"/><path id="path2640" d="M273.5,75.02c-.16-.17-.37-.31-.59-.38-.13-.04-.22.03-.32.11-.02.02-.05.05-.09.04,0,0-.03-.02-.02-.01.06.03.12.06.18.09-.06-.06-.1-.13-.13-.21,0,0,0-.01,0,0-.05.03.1.02.1.02.01,0,.01-.03.02-.04,0-.02-.08-.07-.1-.07-.04-.01-.08-.03-.12-.03-.02,0-.04,0-.05,0-.03,0-.1,0-.09.05.03.08.07.16.12.23.13.08.25.22.38.09.08-.07.17-.12.28-.09.1.03.1.04-.05-.05-.03-.01.05.03.08.05.05.03.1.07.14.11.02.02.04.04.06.06.02.02.22.09.19.06h0Z" stroke-width="0"/><path id="path2642" d="M272.55,79.04s-.22-.1-.17-.07c.03.02.06.04.09.05.02,0-.04-.03-.06-.04-.04-.04-.05-.05-.07-.1-.03-.07-.06-.15-.03-.22.06-.1.09-.02.14-.03.01,0,0-.02,0-.03,0,0,0,0,0,0-.11-.08-.28-.24-.35-.04-.02.09,0,.18.04.26.01.02.02.04.03.06.1.16.35.26.54.31.03.01-.17-.15-.15-.13h0Z" stroke-width="0"/><path id="path2644" d="M275.04,79.31c.14,0,.29.27.38.35-.1,0-.19-.06-.28-.12-.06.05-.15.07-.23.09-.08-.1-.07-.15-.03-.27.01,0,.13-.06.15-.06Z" stroke-width="0"/><path id="path2648" d="M273.94,75.54c.07.06.13.13.2.2.02.03.21.1.19.07-.04-.09-.07-.13-.15-.19-.03-.03-.28-.1-.24-.07h0Z" stroke-width="0"/></g><path d="M249.01,111.54v-6.58h4.02v.79h-3.14v1.92h2.69v.8h-2.69v2.27h3.14v.8h-4.02Z" stroke-width="0"/><path d="M259.22,108.25c0,.81-.1,1.45-.31,1.92s-.53.82-.96,1.04-1.04.33-1.83.33h-1.67v-6.58h1.66c.77,0,1.37.11,1.82.33s.77.57.98,1.05.32,1.12.32,1.91ZM258.29,108.24c0-.63-.07-1.12-.21-1.47s-.37-.61-.69-.77-.77-.24-1.34-.24h-.73v4.99h.73c.58,0,1.02-.08,1.34-.24s.54-.42.69-.77.21-.85.21-1.49Z" stroke-width="0"/><path d="M262.96,111.54h-2.69v-.76h.91v-5.08h-.91v-.75h2.69v.75h-.91v5.08h.91v.76Z" stroke-width="0"/><path d="M266.69,105.75v5.79h-.88v-5.79h-2.18v-.79h5.24v.79h-2.18Z" stroke-width="0"/><path d="M272.25,111.54h-2.69v-.76h.91v-5.08h-.91v-.75h2.69v.75h-.91v5.08h.91v.76Z" stroke-width="0"/><path d="M278.66,108.25c0,1.18-.22,2.05-.67,2.6s-1.12.83-2.01.83-1.58-.28-2.02-.84-.66-1.42-.66-2.59.22-2.01.65-2.58,1.11-.85,2.03-.85,1.58.28,2.02.83.66,1.42.66,2.6ZM277.73,108.25c0-.91-.14-1.58-.41-2.01s-.72-.64-1.34-.64-1.07.21-1.34.64-.41,1.1-.41,2.01.14,1.59.42,2.01.72.64,1.34.64,1.06-.21,1.34-.63.42-1.09.42-2.02Z" stroke-width="0"/><path d="M283.91,111.54l-2.97-5.65v5.65h-.85v-6.58h1.29l2.73,5.17v-5.17h.85v6.58h-1.04Z" stroke-width="0"/></svg>