<?xml version="1.0" encoding="utf-8"?>
<!-- Generator: Adobe Illustrator 26.0.3, SVG Export Plug-In . SVG Version: 6.00 Build 0)  -->
<svg version="1.1" id="Layer_1" xmlns="http://www.w3.org/2000/svg" xmlns:xlink="http://www.w3.org/1999/xlink" x="0px" y="0px"
	 viewBox="0 0 100 100" enable-background="new 0 0 100 100" xml:space="preserve">
<circle fill="#ED2024" cx="49.76" cy="50" r="50"/>
<g>
	<path fill="#FFFFFF" d="M77.12,71.75c-1.15,1.79-2.44,3.45-3.89,4.98c-1.45,1.55-3.14,2.88-5.11,4.01
		c-1.95,1.13-4.24,2.02-6.85,2.67c-2.61,0.65-5.65,0.98-9.11,0.98c-10.08,0-17.56-2.86-22.44-8.59C24.83,70.08,22.4,61.48,22.4,50
		c0-11.55,2.45-20.16,7.34-25.85s12.21-8.53,21.95-8.53c3.34,0,6.3,0.31,8.87,0.93c2.58,0.62,4.85,1.47,6.82,2.55
		c1.97,1.08,3.67,2.36,5.08,3.84c1.41,1.48,2.63,3.07,3.65,4.8l-8.87,6.44c-0.7-1.08-1.47-2.15-2.31-3.2
		c-0.84-1.05-1.87-1.98-3.06-2.79c-1.19-0.81-2.6-1.47-4.22-1.95c-1.63-0.49-3.54-0.74-5.77-0.74c-6.2,0-10.75,2.05-13.64,6.15
		c-2.9,4.1-4.34,10.22-4.34,18.37c0,4.36,0.39,8.08,1.17,11.16c0.78,3.08,1.93,5.62,3.45,7.61c1.53,1.99,3.42,3.45,5.68,4.37
		c2.26,0.92,4.85,1.39,7.77,1.39c2.19,0,4.12-0.24,5.77-0.72s3.11-1.12,4.36-1.94s2.36-1.77,3.31-2.86s1.85-2.26,2.67-3.51
		L77.12,71.75z"/>
</g>
</svg>
