<svg fill="none" height="32" viewBox="0 0 32 32" width="32" xmlns="http://www.w3.org/2000/svg"><path d="m1 16c0 1.1046.89543 2 2 2 3.31371 0 6 1.7909 6 4 0 3.866 3.134 7 7 7 .1659 0 .1794-.237.0202-.2839-2.9019-.8541-5.0202-3.5377-5.0202-6.7161 1.6273-2.8695 3.3924-6 3.3924-6s-1.7276-3.0644-3.3924-6c0-3.1784 2.1183-5.86204 5.0202-6.7161.1592-.04685.1457-.2839-.0202-.2839-3.866 0-7 3.13401-7 7 0 2.2091-2.68629 4-6 4-1.10457 0-2 .8954-2 2z" fill="#fff"/><path d="m17.0202 3.2839c.1592-.04685.1457-.2839-.0202-.2839-3.866 0-7 3.13401-7 7 0 1.5519-.84845 2.9387-2.17989 3.8558 1.11764-.1443 2.22049-.3965 3.29289-.754l.2289-.0763c.262-.0873.5451.0543.6324.3163.0874.2619-.0542.5451-.3162.6324l-.2289.0763c-1.88636.6288-3.86178.9494-5.8502.9494h-1.53901c-.01332.0001-.02665.0001-.03999.0001h-1c-.55228 0-1 .4477-1 1s.44772 1 1 1h.48945c.0035-.0001.00702-.0001.01055-.0001h2.079c1.98842 0 3.96384.3206 5.8502.9494l.2289.0762c.262.0874.4036.3705.3162.6325-.0873.262-.3704.4036-.6324.3162l-.2289-.0763c-1.0725-.3575-2.1755-.6097-3.29328-.754 1.33167.9171 2.18028 2.304 2.18028 3.8561 0 3.866 3.134 7 7 7 .1659 0 .1794-.237.0202-.2839-.864-6.7161-1.6278-12.7161-1.6278-12.7161s.8576-7.5 1.6278-12.7161z" fill="#bebebe"/><path d="m24 10c0 2.5463-1.3596 4.7751-3.3924 6 2.0328 1.2249 3.3924 3.4537 3.3924 6 0 3.866-3.134 7-7 7 .1659 0 .1794-.237.0202-.2839-2.9019-.8541-5.0202-3.5377-5.0202-6.7161 0-2.1903 1.006-4.1456 2.5811-5.4292 0-.3833 0-.7778 0-1.1416-1.5751-1.2836-2.5811-3.2389-2.5811-5.4292 0-3.1784 2.1183-5.86204 5.0202-6.7161.1592-.04685.1457-.2839-.0202-.2839 3.866 0 7 3.13401 7 7z" fill="#dadada"/><path d="m13 16c0-4.9706 4.0294-9 9-9 4.978 1.54027 7.4482 4.0294 7.4482 9s-2.1698 7.2615-7.4482 9c-4.9706 0-9-4.0294-9-9z" fill="#e6e6e6"/><path d="m20.2258 9.08993c.2852-.05166.3381.358.0776.48514-2.2053 1.07643-3.7478 3.54803-3.7478 6.42483 0 2.8769 1.5425 5.3484 3.7478 6.4249.2605.1271.2076.5368-.0776.4851-.4574-.0828-.9067-.2227-1.3369-.4186-2.2803-1.0385-3.8889-3.5536-3.8889-6.4914s1.6086-5.4529 3.8889-6.49134c.4302-.19593.8795-.33578 1.3369-.41863z" fill="#fff"/><g fill="#bebebe"><path d="m24.0278 4c.5523 0 1-.44772 1-1s-.4477-1-1-1-1 .44772-1 1 .4477 1 1 1z"/><path d="m30.0278 5c0 1.10457-.8955 2-2 2-1.1046 0-2-.89543-2-2s.8954-2 2-2c1.1045 0 2 .89543 2 2z"/><path d="m26.0278 28.5c0 .8284-.6716 1.5-1.5 1.5-.8285 0-1.5-.6716-1.5-1.5s.6715-1.5 1.5-1.5c.8284 0 1.5.6716 1.5 1.5z"/><path d="m21.9691 24.6144c-.2082.0668-.1878.3856.0309.3856 4.9706 0 9-4.0294 9-9s-4.0294-9-9-9c-.2187 0-.2391.31877-.0309.3856 3.4903 1.12008 6.0309 4.5531 6.0309 8.6144s-2.5406 7.4943-6.0309 8.6144z"/></g></svg>