<svg height="64" preserveAspectRatio="none" viewBox="0 0 64 64" width="64" xmlns="http://www.w3.org/2000/svg"><path d="m15.003418 19.1699219s.1660156-10.6665039 11.5-13.1665039c11.3334961-2.5 19.8334961 7.6665039 22.1665039 17.1665039 2.3330078 9.4995117-8.4990234 15.4990234-11.8330078 24.6669922-3.3339844 9.1660156-7.1674805 10-10.8334961 10.5-3.6665039.5-9.9995117-3.3339844-9.3330078-10.1679688" fill="#f2b375"/><path d="m25.3481445 59.3798828c-2.1728516 0-4.7280273-1.1054688-6.5961914-2.9033203-2.296875-2.2109375-3.3896484-5.1953125-3.0766602-8.4042969l1.9902344.1933594c-.3232422 3.3164063 1.1665039 5.5117188 2.4731445 6.7695313 1.6572266 1.5947266 4.015625 2.5478516 5.7294922 2.3105469 3.1791992-.4335938 6.7822266-.9248047 10.0292969-9.8505859 1.3398438-3.6835938 3.7939453-6.8173828 6.1679688-9.8476563 3.5742188-4.5634766 6.9511719-8.8740234 5.6337891-14.2392578-2.0371094-8.2939454-9.8896485-18.8725587-20.9804688-16.4282227-10.3974609 2.293457-10.7075195 11.8041992-10.715332 12.2075195l-2-.0332031c.0019531-.1147461.3168945-11.487793 12.284668-14.1274414 11.2578125-2.4775391 20.7128906 7.1538086 23.3525391 17.9047852 1.5498047 6.309082-2.2890625 11.2099609-6.0009766 15.9492188-2.2773438 2.9072266-4.6318359 5.9130859-5.8632813 9.2978516-3.3789063 9.2910156-7.4331055 10.5751953-11.6376953 11.1494141-.2563477.0341795-.5205078.0517576-.7905274.0517576z" fill="#72402d"/><g fill="#bf8258"><path d="m41.3779297 32s1.5527344-5.7714844 2.0722656-7.703125c-.9101563 3.3178711-14.855957 24.5400391-14.855957 24.5400391 3.258789-1 12.7836914-16.8369141 12.7836914-16.8369141z"/><path d="m43.4550781 24.2817383c-.0078125-.0195313-6.4511719-17.5825195-18.2783203-10.9672852-.28125.1513672-.546875.3125-.7954102.4785156-.4755859.3041992-.956543.6342773-1.4487305 1.0185547 0 0 .0976563-.0458984.2832031-.1176758-.8916016.7915039-1.3798828 1.4765625-1.3798828 1.4765625 1.5957031.4907227 7.7089844-.7353516 10.8208008-1.4155273 3.3774414 1.2011719 7.215332 3.9052734 10.7983398 9.5273438-.0019531.0048828-.0029297.0097656-.0048828.0146484.0009766-.0039063.0039063-.0092773.0048828-.0131836.2402345-.8964844.1933595-.722168.0000001-.0019531z"/><path d="m29.1254883 26.9321289c2.5019531 1.8051758 4.1733398 2.4760742 4.8276367 3.6494141.9277344 1.6625977 3.0009766 5.6254883 1.6738281-.8442383-.6708984-3.2719727-5.4316406-8.8837891-10.2954102-9.2792969-.1904297-.0771484-.3842773-.1445313-.5795898-.2016602-2.449707-.7133789-5.1660156.081543-5.1660156.081543.3334961 8.5 2.3334961 7.1665039 4.5043945 8s2.8291016 5.9990234 2.8291016 5.9990234c1.1455078-3.2553711 1.628418-5.7802734 1.6650391-7.75.203125.1176758.3852539.2329102.5410156.3452149z"/></g><path d="m21.0258789 42.8955078-.3813477-1.4511719c.2607422-.0683594 6.3710938-1.7597656 5.7788086-7.53125-.3945313-3.8461914-1.8828125-4.1801758-3.3217773-4.503418-.7836914-.1762695-1.6723633-.3759766-2.1030273-1.2368164-.1005859-.2011719-.2436523-.4326172-.40625-.6977539-1.1582031-1.8911133-3.5688477-5.8266602.6323242-11.7392578 1.9477539-2.7407227 4.4643555-4.4082031 7.277832-4.8217773 3.0664063-.4516602 6.3676758.5546875 9.2944336 2.831543 1.3984375 1.0878906 5.9970703 5.0825195 6.4404297 10.8041992.2783203 3.5869141-1.1318359 7.0527344-4.1894531 10.3007813l-1.0917969-1.0273438c2.7558594-2.9287109 4.0292969-6.0097656 3.7861328-9.1577148-.3964844-5.1079102-4.5908203-8.7436523-5.8671875-9.7363281-2.5625-1.9936523-5.5400391-2.9165039-8.1542969-2.53125-2.4335938.3579102-4.5439453 1.7729492-6.2734375 4.2070313-3.6274414 5.1049805-1.7172852 8.2231445-.5756836 10.0864258.1879883.3076172.3520508.5776367.46875.8105469.1069336.2133789.4838867.3081055 1.090332.4438477 1.5844727.3564453 3.9799805.894043 4.4848633 5.8149414.7241211 7.057617-6.8134765 9.1152342-6.8896484 9.1347654z" fill="#72402d"/></svg>