<svg id="Layer_1" data-name="Layer 1" xmlns="http://www.w3.org/2000/svg" viewBox="0 0 40.1 31.3"><g id="Regular-S"><path d="M20,21.9a2.76,2.76,0,0,0,2.2-1.2L37.93,5.2a5.9,5.9,0,0,0-3.7-.9h-29a4.81,4.81,0,0,0-3.1.8l15.7,15.6A2.63,2.63,0,0,0,20,21.9ZM5.83,35.6h29a4.81,4.81,0,0,0,3.1-.8L25,21.9,23.93,23a5.6,5.6,0,0,1-3.8,1.8,5.41,5.41,0,0,1-3.8-1.8l-1.1-1.1L2.33,34.8C2.83,35.3,4.13,35.6,5.83,35.6Zm-5.4-3L13,20,.33,7.5a5.83,5.83,0,0,0-.4,2.7V30A7.42,7.42,0,0,0,.43,32.6Zm39.2,0a5.83,5.83,0,0,0,.4-2.7V10.1a5.61,5.61,0,0,0-.4-2.6L27,20Z" transform="translate(0.07 -4.3)"/></g></svg>