<?xml version="1.0" encoding="UTF-8"?><svg id="Layer_1" xmlns="http://www.w3.org/2000/svg" viewBox="0 0 250 250"><path d="M27.78,34.72C12.44,34.72,0,47.16,0,62.5v125c0,15.34,12.44,27.78,27.78,27.78h41.67V34.72H27.78Zm194.44,0h-41.67V215.28h41.67c15.34,0,27.78-12.44,27.78-27.78V62.5c0-15.34-12.44-27.78-27.78-27.78Z" fill="#d52b1e"/><path d="M69.44,34.72h111.11V215.28H69.44V34.72Z" fill="#eee"/><path d="M129.27,153.56c8.32,.97,15.78,1.83,24.09,2.78l-2.12-6.96c-.32-1.22,.11-2.52,1.1-3.31l24.16-19.68-5-2.35c-2.2-.78-1.6-2.03-.8-5.01l3.69-13.44-14.03,2.97c-1.37,.21-2.28-.66-2.49-1.49l-1.81-6.33-11.1,12.46c-1.58,2-4.77,2-3.78-2.61l4.74-25.24-6.37,3.3c-1.78,1-3.57,1.17-4.56-.62l-8.78-16.43v0l-8.78,16.43c-1,1.78-2.78,1.62-4.57,.62l-6.36-3.3,4.74,25.24c1,4.61-2.2,4.61-3.78,2.61l-11.1-12.45-1.81,6.33c-.21,.83-1.12,1.7-2.49,1.49l-14.03-2.97,3.69,13.44c.78,2.99,1.4,4.23-.81,5.01l-5,2.35,24.16,19.68c.96,.74,1.44,2.08,1.1,3.31l-2.12,6.96,24.1-2.78c.74,0,1.22,.41,1.22,1.26l-1.49,25.72h6.64l-1.48-25.72c.01-.85,.49-1.26,1.23-1.26h0Z" fill="#d52b1e"/></svg>