<?xml version="1.0" encoding="UTF-8"?><svg id="Layer_1" xmlns="http://www.w3.org/2000/svg" viewBox="0 0 200 200"><path d="M130.61,44.11c5.25,3.09,9.98,6.98,14.01,11.54,3.95,4.46,7.12,9.56,9.38,15.07h0c1.28,3.16,2.29,6.43,3.01,9.77,1.68,7.49,1.81,15.24,.39,22.79-.77,4.08-1.94,8.07-3.5,11.91l-.2,.41c-3.35,8.14-9.1,16.05-14.65,23.86-2.85,3.94-5.66,7.85-8.04,11.64-1.52,2.41-4.26,3.77-7.1,3.53l-44.86,6.67c-3.8,.52-7.4-1.85-8.41-5.55-1.13-3.26-2.51-6.43-4.13-9.47-1.36-2.61-2.99-5.06-4.88-7.31-2.33-2.65-4.69-5.35-6.98-8.46-2.63-3.53-4.91-7.31-6.79-11.3h0c-1.97-4.17-3.5-8.53-4.57-13.02-1.06-4.51-1.58-9.12-1.55-13.75h0c0-4.83,.61-9.63,1.81-14.31,1.3-5,3.17-9.83,5.57-14.4l.33-.57c3.1-5.27,7.02-10.01,11.61-14.05,4.57-3.99,9.78-7.2,15.4-9.49l.46-.16c4.19-1.67,8.56-2.84,13.02-3.48,4.73-.66,9.52-.77,14.27-.33,4.65,.42,9.23,1.36,13.67,2.78,4.42,1.42,8.68,3.32,12.68,5.68h.07Zm-6.51,142.03c-2.46,4.24-5.98,7.77-10.22,10.24-3.58,2.08-7.59,3.31-11.72,3.58-4.13,.25-8.25-.56-11.98-2.36-2.69-1.32-5.11-3.13-7.15-5.32l41.16-6.14h-.1Zm3.92-23.03v3.63c.13,1.76,.13,3.53,0,5.29l-.8,3.89-49.87,7.42-.88-2-1.94-7.98v-2.31l53.37-7.94h.11ZM98.87,6.14C98.94,2.7,101.77-.04,105.21,0h.44c3.27,.29,5.75,3.05,5.7,6.33h0c0,.11,0,.22,0,.33l-.34,13.36h0c0,.14,0,.28,0,.42-.26,3.28-3.01,5.8-6.3,5.76h-.44c-3.28-.27-5.79-3.03-5.75-6.32h0c0-.1,0-.21,0-.31l.33-13.43,.03-.02ZM29.96,29.54c-2.54-2.34-2.7-6.29-.36-8.83,1.13-1.23,2.71-1.95,4.38-2.01,1.65-.08,3.27,.51,4.49,1.63l10.03,9.33c1.21,1.14,1.92,2.7,1.99,4.36,.08,1.65-.51,3.27-1.63,4.49-1.13,1.21-2.69,1.92-4.35,1.99-1.65,.08-3.27-.51-4.49-1.63l-10.06-9.33ZM13.55,98.44c-3.43,.06-6.27-2.65-6.38-6.07-.15-3.45,2.53-6.36,5.98-6.51,.03,0,.06,0,.09,0l13.69-.46c3.45-.15,6.36,2.53,6.51,5.98,0,.02,0,.05,0,.07v.1h0v.23c-.06,3.34-2.73,6.04-6.07,6.14h-.24l-13.51,.44-.07,.08Zm172.53-19.4h.13c1.57-.09,3.11,.41,4.33,1.4,1.29,1.04,2.11,2.56,2.28,4.22h0c0,.07,0,.14,0,.21,.21,3.35-2.26,6.27-5.6,6.61l-13.62,1.45c-1.65,.16-3.29-.33-4.57-1.38-2.68-2.17-3.09-6.11-.92-8.79,1.04-1.28,2.54-2.1,4.17-2.28,4.54-.5,9.11-1.03,13.67-1.46l.13,.03Zm-27-54.48c1.89-2.88,5.75-3.68,8.63-1.79,0,0,.02,.01,.03,.02h0c1.39,.91,2.35,2.34,2.65,3.97,.32,1.63-.02,3.31-.94,4.69l-7.62,11.39c-.9,1.41-2.33,2.4-3.97,2.73-1.62,.32-3.31-.02-4.69-.93-1.37-.92-2.32-2.34-2.67-3.96-.32-1.63,.02-3.31,.94-4.69l7.63-11.39v-.05Zm-89.68,107.07c-4.74-4.97-8.71-10.63-11.77-16.78-3.33-6.88-5.06-14.43-5.06-22.07,.17-8.22,2.29-16.27,6.2-23.5,.03-.05,.06-.11,.08-.16h0c4.96-8.59,12.63-15.3,21.81-19.06,7.19-2.89,14.96-4.01,22.67-3.26,7.64,.69,15.04,3.05,21.66,6.92,8.49,4.89,15.13,12.44,18.9,21.48,4.84,11.59,4.84,24.63,0,36.21-4.38,10.66-14.4,22.05-20.98,32.47-.36-.07-.73-.07-1.09,0l-42.45,6.27c-2.15-6.74-5.53-13.02-9.98-18.52Z" fill-rule="evenodd"/></svg>