<?xml version="1.0" encoding="UTF-8"?><svg id="Layer_1" xmlns="http://www.w3.org/2000/svg" viewBox="0 0 200 200"><g id="Regular-S"><path d="M76.12,199.05h21.34c6.71,0,11.01-4.83,11.01-10.87s-4.3-10.74-11.01-10.74h-21.34c-36.11,0-54.22-20.94-54.22-48.45s18.12-46.98,54.22-46.98h66.17s34.63-1.61,34.63-1.61l-2.28-5.77-26.58,22.15-28.45,27.65c-2.01,1.88-2.95,4.16-2.95,7.25,0,6.31,4.16,10.74,10.6,10.74,2.68,0,5.77-1.34,7.92-3.36l61.2-59.73c2.42-2.28,3.62-5.23,3.62-8.19s-1.21-5.77-3.62-8.05L135.17,3.36C133.02,1.21,129.94,0,127.25,0c-6.44,0-10.6,4.3-10.6,10.6,0,3.09,.94,5.5,2.95,7.38l28.45,27.65,26.58,22.15,2.28-5.77-34.63-1.61H78.13c-50.33,0-77.85,28.59-77.85,69.79,0,41.34,26.71,68.85,75.83,68.85Z" fill="#fff"/></g></svg>