<?xml version="1.0" encoding="UTF-8"?><svg id="Layer_1" xmlns="http://www.w3.org/2000/svg" viewBox="0 0 40 39.84"><g id="Regular-S"><path d="M19.98,37.32c.44,.01,.87-.02,1.3-.1l1,2c.2,.41,.64,.65,1.1,.6,.48-.11,.84-.51,.9-1l.3-2.2c.83-.21,1.64-.51,2.4-.9l1.6,1.5c.36,.31,.86,.39,1.3,.2,.4-.26,.6-.74,.5-1.2l-.5-2.2c.71-.51,1.38-1.08,2-1.7l2.1,.9c.45,.21,.99,.08,1.3-.3,.29-.37,.33-.89,.1-1.3l-1.2-1.9c.49-.73,.93-1.5,1.3-2.3l2.2,.1c.47,0,.9-.28,1.1-.7,.2-.44,.03-.97-.4-1.2l-1.8-1.4c.22-.85,.39-1.72,.5-2.6l2.1-.7c.46-.11,.79-.52,.8-1,0-.48-.33-.9-.8-1l-2.1-.7c-.07-.88-.24-1.75-.5-2.6l1.8-1.4c.36-.28,.52-.76,.4-1.2-.2-.42-.63-.7-1.1-.7l-2.2,.1c-.37-.8-.81-1.57-1.3-2.3l1.2-1.9c.24-.38,.2-.87-.1-1.2-.31-.39-.85-.52-1.3-.3l-2.1,.8c-.62-.62-1.29-1.19-2-1.7l.5-2.2c.12-.47-.08-.96-.5-1.2-.42-.27-.98-.18-1.3,.2l-1.6,1.5-2.4-.9-.3-2.2c-.06-.49-.42-.89-.9-1-.46-.08-.92,.17-1.1,.6l-1,2h-2.6l-1.1-2c-.22-.4-.65-.63-1.1-.6-.48,.11-.84,.51-.9,1l-.3,2.2c-.82,.26-1.62,.56-2.4,.9l-1.6-1.5c-.33-.36-.87-.44-1.3-.2-.42,.24-.62,.73-.5,1.2l.5,2.2c-.71,.51-1.38,1.08-2,1.7l-2-.8c-.45-.21-.99-.08-1.3,.3-.3,.33-.34,.82-.1,1.2l1.2,1.9c-.49,.73-.93,1.5-1.3,2.3l-2.2-.1c-.47,0-.9,.28-1.1,.7-.14,.44,.02,.93,.4,1.2l1.7,1.4c-.22,.85-.39,1.72-.5,2.6l-2.08,.7c-.44,.13-.74,.54-.72,1-.02,.45,.27,.86,.7,1l2.1,.7c.06,.88,.23,1.76,.5,2.6l-1.7,1.4c-.36,.28-.52,.76-.4,1.2,.2,.42,.63,.7,1.1,.7l2.2-.1c.37,.8,.81,1.57,1.3,2.3l-1.2,1.9c-.22,.42-.18,.92,.1,1.3,.31,.39,.85,.52,1.3,.3l2-.9c.62,.62,1.29,1.19,2,1.7l-.5,2.2c-.1,.46,.1,.94,.5,1.2,.42,.27,.98,.18,1.3-.2l1.6-1.5,2.4,.9,.3,2.2c.06,.49,.42,.89,.9,1,.46,.08,.92-.17,1.1-.6l1.1-2c.43,.09,.86,.12,1.3,.1Zm0-3.1c-7.73,0-14-6.26-14-14,0-.1,0-.2,0-.3,0-7.73,6.27-14,14-14s14,6.27,14,14c.17,7.73-5.97,14.13-13.7,14.3-.1,0-.2,0-.3,0Zm-.1-9.4c2.71,.06,4.94-2.09,5-4.8,.06-2.71-2.09-4.94-4.8-5-2.71-.06-4.94,2.09-5,4.8,0,.03,0,.07,0,.1,0,2.68,2.14,4.86,4.82,4.9h-.02Zm-1-.5l-2.2-1.5-6.08,10.1,2.3,1.4,5.98-10Zm-2.2-7.3l2.2-1.4L13.1,5.52l-2.3,1.3,5.88,10.2Zm7.5,4.2h11.6v-2.6h-11.58l-.02,2.6Zm-4.3,.7c-1.1,0-2-.9-2-2s.9-2,2-2,2,.9,2,2c.03,1.07-.81,1.97-1.88,2-.03,0-.07,0-.1,0h-.02Z"/></g></svg>