<?xml version="1.0" encoding="UTF-8"?><svg id="Layer_1" xmlns="http://www.w3.org/2000/svg" viewBox="0 0 250 250"><g><path d="M150.53,162.94c9.49,4.83,27.11,9.36,36.46,7.99,24.26-3.56,41.76-17.58,52.37-37,4.49-8.22,4.87-24.87-2.33-26.68-9.13-2.29-19.96-.5-36.79,7.45-17.12,8.09-21.24,20.87-41.39,11.03" fill="none" stroke="#fff" stroke-miterlimit="10" stroke-width="10"/><path d="M229.42,106.32c2.71,0,5.23,.32,7.63,.92,1.06,.27,1.94,.9,2.7,1.75,.23,3.06-.37,6.83-1.54,11.8-1.69,7.2-11.15,21.72-21.2,28.36-9.78,6.47-17.17,10.21-31.92,10.21h-1.23c-2.62-.04-16.13-.37-21.85-6.45-2.91-3.08-3.41-4.35-6.93-6.7l-.6-.9,4.39-19.58c5.19,2.53,9.32,3.57,12.88,3.57,10.26,0,15.81-8.59,28.52-14.6,12.4-5.86,21.55-8.37,29.16-8.37m0-5h0c-8.57,0-18.51,2.81-31.29,8.85-5.36,2.53-9.47,5.44-13.09,8-5.01,3.55-8.64,6.12-13.3,6.12-2.97,0-6.46-1-10.68-3.06l-5.69-2.78-1.38,6.18-4.39,19.58-.46,2.07,1.17,1.77,.6,.9,.56,.85,.84,.56c1.95,1.3,2.6,2.05,3.89,3.54,.6,.69,1.27,1.47,2.18,2.43,6.34,6.74,18.64,7.92,25.41,8.02h1.3c16.65,0,25.22-4.79,34.68-11.04,10.79-7.13,21.21-22.45,23.31-31.39,1.42-5.99,1.91-9.97,1.66-13.32l-.13-1.68-1.12-1.26c-1.49-1.68-3.24-2.78-5.2-3.28-2.89-.73-5.79-1.08-8.87-1.08h0v.02Z" fill="#fff"/><path d="M229.43,106.32h.54l-.6,1.35,10.34,4.52c-.12,1.48-.37,3.12-.71,4.95l-11.53-5.08-5.12,11.61,12.3,5.45c-.75,1.35-1.6,2.73-2.54,4.14l-11.71-5.18-5.12,11.61,8.53,3.79c-1.25,1.27-2.56,2.46-3.89,3.54l-6.58-2.95-4.2,9.86c-2.77,1.44-5.56,2.64-8.64,3.52l-10.26-4.45-2.91,6.31c-.43,0-1.17,.02-1.98,.02-1.3,0-2.74-.02-3.2-.04,1.27-2.87,3.68-8.24,3.68-8.24l-11.61-5.12-4.74,10.7c-1.56-.44-3.1-1-4.51-1.71l11.65-26.34c2.33-.67,4.49-1.79,6.66-3.16l11.55,5.24,5.12-11.61-4.33-1.91c3.29-2.04,11.09-5.35,13.15-6.16l-2.48,5.6,11.61,5.12,5.12-11.61-4.97-2.19c4.21-1.08,7.96-1.6,11.38-1.6m-18.62,31.42l5.12-11.61-11.61-5.12-5.12,11.61,11.61,5.12m-23.08,8.93l5.12-11.61-11.61-5.12-5.12,11.61,11.61,5.12m16.02,7.08l5.12-11.61-11.61-5.12-5.12,11.61,11.61,5.12m25.69-49.44h0c-3.63,0-7.51,.54-11.88,1.67l-5.59,1.43,.22,.1-4.14,1.63c-1.97,.77-10.01,4.18-13.47,6.32l-3.23,2,3.48,1.53,2.5,1.1-3.5,7.93-9.71-4.4-.98-.44-.91,.57c-2.35,1.47-4.24,2.38-6.15,2.93l-.9,.26-.38,.85-11.65,26.34-.77,1.74,1.69,.86c1.41,.71,3.04,1.34,4.86,1.85l1.67,.47,.7-1.59,3.93-8.88,7.94,3.5c-.82,1.83-2.06,4.61-2.86,6.41l-1.18,2.66,2.9,.15c.55,.03,2.08,.04,3.31,.04,.64,0,1.51,0,2.04-.02l1.23-.04,.52-1.12,2.09-4.54,8.47,3.67,.66,.29,.69-.2c2.99-.86,5.86-2.03,9.02-3.67l.64-.33,.28-.66,3.4-7.98,4.73,2.11,1.12,.5,.95-.77c1.38-1.12,2.74-2.36,4.05-3.69l2.03-2.06-2.64-1.17-6.71-2.98,3.51-7.95,9.87,4.37,1.53,.68,.94-1.39c.95-1.41,1.83-2.85,2.63-4.28l1.07-1.91-2-.89-10.48-4.64,3.51-7.95,9.7,4.28,2.3,1.02,.47-2.47c.39-2.07,.63-3.71,.74-5.16l.11-1.42-1.3-.57-8.5-3.72,1.01-2.27-3.02-.05h-.57v-.05Zm-20.49,11.26l1.67-3.77,1.85-4.18,4.79,2.12,3.14,1.39-3.51,7.95-7.95-3.51h0Zm-7.09,16.02l3.51-7.95,7.95,3.51-3.51,7.95-7.95-3.51h0Zm-23.08,8.93l3.51-7.95,7.95,3.51-3.51,7.95-7.95-3.51h0Zm16.02,7.08l3.51-7.95,7.95,3.51-3.51,7.95-7.95-3.51h0Z" fill="#fff"/><path d="M34.71,17.49c-1.98-.31-3.97-.54-5.97-.65-.83-.06-1.73-.08-2.45,.35-.6,.35-.98,.96-1.29,1.58-1.74,3.41-1.94,7.39-.56,10.95,.35,.87,1.02,1.83,1.93,1.67,.37-.06,.65-.29,.94-.52,2.85-2.22,5.48-4.71,7.86-7.43,.4-.46,.79-1.21,.31-1.62" fill="none" stroke="#fff" stroke-miterlimit="10" stroke-width="10"/><path d="M111.81,198.12c-16.65,8.07-27.69,17.48-39.24,29.03-.87,.87-4.49,4.81-2.25,6.01,2.23,1.19,7.76-2.85,9.34-1.79,1.89,1.25,.5,3.47,2.48,4.89s7.32-2.73,10.01-1.52c2.7,1.21,1.5,3.29,3.08,5.14,2.06,2.43,6.64,.17,7.87-.81,7.26-5.74,25.34-22.97,28.53-26.68,4.24-4.93,6.93-11.55,3.16-15.94" fill="none" stroke="#fff" stroke-miterlimit="10" stroke-width="10"/><path d="M55.69,192.65c-9.87,3.13-19.37,7.3-28.36,12.44-1.87,1.06-3.72,2.19-5.26,3.68-.67,.64-1.41,1.77-.73,2.41,1.54,1.41,4.49-.89,6.72,.87,.77,.62,.33,3.27,.9,4.08,.62,.85,1.79,1.16,2.85,1.08s2.06-.48,3.08-.79c2.25-.67,4.56-1.1,6.05,.67,.92,1.12,.87,2.16,1.46,3.35,.4,.83,1.08,1.48,2.75,1.46,2.54-.02,4.87-1.17,6.97-2.58,9.47-6.35,18.39-13.44,27.3-20.5" fill="none" stroke="#fff" stroke-miterlimit="10" stroke-width="10"/><path d="M92.35,25.48c6.66,1.87,8.32-.04,13.32,.35,6.41,.48,5.64,6.55,4.7,9.9-1.21,4.29-3.6,7.78-7.01,10.65-.58,.48-1.23,.98-2,1.04-.9,.08-1.73-.48-2.43-1.06-4.54-3.72-7.43-9.4-7.76-15.25" fill="none" stroke="#fff" stroke-miterlimit="10" stroke-width="10"/><path d="M99.09,41.23s29.9,25.72,44.45,42.32,30.65,48.38,28.84,66.54c-1.81,18.17-11.94,32.79-18.44,39.8-5.72,6.16-25.87,20.36-49.01,20.36-3.2,0-6.45-.27-9.73-.87-27.03-4.95-34.58-5.72-57.7-26.51s-18.69-58.74-18.69-58.74c0,0-16.11-10.74-10.05-29.26,4.14-12.67,15.94-14.04,15.94-14.04l31.27,.62,43.13-40.2m-.13-6.71l-3.28,3.05-41.64,38.82-29.24-.58h-.34l-.34,.03c-.61,.07-15.04,1.91-20.12,17.45-5.08,15.5,3.04,27.49,9.6,33.12-.58,9.69-.64,41.09,20.55,60.15,23.36,21.01,31.93,22.57,57.36,27.2l2.78,.51c3.46,.63,7.03,.95,10.63,.95,24.39,0,46.02-14.79,52.67-21.95,4.07-4.39,17.54-20.43,19.76-42.7,2.11-21.13-16.1-54.42-30.06-70.33-14.62-16.67-43.72-41.75-44.95-42.81l-3.39-2.92h.01Z" fill="#fff"/><path d="M58.35,9.04c13.15,0,25.11,2.98,35.87,18.08h0c8.34,11.69,10.57,19.64,11.55,27.36,1.39,10.74-3.31,23.55-17.17,33.08-5.59,3.84-14.01,5.32-23,5.32-16.46,0-34.81-4.94-41.09-9.34-9.7-6.8-12.82-15.98-12.13-25.8,.89-12.49,7.12-23.35,12.13-30.03,6.2-8.24,19.66-18.66,33.85-18.66m0-5c-15.33,0-30.36,10.7-37.84,20.65-4.46,5.95-12.09,18.1-13.12,32.69-.89,12.64,4.04,23.09,14.25,30.25,7.06,4.95,26.41,10.24,43.96,10.24,11.16,0,19.85-2.08,25.84-6.2,13.91-9.56,21.12-23.71,19.3-37.84-.98-7.7-3.16-16.62-12.44-29.62C85.61,6.43,70.98,4.04,58.35,4.04h.01Z" fill="#fff"/><path d="M70.52,29.77c2.14,0,4.31,1.81,5.18,4.52,1.02,3.19-.14,6.41-2.6,7.2-.37,.12-.75,.18-1.13,.18-2.14,0-4.31-1.81-5.18-4.52-1.02-3.19,.14-6.41,2.6-7.2,.37-.12,.75-.18,1.13-.18m0-5h0c-.9,0-1.8,.14-2.65,.41-2.66,.85-4.77,2.95-5.78,5.76-.87,2.39-.89,5.14-.06,7.73,1.53,4.78,5.53,8,9.94,8,.9,0,1.8-.14,2.65-.41,5.17-1.66,7.73-7.58,5.84-13.49-1.53-4.78-5.53-8-9.94-8h0Z" fill="#fff"/><path d="M36.88,60.75l10.97,4.49c-.83,5.66-.67,17.23-3.91,17.58-.1,.01-.21,.02-.31,.02-3.19,0-4.93-5.14-4.93-5.14,0,0-.5,4.27-2.66,4.41h-.06c-2.59,0-5.64-10.45-4.64-17.41l5.53-3.95m-.66-5.67l-2.24,1.6-5.53,3.95-1.74,1.24-.3,2.12c-.99,6.92,1.18,16.75,4.54,20.63,1.78,2.06,3.73,2.49,5.05,2.49,.12,0,.24,0,.35-.01,.95-.06,1.84-.31,2.65-.74,1.33,.91,2.88,1.48,4.64,1.48,.27,0,.55-.01,.82-.04,3.49-.37,5.78-3.11,6.82-8.15,.55-2.67,.82-5.94,1.05-8.83,.15-1.84,.29-3.57,.48-4.85l.57-3.87-3.62-1.48-10.97-4.49-2.55-1.04h-.02Z" fill="#fff"/><path d="M29.28,27.83h.13c3.1,.1,2.56,4.54,1.5,6.89-.84,1.83-2.54,3.62-4.35,3.62-.51,0-1.03-.14-1.54-.46-1.6-1-1.39-4.22-.94-5.6,.63-1.93,2.37-4.45,5.21-4.45m0-5h0c-3.42,0-8.07,2.07-9.96,7.91-1.02,3.18-1.04,8.82,3.05,11.38,1.27,.8,2.73,1.23,4.19,1.23,4.35,0,7.51-3.52,8.9-6.53,1.3-2.88,2.07-7.36,.03-10.63-1.28-2.05-3.44-3.26-5.92-3.34h-.28v-.02Z" fill="#fff"/><path d="M34.54,87.03c1.95,0,3.95,.95,5.75,1.88,2.62,1.37,5.1,1.85,7.68,3.83,7.59,5.78,8.63,30.32,33.27,38.64,3.11,1.05,6.14,1.49,9.06,1.49,16.75,0,29.58-14.72,29.58-14.72,0,0-9.31,21.34-30.08,21.34-1.86,0-3.82-.17-5.87-.55-7.91-1.44-15.04-5.28-20.81-10.65-6.26-5.81-11.07-12.24-14.77-19.96-2.24,0-4.42-.72-6.22-2.06-1.46-1.08-2.68-2.6-4.33-3.41-1.66-.81-3.64-.52-5.41-1-.27-.08-.87-.54-.21-1.27,1.14-1.29,2.64-2.21,3.95-3.33-1.64-1.66-5.76-2.41-6.06-2.56s-.6-.58-.39-.85c1.23-1.58,4.95-1.89,7.45-2.14-1.25-1.69-2.81-3.16-4.54-4.33,.64-.25,1.29-.36,1.95-.36m0-5h0c-1.32,0-2.6,.24-3.79,.71l-8.78,3.49,4.95,3.36c-.43,.35-.82,.75-1.18,1.2-.99,1.26-1.35,2.89-1,4.48,.34,1.5,1.3,2.84,2.63,3.66-.54,1.21-.64,2.55-.26,3.86,.54,1.87,2.04,3.36,3.92,3.9h.03l.03,.02c1.16,.31,2.25,.41,3.13,.49,.48,.04,1.2,.11,1.42,.19,.37,.18,.98,.73,1.56,1.26,.57,.52,1.22,1.11,1.98,1.67,1.75,1.3,3.79,2.22,5.92,2.68,3.74,7.1,8.54,13.33,14.62,18.98,6.69,6.22,14.76,10.34,23.32,11.9,2.28,.42,4.55,.63,6.76,.63,23.77,0,34.23-23.35,34.66-24.34l12.97-29.74-21.32,24.45c-.11,.12-11.61,13.01-25.82,13.01-2.53,0-5.04-.41-7.46-1.23-14.52-4.9-19.72-16.31-23.91-25.49-2.38-5.23-4.44-9.74-7.93-12.39-2.16-1.66-4.21-2.5-6.02-3.23-.84-.34-1.64-.67-2.37-1.05-2.45-1.27-5.12-2.45-8.07-2.45h0v-.02Z" fill="#fff"/><path d="M41.09,36.09c.81,0,1.63,.37,2.16,1.08,1.54,2.04,3.74,4.89,4.52,6.06,1.98,2.95,1.46,6.51-.87,8.18-1.93,1.37-8.14,4.27-8.14,4.27,0,0-4.91-3.99-6.47-5.89-1.56-1.91-.85-4.58-.04-5.91,1.23-1.96,4.08-4.43,7.03-7.1,.52-.47,1.16-.69,1.8-.69m0-5c-1.91,0-3.73,.7-5.15,1.98l-1.01,.92c-2.92,2.64-5.44,4.92-6.9,7.24l-.02,.03-.02,.03c-1.94,3.18-2.55,8.02,.44,11.68,1.79,2.19,6.3,5.89,7.19,6.61l2.43,1.97,2.84-1.33c1.11-.52,6.74-3.18,8.92-4.73,4.64-3.34,5.56-9.94,2.12-15.05-.68-1.02-2.13-2.93-3.53-4.77-.4-.53-.79-1.04-1.15-1.51-1.46-1.92-3.76-3.07-6.15-3.07h0Z" fill="#fff"/><path d="M38.39,51.76c1.17,0,2.42,.26,2.42,.77-.02,2.04-.25,4.68,.4,6.64,.92,2.75,2.54,3.52,4.95,4.37,1.04,.37,2.02,.52,2.92,.52,2.82,0,4.86-1.5,5.76-2.54,.29-.33,.63-.49,.94-.49,.85,0,1.49,1.13,.31,2.97-2.76,4.31-6.34,5.76-9.56,5.76-4.3,0-7.96-2.57-8.21-4.33-1.16,1.75-3.67,2.98-6.26,2.98-2.88,0-5.84-1.53-7.1-5.6-.47-1.49,0-2.87,.27-2.87,.02,0,.04,0,.06,.02,.45,.42,2.26,3.25,5.3,3.25,1,0,2.12-.3,3.38-1.1,1.56-.96,1.81-3.14,1.87-4.97,.06-1.66,.02-3.29,.58-4.87,.12-.35,1.02-.52,1.97-.52m0-5h0c-4.64,0-6.18,2.42-6.69,3.87-.74,2.09-.79,4.09-.84,5.7,0,.21-.01,.43-.02,.64-.02,.57-.05,.95-.09,1.2-.11,.04-.16,.04-.16,.04-.19-.06-.59-.44-1.16-1.11-.21-.25-.43-.52-.73-.79-.97-.89-2.19-1.37-3.47-1.37h0c-1.65,0-3.17,.78-4.17,2.14-1.34,1.82-1.68,4.65-.87,7.23,1.74,5.61,6.29,9.11,11.87,9.11,1.98,0,3.93-.45,5.66-1.25,2.41,1.59,5.55,2.6,8.81,2.6,5.55,0,10.44-2.86,13.77-8.06,1.65-2.57,1.89-5.34,.67-7.58-1.04-1.9-3.03-3.09-5.18-3.09h0c-1.79,0-3.52,.81-4.73,2.23h0s-.75,.8-1.97,.8c-.39,0-.82-.08-1.26-.24-1.64-.58-1.64-.59-1.86-1.24-.25-.76-.21-2.48-.17-3.74,0-.44,.02-.86,.03-1.27,0-.64-.21-5.81-7.42-5.81h-.02Z" fill="#fff"/><path d="M21.23,104.65c2.46,4.08,2.93,9.76,1.66,13.82-.65,2.14-1.69,3.74-2.56,4.64-.4,.4-.93,.6-1.45,.6-.46,0-.92-.16-1.3-.47-.31-.25-.73-.69-1.06-.98,.04-.1,.98-.67,1.69-1.85,1.79-3,2.48-7.8,.71-13.42l2.31-2.35m.95-8.1l-4.52,4.59-2.31,2.35-2.11,2.14,.9,2.87c1.36,4.32,.77,7.67-.24,9.36-.07,.12-.24,.26-.39,.38-.35,.29-1.16,.95-1.65,2.17l-1.31,3.27,2.64,2.33c.09,.08,.19,.18,.3,.28,.26,.25,.56,.54,.89,.81,1.26,1.04,2.84,1.61,4.47,1.61,1.88,0,3.66-.73,4.99-2.07l.04-.04,.04-.04c1.61-1.68,2.93-4.04,3.73-6.63,1.76-5.62,.9-12.82-2.16-17.87l-3.33-5.51h.02Z" fill="#fff"/><path d="M99.32,64.08c.69,8.7,1.46,28.07-24.57,31.44-1.29,.17-2.59,.24-3.87,.24-8.08,0-15.44-2.9-15.44-2.9,0,0,14.67-.96,21.1-8.55l-1.41,6.49c6.03-.73,12.42-12.4,12.42-12.4l.08,7.8c7.7-4.18,11.69-22.12,11.69-22.12m2.34-33.6l-7.22,32.51h0c-.44,1.97-1.12,4.34-1.97,6.72l-.1-10.49-8.72,15.91,2.02-9.31-12.94,15.26c-4.12,4.86-14.12,6.55-17.62,6.79l-22.09,1.53,20.59,8.11c.34,.13,8.35,3.25,17.27,3.25,1.56,0,3.08-.1,4.52-.28,13.02-1.68,21.83-7.26,26.18-16.56,3.7-7.9,3.01-16.55,2.72-20.24l-2.64-33.2h0Z" fill="#fff"/><path d="M14.63,92.15c3.27-5.12,9.05-6.72,13.75-5.99,.21,.04,.79,.25,.94,.39,.31,.29,.17,.85-.17,1.12-.33,.27-.79,.33-1.19,.44-2.35,.58-4.47,2.37-4.87,4.76,1.67-.69,3.68-.54,5.24,.37,.42,.25,.89,.75,.64,1.19-.13,.25-.46,.35-.75,.44-2.04,.65-3.43,2.79-3.75,4.91,1.1-.23,2.23-.48,3.35-.29s2.6,1.14,2.48,2c-.13,.92-2.64,.31-3.77,2.29-.79,1.39-1.21,3.06-2.45,4.06-1.14,.92-2.77,1.12-4.18,.69-1.41-.4-2.62-1.35-3.58-2.45-3.29-3.75-4-9.55-1.67-13.94" fill="none" stroke="#fff" stroke-miterlimit="10" stroke-width="5"/></g><path d="M150.53,162.94c9.49,4.83,27.11,9.36,36.46,7.99,24.26-3.56,41.76-17.58,52.37-37,4.49-8.22,4.87-24.87-2.33-26.68-9.13-2.29-19.96-.5-36.79,7.45-17.12,8.09-21.24,20.87-41.39,11.03" fill="#754335"/><path d="M155.07,146.21c3.52,2.35,4.02,3.62,6.93,6.7,5.72,6.08,19.23,6.41,21.85,6.45,15.58,.21,23.1-3.56,33.15-10.2,10.05-6.64,19.5-21.16,21.2-28.36,1.17-4.97,1.77-8.74,1.54-11.8-.75-.85-1.64-1.48-2.7-1.75-9.13-2.29-19.96-.5-36.79,7.45-17.12,8.09-21.24,20.87-41.39,11.03l-4.39,19.58,.6,.9h0Z" fill="#c98150" isolation="isolate" opacity=".44"/><path d="M239,117.14c.35-1.83,.6-3.47,.71-4.95l-10.34-4.52,.6-1.35c-3.56-.06-7.49,.46-11.92,1.6l4.97,2.19-5.12,11.61-11.61-5.12,2.48-5.6c-2.06,.81-9.86,4.12-13.15,6.16l4.33,1.91-5.12,11.61-11.55-5.24c-2.18,1.37-4.33,2.48-6.66,3.16l-11.65,26.34c1.41,.71,2.95,1.27,4.51,1.71l4.74-10.7,11.61,5.12s-2.41,5.37-3.68,8.24c.75,.04,4.06,.06,5.18,.02l2.91-6.31,10.26,4.45c3.08-.89,5.87-2.08,8.64-3.52l4.2-9.86,6.58,2.95c1.33-1.08,2.64-2.27,3.89-3.54l-8.53-3.79,5.12-11.61,11.71,5.18c.94-1.41,1.79-2.79,2.54-4.14l-12.3-5.45,5.12-11.61,11.53,5.08h0v-.02Zm-51.27,29.53l-11.61-5.12,5.12-11.61,11.61,5.12-5.12,11.61Zm16.02,7.08l-11.61-5.12,5.12-11.61,11.61,5.12-5.12,11.61Zm7.07-16.02l-11.61-5.12,5.12-11.61,11.61,5.12-5.12,11.61Z" fill="#754335"/><path d="M34.71,17.49c-1.98-.31-3.97-.54-5.97-.65-.83-.06-1.73-.08-2.45,.35-.6,.35-.98,.96-1.29,1.58-1.74,3.41-1.94,7.39-.56,10.95,.35,.87,1.02,1.83,1.93,1.67,.37-.06,.65-.29,.94-.52,2.85-2.22,5.48-4.71,7.86-7.43,.4-.46,.79-1.21,.31-1.62" fill="#944c3b"/><path d="M111.81,198.12c-16.65,8.07-27.69,17.48-39.24,29.03-.87,.87-4.49,4.81-2.25,6.01,2.23,1.19,7.76-2.85,9.34-1.79,1.89,1.25,.5,3.47,2.48,4.89s7.32-2.73,10.01-1.52,1.5,3.29,3.08,5.14c2.06,2.43,6.64,.17,7.87-.81,7.26-5.74,25.34-22.97,28.53-26.68,4.24-4.93,6.93-11.55,3.16-15.94" fill="#754335"/><path d="M55.69,192.65c-9.87,3.13-19.37,7.3-28.36,12.44-1.87,1.06-3.72,2.19-5.26,3.68-.67,.64-1.41,1.77-.73,2.41,1.54,1.41,4.49-.89,6.72,.87,.77,.62,.33,3.27,.9,4.08,.62,.85,1.79,1.16,2.85,1.08s2.06-.48,3.08-.79c2.25-.67,4.56-1.1,6.05,.67,.92,1.12,.87,2.16,1.46,3.35,.4,.83,1.08,1.48,2.75,1.46,2.54-.02,4.87-1.17,6.97-2.58,9.47-6.35,18.39-13.44,27.3-20.5" fill="#754335"/><path d="M92.35,25.48c6.66,1.87,8.32-.04,13.32,.35,6.41,.48,5.64,6.55,4.7,9.9-1.21,4.29-3.6,7.78-7.01,10.65-.58,.48-1.23,.98-2,1.04-.9,.08-1.73-.48-2.43-1.06-4.54-3.72-7.43-9.4-7.76-15.25" fill="#944c3b"/><path d="M24.7,80.81s-11.8,1.37-15.94,14.04c-6.06,18.52,10.05,29.26,10.05,29.26,0,0-4.43,37.95,18.69,58.74,23.12,20.79,30.67,21.56,57.7,26.51s52.23-12.48,58.74-19.48c6.51-7.01,16.63-21.62,18.44-39.8,1.81-18.16-14.29-49.94-28.84-66.54s-44.45-42.32-44.45-42.32l-43.13,40.2-31.27-.62h0Z" fill="#cf7d51"/><path d="M94.22,27.12c-10.76-15.09-22.72-18.08-35.87-18.08-14.19,0-27.65,10.42-33.85,18.66-5.01,6.68-11.24,17.54-12.13,30.03-.69,9.82,2.43,19,12.13,25.8,9.7,6.8,48.27,14.9,64.09,4.02,13.86-9.53,18.56-22.33,17.17-33.08-.98-7.72-3.22-15.67-11.55-27.36h.01Z" fill="#cf7d51"/><ellipse cx="71.25" cy="35.72" rx="4.68" ry="6.06" transform="translate(-7.5 23.45) rotate(-17.77)" fill="#212121"/><path d="M31.36,64.7c-1,7.01,2.1,17.56,4.7,17.4,2.16-.13,2.66-4.41,2.66-4.41,0,0,1.85,5.47,5.24,5.12,3.23-.35,3.08-11.92,3.91-17.58l-10.97-4.49-5.53,3.95h0Z" fill="#ffecb3"/><path d="M24.08,32.27c.64-1.96,2.43-4.52,5.33-4.45,3.1,.1,2.56,4.54,1.5,6.89-1.08,2.35-3.56,4.62-5.89,3.16-1.6-1-1.39-4.22-.94-5.6Z" fill="#212121"/><path d="M81.24,131.39c-24.64-8.32-25.68-32.86-33.27-38.64-2.58-1.98-5.06-2.46-7.68-3.83-2.41-1.25-5.18-2.52-7.7-1.52,1.73,1.17,3.29,2.64,4.54,4.33-2.5,.25-6.22,.56-7.45,2.14-.21,.27,.08,.69,.39,.85,.31,.15,4.43,.9,6.06,2.56-1.31,1.12-2.81,2.04-3.95,3.33-.65,.73-.06,1.19,.21,1.27,1.77,.48,3.75,.19,5.41,1s2.87,2.33,4.33,3.41c1.8,1.34,3.98,2.06,6.22,2.06,3.7,7.72,8.51,14.15,14.77,19.96,5.78,5.37,12.9,9.2,20.81,10.65,24.89,4.54,35.94-20.79,35.94-20.79,0,0-17.69,20.29-38.64,13.23h.01Z" fill="#944c3b"/><path d="M43.25,37.17c-.96-1.27-2.79-1.44-3.97-.39-2.95,2.68-5.8,5.14-7.03,7.1-.81,1.33-1.52,4,.04,5.91s6.47,5.89,6.47,5.89c0,0,6.22-2.91,8.14-4.27,2.33-1.67,2.85-5.24,.87-8.18-.79-1.17-2.98-4.02-4.52-6.06h0Z" fill="#212121"/><path d="M56.1,64c1.62-2.52-.19-3.72-1.25-2.48-1.19,1.37-4.35,3.54-8.68,2.02-2.41-.85-4.02-1.62-4.95-4.37-.65-1.96-.42-4.6-.4-6.64,0-.92-4.12-1.02-4.39-.25-.56,1.58-.52,3.22-.58,4.87-.06,1.83-.31,4-1.87,4.97-5.08,3.22-8.09-1.6-8.68-2.16-.25-.23-.83,1.25-.33,2.85,2.39,7.72,10.92,6.31,13.36,2.62,.44,3.08,11.32,8.64,17.77-1.42h0Z" fill="#212121"/><path d="M16.51,122.26c.33,.29,.75,.73,1.06,.98,.81,.67,2,.62,2.75-.13,.87-.9,1.91-2.5,2.56-4.64,1.27-4.06,.81-9.74-1.66-13.82l-2.31,2.35c1.77,5.62,1.08,10.42-.71,13.42-.71,1.17-1.66,1.75-1.69,1.85h0Z" fill="#944c3b"/><path d="M76.54,84.31l-1.41,6.49c6.03-.73,12.42-12.4,12.42-12.4l.08,7.8c7.7-4.18,11.69-22.12,11.69-22.12,.69,8.7,1.46,28.07-24.57,31.44-9.43,1.23-19.31-2.66-19.31-2.66,0,0,14.67-.96,21.1-8.55h0Z" fill="#944c3b"/><path d="M14.63,92.15c3.27-5.12,9.05-6.72,13.75-5.99,.21,.04,.79,.25,.94,.39,.31,.29,.17,.85-.17,1.12-.33,.27-.79,.33-1.19,.44-2.35,.58-4.47,2.37-4.87,4.76,1.67-.69,3.68-.54,5.24,.37,.42,.25,.89,.75,.64,1.19-.13,.25-.46,.35-.75,.44-2.04,.65-3.43,2.79-3.75,4.91,1.1-.23,2.23-.48,3.35-.29s2.6,1.14,2.48,2c-.13,.92-2.64,.31-3.77,2.29-.79,1.39-1.21,3.06-2.45,4.06-1.14,.92-2.77,1.12-4.18,.69-1.41-.4-2.62-1.35-3.58-2.45-3.29-3.75-4-9.55-1.67-13.94" fill="#944c3b"/></svg>