<?xml version="1.0" encoding="UTF-8"?><svg id="Layer_1" xmlns="http://www.w3.org/2000/svg" viewBox="0 0 533.3 533.53"><circle cx="267.44" cy="283.86" r="249.68"/><path d="M532.3,266.98C532.3,120.39,413.48,1.57,266.99,1.57S1.58,120.39,1.58,266.98c0,132.45,97.03,242.22,223.91,262.12v-185.4h-67.37v-76.73h67.37v-58.51c0-66.48,39.61-103.3,100.21-103.3,29.06,0,59.41,5.17,59.41,5.17v65.38h-33.44c-32.94,0-43.29,20.5-43.29,41.4v49.76h73.64l-11.74,76.73h-61.8v185.4c126.78-19.8,223.81-129.57,223.81-262.02" fill="#fff"/><path d="M533.3,266.65c0,133.04-97.43,243.32-224.82,263.39v-10.75c5.47-5.96,280.2-476.97-33.51-458.97-364.17,20.89-49.36,438.61-55.05,438.24-6.26-.4,2.12,13.07,5.6,18.34v13.24C97.78,510.37,0,399.93,0,266.65,0,119.38,119.38,0,266.65,0s266.65,119.38,266.65,266.65Z" fill="#fff"/></svg>