<?xml version="1.0" encoding="UTF-8"?><svg id="Layer_1" xmlns="http://www.w3.org/2000/svg" viewBox="0 0 533.3 533.6"><circle cx="267.4" cy="283.9" r="249.7" fill="#fff"/><path d="M532.3,267C532.3,120.4,413.5,1.6,267,1.6S1.6,120.4,1.6,267c0,132.5,97,242.2,223.9,262.1v-185.4h-67.4v-76.7h67.4v-58.5c0-66.5,39.6-103.3,100.2-103.3,29.1,0,59.4,5.2,59.4,5.2v65.4h-33.4c-32.9,0-43.3,20.5-43.3,41.4v49.8h73.6l-11.7,76.7h-61.8v185.3c126.8-19.8,223.8-129.6,223.8-262"/><path d="M533.3,266.6c0,133-97.4,243.3-224.8,263.4v-10.7c5.5-6,280.2-477-33.5-459-364.2,20.9-49.4,438.6-55,438.2-6.3-.4,2.1,13.1,5.6,18.3v13.2C97.8,510.4,0,399.9,0,266.6,0,119.4,119.4,0,266.6,0s266.7,119.4,266.7,266.6Z"/></svg>