<?xml version="1.0" encoding="UTF-8"?><svg id="Capa_1" xmlns="http://www.w3.org/2000/svg" viewBox="0 0 250 250"><g><g><path d="M52.35,168.99v-51.5c81.54,4.38,106.36-8.37,106.36-8.37l3.03,47.01c-30.63,8.63-78.33,11.4-109.4,12.86Z" fill="#fff" stroke="#fff" stroke-linecap="round" stroke-linejoin="round" stroke-width="6"/><g><path d="M253.6,19.59c-55.35,71.21-63.74,77.5-94.89,89.53l3.03,47.01s23.77-4.5,30.66-16.03c26.26-43.96,61.2-86.3,61.2-86.3V19.59Z" fill="#fff" stroke="#fff" stroke-linecap="round" stroke-linejoin="round" stroke-width="6"/><path d="M11.06,119.1c-11.82,16.05-6.48,32.85,0,40.7,10.36,12.55,41.29,9.19,41.29,9.19v-51.5s-36.03-5.54-41.29,1.6Z" fill="#fff" stroke="#fff" stroke-linecap="round" stroke-linejoin="round" stroke-width="6"/></g></g><g><path d="M52.35,168.99v-51.5c81.54,4.38,106.36-8.37,106.36-8.37l3.03,47.01c-30.63,8.63-78.33,11.4-109.4,12.86Z" fill="#2a2e31"/><g><path d="M253.6,19.59c-55.35,71.21-63.74,77.5-94.89,89.53l3.03,47.01s23.77-4.5,30.66-16.03c26.26-43.96,61.2-86.3,61.2-86.3V19.59Z" fill="#aa6a2b"/><path d="M11.06,119.1c-11.82,16.05-6.48,32.85,0,40.7,10.36,12.55,41.29,9.19,41.29,9.19v-51.5s-36.03-5.54-41.29,1.6Z" fill="#aa6a2b"/></g></g></g><g><path d="M215.18,222.81c0,7.58-21.73,13.72-48.54,13.72s-48.54-6.14-48.54-13.72,97.09-7.58,97.09,0Z" fill="#2a2e31" stroke="#fff" stroke-linecap="round" stroke-linejoin="round" stroke-width="6"/><rect x="118.09" y="195.01" width="97.09" height="27.8" fill="#2a2e31" stroke="#fff" stroke-linecap="round" stroke-linejoin="round" stroke-width="6"/><ellipse cx="166.63" cy="194.37" rx="48.54" ry="13.72" fill="#586166" stroke="#fff" stroke-linecap="round" stroke-linejoin="round" stroke-width="6"/></g><g><path d="M215.18,222.49c0,7.58-21.73,13.72-48.54,13.72s-48.54-6.14-48.54-13.72,97.09-7.58,97.09,0Z" fill="#2a2e31"/><rect x="118.09" y="194.69" width="97.09" height="27.8" fill="#2a2e31"/><ellipse cx="166.63" cy="194.05" rx="48.54" ry="13.72" fill="#586166"/></g></svg>