<?xml version="1.0" encoding="UTF-8"?><svg id="Layer_1" xmlns="http://www.w3.org/2000/svg" viewBox="0 0 130.02 130.02"><circle cx="65.01" cy="65.01" r="65.01"/><path d="M65,24.09c-11.12,0-12.5,.05-16.87,.25-4.36,.2-7.33,.89-9.93,1.9-2.69,1.05-4.97,2.45-7.25,4.71-2.28,2.28-3.67,4.56-4.72,7.25-1.01,2.6-1.7,5.57-1.9,9.93-.2,4.36-.25,5.76-.25,16.87s.05,12.5,.25,16.87c.2,4.36,.89,7.33,1.9,9.93,1.05,2.69,2.45,4.97,4.72,7.25,2.28,2.28,4.55,3.67,7.25,4.72,2.6,1.01,5.57,1.7,9.93,1.9,4.36,.2,5.76,.25,16.87,.25s12.5-.05,16.87-.25c4.36-.2,7.33-.89,9.94-1.9,2.69-1.05,4.97-2.45,7.25-4.72s3.67-4.56,4.72-7.25c1.01-2.6,1.7-5.57,1.9-9.93,.2-4.36,.25-5.75,.25-16.87s-.05-12.5-.25-16.87c-.2-4.36-.9-7.33-1.9-9.93-1.05-2.69-2.45-4.97-4.72-7.25s-4.55-3.67-7.25-4.71c-2.61-1.01-5.58-1.7-9.94-1.9-4.36-.2-5.75-.25-16.87-.25h0Zm-3.67,7.37h3.67c10.93,0,12.22,.04,16.54,.24,3.99,.18,6.15,.85,7.59,1.41,1.91,.74,3.27,1.63,4.71,3.06,1.43,1.43,2.32,2.8,3.06,4.71,.56,1.44,1.23,3.61,1.41,7.59,.2,4.31,.24,5.61,.24,16.53s-.04,12.22-.24,16.53c-.18,3.99-.85,6.15-1.41,7.59-.74,1.91-1.63,3.26-3.06,4.7-1.43,1.43-2.8,2.32-4.71,3.06-1.44,.56-3.61,1.23-7.59,1.41-4.31,.2-5.61,.24-16.54,.24s-12.22-.04-16.54-.24c-3.99-.19-6.15-.85-7.59-1.41-1.91-.74-3.27-1.63-4.71-3.06-1.43-1.43-2.32-2.8-3.06-4.71-.56-1.44-1.23-3.61-1.41-7.59-.2-4.31-.24-5.61-.24-16.54s.04-12.22,.24-16.53c.18-3.99,.85-6.15,1.41-7.59,.74-1.91,1.63-3.27,3.06-4.71s2.8-2.32,4.71-3.06c1.44-.56,3.61-1.23,7.59-1.42,3.78-.17,5.23-.22,12.86-.23h0s0,.02,0,.02Zm25.51,6.8c-2.71,0-4.91,2.2-4.91,4.91s2.2,4.91,4.91,4.91,4.91-2.2,4.91-4.91-2.2-4.91-4.91-4.91h0Zm-21.84,5.74c-11.6,0-21.01,9.41-21.01,21.01s9.41,21.01,21.01,21.01,21.01-9.4,21.01-21.01-9.4-21.01-21.01-21.01h0Zm0,7.37c7.54,0,13.64,6.1,13.64,13.64s-6.1,13.64-13.64,13.64-13.64-6.1-13.64-13.64,6.1-13.64,13.64-13.64Z" fill="#fff"/></svg>