<?xml version="1.0" encoding="UTF-8"?><svg id="Layer_1" xmlns="http://www.w3.org/2000/svg" viewBox="0 0 250 250"><path d="M234.47,89.06l-.87-2.69-6.9,2.38,5.25-15.79-2.7,.88-.02-.06-12.97,4.17,6.6-20.71,1.49-8.49-5.59-.67-24.48,7.88,8.17-25.76-1.13-4.1-8.46,1.29-20.57,6.58,3.97-13.81-.16-.05,.88-2.94-15.61,4.86,1.48-4.76-2.69-.88-2.08,6.66-16.84,5.25-.93,2.99,16.82-5.17-4.4,14.14-20.32,6.54,.87,2.69,18.36-5.91-4.2,12.94-18.25,5.89,.87,2.69,16.3-5.26-4.2,12.93-21.79,7.04,.87,2.69,3.6-1.16-4.22,13-15.86,5.13,.87,2.69,13.91-4.5-4.24,13.05-16.39,5.32,.88,2.69,14.43-4.69-4.2,12.92-11.11,3.61,.88,2.69,9.16-2.97-5.27,16.25,16.25-5.27-2.97,9.16,2.69,.88,3.6-11.12,12.92-4.2-4.68,14.43,2.7,.88,5.32-16.39,13.04-4.24-4.5,13.91,2.7,.87,5.13-15.86,16.32-5.29,5.24-16.24,12.93-4.2-5.26,16.3,2.7,.87,5.89-18.25,12.93-4.2-5.91,18.36,2.7,.87,6.54-20.31,12.76-4.39-5.43,16.14,2.99-1.24,5.29-15.91,8.89-3.06h0v.03h0Zm-21.53-10.05l-12.92,4.2,4.17-12.95,12.91-4.17-4.16,12.92h0Zm-66.21,24.47l-4.2,12.92-12.92,4.2,4.2-12.92,12.92-4.2Zm-11.84,.86l4.23-13.03,12.91-4.18-4.22,13.02-12.92,4.2h0Zm15.17-1.96l13-4.22-4.17,12.92-13.02,4.22,4.2-12.92h0Zm1.08-3.33l4.22-13.01,12.98-4.2-4.2,12.99-13,4.22Zm23.54-36.81l-12.95,4.18,4.2-12.93,12.93-4.17-4.17,12.92h0Zm2.26,2.25l12.93-4.17-4.18,12.94-12.95,4.19,4.2-12.95h0Zm-3.33,1.05l-4.19,12.96-12.97,4.2,4.21-12.97,12.95-4.18h0Zm-1.94,15.18l12.95-4.19-4.19,12.97-12.97,4.21,4.2-12.99h.01Zm16.27-5.26l12.91-4.18-4.18,12.95-12.92,4.2,4.19-12.96h0Zm34.37-25.68l-4.15,12.91-12.9,4.17,4.17-12.93,12.88-4.16h0Zm-16.21,5.25l-4.17,12.93-12.91,4.18,4.17-12.94,12.91-4.17h0Zm-15.16,1.92l-12.93,4.17,4.18-12.92,12.93-4.17-4.17,12.91h0Zm9.4-29.11l-4.16,12.89-12.92,4.17,4.17-12.91,12.91-4.15h0Zm-16.23,5.22l-4.17,12.91-12.93,4.17,4.2-12.93,12.91-4.16h-.01Zm-23.71-7.99l12.57-3.87-4.03,13.79-12.91,4.15,4.37-14.08h0Zm-5.45,17.42l12.91-4.15-4.2,12.93-12.91,4.17,4.2-12.94h0Zm-5.28,16.24l12.91-4.17-4.2,12.93-12.91,4.17s4.2-12.93,4.2-12.93Zm-5.27,16.25l12.91-4.17-4.21,12.97-12.91,4.18,4.21-12.99h0Zm-16.24,5.26l12.91-4.17-4.22,12.99-12.91,4.18,4.22-13Zm-5.3,16.32l12.91-4.17-4.23,13.03-12.92,4.2,4.24-13.05h0Zm-5.31,16.36l12.92-4.2-4.2,12.92-12.92,4.2,4.2-12.92Zm3.45,24.98l-12.93,4.2,4.2-12.93,12.92-4.2-4.19,12.93h0Zm16.25-5.27l-12.92,4.2,4.2-12.93,12.92-4.2-4.2,12.93Zm16.38-5.32l-13.04,4.23,4.2-12.93,13.02-4.23-4.17,12.93h-.01Zm16.32-5.29l-12.99,4.22,4.18-12.92,12.98-4.21-4.17,12.91h0Zm5.24-16.24l-12.97,4.21,4.18-12.92,12.97-4.21-4.17,12.92h0Zm16.25-5.28l-12.92,4.2,4.17-12.91,12.92-4.2s-4.17,12.91-4.17,12.91Zm16.26-5.28l-12.93,4.2,4.17-12.91,12.92-4.2-4.15,12.91h-.01Zm3.33-1.08l4.15-12.91,12.91-4.15-4.24,12.63-12.82,4.43h0Z" fill="#bdd1db"/><path d="M8.77,249.31c-4.47,0-8.09-3.63-8.09-8.1,0-2.14,.85-4.2,2.36-5.71l81.11-81.11c3.16-3.16,8.28-3.16,11.44,0s3.16,8.28,0,11.44h0L14.49,246.95c-1.58,1.58-3.65,2.36-5.72,2.36Z" fill="#269"/><path d="M192.88,119.99l-10.23-1.59c2.3-14.76-2.11-28.96-12.09-38.95-9.99-9.98-24.16-14.42-38.95-12.1l-1.59-10.22c18.05-2.81,35.51,2.65,47.86,15,12.35,12.36,17.82,29.8,15.01,47.86h-.01Z" fill="#a8bfcc"/><path d="M212.15,115.29l-10.26-1.35c2.44-18.47-3.58-36.46-16.48-49.36-12.9-12.91-30.92-18.91-49.35-16.48l-1.35-10.26c21.71-2.86,42.83,4.22,58.02,19.42s22.28,36.34,19.41,58.02h0Z" fill="#a8bfcc"/><circle cx="173.1" cy="200.52" r="23.62" fill="#f4900c"/><path d="M225.85,24.14c-21.02-21.01-55.23-35.91-82.45-8.68-10.2,10.19-12.1,20.24-14.12,30.87-2.75,14.47-5.87,30.87-30.78,55.78-11.75,11.75-12.32,21.3-12.84,29.72-.41,6.7-.76,12.48-6.24,20.27-1.45,2.06-1.21,4.86,.57,6.64l11.28,11.28c1.78,1.78,4.58,2.02,6.64,.57,7.78-5.49,13.57-5.83,20.26-6.24,8.43-.51,17.97-1.09,29.71-12.84,24.91-24.91,41.31-28.03,55.79-30.78,10.63-2.02,20.68-3.92,30.87-14.12,27.23-27.24,12.34-61.45-8.69-82.47h0Zm-5.33,16.45c3.42-2.51,8.22-1.77,10.73,1.65s1.77,8.22-1.65,10.73c-.07,.05-.15,.11-.22,.16-3.5,2.39-8.28,1.48-10.66-2.02-2.33-3.42-1.53-8.06,1.8-10.51h0Zm-17.39-23.57c4.23-.13,7.77,3.2,7.9,7.43,.13,4.23-3.2,7.77-7.43,7.9h-.46c-4.23-.13-7.56-3.66-7.43-7.9,.12-4.05,3.38-7.31,7.43-7.43h0Zm-32.81-6.53c1.07-4.1,5.26-6.56,9.36-5.49s6.56,5.26,5.49,9.36c-1.07,4.1-5.26,6.56-9.36,5.49s-6.56-5.26-5.49-9.36h0Zm56.91,88.77c-7.95,7.94-15.3,9.34-25.49,11.27-15.16,2.88-34.01,6.46-61.17,33.62-1.28,1.28-2.5,2.35-3.69,3.31-7.54,1.79-18.05,1.81-27.12-7.26s-9.06-19.57-7.26-27.12c1.04-1.28,2.14-2.51,3.31-3.68,27.16-27.16,30.74-46.02,33.62-61.17,1.93-10.19,3.33-17.54,11.27-25.48,1.81-1.81,3.64-3.38,5.49-4.72,20.55,1.99,37.16,9.45,51.95,23.8,14.81,14.36,22.09,33.25,23.78,51.94-1.42,1.94-2.99,3.78-4.7,5.48h.01Zm10.31-19.57c-4.23,.13-7.77-3.2-7.9-7.43-.13-4.23,3.2-7.77,7.43-7.9h.46c4.23,.13,7.56,3.66,7.43,7.9-.12,4.05-3.38,7.31-7.43,7.43h0Z" fill="#55acee"/><path d="M225.97,91.19c-.96,0-1.74-.78-1.73-1.74,0-.25,.06-.5,.16-.73,1.81-3.88,5.14-8.89,7.49-12.25-4.6,.44-10.27-.6-12.72-6.29-2.76-6.44-.16-14.52,1.69-18.86-5.21,.65-15.03,1.02-19.53-4.38-4.2-5.01-3.26-13.17-2.17-18.01-4.65,2.17-12.83,5.06-19,2.4-3.35-1.45-5.54-3.72-6.48-6.71-.62-2.14-.69-4.4-.2-6.58-3.45,2.69-8.22,5.82-13.25,7.27-.91,.27-1.87-.24-2.14-1.16v-.03c-.26-.92,.27-1.88,1.19-2.15,8.71-2.52,16.99-11,17.07-11.09,.67-.69,1.77-.7,2.46-.04,.58,.56,.7,1.46,.27,2.15-.03,.07-3.56,5.94-2.08,10.59,.64,2.01,2.13,3.51,4.54,4.56,7.29,3.16,19.32-4,19.46-4.07,.82-.5,1.89-.24,2.39,.58,.27,.45,.33,.99,.15,1.49-.05,.13-4.4,12.77,.46,18.58,4.01,4.79,15.43,3.55,19.5,2.67,.66-.15,1.35,.11,1.76,.66,.41,.54,.46,1.28,.13,1.88-.07,.11-6.24,11.38-3.02,18.89,2.92,6.8,12.59,3.52,13,3.38,.91-.32,1.9,.16,2.21,1.07,.19,.54,.1,1.14-.25,1.6-.07,.09-6.99,9.37-9.77,15.32-.28,.61-.89,1.01-1.57,1.01h-.02Z" fill="#a8bfcc"/></svg>