<?xml version="1.0" encoding="utf-8"?>
<!-- Generator: Adobe Illustrator 26.0.3, SVG Export Plug-In . SVG Version: 6.00 Build 0)  -->
<svg version="1.1" id="Layer_1" xmlns="http://www.w3.org/2000/svg" xmlns:xlink="http://www.w3.org/1999/xlink" x="0px" y="0px"
	 viewBox="0 0 650 685" style="enable-background:new 0 0 650 685;" xml:space="preserve">
<g>
	<path style="fill:#FF0000;" d="M305.21,679l7.53-144.45c0.26-5.65-4.15-10.49-9.84-10.75c-0.15-0.01-0.3-0.01-0.46-0.01
		c-0.58,0-1.18,0.05-1.75,0.15l-147.05,25.84l21.65-59.74c0.83-2.23,0.15-4.7-1.68-6.18L15.64,355.91l41.43-19.35
		c2.47-1.17,3.71-4.03,2.85-6.65L27.24,229.4l95.89,20.35c0.35,0.07,0.73,0.11,1.1,0.11c2.19,0,4.17-1.3,5.03-3.32l19.95-46.91
		l73.48,78.86c1.02,1.07,2.43,1.68,3.95,1.68c1.41,0,2.75-0.53,3.77-1.5c1.37-1.29,1.97-3.17,1.61-5.01L197.03,93.21l62.24,35.97
		c0.87,0.51,1.83,0.77,2.79,0.77c1.94,0,3.76-1.04,4.75-2.71c0.06-0.1,0.1-0.17,0.13-0.23L325,12.98l58,113.91
		c0.95,1.91,2.84,3.07,4.93,3.07c0.85,0,1.67-0.2,2.44-0.58c0.15-0.07,0.21-0.11,0.27-0.14l62.31-36.01l-34.99,180.45
		c-0.57,2.96,1.38,5.84,4.35,6.42c0.34,0.07,0.69,0.1,1.03,0.1c1.5,0,2.95-0.62,3.98-1.71l73.44-78.83l19.95,46.92
		c0.86,2,2.84,3.31,5.03,3.31c0.37,0,0.75-0.04,1.12-0.12l95.88-20.34l-32.68,100.5c-0.86,2.63,0.37,5.49,2.87,6.67l41.41,19.32
		L476.38,483.85c-1.82,1.47-2.5,3.95-1.68,6.16l21.66,59.76l-147.06-25.83c-0.57-0.1-1.16-0.15-1.75-0.15
		c-5.03,0-9.3,3.61-10.16,8.57c-0.13,0.74-0.18,1.48-0.14,2.22L344.79,679H305.21z"/>
	<path style="fill:#FFFFFF;" d="M325,24l53.55,105.16c1.84,3.67,5.54,5.8,9.39,5.8c1.58,0,3.18-0.36,4.68-1.11
		c0.21-0.1,0.41-0.21,0.61-0.33l52.74-30.48l-32.9,169.68c-1.09,5.69,2.63,11.18,8.31,12.28c0.66,0.13,1.32,0.19,1.98,0.19
		c2.85,0,5.61-1.17,7.61-3.27l68.23-73.23l16.94,39.84c1.68,3.91,5.51,6.35,9.63,6.35c0.71,0,1.43-0.07,2.14-0.22l87.42-18.55
		l-30,92.26c-1.64,5.02,0.71,10.48,5.48,12.74L625,357.06l-151.77,122.9c-3.49,2.83-4.78,7.56-3.23,11.77l18.71,51.61L350.16,519
		c-0.88-0.15-1.75-0.22-2.61-0.22c-7.32,0-13.8,5.26-15.09,12.72c-0.19,1.09-0.26,2.2-0.21,3.3l7.27,139.2h-29.04l7.26-139.19
		c0.39-8.45-6.15-15.62-14.6-16.01c-0.23-0.01-0.46-0.02-0.69-0.02c-0.88,0-1.74,0.08-2.61,0.23l-138.55,24.35L180,491.74
		c1.56-4.21,0.26-8.94-3.23-11.77L25,357.06l34.19-15.97c4.78-2.26,7.13-7.72,5.48-12.74l-30-92.26l87.42,18.55
		c0.72,0.15,1.43,0.22,2.14,0.22c4.12,0,7.95-2.44,9.63-6.35l16.94-39.84l68.23,73.23c2.06,2.17,4.83,3.27,7.61,3.27
		c2.59,0,5.18-0.95,7.21-2.87c2.6-2.46,3.76-6.08,3.08-9.59l-32.9-169.68l52.74,30.48c1.67,0.98,3.49,1.44,5.29,1.44
		c3.6,0,7.1-1.86,9.06-5.18c0.12-0.2,0.23-0.4,0.33-0.61L325,24 M325,1.96l-8.91,17.5l-53.55,105.16l-0.05,0.09
		c-0.13,0.21-0.34,0.24-0.43,0.24c-0.08,0-0.15-0.02-0.24-0.07l-0.03-0.02l-0.03-0.02l-52.74-30.48l-19-10.98l4.18,21.54
		l32.9,169.68c0.03,0.15-0.02,0.32-0.14,0.42c-0.05,0.04-0.14,0.14-0.33,0.14c-0.19,0-0.29-0.09-0.34-0.13l-68.19-73.18
		l-10.49-11.26l-6.02,14.17l-16.94,39.84c-0.09,0.21-0.32,0.27-0.42,0.27c-0.03,0-0.06,0-0.1-0.01l-87.39-18.54l-16.94-3.59
		l5.36,16.47l30,92.26c0.08,0.26-0.03,0.5-0.24,0.61L20.77,348l-14.49,6.77l12.43,10.06l151.77,122.91
		c0.16,0.13,0.22,0.33,0.15,0.52l-0.01,0.03l-0.01,0.03l-18.71,51.62L146,556.2l17.02-2.99l138.55-24.35
		c0.28-0.05,0.58-0.07,0.88-0.07c0.08,0,0.16,0,0.24,0.01c2.91,0.13,5.18,2.61,5.06,5.53l-7.26,139.16L299.94,684h10.54h29.04h10.54
		l-0.55-10.52l-7.27-139.16c-0.01-0.37,0.01-0.74,0.07-1.1c0.45-2.58,2.65-4.44,5.24-4.44c0.3,0,0.61,0.03,0.92,0.08l138.51,24.33
		l17.02,2.99l-5.89-16.25l-18.71-51.61c-0.09-0.25-0.03-0.46,0.13-0.59l151.76-122.9l12.43-10.07l-14.5-6.76l-34.14-15.93
		c-0.22-0.11-0.33-0.36-0.25-0.59l30-92.27l5.36-16.47l-16.94,3.59l-87.42,18.55c0,0-0.04,0-0.07,0c-0.12,0-0.34-0.06-0.44-0.3
		l-16.92-39.8l-6.02-14.17l-10.49,11.26l-68.18,73.17c-0.09,0.09-0.22,0.14-0.35,0.14c-0.03,0-0.05,0-0.08-0.01
		c-0.27-0.05-0.44-0.31-0.39-0.58l32.9-169.66l4.18-21.54l-19,10.98l-52.74,30.48l-0.06,0.03l-0.02,0.01
		c-0.07,0.04-0.14,0.05-0.21,0.05c-0.07,0-0.32-0.02-0.44-0.27l-0.02-0.03l-0.02-0.03L333.91,19.46L325,1.96L325,1.96z"/>
</g>
</svg>
