<?xml version="1.0" encoding="UTF-8"?><svg id="Layer_1" xmlns="http://www.w3.org/2000/svg" viewBox="0 0 250 250"><g><g><g><g><g><g><path d="M126.56,235.93c-.75,0-1.44-.42-1.78-1.09l-13.11-25.51c-.08-.15-.14-.32-.17-.48-.96-4.34-2.66-8.76-3.75-9.85-.49,.6-1.72,2.72-3.07,9.66-1.04,5.35-6.49,20.03-6.72,20.65-.17,.45-.5,.83-.92,1.06-.24,.13-5.91,3.17-12.42,3.17-7.53,0-16.85-3.96-18.52-22.82-.06-.64-.08-1.51-.11-2.62-.23-8.91-1.33-13.42-3.25-13.42-.55,0-2.17,.34-5.28,3.46-1.34,1.35-6.27,5.75-13.15,5.75-4.25,0-10.45-1.78-16.24-10.1-.43,.01-.94,.03-1.52,.03-5.01,0-9.2-1.08-12.45-3.22-5.24-3.44-7.89-9.37-7.89-17.62,0-8.02,2.92-34.67,40.29-40.94,7.83-1.32,22.81-7.81,27.98-12.91,13.39-13.2,27.27-19.9,41.27-19.9,25.76,0,46.42,22.55,58.76,36.02l.2,.21c9.45,10.31,27.89,28.57,45.22,34.92,.16,.05,.42,.12,.75,.2,2.31,.57,6.17,1.53,6.57,4.5,.37,2.74-2.5,4.74-5.05,6.18-.68,.38-1.52,.54-2.41,.71-.08,.02-.17,.03-.27,.05,.81,.68,2.33,1.77,5.12,3.41,.24,.14,1.03,.46,1.72,.74,3.73,1.5,8.38,3.37,8.33,6.77-.04,2.76-3.15,4.23-5.48,5.09-.73,.27-1.49,.3-2,.3-.13,0-.26,0-.39,0,.39,.63,1.01,1.52,2,2.79,.17,.22,17.18,22.24,14.68,30.3-.45,1.47-1.51,2.53-2.96,3-2.57,.82-80.56,1.33-113.97,1.51h-.01Z" fill="#58382d"/><path d="M115.76,101.24c25.01,0,45.06,22.03,57.48,35.59,10.22,11.15,28.57,29.05,46.01,35.45,1.47,.54,11.52,1.87,1.97,7.25-1.88,1.06-10.5,.05,2.41,7.64,2.08,1.22,15.82,4.94,4.89,8.99-.37,.14-.83,.18-1.3,.18-.55,0-1.13-.05-1.63-.05-1.74,0-2.58,.61,1.66,6.06,4.89,6.29,19.67,27.93,12.68,30.17-2.56,.82-113.37,1.42-113.37,1.42l-13.11-25.51s-2.56-11.58-5.74-11.59c-1.59,0-3.33,2.86-4.99,11.45-1.02,5.25-6.63,20.34-6.63,20.34,0,0-5.39,2.93-11.47,2.93-7.05,0-15.02-3.94-16.52-20.99-.31-3.55,.44-17.86-5.35-17.86-1.65,0-3.82,1.16-6.7,4.05-2.46,2.47-6.76,5.17-11.73,5.17s-10.2-2.5-15.19-10.13c-.02,0-.03,0-.05,0-.48,0-1.36,.06-2.51,.06-5.82,0-18.35-1.43-18.34-18.83,0-7.12,2.38-32.89,38.62-38.97,7.89-1.33,23.35-7.84,29.05-13.46,14.26-14.06,27.65-19.32,39.87-19.32m0-4c-14.54,0-28.9,6.89-42.68,20.47-4.85,4.78-19.51,11.12-26.91,12.37-16.61,2.79-28.6,9.82-35.61,20.9-5.51,8.71-6.34,17.53-6.34,22.01,0,6.16,1.52,14.51,8.79,19.29,3.59,2.35,8.15,3.55,13.55,3.55,.18,0,.35,0,.51,0,6.11,8.27,12.68,10.07,17.25,10.07,7.65,0,13.08-4.85,14.57-6.34,1.89-1.9,3.04-2.55,3.56-2.76,.57,.92,1.35,3.61,1.55,11.37,.03,1.14,.05,2.04,.12,2.74,1.89,21.44,13.66,24.64,20.51,24.64s13.12-3.27,13.37-3.41c.85-.46,1.5-1.21,1.84-2.12,.59-1.58,5.76-15.55,6.81-20.97,.45-2.34,.88-4.07,1.26-5.35,.61,1.65,1.22,3.68,1.64,5.6,.07,.33,.19,.66,.35,.96l13.11,25.51c.69,1.33,2.06,2.17,3.56,2.17,0,0,.01,0,.02,0,.28,0,28.03-.15,55.74-.4,56.65-.51,57.86-.9,58.83-1.21,2.1-.67,3.61-2.2,4.27-4.31,.78-2.52,.89-6.78-5.25-17.5-3.56-6.21-7.81-12.11-9.76-14.62-.03-.04-.07-.08-.1-.13,1.95-.74,6.34-2.65,6.39-6.79,.07-4.77-5.51-7.01-9.59-8.65-.54-.22-1.28-.51-1.49-.63-.67-.39-1.25-.75-1.76-1.07,2.11-1.24,5.92-3.84,5.38-7.8-.59-4.31-5.46-5.52-8.07-6.17-.24-.06-.44-.11-.59-.15-16.92-6.23-35.07-24.21-44.39-34.38l-.19-.21c-12.57-13.72-33.6-36.67-60.24-36.67h0Z" fill="#fff"/></g><g><path d="M165.29,136.83c-5.72,0-11.08-3.44-15-5.96-.88-.56-1.68-1.08-2.4-1.5-.54-.31-1.15-.68-1.83-1.09-4-2.43-10.04-6.1-15.55-6.1-3.2,0-5.77,1.26-7.87,3.84-2.99,3.69-8.18,5.89-13.88,5.89h0c-4.93,0-9.39-1.68-12.26-4.62-2.38-2.44-3.59-5.65-3.51-9.29,.17-7.35,12.43-23.53,13.83-25.35,.25-.32,.58-.56,.96-.68,.69-.23,17.11-5.57,28.18-5.57,5.8,0,9.28,1.46,10.62,4.45,1.5,3.33,.42,7.58-.94,12.96-.32,1.26-.65,2.56-.96,3.9,13.33,6.25,26.52,24.02,27.1,24.81,.35,.48,.47,1.09,.33,1.66-.14,.58-.53,1.06-1.07,1.32-1.79,.87-3.74,1.32-5.77,1.32Z" fill="#462b22"/><path d="M135.97,88.41c4.31,0,7.72,.86,8.8,3.27,1.64,3.65-.8,9.72-2.38,17.22,13.47,5.36,27.8,24.81,27.8,24.81-1.62,.79-3.26,1.12-4.9,1.12-6.37,0-12.59-4.98-16.4-7.19-3.85-2.23-11.34-7.46-18.38-7.46-3.4,0-6.69,1.22-9.42,4.58-2.76,3.41-7.58,5.15-12.32,5.15-7.05,0-13.95-3.86-13.77-11.86,.16-6.91,13.42-24.18,13.42-24.18,0,0,16.68-5.47,27.55-5.47m0-4c-11.38,0-28.1,5.44-28.8,5.67-.76,.25-1.44,.73-1.93,1.36-2.35,3.06-14.06,18.7-14.25,26.52-.1,4.19,1.31,7.91,4.08,10.74,3.24,3.32,8.23,5.22,13.69,5.22,6.29,0,12.06-2.48,15.43-6.63,1.72-2.12,3.72-3.1,6.31-3.1,4.95,0,10.7,3.49,14.51,5.81,.68,.42,1.31,.79,1.86,1.11,.66,.38,1.47,.9,2.33,1.45,4.13,2.65,9.78,6.27,16.08,6.27,2.34,0,4.58-.51,6.65-1.52,1.07-.52,1.85-1.49,2.13-2.64,.28-1.15,.04-2.37-.66-3.33-.57-.77-13.12-17.68-26.4-24.7,.19-.79,.39-1.56,.58-2.33,1.4-5.53,2.61-10.31,.83-14.27-1.68-3.74-5.87-5.63-12.45-5.63h0Z" fill="#fff"/></g></g><g><g><path d="M91.04,144.09c-5.53,0-8.22-3.56-8.22-10.89s2.76-10.89,8.22-10.89,8.22,3.36,8.22,10.89-2.53,10.89-8.22,10.89Z"/><path d="M91.04,124.3c3.43,0,6.22,1.1,6.22,8.89s-2.78,8.89-6.22,8.89-6.22-1.43-6.22-8.89,2.78-8.89,6.22-8.89m0-4c-3.82,0-10.22,1.68-10.22,12.89,0,5.88,1.77,12.89,10.22,12.89,6.88,0,10.22-4.22,10.22-12.89,0-3.19,0-12.89-10.22-12.89h0Z" fill="#fff"/></g><g><path d="M86.85,137.64c-.25,0-.5-.03-.74-.08-2.69-.57-4.07-4.05-3.21-8.09,.77-3.63,3.02-6.17,5.48-6.17,.25,0,.49,.03,.74,.08,2.69,.57,4.07,4.05,3.21,8.09-.77,3.63-3.02,6.17-5.48,6.17Z" fill="#fff"/><path d="M88.38,125.3c.11,0,.22,.01,.32,.03,1.52,.32,2.27,2.88,1.67,5.72-.56,2.64-2.09,4.59-3.52,4.59-.11,0-.22-.01-.32-.03-1.52-.32-2.27-2.88-1.67-5.72,.56-2.64,2.09-4.59,3.52-4.59m0-4h0c-3.46,0-6.45,3.12-7.43,7.76-.42,2.01-.38,4.05,.11,5.75,.74,2.52,2.43,4.24,4.64,4.71,.38,.08,.76,.12,1.15,.12,3.46,0,6.45-3.12,7.43-7.76,.42-2.01,.38-4.05-.11-5.75-.74-2.52-2.43-4.24-4.64-4.71-.38-.08-.76-.12-1.15-.12h0Z" fill="#fff"/></g></g></g><g><path d="M121.43,235.93c-4.41-.06-7.58-10.08-9.09-16.05-1.93-7.68-3.44-12.76-4.49-15.16-.73,2.43-1.58,7.4-2.54,14.83-1.13,8.75-7.7,13.97-17.58,13.97-7.56,0-14.93-3.11-16.78-7.08-.34-.73-.21-1.6,.34-2.2,.39-.42,.92-.64,1.47-.64,.23,0,.47,.04,.69,.12,4.51,1.67,8.19,2.48,11.25,2.48,3.39,0,6.03-1.02,8.06-3.12,4.13-4.26,6.09-13.41,5.84-27.19-1.84,.02-3.46,.03-4.92,.03-6.65,0-9.98-.25-13.71-1.01-4.92-1.01-8.17-2.22-8.06-4.87,.1-2.45,2.91-3.74,10.02-4.61,18.67-2.28,26.77-6.58,35.01-26.22,1.56-3.71,3.34-5.59,5.29-5.59,1.25,0,3.37,.71,3.45,5.49,.14,8.45-.92,19.63-10.3,31.71,5.55,12.37,17.66,29.78,27.44,41.83,.49,.6,.58,1.42,.25,2.12s-1.03,1.14-1.81,1.14h-19.86Z" fill="#371e19"/><path d="M122.26,155.63c.83,0,1.41,1.14,1.45,3.53,.14,8.31-.97,19.47-10.61,31.38,5.38,12.58,17.98,30.79,28.2,43.39h-19.86c-2.92-.04-6.19-10.74-7.15-14.54-3.02-11.98-4.98-17.94-6.58-17.94s-2.83,5.97-4.37,17.84c-1.18,9.11-8.42,12.23-15.59,12.23-6.78,0-13.5-2.79-14.96-5.93,4.38,1.62,8.4,2.61,11.94,2.61,10.41,0,16.68-8.51,15.85-34.33-2.66,.04-4.91,.06-6.86,.06-6.75,0-9.82-.25-13.31-.97-9.46-1.94-8.26-4.3,1.8-5.53,19.85-2.42,28.24-7.49,36.62-27.43,1.2-2.86,2.49-4.36,3.44-4.36m0-4h0c-2.83,0-5.23,2.29-7.13,6.81-7.93,18.88-15.3,22.8-33.41,25.01-5.6,.68-11.59,1.81-11.78,6.51-.2,4.89,6.21,6.2,9.66,6.91,3.88,.8,7.31,1.05,14.11,1.05,.89,0,1.85,0,2.93-.01,.04,12.12-1.74,20.11-5.3,23.78-1.66,1.71-3.76,2.51-6.62,2.51s-6.27-.77-10.55-2.36c-.45-.17-.92-.25-1.39-.25-1.1,0-2.17,.45-2.94,1.29-1.1,1.19-1.37,2.93-.68,4.4,2.49,5.35,11.44,8.24,18.59,8.24,10.81,0,18.3-6.02,19.56-15.72,.38-2.92,.72-5.32,1.03-7.27,.59,2.07,1.27,4.64,2.08,7.84,.57,2.27,1.7,6.04,3.02,9.23,1.69,4.09,3.95,8.28,7.95,8.33,.02,0,.04,0,.05,0h19.86c1.54,0,2.95-.89,3.61-2.28,.66-1.39,.47-3.04-.5-4.24-9.42-11.61-21-28.2-26.67-40.32,9.18-12.38,10.12-24.11,9.98-32-.12-6.92-4.2-7.46-5.45-7.46h0Z" fill="#fff"/></g></g><g><g><path d="M28.41,193.03c-4.16,0-6.87-.77-6.98-.8-.86-.25-1.45-1.03-1.45-1.93,0-.89,.6-1.68,1.46-1.92,.14-.04,14.47-4.25,24.05-17.34,2.63-3.6,5.76-5.59,8.8-5.59,2.39,0,4.39,1.27,5.35,3.39,1.37,3.04,.3,7-2.87,10.6-9.91,11.23-20.89,13.59-28.35,13.59h0Z" fill="#371e19"/><path d="M54.28,167.46c3.98,0,5.94,5.04,.98,10.66-9.61,10.89-20.25,12.92-26.85,12.92-3.93,0-6.43-.72-6.43-.72,0,0,14.99-4.24,25.12-18.09,2.48-3.39,5.11-4.77,7.19-4.77m0-4c-3.7,0-7.4,2.28-10.42,6.41-9.14,12.5-22.85,16.56-22.99,16.6-1.71,.49-2.9,2.06-2.9,3.85,0,1.78,1.18,3.35,2.89,3.84,.31,.09,3.17,.88,7.54,.88,7.87,0,19.44-2.48,29.85-14.27,3.71-4.2,4.9-8.96,3.2-12.74-1.27-2.81-4.02-4.56-7.17-4.56h0Z" fill="#fff"/></g><g><path d="M20.49,183.75c-2.09,0-3.68-.89-4.36-2.45-.47-1.09-.83-3.37,2.06-6.47,2.12-2.27,2.99-6.77,2.67-8.87-.55-3.56,.27-7.02,2.18-9.25,1.25-1.46,2.85-2.26,4.49-2.26,1.53,0,6.54,.83,7.01,11.5,.33,7.5-2.66,13.12-8.65,16.27-1.92,1.01-3.79,1.54-5.4,1.54h0Z" fill="#371e19"/><path d="M27.54,156.44c2.34,0,4.71,2.73,5.01,9.59,.38,8.65-3.98,12.52-7.58,14.41-1.73,.91-3.27,1.31-4.47,1.31-2.9,0-3.84-2.35-.83-5.56,2.53-2.71,3.6-7.82,3.19-10.54-.82-5.35,1.92-9.21,4.7-9.21m0-4c-2.24,0-4.38,1.05-6.01,2.96-2.32,2.71-3.28,6.66-2.64,10.86,.25,1.65-.56,5.49-2.16,7.2-3.67,3.94-3.1,7.1-2.43,8.64,.99,2.29,3.31,3.66,6.19,3.66,1.94,0,4.13-.61,6.34-1.77,6.72-3.53,10.08-9.8,9.72-18.13-.17-3.86-.95-6.98-2.31-9.25-1.59-2.65-4.03-4.17-6.7-4.17h0Z" fill="#fff"/></g></g></g><g><path d="M104.44,125.05c-6.72,0-11.2-2.86-11.68-7.46-.19-1.78-.21-3.45-.23-5.06-.09-7.27-.15-12.52-17.17-18.48-33.15-11.61-43.29-26.36-52.24-39.37l-.49-.71c-5.19-7.54-6.82-14.04-4.58-18.3,1.29-2.45,3.79-3.86,6.86-3.86,4.59,0,9.97,3.09,14.41,8.27,15.47,18.07,21.34,20.02,23.15,20.02,.58,0,.83-.21,1.04-.54,1.81-2.85-.25-12.68-4.58-21.92-2.55-5.44-2.75-10.77-.53-14.27,1.39-2.19,3.66-3.45,6.21-3.45,6.2,0,12.8,6.94,17.64,18.58,12.83,30.79,24.43,33.19,27.69,33.19h0c2.6,0,4.89-1.19,6.81-3.54,5.26-6.42,6.6-19.97,3.5-35.36-1.33-6.59-.31-12.55,2.79-16.34,1.93-2.36,4.48-3.66,7.19-3.66,4.62,0,10.07,3.88,11.53,14.75,2.7,20.16,6.82,21.72,8.02,21.72,1.78,0,6.93-2.46,16.21-25.27,2.14-5.27,6.09-8.42,10.55-8.42,3.02,0,5.81,1.45,7.47,3.88,1.65,2.42,1.93,5.52,.77,8.5-3.65,9.35-3.33,13.16-2.88,13.93,1.29-.14,6.2-3.4,13.79-16.79,1.62-2.86,4.84-4.58,8.61-4.58s7.54,1.87,8.97,4.64c.71,1.37,1.51,4.21-1.04,7.8-6.4,9-7.04,12.47-7.06,13.47,2.62-.42,9.73-5.68,16.36-15.73,1.58-2.4,4.97-4.07,8.25-4.07,2.52,0,4.6,.97,5.86,2.74,1.62,2.26,1.73,5.48,.34,9.57-7.38,21.64-45.69,53.61-91.3,56.53-28.07,1.8-27.58,15.3-27.34,21.8,.05,1.47-.52,2.87-1.65,4.04-2.18,2.26-6.59,3.72-11.25,3.72h0Z" fill="#b89588"/><path d="M130.24,14.8c4.08,0,8.33,3.99,9.54,13.02,2.05,15.26,5.38,23.46,10,23.46s10.71-8.44,18.07-26.51c2.09-5.14,5.56-7.17,8.7-7.17,4.58,0,8.46,4.32,6.38,9.65-4.28,10.96-4.06,16.67-1.08,16.67s8.78-5.78,15.59-17.81c1.4-2.48,4.14-3.56,6.87-3.56,5.12,0,10.2,3.81,6.3,9.29-8.25,11.6-8.79,16.66-5.68,16.66,3.45,0,11.4-6.23,18.28-16.66,1.24-1.88,4.03-3.17,6.58-3.17,3.6,0,6.72,2.57,4.31,9.66-7.54,22.09-46.43,52.42-89.54,55.18-27.28,1.75-29.56,14.16-29.21,23.86,.13,3.48-5.5,5.69-10.91,5.69-4.72,0-9.28-1.68-9.7-5.67-1.05-9.92,3.39-17.48-18.73-25.22-33.12-11.6-42.53-25.94-51.74-39.33-8.33-12.1-5.54-19.03,.64-19.03,3.64,0,8.46,2.41,12.89,7.57,13.02,15.21,20.67,20.72,24.67,20.72,6.44,0,3.47-14.23-1.74-25.3-3.94-8.39-1.23-14.87,3.87-14.86,4.4,0,10.57,4.81,15.79,17.35,10.11,24.28,21.12,34.42,29.54,34.42,10.74,0,17.26-16.53,12.27-41.29-2.21-10.98,2.76-17.6,8.02-17.6m0-4c-3.32,0-6.42,1.56-8.74,4.39-3.48,4.25-4.65,10.81-3.21,18,3.56,17.71,.74,29.02-3.09,33.7-1.55,1.89-3.27,2.81-5.26,2.81-6.06,0-16.03-8.39-25.84-31.96-5.24-12.59-12.35-19.81-19.49-19.81-3.26,0-6.14,1.59-7.9,4.37-2.59,4.08-2.44,10.13,.41,16.19,4.46,9.5,5.49,17.21,4.89,19.53-1.62-.41-7.26-3.01-21.17-19.25-4.88-5.7-10.69-8.97-15.93-8.97-3.84,0-6.99,1.8-8.63,4.93-3.51,6.68,1.44,15.63,4.7,20.37l.49,.71c9.12,13.26,19.46,28.3,53.22,40.13,15.7,5.5,15.75,9.68,15.83,16.62,.02,1.66,.04,3.37,.24,5.25,.59,5.62,5.96,9.25,13.67,9.25,4.12,0,9.61-1.14,12.69-4.33,1.52-1.58,2.29-3.48,2.21-5.51-.23-6.31-.66-18.06,25.47-19.73,42.9-2.74,84.52-32.82,93.07-57.87,1.61-4.73,1.41-8.56-.6-11.38-1.65-2.31-4.31-3.58-7.49-3.58-3.97,0-7.96,2-9.92,4.97-4.03,6.12-8.1,10.22-11.04,12.54,.98-1.89,2.55-4.5,5.04-8.02,3.17-4.46,2.11-8.1,1.19-9.88-1.79-3.48-6.02-5.73-10.75-5.73-4.5,0-8.37,2.09-10.35,5.59-4.46,7.88-7.96,12.11-10.14,14.17,.31-2,1.09-5.12,2.83-9.59,1.41-3.6,1.05-7.37-.98-10.35-2.03-2.98-5.44-4.76-9.12-4.76h0c-5.31,0-9.94,3.61-12.4,9.66-9.2,22.6-13.93,23.94-14.34,24.02-.33-.16-3.69-2.27-6.06-19.99-.67-4.98-2.2-8.98-4.55-11.88-2.41-2.97-5.59-4.6-8.95-4.6h0Z" fill="#fff"/></g></g><g><g><g><g><g><path d="M8.22,173.63c0-7.12,2.38-32.89,38.62-38.97,7.89-1.33,23.35-7.84,29.05-13.46,43.46-42.86,78.87-3.91,97.35,16.27,10.22,11.15,28.57,29.05,46.01,35.45,1.47,.54,11.52,1.87,1.97,7.25-1.88,1.06-10.5,.05,2.41,7.64,2.08,1.22,15.82,4.94,4.89,8.99-2.33,.86-7.78-2.19-1.28,6.18,4.89,6.29,19.67,27.93,12.68,30.17-2.56,.82-113.37,1.42-113.37,1.42l-13.11-25.51s-5.73-25.97-10.73-.14c-1.02,5.25-6.63,20.34-6.63,20.34,0,0-25.19,13.66-27.99-18.07-.4-4.57,.96-26.87-12.05-13.82-4.83,4.85-16.76,10.57-26.93-4.96-2.72-.03-20.92,2.18-20.9-18.78Z" fill="#58382d"/><path d="M95,118.7c-.31,13.4,19.23,15.17,26.09,6.71,8.38-10.33,22.08-.43,27.8,2.88,4.79,2.77,13.39,9.92,21.3,6.07,0,0-14.32-19.45-27.8-24.81,1.58-7.5,4.02-13.57,2.38-17.22-3.81-8.48-36.35,2.2-36.35,2.2,0,0-13.26,17.27-13.42,24.18Z" fill="#462b22"/></g><g><ellipse cx="91.04" cy="133.83" rx="6.22" ry="8.89"/><ellipse cx="87.61" cy="131.1" rx="5.25" ry="2.82" transform="translate(-58.79 189.67) rotate(-78.05)" fill="#fff"/></g></g><path d="M72.78,226.23c3.01,6.46,28.26,11.43,30.56-6.3,3.07-23.74,4.92-23.86,10.95,.1,.96,3.8,4.23,14.5,7.15,14.54h19.86c-10.22-12.6-22.82-30.81-28.2-43.39,9.64-11.91,10.75-23.07,10.61-31.38-.09-5.12-2.65-4.51-4.89,.83-8.37,19.94-16.77,25.01-36.62,27.43-10.06,1.23-11.26,3.59-1.8,5.53,4.49,.92,8.29,1.08,20.17,.91,1.11,34.61-10.53,38.12-27.79,31.73Z" fill="#371e19"/></g><g><path d="M21.98,190.94s17.96,5.17,33.28-12.2c7.56-8.57-.94-15.77-8.17-5.89-10.13,13.85-25.12,18.09-25.12,18.09Z" fill="#371e19"/><path d="M19.65,176.82c-4.25,4.55-.61,7.36,5.31,4.25,3.6-1.89,7.96-5.76,7.58-14.41-.66-15.01-11.22-10.24-9.71-.38,.42,2.72-.66,7.84-3.19,10.54Z" fill="#371e19"/></g></g><path d="M94.74,118.02c.9,8.55,20.84,6.5,20.6-.02-.35-9.7,1.93-22.12,29.21-23.86,43.11-2.76,82-33.09,89.54-55.18,4.13-12.1-7.88-11.04-10.88-6.49-13.06,19.82-30.01,24.49-12.6,0,5.97-8.4-9.13-12.87-13.17-5.73-13.58,23.99-23.09,23.12-14.51,1.15,3.51-8.99-9.95-15.1-15.08-2.48-14.6,35.88-23.94,33.8-28.06,3.05-2.77-20.68-21.49-14.91-17.56,4.58,8.89,44.15-18.79,62.14-41.81,6.87-11.28-27.08-27-18.11-19.66-2.48,8.44,17.97,11.01,44.23-22.94,4.59-11.94-13.95-26.76-7.77-13.53,11.45,9.21,13.38,18.62,27.73,51.74,39.33,22.11,7.75,17.68,15.31,18.73,25.22Z" fill="#b89588"/></g></svg>