<?xml version="1.0" encoding="UTF-8"?><svg id="Layer_1" xmlns="http://www.w3.org/2000/svg" viewBox="0 0 250 250"><g><g><g><g><path d="M30.77,79.18c-14.34,0-26-11.67-26-26s11.67-26,26-26,26,11.67,26,26-11.67,26-26,26Z" fill="#dad8db"/><path d="M30.77,30.11c12.74,0,23.06,10.32,23.06,23.06s-10.32,23.06-23.06,23.06S7.71,65.91,7.71,53.17s10.32-23.06,23.06-23.06m0-5.89c-15.96,.01-28.95,12.99-28.95,28.95s12.99,28.95,28.95,28.95,28.95-12.99,28.95-28.95-12.99-28.95-28.95-28.95h0Z" fill="#fff"/></g><g><path d="M30.77,79.18c-14.34,0-26-11.67-26-26,.33-9.94,4.5-15.24,7.61-18.38l.7-.71,.98-.14c1.17-.16,2.36-.25,3.54-.25,10.18,0,19.52,6.32,23.24,15.72,3.87,9.78,.86,20.6-8.05,28.95l-.85,.8h-1.17Z" fill="#c7c5c9"/><path d="M17.59,36.65c18.26,0,31.48,22.43,13.18,39.59-12.74,0-23.06-10.32-23.06-23.06,.27-8.05,3.23-12.75,6.75-16.31,1.06-.15,2.1-.22,3.13-.22m0-5.89h0c-1.31,0-2.64,.09-3.94,.27l-1.97,.27-1.4,1.41c-5.49,5.54-8.18,11.98-8.46,20.25v.2c0,15.96,12.99,28.95,28.95,28.95h2.33l1.7-1.59c9.82-9.21,13.11-21.24,8.78-32.18-4.16-10.52-14.6-17.58-25.98-17.58h0Z" fill="#fff"/></g></g><g><g><circle cx="219.23" cy="53.17" r="26" fill="#dad8db"/><path d="M219.23,30.11c12.74,0,23.06,10.32,23.06,23.06s-10.32,23.06-23.06,23.06-23.06-10.32-23.06-23.06,10.32-23.06,23.06-23.06m0-5.89c-15.96,0-28.95,12.99-28.95,28.95s12.99,28.95,28.95,28.95,28.95-12.99,28.95-28.95-12.99-28.95-28.95-28.95h0Z" fill="#fff"/></g><g><path d="M218.07,79.18l-.85-.8c-8.91-8.35-11.92-19.18-8.05-28.95,3.72-9.4,13.06-15.72,23.24-15.72,1.17,0,2.36,.08,3.54,.25l.98,.14,.7,.71c3.11,3.14,7.28,8.44,7.6,18.28,0,14.44-11.66,26.1-26,26.1h-1.16Z" fill="#c7c5c9"/><path d="M232.41,36.65c1.03,0,2.07,.07,3.13,.22,3.53,3.56,6.49,8.26,6.75,16.31,0,12.74-10.32,23.06-23.06,23.06-18.3-17.15-5.09-39.59,13.18-39.59m0-5.89c-11.38,0-21.82,7.07-25.98,17.58-4.33,10.94-1.05,22.98,8.78,32.18l1.7,1.59h2.33c15.96,0,28.95-12.99,28.95-28.95v-.2c-.28-8.27-2.97-14.71-8.46-20.25l-1.4-1.41-1.97-.27c-1.31-.18-2.63-.27-3.94-.27h0Z" fill="#fff"/></g></g></g><g><g><g><g><g><g><g><circle cx="125.13" cy="125" r="110.36" fill="#dad8db"/><path d="M125.13,17.58c59.33,0,107.42,48.09,107.42,107.42s-48.09,107.42-107.42,107.42S17.71,184.33,17.71,125,65.8,17.58,125.13,17.58m0-5.89c-30.27,0-58.72,11.79-80.12,33.19C23.6,66.28,11.82,94.73,11.82,125s11.79,58.72,33.19,80.12,49.85,33.19,80.12,33.19,58.72-11.79,80.12-33.19c21.4-21.4,33.19-49.85,33.19-80.12s-11.79-58.72-33.19-80.12c-21.4-21.4-49.85-33.19-80.12-33.19h0Z" fill="#fff"/></g><g><path d="M125.13,235.36c-26.65,0-49.46-11.27-65.96-32.6-15.47-19.99-23.98-47.61-23.98-77.76s8.52-57.77,23.98-77.76C75.67,25.91,98.48,14.64,125.13,14.64c60.85,0,110.36,49.51,110.36,110.36s-49.51,110.36-110.36,110.36Z" fill="#eceaec"/><path d="M125.13,17.58c59.19,0,107.42,48.09,107.42,107.42s-47.95,107.42-107.42,107.42c-53.69,0-87-48.09-87-107.42S71.44,17.58,125.13,17.58m0-5.89c-13.99,0-27.08,3.06-38.91,9.08-11.27,5.74-21.15,14.04-29.37,24.66-15.86,20.5-24.6,48.76-24.6,79.56s8.74,59.06,24.6,79.56c8.22,10.63,18.1,18.92,29.37,24.66,11.83,6.03,24.93,9.08,38.91,9.08,30.32,0,58.79-11.79,80.18-33.19,21.37-21.38,33.13-49.84,33.13-80.12,0-62.48-50.83-113.31-113.31-113.31h0v.02Z" fill="#fff"/></g></g><g><path d="M79.58,120.46c-5.9,0-10.69-4.8-10.69-10.69s4.8-10.69,10.69-10.69,10.69,4.8,10.69,10.69-4.8,10.69-10.69,10.69Z" fill="#4b3f4e"/><path d="M79.58,102.02c4.28,0,7.75,3.47,7.75,7.75s-3.47,7.75-7.75,7.75-7.75-3.47-7.75-7.75,3.47-7.75,7.75-7.75m0-5.89c-7.52,0-13.64,6.12-13.64,13.64s6.12,13.64,13.64,13.64,13.64-6.12,13.64-13.64-6.12-13.64-13.64-13.64h0Z" fill="#fff"/></g><g><path d="M170.44,120.46c-5.9,0-10.69-4.8-10.69-10.69s4.8-10.69,10.69-10.69,10.69,4.8,10.69,10.69-4.8,10.69-10.69,10.69Z" fill="#4b3f4e"/><path d="M170.44,102.02c4.28,0,7.75,3.47,7.75,7.75s-3.47,7.75-7.75,7.75-7.75-3.47-7.75-7.75,3.47-7.75,7.75-7.75m0-5.89c-7.52,0-13.64,6.12-13.64,13.64s6.12,13.64,13.64,13.64,13.64-6.12,13.64-13.64-6.12-13.64-13.64-13.64h0Z" fill="#fff"/></g></g><g><path d="M109.19,116.73s-21.95,11.99-21.95,32.57l-.08,27.07c0,15.84,21.23,16.63,21.23,16.63" fill="none" stroke="#fff" stroke-miterlimit="10" stroke-width="5.89"/><path d="M140.59,116.73s21.95,11.99,21.95,32.57l.08,27.07c0,15.84-21.23,16.63-21.23,16.63" fill="none" stroke="#fff" stroke-miterlimit="10" stroke-width="5.89"/></g></g><path d="M104.91,192.2s11.99,2.55,20.09-4.05c6.38,6.25,19.65,4.05,19.65,4.05" fill="none" stroke="#fff" stroke-miterlimit="10" stroke-width="5.89"/></g><path d="M88.69,183.62c11.33,36.95,59.24,37.81,72.66,0" fill="none" isolation="isolate" opacity=".85" stroke="#fff" stroke-miterlimit="10" stroke-width="5.89"/></g><g><g><rect x="103.25" y="152.17" width="43.33" height="32.42" rx="15.94" ry="15.94" fill="#4b3f4e"/><path d="M130.64,155.11c7.15,0,13,5.85,13,13v.54c0,7.15-5.85,13-13,13h-11.45c-7.15,0-13-5.85-13-13v-.54c0-7.15,5.85-13,13-13h11.45m0-5.89h-11.45c-10.41,0-18.89,8.47-18.89,18.89v.54c0,10.41,8.47,18.89,18.89,18.89h11.45c10.41,0,18.89-8.47,18.89-18.89v-.54c0-10.41-8.47-18.89-18.89-18.89h0Z" fill="#fff"/></g><g><path d="M123.99,176.85c-5.9,0-13.4-7.44-13.4-15.81l.14-6.75,1.71-.76c1.41-.63,3.68-1.37,6.51-1.37h11.94c8.66,0,15.7,7.04,15.7,15.7v1.03c-.04,2.9-.56,5.17-1.5,6.59l-.87,1.3-20.22,.07h-.01Z" fill="#5d5360"/><path d="M130.89,155.11c7.02,0,12.75,5.74,12.75,12.75v1.03c-.03,2.57-.49,4.18-1.01,4.95l-18.65,.06c-3.89,0-10.45-5.85-10.45-12.86l.1-4.82c.89-.4,2.8-1.12,5.31-1.12h11.94m0-5.89h-11.94c-3.35,0-6.04,.88-7.7,1.63l-3.42,1.52-.08,3.74-.1,4.82v.12c0,10.1,8.98,18.75,16.34,18.75l18.66-.06h3.14l1.74-2.62c1.28-1.92,1.95-4.66,1.99-8.14v-1.11c0-10.28-8.36-18.64-18.64-18.64h0Z" fill="#fff"/></g></g></g></g><g><g><g><circle cx="30.77" cy="53.17" r="23.06" fill="#adadad"/><path d="M30.77,76.24c-12.74,0-23.06-10.32-23.06-23.06,.27-8.05,3.23-12.75,6.75-16.31,19.8-2.76,35.64,21.25,16.31,39.37Z" fill="#939393"/></g><g><circle cx="219.23" cy="53.17" r="23.06" fill="#adadad"/><path d="M219.23,76.24c12.74,0,23.06-10.32,23.06-23.06-.27-8.05-3.23-12.75-6.75-16.31-19.8-2.76-35.64,21.25-16.31,39.37Z" fill="#939393"/></g></g><g><g><g><g><g><g><circle cx="125.13" cy="125" r="107.42" fill="#b2b2b2"/><path d="M232.55,125c0,59.33-47.95,107.42-107.42,107.42-53.69,0-87-48.09-87-107.42S71.44,17.58,125.13,17.58c59.19,0,107.42,48.09,107.42,107.42h0Z" fill="#eceaec"/></g><circle cx="79.58" cy="109.77" r="7.75" fill="#4b3f4e"/><circle cx="170.44" cy="109.77" r="7.75" fill="#4b3f4e"/></g><g><path d="M109.19,116.73s-21.95,11.99-21.95,32.57l-.08,27.07c0,15.84,21.23,16.63,21.23,16.63" fill="none" stroke="#9b9b9b" stroke-linecap="round" stroke-linejoin="round" stroke-width="7.85"/><path d="M140.59,116.73s21.95,11.99,21.95,32.57l.08,27.07c0,15.84-21.23,16.63-21.23,16.63" fill="none" stroke="#9b9b9b" stroke-linecap="round" stroke-linejoin="round" stroke-width="7.85"/></g></g><path d="M104.91,192.2s11.99,2.55,20.09-4.05c6.38,6.25,19.65,4.05,19.65,4.05" fill="none" stroke="#646266" stroke-linecap="round" stroke-linejoin="round" stroke-width="8.83"/></g><path d="M88.69,183.62c11.33,36.95,59.24,37.81,72.66,0" fill="none" isolation="isolate" stroke="#9b9b9b" stroke-linecap="round" stroke-linejoin="round" stroke-width="7.85"/></g><g><rect x="106.2" y="155.11" width="37.45" height="26.54" rx="13" ry="13" fill="#4b3f4e"/><path d="M142.64,173.85l-18.65,.06c-3.89,0-10.45-5.85-10.45-12.86l.1-4.82c.89-.4,2.8-1.12,5.31-1.12h11.94c7.02,0,12.75,5.74,12.75,12.75v1.03c-.03,2.57-.49,4.18-1.01,4.95h0Z" fill="#5d5360"/></g></g></g></svg>