<?xml version="1.0" encoding="UTF-8"?><svg id="Layer_1" xmlns="http://www.w3.org/2000/svg" viewBox="0 0 250 250"><g id="Group_11"><line id="Line_21" x1="126.58" y1="98.58" x2="126.58" y2="8" fill="none" stroke="#fff" stroke-linecap="round" stroke-linejoin="round" stroke-width="14"/><path id="Path_72" d="M98.9,68.39v27.68h-27.68" fill="none" stroke="#fff" stroke-linecap="round" stroke-linejoin="round" stroke-width="14"/><path id="Path_73" d="M154.26,68.39v27.68h27.68" fill="none" stroke="#fff" stroke-linecap="round" stroke-linejoin="round" stroke-width="14"/><path id="Path_74" d="M73.74,43.22v27.68h-27.68" fill="none" stroke="#fff" stroke-linecap="round" stroke-linejoin="round" stroke-width="14"/><path id="Path_75" d="M179.42,43.22v27.68h27.68" fill="none" stroke="#fff" stroke-linecap="round" stroke-linejoin="round" stroke-width="14"/><line id="Line_22" x1="108.96" y1="106.13" x2="71.22" y2="68.39" fill="none" stroke="#fff" stroke-linecap="round" stroke-linejoin="round" stroke-width="14"/><line id="Line_23" x1="144.19" y1="106.13" x2="181.94" y2="68.39" fill="none" stroke="#fff" stroke-linecap="round" stroke-linejoin="round" stroke-width="14"/><path id="Path_76" d="M88.83,25.61l37.75,37.75,37.75-37.75" fill="none" stroke="#fff" stroke-linecap="round" stroke-linejoin="round" stroke-width="14"/><line id="Line_24" x1="151.74" y1="123.74" x2="242.33" y2="123.74" fill="none" stroke="#fff" stroke-linecap="round" stroke-linejoin="round" stroke-width="14"/><path id="Path_77" d="M224.71,86l-37.75,37.75,37.75,37.75" fill="none" stroke="#fff" stroke-linecap="round" stroke-linejoin="round" stroke-width="14"/><line id="Line_25" x1="101.42" y1="123.74" x2="10.83" y2="123.74" fill="none" stroke="#fff" stroke-linecap="round" stroke-linejoin="round" stroke-width="14"/><path id="Path_78" d="M28.44,161.49l37.75-37.75L28.44,86" fill="none" stroke="#fff" stroke-linecap="round" stroke-linejoin="round" stroke-width="14"/><line id="Line_26" x1="126.58" y1="151.42" x2="126.58" y2="242" fill="none" stroke="#fff" stroke-linecap="round" stroke-linejoin="round" stroke-width="14"/><path id="Path_79" d="M154.26,181.61v-27.68h27.68" fill="none" stroke="#fff" stroke-linecap="round" stroke-linejoin="round" stroke-width="14"/><path id="Path_80" d="M98.9,181.61v-27.68h-27.68" fill="none" stroke="#fff" stroke-linecap="round" stroke-linejoin="round" stroke-width="14"/><path id="Path_81" d="M179.42,206.78v-27.68h27.68" fill="none" stroke="#fff" stroke-linecap="round" stroke-linejoin="round" stroke-width="14"/><path id="Path_82" d="M73.74,206.78v-27.68h-27.68" fill="none" stroke="#fff" stroke-linecap="round" stroke-linejoin="round" stroke-width="14"/><line id="Line_27" x1="144.19" y1="143.87" x2="181.94" y2="181.61" fill="none" stroke="#fff" stroke-linecap="round" stroke-linejoin="round" stroke-width="14"/><line id="Line_28" x1="108.96" y1="143.87" x2="71.22" y2="181.61" fill="none" stroke="#fff" stroke-linecap="round" stroke-linejoin="round" stroke-width="14"/><path id="Path_83" d="M164.33,224.39l-37.75-37.75-37.75,37.75" fill="none" stroke="#fff" stroke-linecap="round" stroke-linejoin="round" stroke-width="14"/><circle id="Ellipse_15" cx="126.58" cy="123.74" r="27.68" fill="#aae1ed" stroke="#fff" stroke-linecap="round" stroke-linejoin="round" stroke-width="14"/></g><g id="Group_11-2"><line id="Line_21-2" x1="126.11" y1="98.58" x2="126.11" y2="8" fill="none" stroke="#3d4993" stroke-linecap="round" stroke-linejoin="round" stroke-width="10"/><path id="Path_72-2" d="M98.43,68.39v27.68h-27.68" fill="none" stroke="#3d4993" stroke-linecap="round" stroke-linejoin="round" stroke-width="10"/><path id="Path_73-2" d="M153.79,68.39v27.68h27.68" fill="none" stroke="#3d4993" stroke-linecap="round" stroke-linejoin="round" stroke-width="10"/><path id="Path_74-2" d="M73.26,43.22v27.68h-27.68" fill="none" stroke="#3d4993" stroke-linecap="round" stroke-linejoin="round" stroke-width="10"/><path id="Path_75-2" d="M178.95,43.22v27.68h27.68" fill="none" stroke="#3d4993" stroke-linecap="round" stroke-linejoin="round" stroke-width="10"/><line id="Line_22-2" x1="108.49" y1="106.13" x2="70.75" y2="68.39" fill="none" stroke="#3d4993" stroke-linecap="round" stroke-linejoin="round" stroke-width="10"/><line id="Line_23-2" x1="143.72" y1="106.13" x2="181.47" y2="68.39" fill="none" stroke="#3d4993" stroke-linecap="round" stroke-linejoin="round" stroke-width="10"/><path id="Path_76-2" d="M88.36,25.61l37.75,37.75,37.75-37.75" fill="none" stroke="#3d4993" stroke-linecap="round" stroke-linejoin="round" stroke-width="10"/><line id="Line_24-2" x1="151.27" y1="123.74" x2="241.86" y2="123.74" fill="none" stroke="#3d4993" stroke-linecap="round" stroke-linejoin="round" stroke-width="10"/><path id="Path_77-2" d="M224.24,86l-37.75,37.75,37.75,37.75" fill="none" stroke="#3d4993" stroke-linecap="round" stroke-linejoin="round" stroke-width="10"/><line id="Line_25-2" x1="100.94" y1="123.74" x2="10.36" y2="123.74" fill="none" stroke="#3d4993" stroke-linecap="round" stroke-linejoin="round" stroke-width="10"/><path id="Path_78-2" d="M27.97,161.49l37.75-37.75L27.97,86" fill="none" stroke="#3d4993" stroke-linecap="round" stroke-linejoin="round" stroke-width="10"/><line id="Line_26-2" x1="126.11" y1="151.42" x2="126.11" y2="242" fill="none" stroke="#3d4993" stroke-linecap="round" stroke-linejoin="round" stroke-width="10"/><path id="Path_79-2" d="M153.79,181.61v-27.68h27.68" fill="none" stroke="#3d4993" stroke-linecap="round" stroke-linejoin="round" stroke-width="10"/><path id="Path_80-2" d="M98.43,181.61v-27.68h-27.68" fill="none" stroke="#3d4993" stroke-linecap="round" stroke-linejoin="round" stroke-width="10"/><path id="Path_81-2" d="M178.95,206.78v-27.68h27.68" fill="none" stroke="#3d4993" stroke-linecap="round" stroke-linejoin="round" stroke-width="10"/><path id="Path_82-2" d="M73.26,206.78v-27.68h-27.68" fill="none" stroke="#3d4993" stroke-linecap="round" stroke-linejoin="round" stroke-width="10"/><line id="Line_27-2" x1="143.72" y1="143.87" x2="181.47" y2="181.61" fill="none" stroke="#3d4993" stroke-linecap="round" stroke-linejoin="round" stroke-width="10"/><line id="Line_28-2" x1="108.49" y1="143.87" x2="70.75" y2="181.61" fill="none" stroke="#3d4993" stroke-linecap="round" stroke-linejoin="round" stroke-width="10"/><path id="Path_83-2" d="M163.85,224.39l-37.75-37.75-37.75,37.75" fill="none" stroke="#3d4993" stroke-linecap="round" stroke-linejoin="round" stroke-width="10"/><circle id="Ellipse_15-2" cx="126.11" cy="123.74" r="27.68" fill="#afbcf2" stroke="#3d4993" stroke-linecap="round" stroke-linejoin="round" stroke-width="10"/></g></svg>