<?xml version="1.0" encoding="UTF-8"?><svg id="Layer_1" xmlns="http://www.w3.org/2000/svg" viewBox="0 0 250 250"><g><g isolation="isolate"><path d="M159.92,51.69c11.86,0,24.35,7.68,28.56,14.26,7.8,12.22,6.35,29.36-6.09,42.42-3.22-4.01-6.82-7.69-10.76-11,9.14-10.18,6.18-19.56,2.41-24.45-2.51-3.25-8.4-5.37-13.77-5.37-2.7,0-5.27,.54-7.21,1.74l-2.41-15.76c2.93-1.29,6.07-1.84,9.27-1.84m0-4v0h0c-3.92,0-7.58,.73-10.88,2.18-1.66,.73-2.62,2.48-2.34,4.27l2.41,15.76c.2,1.33,1.06,2.46,2.28,3.03,.53,.25,1.11,.37,1.68,.37,.73,0,1.46-.2,2.1-.6,1.19-.73,3-1.14,5.11-1.14,4.79,0,9.16,1.94,10.61,3.82,2.11,2.72,6.11,10.06-2.22,19.33-.72,.81-1.09,1.87-1.01,2.95,.08,1.08,.59,2.09,1.42,2.78,3.73,3.13,7.16,6.64,10.21,10.44,.72,.9,1.8,1.44,2.95,1.49,.06,0,.11,0,.17,0,1.09,0,2.14-.45,2.9-1.24,13.16-13.83,15.8-32.85,6.56-47.33-4.96-7.75-18.57-16.11-31.93-16.11h0Z"/></g><g><path d="M83.44,246.9c-11.83,0-22.09-10.69-23.37-24.35-2.38-25.27-4.01-47.2-5.44-73.3-1.42-27.73,8.85-40.57,18.59-50.43,.73-.73,1.93-1.66,3.6-2.93,5.02-3.84,13.42-10.26,15.33-17.03,1.83-6.6,2.25-8.67,2.35-9.28-.08-.57,.09-1.16,.49-1.6,.38-.43,.94-.68,1.51-.68,.06,0,.11,0,.17,0h56.59c.96,0,1.79,.69,1.97,1.64,.61,3.32,1.51,6.61,2.66,9.78,2.47,6.53,8.19,11.3,13.73,15.91,2.09,1.74,4.26,3.54,6.23,5.42,16.36,15.77,18.52,35.73,17.45,49.7-2.26,29.58-3.94,51.92-5.7,75.27,0,.04,0,.07,0,.1-1.5,11.79-11.2,20.95-23.06,21.77-.05,0-.09,0-.14,0H83.44Z"/><path d="M96.49,69.3s0,0,.01,0h-.03s0,0,.01,0m56.76,0c.64,3.44,1.55,6.81,2.74,10.1,3.63,9.62,13.25,15.22,20.46,22.1,15.29,14.74,17.94,33.67,16.83,48.1-2.26,29.58-3.94,51.92-5.7,75.27-1.38,10.88-10.27,19.27-21.21,20.03H83.44c-10.99,0-20.22-10.17-21.38-22.53-2.16-22.97-3.9-45.16-5.43-73.22-1.37-26.69,8.25-39.03,18.01-48.91,2.74-2.77,16.71-11.21,19.43-20.83,2.5-9.01,2.5-10.01,2.43-10.1h56.75m-56.76-4.01c-1.14,0-2.24,.49-3,1.34-.71,.79-1.06,1.82-1.01,2.85-.14,.72-.61,2.9-2.26,8.85-1.73,6.11-10.11,12.53-14.62,15.97-1.73,1.32-2.98,2.28-3.8,3.11-10.04,10.17-20.63,23.4-19.17,51.93,1.43,26.15,3.06,48.1,5.45,73.4,1.37,14.67,12.51,26.16,25.36,26.16h82.94c.09,0,.19,0,.28,0,12.81-.89,23.28-10.78,24.9-23.52,0-.07,.02-.14,.02-.21,1.69-22.49,3.4-45.16,5.7-75.26,1.1-14.39-1.13-34.98-18.05-51.28-2.04-1.94-4.23-3.77-6.35-5.53-5.58-4.64-10.85-9.03-13.14-15.08-1.11-3.06-1.97-6.24-2.56-9.44-.35-1.9-2-3.27-3.93-3.27h-56.52c-.08,0-.16,0-.24,0h0Z"/></g><path d="M149.23,42.06l3.97,27.27h-56.73l4.35-27.27h48.41m0-4h-48.41c-1.97,0-3.64,1.43-3.95,3.37l-4.35,27.27c-.18,1.16,.15,2.34,.91,3.23,.76,.89,1.87,1.4,3.04,1.4h56.73c1.16,0,2.27-.5,3.03-1.38,.76-.88,1.1-2.04,.93-3.19l-3.97-27.27c-.29-1.97-1.97-3.42-3.96-3.42h0Z"/><g><path d="M100.94,44.06c-4.43,0-7.17-1.29-7.17-7.7V15.17c0-4.77,5.6-12.08,12.51-12.08h37.49c5.29,0,12.68,4.48,12.68,11.79v22.36c0,4.61-1.06,6.81-7.1,6.81h-48.41Z"/><path d="M143.77,5.1c4.5,0,10.68,3.87,10.68,9.79v22.36c0,3.73-.34,4.81-5.1,4.81h-48.41c-3.51,0-5.17-.53-5.17-5.7V15.17c0-3.46,4.64-10.08,10.51-10.08h37.49m0-4h-37.49c-8.28,0-14.51,8.54-14.51,14.08v21.19c0,8.6,4.9,9.7,9.17,9.7h48.41c7.55,0,9.1-3.52,9.1-8.81V14.89c0-7.89-7.75-13.79-14.68-13.79h0Z"/></g></g><path d="M188.56,65.95c7.8,12.22,6.35,29.36-6.09,42.42-3.22-4.01-6.82-7.69-10.76-11,9.14-10.18,6.18-19.56,2.41-24.45-3.78-4.88-15.18-7.22-20.98-3.63l-2.41-15.76c13.79-6.06,32.49,4.07,37.83,12.42Z" fill="#fcb116" isolation="isolate" opacity=".1"/><path d="M62.14,222.37c1.15,12.36,10.39,22.53,21.38,22.53h82.94c10.94-.76,19.82-9.15,21.21-20.03,1.76-23.35,3.44-45.69,5.7-75.27,1.11-14.43-1.54-33.35-16.83-48.1-7.21-6.88-16.83-12.48-20.46-22.1-1.19-3.29-2.11-6.66-2.74-10.1h-56.78s.58-.65-2.4,10.1c-2.72,9.62-16.69,18.06-19.43,20.83-9.76,9.88-19.38,22.22-18.01,48.91,1.54,28.06,3.27,50.26,5.43,73.22Z"/><path d="M82.1,206.95c.79,8.42,7.21,15.37,14.6,15.37h56.63c7.44-.54,13.48-6.26,14.43-13.66,1.18-15.94,2.4-31.26,3.87-51.39,1.73-22.63-19.24-44.18-48.1-44.18-24.82,0-46.29,21.64-45.09,43.84,.94,19.17,2.16,34.27,3.66,50.02Z" fill="#fff"/><polygon points="96.55 69.33 153.28 69.33 149.31 42.06 100.9 42.06 96.55 69.33" fill="#fff"/><path d="M101.02,42.06c-3.51,0-5.17-.53-5.17-5.7V15.17c0-3.46,4.64-10.08,10.51-10.08h37.49c4.5,0,10.68,3.87,10.68,9.79v22.36c0,3.73-.34,4.81-5.1,4.81h-48.41Z"/><g><path d="M188.63,65.99c7.79,12.22,6.35,29.34-6.08,42.4-2.65,2.79-13.3-8.13-10.75-10.99,9.14-10.17,6.18-19.55,2.4-24.43s-15.17-7.21-20.97-3.63c-3.39,2.07-5.92-14.12-2.4-15.75,13.78-6.06,32.46,4.06,37.8,12.41Z" fill="#fff"/><g opacity=".9"><path d="M176.41,101.51c-7.22-6.88-16.84-12.49-20.48-22.11-1.19-3.29-2.11-6.67-2.74-10.11h-56.77s.58-.65-2.41,10.11c-2.72,9.63-16.7,18.07-19.44,20.84-9.77,9.87-19.4,22.21-18.02,48.92,1.54,28.08,3.27,50.22,5.44,73.27,1.16,12.37,10.4,22.55,21.39,22.55h83c10.95-.76,19.84-9.16,21.22-20.05,1.76-23.37,3.44-45.72,5.7-75.32,1.11-14.44-1.54-33.38-16.89-48.1Zm-8.66,107.18c-.94,7.42-6.98,13.15-14.44,13.69h-56.74c-7.51,0-13.81-6.95-14.61-15.38-1.49-15.76-2.67-30.87-3.71-50.05-1.2-22.09,20.29-43.87,45.12-43.87,29.09,0,49.98,21.66,48.13,44.18-1.42,20.19-2.57,35.49-3.75,51.42Z" fill="#fcb116"/></g><path d="M81.96,207.01c.79,8.42,7.22,15.38,14.61,15.38h56.67c7.45-.55,13.49-6.26,14.44-13.67,1.18-15.95,2.41-31.28,3.87-51.42,1.73-22.64-19.25-44.21-48.13-44.21-24.83,0-46.32,21.66-45.12,43.87,.94,19.18,2.17,34.29,3.66,50.05Z" fill="#fcb116" isolation="isolate" opacity=".5"/><path d="M123.1,193.39l.75-14.03c.03-.54-.39-1.01-.94-1.03,0,0-.02,0-.03,0h-.26l-14.29,2.41,2.09-5.8c.09-.21,.04-.46-.14-.6l-15.35-12.42,4.02-1.9c.24-.11,.36-.37,.29-.63l-3.08-9.67,9.31,1.97h0c.21,0,.41-.12,.51-.31l1.93-4.57,7.22,7.68c.1,.1,.24,.16,.39,.17,.14,0,.27-.05,.36-.14,.14-.13,.2-.32,.17-.51l-3.42-17.52,6.06,3.49c.09,.02,.18,.02,.26,0,.19,0,.37-.1,.46-.26h0l5.63-11.02,5.63,11.07c.1,.17,.28,.28,.48,.29h.24l6.06-3.49-3.39,17.4c-.04,.29,.15,.57,.43,.63h0c.14,0,.28-.07,.39-.17l7.22-7.65,1.93,4.55c.09,.19,.29,.32,.51,.31h0l9.31-1.97-3.06,9.84c-.06,.26,.05,.53,.29,.65l4.02,1.88-15.35,12.42c-.18,.14-.24,.39-.14,.6l2.09,5.8-14.29-2.41h-.17c-.49,.01-.9,.36-.99,.84v.22l.75,14.03-3.87-.12Z" fill="#d30000"/><polygon points="96.42 69.29 153.19 69.29 150.73 52.42 149.21 42 100.77 42 96.42 69.29" fill="#fcb116" isolation="isolate" opacity=".1"/><path d="M100.89,42c-3.51,0-5.17-.53-5.17-5.7V15.1c0-3.47,4.64-10.08,10.52-10.08h37.52c4.5,0,10.68,3.87,10.68,9.79v22.38c0,3.73-.34,4.81-5.1,4.81h-48.44Z" fill="#fcb116" isolation="isolate" opacity=".55"/><g opacity=".52"><path d="M98.58,215.36c-.76-.3-1.36-.73-1.8-1.3s-.68-1.24-.73-2.03v-.14s2.54,0,2.54,0l.02,.1c.06,.33,.21,.62,.45,.86s.56,.43,.94,.56,.82,.2,1.31,.2,.93-.07,1.29-.2,.64-.32,.84-.57,.29-.53,.29-.86h0c0-.44-.17-.78-.51-1.03s-.91-.45-1.71-.61l-1.36-.28c-1.27-.25-2.23-.68-2.87-1.29s-.97-1.4-.97-2.37h0c0-.8,.22-1.48,.64-2.06s1-1.04,1.74-1.37,1.58-.49,2.54-.49,1.85,.16,2.58,.47,1.29,.75,1.69,1.31,.63,1.22,.67,1.98v.16s-2.54,0-2.54,0l-.02-.11c-.04-.34-.17-.63-.38-.87s-.49-.42-.83-.55-.73-.2-1.18-.2-.85,.07-1.19,.2-.59,.31-.76,.55-.26,.5-.26,.81h0c0,.42,.17,.75,.52,1s.89,.45,1.63,.59l1.37,.28c.9,.18,1.64,.43,2.22,.74s1.01,.71,1.28,1.19,.42,1.06,.42,1.73h0c0,.84-.21,1.55-.62,2.16s-1.01,1.07-1.79,1.4-1.71,.5-2.79,.5c-1.02,0-1.91-.15-2.67-.45Z"/><path d="M111.08,210.77l-4.48-8.08h2.91l2.89,5.5h.06l2.89-5.5h2.92l-4.49,8.08v4.82h-2.7v-4.82Z"/><path d="M119.59,202.69h5.32c.96,0,1.79,.17,2.48,.5s1.22,.8,1.58,1.42,.55,1.35,.55,2.22v.02c0,.85-.21,1.61-.63,2.26s-.99,1.13-1.7,1.41l2.72,5.07h-3.06l-2.39-4.66h-2.16v4.66h-2.7v-12.89Zm5.03,6.17c.67,0,1.19-.18,1.57-.54s.57-.85,.57-1.48v-.02c0-.62-.2-1.11-.59-1.47s-.92-.54-1.59-.54h-2.3v4.06h2.33Z"/><path d="M133.84,215.22c-.81-.4-1.44-.95-1.88-1.68s-.66-1.56-.66-2.51v-8.34h2.7v8.09c0,.55,.11,1.03,.32,1.44s.52,.73,.92,.95,.89,.34,1.47,.34,1.07-.11,1.47-.34,.71-.54,.92-.95,.31-.89,.31-1.44v-8.09h2.7v8.34c0,.95-.22,1.79-.66,2.51s-1.06,1.28-1.87,1.68-1.76,.6-2.87,.6-2.06-.2-2.87-.59Z"/><path d="M144.24,202.69h2.7v12.89h-2.7v-12.89Zm1.36,6.72h3.16c.77,0,1.38-.2,1.8-.59s.64-.96,.64-1.68v-.02c0-.74-.21-1.3-.64-1.69s-1.03-.59-1.8-.59h-3.16v-2.14h3.82c.91,0,1.7,.18,2.38,.55s1.21,.88,1.59,1.54,.57,1.44,.57,2.32v.02c0,.88-.19,1.65-.57,2.31s-.91,1.17-1.59,1.54-1.47,.55-2.38,.55h-3.82v-2.12Z"/></g></g></svg>