<?xml version="1.0" encoding="UTF-8"?><svg id="Layer_1" xmlns="http://www.w3.org/2000/svg" viewBox="0 0 200 200"><g id="Regular-S"><path d="M200,130.19c0-41.21-27.52-69.79-77.85-69.79H58l-34.63,1.61,2.28,5.77,26.58-22.15,28.45-27.65c2.01-1.88,2.95-4.3,2.95-7.38,0-6.31-4.16-10.6-10.6-10.6-2.68,0-5.77,1.21-7.92,3.36L3.91,63.08c-2.42,2.28-3.62,5.1-3.62,8.05s1.21,5.91,3.62,8.19l61.2,59.73c2.15,2.01,5.23,3.36,7.92,3.36,6.44,0,10.6-4.43,10.6-10.74,0-3.09-.94-5.37-2.95-7.25l-28.45-27.65-26.58-22.15-2.28,5.77,34.63,1.61H124.17c36.11,0,54.22,19.46,54.22,46.98s-18.12,48.45-54.22,48.45h-21.34c-6.71,0-11.01,4.83-11.01,10.74s4.3,10.87,11.01,10.87h21.34c49.12,0,75.83-27.51,75.83-68.85Z" fill="#fff"/></g></svg>